<?xml version="1.0" standalone="no"?>
<!DOCTYPE svg PUBLIC "-//W3C//DTD SVG 1.1//EN" "http://www.w3.org/Graphics/SVG/1.1/DTD/svg11.dtd" >
<svg xmlns="http://www.w3.org/2000/svg">
<metadata>Generated by IcoMoon</metadata>
<defs>
<font id="rank-video-games" horiz-adv-x="1024">
<font-face units-per-em="1024" ascent="1194.6666666666665" descent="170.66666666666663" />
<missing-glyph horiz-adv-x="1024" />
<glyph unicode="&#x20;" horiz-adv-x="0" d="" />
<glyph unicode="&#xe900;" glyph-name="2k-sports" d="M986.784 1158.291c-20.72 23.458-50.118 36.376-82.784 36.376h-664c-64.236 0-122.952-51.86-130.886-115.606l-97.766-785.376c-4.036-32.416 5.152-63.186 25.87-86.642 20.718-23.458 50.116-36.376 82.782-36.376h664c64.236 0 122.952 51.86 130.886 115.606l97.766 785.376c4.036 32.416-5.152 63.186-25.868 86.642zM953.114 1079.061l-97.766-785.376c-4.254-34.16-36.926-63.018-71.348-63.018h-664c-15.216 0-28.644 5.716-37.812 16.096-9.166 10.378-13.18 24.41-11.3 39.51l97.764 785.376c4.254 34.16 36.926 63.018 71.348 63.018h664c15.216 0 28.644-5.716 37.812-16.096 9.166-10.378 13.18-24.41 11.302-39.51zM840.31 661.487l-32.622 50.36-255.822-165.71 20.732 166.53h-328.126c13.354 51.7 60.39 90 116.204 90h103.324c74.99 0 136 61.010 136 136s-61.010 136-136 136h-76.684c-99.252 0-180-80.748-180-180h60c0 66.168 53.832 120 120 120h76.684c41.906 0 76-34.094 76-76s-34.094-76-76-76h-103.324c-99.252 0-180-80.748-180-180v-30h323.988l-44.582-358.14v-3.86h46.066l13.704-1.706 22.334 179.414 58.732 38.044 148.4-214.806 49.364 34.106-147.384 213.334 189.012 122.434z" />
<glyph unicode="&#xe901;" glyph-name="assassins-creed" d="M786.348 323.391c-79.342-60.642-174.212-92.694-274.35-92.694-100.14 0-195.008 32.054-274.35 92.694l-36.454-47.696c89.9-68.71 197.374-105.028 310.804-105.028s220.904 36.318 310.804 105.028l-36.454 47.696zM864.172 594.875v0c-35.202 0.002-66.726 20.266-82.27 52.888-58.518 122.792-241.204 489.33-243.042 493.018l-26.862 53.886-26.862-53.886c-1.838-3.69-184.526-370.224-243.040-493.020-15.546-32.622-47.070-52.886-82.27-52.886h-30.014v-180.088h30.014c45.118 0 89.252-15.378 124.274-43.296l0.49-0.382c31.558-24.106 66.696-43.27 103.834-56.812 1.828-0.714 3.676-1.402 5.556-2.026 20.46-7.024 41.454-12.474 62.782-16.074l9.992 59.194c-19.304 3.26-38.3 8.286-56.728 14.938-20.36 8.094-33.85 27.976-33.85 50.464 0 6.86 1.258 13.528 3.744 19.822l132.080 334.704 132.084-334.71c2.484-6.294 3.744-12.962 3.744-19.82 0-22.49-13.49-42.37-33.85-50.464-18.43-6.65-37.424-11.678-56.728-14.938l9.992-59.194c21.326 3.6 42.32 9.052 62.754 16.156 1.906 0.542 3.754 1.23 5.582 1.944 37.136 13.542 72.274 32.708 103.834 56.812l0.49 0.382c35.020 27.918 79.156 43.296 124.274 43.296h30.014v180.088h-30.018zM834.158 473.071c-45.766-5.338-89.604-22.814-126.344-50.542-0.206 13.826-2.842 27.32-7.894 40.12l-187.92 476.212-187.92-476.21c-5.052-12.802-7.688-26.296-7.894-40.122-36.74 27.73-80.578 45.202-126.344 50.542v64.884c45.688 9.54 85.684 40.412 106.446 83.984 44.702 93.806 162.43 330.972 215.712 438.098 53.282-107.126 171.010-344.294 215.712-438.098 20.762-43.57 60.76-74.442 106.446-83.984v-64.884z" />
<glyph unicode="&#xe902;" glyph-name="atari" d="M422.006 1194.667v-1023.932h179.988v1023.932h-179.988zM541.998 230.731h-59.996v903.94h59.996v-903.94zM1005.902 425.631c-98.050 42.516-163.926 142.928-163.926 249.862l0.016 519.174h-180.004v-579.17c0-99.442 31.68-193.786 91.614-272.828 57.976-76.458 140.312-133.494 231.848-160.598l38.514-11.404v247.13l-18.062 7.834zM963.97 253.265c-144.298 59.994-241.984 203.556-241.984 362.232v519.174h60.010l-0.014-459.178c0-64.916 19.084-128.146 55.19-182.854 32.108-48.652 75.674-87.602 126.798-113.56v-125.814zM182.006 1194.667l0.016-519.174c0-106.934-65.878-207.346-163.926-249.864l-18.062-7.834v-247.128l38.514 11.406c91.536 27.104 173.874 84.138 231.848 160.598 59.934 79.042 91.614 173.384 91.614 272.828v579.168h-180.004zM302.014 615.497c0-158.676-97.686-302.236-241.984-362.232v125.814c51.122 25.958 94.69 64.906 126.798 113.558 36.106 54.708 55.19 117.94 55.19 182.856l-0.014 459.178h60.010v-519.174z" />
<glyph unicode="&#xe903;" glyph-name="bandai" d="M1024 667.667c0 38.292-14.456 74.76-40.708 102.692l-25.37 26.98c4.038 16.372 6.078 33.206 6.078 50.328 0 115.794-94.206 210-210 210-13.406 0-26.69-1.292-39.736-3.796-48.702 41.246-109.96 63.796-174.264 63.796-80.376 0-156.010-35.46-207.51-97.286l-104.62-125.564-83.88-27.754c-86.124-28.5-143.99-108.63-143.99-199.396 0-46.138 14.684-89.924 42.466-126.626 26.856-35.478 65.024-61.986 107.474-74.638l72.662-21.654 76.46-95.582c51.578-64.504 128.462-101.5 210.938-101.5h120c47.528 0 93.706 12.4 134.534 35.914 16.154-3.906 32.74-5.914 49.466-5.914 115.794 0 210 94.206 210 210 0 34.456-8.482 68.112-24.342 98.126 15.918 24.388 24.342 52.662 24.342 81.874zM378.588 981.977c40.070 48.102 98.902 75.69 161.412 75.69 35.922 0 70.624-9.050 101.364-26.032l-305.67-101.14 42.894 51.482zM629.998 307.667h-119.998c-64.144 0-123.948 28.784-164.082 78.976l-22.432 28.042 346.34-103.214c-13.038-2.504-26.36-3.804-39.828-3.804zM814 337.667c-14.596 0-29.038 2.098-42.924 6.238l-603.998 180c-63.046 18.79-107.078 77.908-107.078 143.762 0 64.838 41.328 122.078 102.838 142.432l544 180c15.176 5.022 31.042 7.568 47.162 7.568 82.71 0 150-67.29 150-150 0-19.854-3.82-39.146-11.352-57.338l-0.212-0.528c-27.206-69.39-13.83-147.514 34.938-203.916 23.618-27.234 36.626-62.116 36.626-98.218 0-82.71-67.29-150-150-150zM960.268 641.971c-16.638 26.27-23.938 57.098-21.072 87.698l0.382-0.406c15.748-16.758 24.422-38.634 24.422-61.596 0-8.784-1.27-17.422-3.732-25.696zM266.514 742.167c13.32 3.78 21.6 14.398 21.6 27.718 0 19.26-18 31.498-46.258 31.498h-59.578v-125.994h61.738c29.698 0 48.418 13.5 48.418 34.918 0 16.38-10.080 28.798-25.92 31.86zM214.138 776.905h25.918c9.36 0 15.298-4.68 15.298-12.78s-5.94-13.138-15.298-13.138h-25.918v25.918zM240.056 700.047h-25.918v27.9h25.918c11.878 0 19.26-5.22 19.26-13.68 0-9-7.38-14.22-19.26-14.22zM379.774 801.385h-32.94l-54.358-125.994h32.94l9.18 23.218h55.078l8.998-23.218h34.2l-53.098 125.994zM343.956 722.907l18.36 46.62 17.998-46.62h-36.358zM519.268 801.383v-77.756l-58.138 77.756h-28.258v-125.994h30.058v77.576l57.958-77.576h28.26v125.994zM613.324 801.383h-54.178v-125.994h52.918c40.5 0 68.218 25.738 68.218 62.998 0 37.438-27.36 62.996-66.958 62.996zM614.046 700.947h-22.86v74.878h21.418c20.34 0 35.1-15.298 35.1-37.618 0-22.14-14.040-37.26-33.658-37.26zM756.586 801.383h-32.94l-54.358-125.994h32.94l9.18 23.218h55.078l8.998-23.218h34.2l-53.098 125.994zM720.766 722.907l18.36 46.62 17.998-46.62h-36.358zM809.68 801.387h32.040v-125.994h-32.040v125.994zM268.674 661.383v-77.756l-58.138 77.756h-28.258v-125.994h30.058v77.576l57.958-77.576h28.26v125.994zM385.852 661.383h-32.94l-54.358-125.994h32.94l9.18 23.218h55.078l8.998-23.218h34.2l-53.098 125.994zM350.032 582.907l18.36 46.62 17.998-46.62h-36.358zM542.444 661.565l-34.198-75.058-34.2 75.058h-35.098v-126.176h28.62v81.898l30.238-69.298h20.878l30.238 69.298 0.182-81.898h28.258v126.176zM689.006 576.791c-8.824-9.002-21.062-14.762-31.68-14.762-19.98 0-35.1 16.020-35.1 37.078 0 20.7 15.12 36.54 35.1 36.54 11.158 0 23.398-6.298 31.678-16.378l18.54 21.958c-12.6 12.958-32.040 21.238-50.758 21.238-38.338 0-67.316-27.358-67.316-63.716 0-36.898 28.258-64.796 66.236-64.796 18.54 0 38.52 9.18 52.018 23.040l-18.718 19.798zM773.504 662.463c-38.878 0-68.038-27.178-68.038-63.896 0-36.898 29.158-64.618 68.038-64.618 39.058 0 68.216 27.898 68.216 64.618 0.002 36.54-29.156 63.896-68.216 63.896zM773.864 560.769c-19.26 0-35.638 16.378-35.638 37.62 0 21.238 16.2 37.258 35.638 37.258s34.918-16.020 34.918-37.258c0-21.242-15.478-37.62-34.918-37.62z" />
<glyph unicode="&#xe904;" glyph-name="bandai1" d="M874 1194.667h-724c-82.8 0-150-67.2-150-150v-724c0-82.8 67.2-150 150-150h724c82.8 0 150 67.2 150 150v724c0 82.8-67.2 150-150 150zM964 320.667c0-49.6-40.4-90-90-90h-724c-49.6 0-90 40.4-90 90v724c0 49.6 40.4 90 90 90h724c49.6 0 90-40.4 90-90v-724zM360 922.667c0 49.6-40.4 90-90 90h-150v-300h150c49.6 0 90 40.4 90 90 0 23-8.6 44-23 60 14.2 16 23 37 23 60zM270 832.667c16.6 0 30-13.4 30-30s-13.4-30-30-30h-90v180h90c16.6 0 30-13.4 30-30s-13.4-30-30-30h-30v-60h30zM539.6 1012.667h-73.2l-101.2-300h275.6l-101.2 300zM503 933.267l54.2-160.6h-108.4l54.2 160.6zM844 1012.667v-205l-106.8 205h-78.2v-300h60v205l106.8-205h78.2v300zM539.6 652.667h-73.2l-101.2-300h275.6l-101.2 300zM503 573.267l54.2-160.6h-108.4l54.2 160.6zM659 652.667h60v-300h-60v300zM226 652.667h-106v-300h106c82.8 0 150 67.2 150 150s-67.2 150-150 150zM226 412.667h-46v180h46c49.6 0 90-40.4 90-90s-40.4-90-90-90z" />
<glyph unicode="&#xe905;" glyph-name="capcom" d="M758.842 572.667c0-49.626-40.374-90-90-90h-120c-49.626 0-90 40.374-90 90v220c0 49.626 40.374 90 90 90 31.064 0 59.738-16.252 76.038-41.842l-83.318-83.304 127.282-127.28 318.316 318.334-13.866 20.508c-95.494 141.252-254.168 225.584-424.452 225.584-136.762 0-265.336-53.258-362.040-149.96-96.704-96.706-149.96-225.28-149.96-362.040s53.258-265.334 149.96-362.040c96.702-96.702 225.276-149.96 362.040-149.96h429.598v432h-219.598v-30zM815.828 542.667h102.612v-312h-369.598c-249.234 0-452 202.766-452 452s202.766 452 452 452c142.104 0 275.054-66.532 360.4-179.158l-240.4-240.416-42.426 42.422 69.702 69.69-6.776 18.084c-21.824 58.246-78.286 97.378-140.5 97.378-82.71 0-150-67.29-150-150v-220c0-82.71 67.29-150 150-150h120c72.438 0 133.046 51.618 146.986 120z" />
<glyph unicode="&#xe906;" glyph-name="crytek" d="M787.012 919.655v-473.976l236.988 236.988-236.988 236.988zM847.016 774.795l92.128-92.128-92.128-92.128v184.256zM512 1194.667l-236.986-236.986h473.976l-236.99 236.986zM512.002 1109.811l92.128-92.128h-184.256l92.128 92.128zM275.014 407.653l236.986-236.986 236.986 236.986h-473.972zM419.872 347.653h184.254l-92.126-92.128-92.128 92.128zM0 682.667l236.986-236.988v473.976l-236.986-236.988zM176.984 590.539l-92.128 92.128 92.128 92.128v-184.256z" />
<glyph unicode="&#xe907;" glyph-name="dota-2" d="M1024 1194.667h-127.082l-52.918-26.458-52.918 26.458h-258.164l-60-30h-165.836l-60 30h-247.082v-491.082l30-60v-165.836l-30-60v-247.082h517.082l52.918 26.458 52.918-26.458h401.082v397.082l-26.458 52.918 26.458 52.918v521.082zM964 687.749l-33.542-67.082 33.542-67.082v-322.918h-326.918l-67.082 33.542-67.082-33.542h-442.918v172.918l30 60v194.164l-30 60v416.918h172.918l60-30h194.164l60 30h229.836l67.082-33.542 67.082 33.542h52.918v-446.918zM766.426 1044.667h-264.852l372.426-372.426v264.852l-107.574 107.574zM814 817.093l-167.574 167.574h95.146l72.428-72.426v-95.148zM150 693.093v-264.852l107.574-107.574h264.854l-372.428 372.426zM210 453.093v95.148l167.574-167.574h-95.146l-72.428 72.426zM237.206 1054.297l-97.994-97.992 380.99-447.7 54.446-23.152 14.146-57.448 91.344-107.338h159.88l36.19 253.32-639.002 480.31zM787.982 380.667h-80.12l-64.196 75.438-17.93 72.826-69.020 29.348-335.928 394.75 22.008 22.008 568.996-427.69-23.81-166.68z" />
<glyph unicode="&#xe908;" glyph-name="ea-sports" d="M727.006 1107.255h-530.374l-94.046-179.996h465.956l-27-59.998h-454.132l-80.998-180h101.588l-107.998-239.994h549.926l138.346 307.432 138.344-307.432 197.382-0.002-296.994 659.99zM201.63 987.257l31.35 60h389.562l-27-60h-393.912zM688.274 900.909l-177.142-393.642h-418.336l107.998 239.996h-101.588l27 60h388.338l-27-60h-219.732l-94.050-179.996h298.578l215.932 479.85 242.932-539.852h-65.79l-177.14 393.644zM460.544 687.263l-27.002-60h-160.736l31.352 60h156.386zM41.398 352.167c0 6.12 5.578 9.18 13.86 9.18 10.26 0 26.998-5.4 40.318-13.138l12.058 25.018c-12.958 8.46-31.498 14.042-49.678 14.042-30.238 0-50.218-14.76-50.218-37.978 0-44.638 66.596-31.32 66.596-53.636 0-7.2-6.298-10.978-16.378-10.978-13.138 0-32.578 7.558-45.54 18.898l-12.416-24.662c14.94-12.24 36.538-20.16 57.598-20.16 28.078 0 50.396 13.32 50.396 38.518-0.002 45.54-66.596 33.12-66.596 54.896zM236.118 385.825h-54.898v-125.992h32.040v35.458h22.86c32.218 0 50.758 17.1 50.758 46.618-0.002 28.078-18.54 43.916-50.76 43.916zM234.498 320.491h-21.238v40.136h21.238c14.040 0 22.138-6.66 22.138-19.8 0-13.316-8.1-20.336-22.138-20.336zM416.454 386.591c-38.878 0-68.036-27.178-68.036-63.894 0-36.898 29.158-64.616 68.036-64.616 39.058 0 68.214 27.898 68.214 64.616 0.004 36.536-29.154 63.894-68.214 63.894zM416.814 284.897c-19.26 0-35.638 16.378-35.638 37.62 0 21.238 16.2 37.258 35.638 37.258s34.918-16.020 34.918-37.258c0-21.24-15.478-37.62-34.918-37.62zM641.756 301.097c14.756 7.378 22.856 21.24 22.856 40.498 0 28.080-19.078 43.918-52.376 43.918h-56.336v-125.992h32.040v35.458h25.2l18.718-35.458h36.358l-26.46 41.576zM612.238 320.177h-24.298v40.138h24.298c13.86 0 21.958-6.66 21.958-19.802-0.002-13.316-8.1-20.336-21.958-20.336zM737.128 386.007v-25.92h37.616v-100.254h32.040v100.254h37.978v25.92zM957.388 352.167c0 6.12 5.578 9.18 13.86 9.18 10.26 0 26.998-5.4 40.318-13.138l12.058 25.018c-12.958 8.46-31.498 14.042-49.678 14.042-30.238 0-50.218-14.76-50.218-37.978 0-44.638 66.596-31.32 66.596-53.636 0-7.2-6.298-10.978-16.378-10.978-13.138 0-32.578 7.558-45.54 18.898l-12.418-24.658c14.94-12.24 36.538-20.16 57.596-20.16 28.078 0 50.396 13.32 50.396 38.518 0.002 45.536-66.592 33.116-66.592 54.892z" />
<glyph unicode="&#xe909;" glyph-name="game-boy" d="M94.638 683.927l-8.73-32.58c-8.574-3.78-17.48-6.12-23.96-6.12-20.878 0-32.558 16.2-26.818 37.62 5.642 21.058 25.822 37.258 46.522 37.258 11.7 0 23.080-5.22 29.992-13.68l23.836 21.78c-9.872 11.52-27.744 18.718-46.462 18.718-39.778 0-76.856-27.54-86.646-64.076-9.838-36.718 11.712-64.438 50.050-64.438 17.64 0 40.712 6.84 56.768 16.378l13.166 49.138-27.718 0.002zM239.068 745.843h-32.938l-88.118-125.994h32.94l15.4 23.218h55.078l2.776-23.218h34.2l-19.338 125.994zM182.222 667.367l30.85 46.62 5.506-46.62h-36.356zM407.414 746.025l-54.312-75.058-14.086 75.058h-35.098l-33.808-126.176h28.618l21.944 81.898 11.67-69.298h20.88l48.806 69.298-21.762-81.898h28.258l33.808 126.176zM563.554 720.647l6.75 25.196h-98.636l-33.76-125.994h100.616l6.752 25.2h-68.576l6.8 25.378h60.116l6.752 25.2h-60.116l6.704 25.020zM745.278 714.345c5.164 19.26-9.558 31.498-37.816 31.498h-59.578l-33.76-125.994h61.738c29.698 0 52.036 13.5 57.774 34.918 4.39 16.38-2.364 28.798-17.384 31.86 14.334 3.78 25.458 14.398 29.026 27.718zM701.58 658.729c-2.412-9-11.192-14.22-23.070-14.22h-25.918l7.476 27.9h25.918c11.878 0 17.86-5.222 15.594-13.68zM710.978 708.587c-2.17-8.1-9.46-13.138-18.82-13.138h-25.918l6.944 25.918h25.918c9.36-0.002 14.046-4.682 11.876-12.78zM838.632 746.923c-38.878 0-75.32-27.178-85.158-63.896-9.886-36.898 11.844-64.618 50.722-64.618 39.058 0 75.692 27.898 85.532 64.618 9.79 36.54-12.038 63.896-51.096 63.896zM856.74 682.847c-5.692-21.24-25.558-37.62-44.998-37.62-19.26 0-31.25 16.378-25.558 37.62 5.69 21.238 26.182 37.258 45.622 37.258s30.624-16.018 24.934-37.258zM991.96 745.843l-44.408-54.896-15.708 54.896h-32.040l23.518-86.214-10.658-39.78h31.858l10.898 40.678 68.58 85.316z" />
<glyph unicode="&#xe90a;" glyph-name="gears-of-war" d="M1024 580.145v205.044l-97.106 28.228c-7.63 24.168-17.376 47.638-29.104 70.098l48.744 88.7-144.988 144.986-88.696-48.744c-22.458 11.73-45.93 21.474-70.1 29.106l-28.228 97.104h-205.044l-28.228-97.106c-24.168-7.63-47.64-17.376-70.1-29.106l-88.696 48.744-144.988-144.986 48.744-88.7c-11.73-22.458-21.474-45.93-29.104-70.098l-97.106-28.226v-205.042l97.106-28.228c7.63-24.168 17.376-47.638 29.104-70.098l-48.744-88.7 144.988-144.986 88.696 48.744c22.458-11.73 45.93-21.474 70.1-29.106l28.228-97.106h205.042l28.228 97.106c24.168 7.63 47.64 17.376 70.1 29.106l88.696-48.744 144.988 144.986-48.744 88.7c11.73 22.458 21.474 45.93 29.104 70.098l97.108 28.226zM878.24 600.257l-4.426-16.216c-8.328-30.518-20.528-59.896-36.262-87.324l-8.382-14.614 43.086-78.404-81.288-81.288-78.404 43.086-14.612-8.38c-27.428-15.734-56.81-27.934-87.328-36.264l-16.216-4.426-24.928-85.76h-114.96l-24.93 85.76-16.216 4.426c-30.518 8.33-59.898 20.53-87.328 36.264l-14.612 8.38-78.404-43.086-81.288 81.288 43.086 78.404-8.382 14.614c-15.734 27.428-27.934 56.806-36.262 87.324l-4.426 16.216-85.758 24.932v114.958l85.76 24.932 4.426 16.216c8.328 30.518 20.528 59.896 36.262 87.324l8.382 14.614-43.086 78.404 81.288 81.288 78.404-43.086 14.612 8.38c27.428 15.734 56.81 27.934 87.328 36.264l16.216 4.426 24.928 85.758h114.958l24.93-85.76 16.216-4.426c30.518-8.33 59.898-20.53 87.328-36.264l14.612-8.38 78.404 43.086 81.288-81.288-43.086-78.404 8.382-14.614c15.734-27.428 27.934-56.806 36.262-87.324l4.426-16.216 85.76-24.932v-114.958l-85.76-24.93zM512 986.667c-134.542 0-244-109.458-244-244v-195.458h60v-120h368v120h60v195.458c0 134.542-109.458 244-244 244zM636 487.209h-248v60h248v-60zM696 607.209h-154v60h-60v-60h-154v135.458c0 101.458 82.542 184 184 184s184-82.542 184-184v-135.458zM388 757.207h60v-90h-60v90zM576 757.207h60v-90h-60v90z" />
<glyph unicode="&#xe90b;" glyph-name="gta" d="M874 1022.667h-81.332c-61.384 0-114.244-37.078-137.438-90h-113.23v90h-392c-82.71 0-150-67.29-150-150v-260c0-33.742 11.206-64.912 30.082-90h-30.082v-180h231.332c49.016 0 92.61 23.636 120 60.104 27.39-36.468 70.984-60.104 120-60.104h81.336c49.016 0 92.61 23.636 120 60.104 27.39-36.468 70.984-60.104 120-60.104h231.332v530c0 82.71-67.29 150-150 150zM321.332 492.667c0-49.626-40.374-90-90-90h-171.332v60h201.334v60h-111.334c-49.626 0-90 40.374-90 90v260c0 49.626 40.374 90 90 90h171.332v-470zM642.668 812.667h-160.668v-350h60v290h100.668v-260c0-49.626-40.374-90-90-90h-81.336c-49.626 0-90 40.374-90 90v470h100.668v-90h160.668v-60zM964 402.667h-171.332c-49.626 0-90 40.374-90 90v170c0 49.626 40.374 90 90 90h70.666v150h-60v-90h-100.666v60c0 49.626 40.374 90 90 90h81.332c49.626 0 90-40.374 90-90v-470zM803.34 692.667h60v-230h-60v230zM160.66 902.667h60v-320h-60v320z" />
<glyph unicode="&#xe90c;" glyph-name="guitar-hero" d="M861.378 1080.821c-82.978 74.478-203.792 113.846-349.378 113.846s-266.4-39.368-349.38-113.846c-73.914-66.342-114.62-157.526-114.62-256.754 0-113.64 55.058-274.186 140.266-409.008 44.432-70.302 94.712-129.332 145.406-170.708 59.906-48.892 119.904-73.684 178.328-73.684s118.424 24.792 178.328 73.686c50.694 41.376 100.974 100.404 145.406 170.708 85.21 134.82 140.266 295.366 140.266 409.006 0 99.228-40.708 190.412-114.622 256.754zM785.016 447.115c-41.020-64.902-86.88-118.944-132.626-156.28-48.916-39.924-96.15-60.168-140.39-60.168s-91.474 20.244-140.39 60.168c-45.744 37.336-91.606 91.376-132.626 156.28-78.346 123.964-130.984 275.45-130.984 376.952 0 154.602 124.92 310.6 404 310.6s404-155.998 404-310.6c0-101.502-52.638-252.988-130.984-376.952zM373.144 704.173l48.856 19.542v-135.69h-60c-33.084 0-60 26.916-60 60v210c0 33.086 26.916 60.002 60 60.002s60-26.916 60-60h60c0 66.168-53.832 120-120 120s-120-53.832-120-120v-210c0-66.168 53.832-120 120-120h120v284.31l-131.14-52.456 22.284-55.708zM692 978.027v-189.59l-90-36v225.59h-60v-450h60v159.788l90 36v-195.788h60v450z" />
<glyph unicode="&#xe90d;" glyph-name="konami" d="M964 772h60v-200h-60v200zM171.426 712v60c-16.242 0-38.242-5.886-52.31-13.998l-59.116-34.080v48.078h-60v-200h60v48.078l59.116-34.080c14.070-8.112 36.070-13.998 52.31-13.998v60c-5.708 0-17.4 3.128-22.344 5.978l-59.014 34.022 59.016 34.022c4.942 2.85 16.636 5.978 22.342 5.978zM269.016 772c-55.14 0-100-44.86-100-100s44.86-100 100-100 100 44.86 100 100-44.86 100-100 100zM269.016 632c-22.056 0-40 17.944-40 40s17.944 40 40 40 40-17.944 40-40-17.944-40-40-40zM889.458 772l-54.458-108.918-54.458 108.918h-54.542v-138.344l-63.036 138.344h-54.598l-63.034-138.34v138.34h-60v-88.282l-57.31 88.282h-59.006v-200h60v88.28l57.31-88.28h96.848l15.492 34h74l15.492-34h97.842v54.918l27.458-54.918h43.082l27.46 54.918v-54.918h60v200h-54.542zM626.004 666l9.662 21.204 9.662-21.204h-19.324z" />
<glyph unicode="&#xe90e;" glyph-name="lego" d="M856.696 771.168l-13.182 3.516-45.966-172.386v-8.144h45.8l13.19-3.518 45.968 172.386v8.146zM1005.41 857.508c-16.922 22.022-43.604 35.168-71.376 35.168h-104.008c-23.738 0-45.78-9.35-62.122-24.936-16.164 15.43-38.028 24.936-62.086 24.936h-104.008c-23.738 0-45.78-9.35-62.122-24.934-16.164 15.43-38.028 24.934-62.086 24.934h-104.008c-40.716 0-76.478-27.476-86.966-66.816l-49.72-186.45c-9.126 5.6-19.314 9.634-30.194 11.688l34.234 128.382c12.786 47.954-15.826 97.37-63.786 110.158-7.592 2.024-15.404 3.048-23.212 3.048-40.7 0-76.45-27.48-86.94-66.828l-64.008-240.014c-7.156-26.832-1.328-56 15.594-78.028 16.922-22.024 43.604-35.17 71.376-35.17h100.008c22.94 0 43.89 8.638 59.802 22.816 16.346-14.48 37.724-22.816 59.806-22.816h99.508c25.184 0 47.974 10.41 64.326 27.136 16.81-17.146 40.18-27.136 64.384-27.136h104.008c23.732 0 45.77 9.346 62.11 24.924 16.61-15.776 38.966-24.924 62.098-24.924h104.008c40.716 0 76.478 27.476 86.966 66.816l64.006 240.018c7.158 26.83 1.326 55.998-15.592 78.028zM189.974 532.648h-100.008c-9.256 0-18.152 4.382-23.792 11.72-5.64 7.342-7.584 17.066-5.2 26.010l64.008 240.020c3.496 13.122 15.408 22.284 28.96 22.284 2.596 0 5.208-0.344 7.756-1.024 15.986-4.264 25.524-20.736 21.262-36.718l-53.946-202.286h60.958c15.26 0 27.866-11.458 29.736-26.216-0.1-2.49-0.090-4.98 0.016-7.464-1.82-14.812-14.454-26.326-29.75-26.326zM477.597 772.666h-88.958v-60.004h56.956c16.544 0 30.002-13.46 30.002-30.002 0-16.544-13.458-30.002-30.002-30.002h-88.958v-60.004h52.456c16.544 0 30.002-13.458 30.002-30.002s-13.46-30-30.002-30h-99.508c-9.256 0-18.152 4.382-23.792 11.72-3.256 4.24-5.236 9.278-5.906 14.498 0.052 1.256 0.096 2.514 0.096 3.782 0 1.396-0.034 2.784-0.096 4.166 0.166 1.196 0.394 2.386 0.708 3.562l64.006 240.018c3.498 13.116 15.42 22.274 28.99 22.274h104.008c16.544 0 30.002-13.46 30.002-30.002-0.002-16.546-13.46-30.004-30.004-30.004zM705.813 772.67h-88.958v-60.004h56.954c9.258 0 18.152-4.382 23.792-11.72 5.64-7.342 7.584-17.066 5.2-26.010l-32-120.012c-3.5-13.116-15.42-22.276-28.992-22.276h-104.008c-9.256 0-18.152 4.382-23.792 11.72-5.64 7.342-7.584 17.066-5.2 26.010l23.91 89.662c0.020 0.076 0.042 0.152 0.062 0.23l31.94 119.78c0.020 0.076 0.042 0.152 0.062 0.23l8.032 30.12c3.498 13.114 15.42 22.274 28.99 22.274h104.008c16.544 0 30.002-13.46 30.002-30.002 0-16.544-13.458-30.002-30.002-30.002zM963.024 794.942l-64.006-240.018c-3.498-13.114-15.42-22.274-28.99-22.274h-104.008c-9.256 0-18.152 4.382-23.792 11.72-5.64 7.342-7.584 17.066-5.2 26.010l55.67 208.76c0.014 0.052 0.028 0.104 0.042 0.156l8.292 31.102c3.498 13.114 15.42 22.274 28.99 22.274h104.008c9.256 0 18.152-4.382 23.792-11.72 5.644-7.344 7.586-17.066 5.202-26.010z" />
<glyph unicode="&#xe90f;" glyph-name="namco" d="M0 797.167v-230h60v170h50v-170h60v230zM190 798.167v-60h123v-20h-123v-150h183v230h-183zM313 628.167h-63v30h63v-30zM804 737.167v60h-151v-230h151v60h-91v110zM824 797.167v-230h200v230h-200zM964 627.167h-80v110h80v-110zM393 798.167v-230h60v170h30v-170h60v170h30v-170h60v230z" />
<glyph unicode="&#xe910;" glyph-name="nintendo-ds1" d="M406 892.667h-166v-420h166c115.794 0 210 94.206 210 210s-94.206 210-210 210zM406 532.667h-106v300h106c82.71 0 150-67.29 150-150s-67.29-150-150-150zM904 712.667h-134c-33.084 0-60 26.916-60 60s26.916 60 60 60h134c33.084 0 60-26.916 60-60h60c0 66.168-53.832 120-120 120h-134c-66.168 0-120-53.832-120-120s53.832-120 120-120h134c33.084 0 60-26.916 60-60s-26.916-60-60-60h-134c-33.084 0-60 26.916-60 60h-60c0-66.168 53.832-120 120-120h134c66.168 0 120 53.832 120 120s-53.832 120-120 120zM0 892.667v-180h180v180h-180zM120 772.667h-60v60h60v-60zM0 652.667v-180h180v180h-180zM120 532.667h-60v60h60v-60z" />
<glyph unicode="&#xe911;" glyph-name="nintendo1" d="M844 862.667h-664c-99.252 0-180-80.748-180-180s80.748-180 180-180h664c99.252 0 180 80.748 180 180s-80.748 180-180 180zM844 562.667h-664c-66.168 0-120 53.832-120 120s53.832 120 120 120h664c66.168 0 120-53.832 120-120s-53.832-120-120-120zM178.372 744.195v-77.756l-58.14 77.756h-28.258v-125.994h30.060v77.576l57.956-77.576h28.26v125.994zM216.24 744.187h32.040v-125.994h-32.040v125.994zM495.786 643.401v25.378h60.116v25.2h-60.116v25.020h66.596v25.196h-219.696v-77.756l-58.14 77.756h-28.256v-125.994h30.058v77.576l57.956-77.576h28.26v100.256h29.482v-100.256h32.040v100.256h29.66v-100.256h100.616v25.2zM658.758 744.195v-77.756l-58.138 77.756h-28.258v-125.994h30.058v77.576l57.956-77.576h28.26v125.994zM875.808 745.095c-29.156 0-52.846-15.284-62.87-38.416-9.512 23.072-32.36 37.514-62.124 37.514h-54.178v-125.994h52.918c30.422 0 53.63 14.524 63.296 37.546 9.972-23.478 33.712-39.166 62.958-39.166 39.058 0 68.216 27.898 68.216 64.618 0.002 36.542-29.156 63.898-68.216 63.898zM751.536 643.759h-22.86v74.876h21.418c20.34 0 35.1-15.298 35.1-37.618 0-22.138-14.040-37.258-33.658-37.258zM876.168 643.401c-19.26 0-35.638 16.378-35.638 37.62 0 21.238 16.2 37.258 35.638 37.258s34.918-16.020 34.918-37.258c0-21.242-15.478-37.62-34.918-37.62z" />
<glyph unicode="&#xe912;" glyph-name="nintendo-switch" d="M783 772.667c-66.718 0-121-54.282-121-121s54.282-121 121-121 121 54.282 121 121-54.282 121-121 121zM783 590.667c-33.634 0-61 27.366-61 61s27.366 61 61 61c33.634 0 61-27.366 61-61s-27.366-61-61-61zM230 1194.667c-126.822 0-230-103.178-230-230v-564c0-126.822 103.178-230 230-230h252v1024h-252zM422 230.667h-192c-93.738 0-170 76.262-170 170v564c0 93.738 76.262 170 170 170h192v-904zM794 1194.667h-252v-1024h252c126.822 0 230 103.178 230 230v564c0 126.822-103.178 230-230 230zM964 400.667c0-93.738-76.262-170-170-170h-192v904h192c93.738 0 170-76.262 170-170v-564zM241 1014.667c-66.718 0-121-54.282-121-121s54.282-121 121-121 121 54.282 121 121-54.282 121-121 121zM241 832.667c-33.634 0-61 27.366-61 61s27.366 61 61 61 61-27.366 61-61-27.366-61-61-61z" />
<glyph unicode="&#xe913;" glyph-name="wii" d="M614 738.833v-322.332h180v322.332h-180zM734 476.501h-60v202.332h60v-202.332zM704 948.833c-49.626 0-90-40.374-90-90s40.374-90 90-90 90 40.374 90 90-40.374 90-90 90zM704 828.833c-16.542 0-30 13.458-30 30s13.458 30 30 30 30-13.458 30-30-13.458-30-30-30zM844 738.833v-322.332h180v322.332h-180zM964 476.501h-60v202.332h60v-202.332zM934 948.833c-49.626 0-90-40.374-90-90s40.374-90 90-90 90 40.374 90 90-40.374 90-90 90zM934 828.833c-16.542 0-30 13.458-30 30s13.458 30 30 30 30-13.458 30-30-13.458-30-30-30zM384 948.833v-89.072l-22.938 42.092c-15.792 28.976-46.086 46.976-79.062 46.976s-63.27-18-79.062-46.976l-22.938-42.094v89.072h-180v-442.332c0-49.626 40.374-90 90-90 32.976 0 63.27 18 79.062 46.976l112.938 207.252 112.938-207.25c15.792-28.976 46.086-46.976 79.062-46.976 49.626 0 90 40.374 90 90v442.332h-180zM504 506.501c0-16.542-13.458-30-30-30-10.996 0-21.104 6.012-26.376 15.688l-165.624 303.93-165.624-303.932c-5.272-9.676-15.38-15.688-26.376-15.688-16.542 0-30 13.458-30 30v382.334h60v-264.564l135.624 248.878c5.272 9.676 15.38 15.688 26.376 15.688s21.104-6.012 26.376-15.688l135.624-248.882v264.568h60v-382.332z" />
<glyph unicode="&#xe914;" glyph-name="wii-u" d="M394 757.667h60v-240h-60v240zM494 757.667h60v-240h-60v240zM454 817.667c0-16.569-13.431-30-30-30s-30 13.431-30 30c0 16.569 13.431 30 30 30s30-13.431 30-30zM554 817.667c0-16.569-13.431-30-30-30s-30 13.431-30 30c0 16.569 13.431 30 30 30s30-13.431 30-30zM934 847.667h-240c-49.626 0-90-40.374-90-90v-150c0-49.626 40.374-90 90-90h240c49.626 0 90 40.374 90 90v150c0 49.626-40.374 90-90 90zM784 787.667h60v-80c0-16.542-13.458-30-30-30s-30 13.458-30 30v80zM964 607.667c0-16.542-13.458-30-30-30h-240c-16.542 0-30 13.458-30 30v150c0 16.542 13.458 30 30 30h30v-80c0-49.626 40.374-90 90-90s90 40.374 90 90v80h30c16.542 0 30-13.458 30-30v-150zM284 847.667v-270.026l-53.65 224.026c-6.486 27.084-30.48 46-58.35 46s-51.864-18.916-58.352-46l-53.648-224v270h-60v-270c0-33.084 26.916-60 60-60 27.87 0 51.864 18.916 58.352 46l53.648 224.026 53.65-224.026c6.486-27.084 30.48-46 58.35-46 33.084 0 60 26.916 60 60v270h-60z" />
<glyph unicode="&#xe915;" glyph-name="pes" d="M247 1022.667h-190v-310h60v100h130c49.626 0 90 40.374 90 90v30c0 49.626-40.374 90-90 90zM277 902.667c0-16.542-13.458-30-30-30h-130v90h130c16.542 0 30-13.458 30-30v-30zM457 962.667h180v60h-180c-49.626 0-90-40.374-90-90v-130c0-49.626 40.374-90 90-90h180v60h-180c-16.542 0-30 13.458-30 30v40h210v60h-210v30c0 16.542 13.458 30 30 30zM874.5 897.667h-115c-17.92 0-32.5 14.58-32.5 32.5s14.58 32.5 32.5 32.5h117.5c16.542 0 30-13.458 30-30h60c0 49.626-40.374 90-90 90h-117.5c-51.004 0-92.5-41.496-92.5-92.5s41.496-92.5 92.5-92.5h115c17.92 0 32.5-14.58 32.5-32.5s-14.58-32.5-32.5-32.5h-117.5c-16.542 0-30 13.458-30 30h-60c0-49.626 40.374-90 90-90h117.5c51.004 0 92.5 41.496 92.5 92.5s-41.496 92.5-92.5 92.5zM614 652.667v-60c16.542 0 30-13.458 30-30v-220h60v220c0 49.626-40.374 90-90 90zM1024 560.167c0 51.004-41.496 92.5-92.5 92.5h-105c-51.004 0-92.5-41.496-92.5-92.5 0-24.076 9.252-46.026 24.38-62.5-15.128-16.474-24.38-38.424-24.38-62.5 0-51.004 41.496-92.5 92.5-92.5h105c51.004 0 92.5 41.496 92.5 92.5 0 24.076-9.252 46.026-24.38 62.5 15.128 16.474 24.38 38.424 24.38 62.5zM931.5 402.667h-105c-17.92 0-32.5 14.58-32.5 32.5s14.58 32.5 32.5 32.5h105c17.92 0 32.5-14.58 32.5-32.5s-14.58-32.5-32.5-32.5zM931.5 527.667h-105c-17.92 0-32.5 14.58-32.5 32.5s14.58 32.5 32.5 32.5h105c17.92 0 32.5-14.58 32.5-32.5s-14.58-32.5-32.5-32.5zM60 435.167c0 17.92 14.58 32.5 32.5 32.5h105c51.004 0 92.5 41.496 92.5 92.5s-41.496 92.5-92.5 92.5h-107.5c-49.626 0-90-40.374-90-90h60c0 16.542 13.458 30 30 30h107.5c17.92 0 32.5-14.58 32.5-32.5s-14.58-32.5-32.5-32.5h-105c-51.004 0-92.5-41.496-92.5-92.5v-92.5h290v60h-230v32.5zM500 652.667h-90c-49.626 0-90-40.374-90-90v-130c0-49.626 40.374-90 90-90h90c49.626 0 90 40.374 90 90v130c0 49.626-40.374 90-90 90zM530 432.667c0-16.542-13.458-30-30-30h-90c-16.542 0-30 13.458-30 30v130c0 16.542 13.458 30 30 30h90c16.542 0 30-13.458 30-30v-130z" />
<glyph unicode="&#xe916;" glyph-name="playstation1" d="M831.466 651.331c-19.072 0-37.92-2.79-56.030-8.292l-233.47-64.632v330.21c0 16.542 13.458 30 30 30s30-13.458 30-30v-233.376h30c115.794 0 210 94.206 210 210 0 93.702-62.938 176.84-153.174 202.212l-387.492 107.214v-514.292l-155.482-43.040c-18.36-4.594-35.96-11.894-52.318-21.702-91.034-54.582-120.69-173.052-66.106-264.086 21.618-36.054 53.576-63.466 92.42-79.272 23.156-9.422 48.098-14.202 73.006-14.2 15.466 0 30.922 1.842 45.922 5.56l62.558 17.31v-51.958l210.666-58.32 375.948 104.080c38.572 11.816 73.216 36.168 97.554 68.57 25.186 33.532 38.498 73.476 38.498 115.512 0 106.146-86.356 192.502-192.5 192.502zM301.298 511.787l-157.768-43.672 16.008-57.826 141.76 39.242v-106.332l-77.368-21.42c-10.628-2.6-21.308-3.862-31.85-3.86-45.718 0.002-88.782 23.708-113.228 64.482-37.57 62.662-17.158 144.206 45.502 181.776 11.368 6.816 23.584 11.872 36.308 15.024l140.636 38.92v-106.334zM481.966 908.617v-667.388l-120.666 33.404v841.178l311.372-86.154c64.352-18.094 109.294-77.482 109.294-144.418 0-72.438-51.62-133.048-120-146.986v170.364c0 49.626-40.374 90-90 90s-90-40.374-90-90zM870.704 332.231l-328.738-91.002v106.332l338.458 93.694-16.008 57.826-322.45-89.262v106.332l250.634 69.394c12.536 3.84 25.612 5.786 38.868 5.786 73.060 0 132.5-59.44 132.5-132.5-0.002-58.506-37.468-109.336-93.264-126.6z" />
<glyph unicode="&#xe917;" glyph-name="pokemon-go" d="M874.040 1044.707c-96.706 96.702-225.28 149.96-362.040 149.96s-265.334-53.258-362.040-149.96c-96.702-96.706-149.96-225.28-149.96-362.040s53.258-265.334 149.96-362.040c96.706-96.702 225.28-149.96 362.040-149.96s265.334 53.258 362.040 149.96c96.702 96.706 149.96 225.28 149.96 362.040s-53.258 265.334-149.96 362.040zM512 230.667c-214.884 0-395.206 150.732-440.834 352.014 38.66 12.646 78.058 23.648 117.694 32.906 31.078-149.908 164.156-262.92 323.14-262.92s292.062 113.012 323.14 262.92c39.654-9.264 79.042-20.258 117.696-32.902-45.628-201.284-225.95-352.018-440.836-352.018zM242 682.667c0 148.878 121.122 270 270 270s270-121.122 270-270-121.122-270-270-270-270 121.122-270 270zM841.91 675.599c0.050 2.352 0.090 4.704 0.090 7.068 0 181.962-148.038 330-330 330s-330-148.038-330-330c0-2.352 0.040-4.696 0.090-7.038-40.476-9.248-80.73-20.292-120.3-32.944-1.162 13.178-1.79 26.508-1.79 39.982 0 249.234 202.766 452 452 452s452-202.766 452-452c0-13.476-0.628-26.806-1.79-39.986-39.56 12.648-79.804 23.664-120.3 32.918zM512 892.667c-115.794 0-210-94.206-210-210s94.206-210 210-210c115.794 0 210 94.206 210 210s-94.206 210-210 210zM512 532.667c-72.44 0-133.044 51.616-146.982 120h62.142c12.384-34.918 45.73-60 84.84-60s72.456 25.082 84.84 60h62.142c-13.938-68.384-74.542-120-146.982-120zM482 682.667c0 16.542 13.458 30 30 30s30-13.458 30-30-13.458-30-30-30-30 13.458-30 30zM596.84 712.667c-12.384 34.918-45.73 60-84.84 60s-72.456-25.082-84.84-60h-62.142c13.938 68.384 74.542 120 146.982 120s133.044-51.616 146.982-120h-62.142z" />
<glyph unicode="&#xe918;" glyph-name="ps2" d="M0 832.667v-60h241.334v-60h-241.334v-180h60v120h241.334v180zM1024 652.667v180h-301.334v-60h241.334v-60h-241.334v-180h301.334v60h-241.334v60zM452 832.667v-240h-150.666v-60h210.666v240h150.666v60z" />
<glyph unicode="&#xe919;" glyph-name="ps31" d="M211.334 832.667h-211.334v-60h211.334c16.542 0 30-13.458 30-30s-13.458-30-30-30h-121.334c-49.626 0-90-40.374-90-90v-90h60v90c0 16.542 13.458 30 30 30h121.334c49.624 0 90 40.374 90 90s-40.374 90-90 90zM1024 742.667c0 49.626-40.374 90-90 90h-211.334v-60h211.334c16.542 0 30-13.458 30-30s-13.458-30-30-30h-211.334v-60h211.334c16.542 0 30-13.458 30-30s-13.458-30-30-30h-211.334v-60h211.334c49.626 0 90 40.374 90 90 0 23.034-8.708 44.064-22.99 60 14.282 15.936 22.99 36.966 22.99 60zM527 832.667c-49.626 0-90-40.374-90-90v-120c0-16.542-13.458-30-30-30h-135.666v-60h135.666c49.626 0 90 40.374 90 90v120c0 16.542 13.458 30 30 30h135.666v60h-135.666z" />
<glyph unicode="&#xe91a;" glyph-name="ps41" d="M211.334 832.667h-211.334v-60h211.334c16.542 0 30-13.458 30-30s-13.458-30-30-30h-121.334c-49.626 0-90-40.374-90-90v-90h60v90c0 16.542 13.458 30 30 30h121.334c49.626 0 90 40.374 90 90s-40.374 90-90 90zM527 832.667c-49.626 0-90-40.374-90-90v-120c0-16.542-13.458-30-30-30h-135.666v-60h135.666c49.626 0 90 40.374 90 90v120c0 16.542 13.458 30 30 30h135.666v60h-135.666zM964 652.671v119.996c0 33.084-26.916 60-60 60-11.364 0-22.434-3.2-32.018-9.252l-189.998-120c-17.524-11.066-27.984-30.036-27.984-50.748 0-33.084 26.916-60 60-60h190v-60h60v60h60v60l-60 0.004zM904 652.673l-189.978 0.012 189.978 119.982v-119.994z" />
<glyph unicode="&#xe91b;" glyph-name="psp1" d="M0 832.667v-60h241.334v-60h-241.334v-180h60v120h241.334v180zM722.666 832.667v-60h241.334v-60h-241.334v-180h60v120h241.334v180zM452 832.667v-240h-150.666v-60h210.666v240h150.666v60z" />
<glyph unicode="&#xe91c;" glyph-name="play-station" d="M507 838.251c-49.626 0-90-40.374-90-90v-120c0-16.542-13.458-30-30-30h-135.666v-60h135.666c49.626 0 90 40.374 90 90v120c0 16.542 13.458 30 30 30h135.666v60h-135.666zM211.334 838.251h-211.334v-60h211.334c16.542 0 30-13.458 30-30s-13.458-30-30-30h-121.334c-49.626 0-90-40.374-90-90v-90h60v90c0 16.542 13.458 30 30 30h121.334c49.624 0 90 40.374 90 90s-40.374 90-90 90zM959.586 838.251l-98.054-251.090-98.054 251.090h-64.414l107.456-275.104c9.54-21.908 31.132-36.064 55.012-36.064s45.472 14.156 55.012 36.064l0.44 1.064 107.016 274.040h-64.414z" />
<glyph unicode="&#xe91d;" glyph-name="rovio" d="M593.498 1194.667h-406.986v-59.998h363.988c99.248 0 179.994-80.746 179.994-179.994 0-77.662-49.464-146.308-123.088-170.822l-346.756-115.448c-98.174-32.686-164.134-124.212-164.134-227.748v-269.99h59.998v63.44c0 77.662 49.464 146.308 123.038 170.804l419.278 138.736c136.768 45.42 228.658 172.826 228.658 317.032-0.002 184.162-149.83 333.988-333.99 333.988zM679.948 600.597l-419.3-138.742c-41.242-13.732-76.768-37.874-104.136-68.902v47.704c0 77.662 49.464 146.308 123.090 170.822l346.756 115.448c98.172 32.686 164.132 124.212 164.132 227.746 0 47.292-13.758 91.43-37.47 128.634 69.266-49.772 114.468-131.018 114.468-222.63 0-118.31-75.378-222.832-187.54-260.080zM886.186 230.701c-59.548 0-107.996 48.446-107.996 107.996v149.994h-30c-87.67 0-158.994-71.326-158.994-158.994s71.324-158.994 158.994-158.994h179.292v59.998h-41.296zM748.192 230.701c-54.586 0-98.996 44.41-98.996 98.996 0 44.134 29.030 81.618 68.998 94.35v-85.35c0-41.086 14.826-78.774 39.408-107.996h-9.41z" />
<glyph unicode="&#xe91e;" glyph-name="sega" d="M647.668 833.333h-271.336c-16.542 0-30 13.522-30 30.14 0 16.542 13.458 30 30.008 30l572.66 0.148v301.046h-572.668c-182.698 0-331.332-148.636-331.332-331.334s148.634-331.334 331.364-331.334l271.304 0.28c16.542 0 30-13.458 30-30s-13.458-30-30-30h-572.668v-301.612h572.668c182.698 0 331.332 148.636 331.332 331.334s-148.634 331.332-331.332 331.332zM135 412.283l512.668-0.002c49.626 0 90 40.374 90 90s-40.374 90-90.032 90l-271.304-0.28c-149.614 0-271.332 121.72-271.332 271.334s121.718 271.332 271.332 271.332h512.668v-60.394l-512.668-0.132c-116.162 0-210.666-94.504-210.666-210.666 0-116.24 94.504-210.806 210.666-210.806h271.336c83.078 0 150.666-67.588 150.666-150.668 0-83.078-67.588-150.666-150.666-150.666h-512.668v60.948zM647.668 230.667h-512.668v60.666h512.668c116.162 0 210.666 94.504 210.666 210.666 0 116.164-94.504 210.668-210.666 210.668h-271.336c-83.078 0-150.666 67.652-150.666 150.806 0 83.078 67.588 150.666 150.674 150.666l512.66 0.132v-60.666l-512.668-0.132c-49.626 0-90-40.374-90-90 0-49.704 40.374-90.14 90-90.14h271.336c149.614 0 271.332-121.72 271.332-271.334 0-149.612-121.718-271.332-271.332-271.332z" />
<glyph unicode="&#xe91f;" glyph-name="sony" d="M142.5 715.539h-60c-12.406 0-22.5 10.094-22.5 22.5s10.094 22.5 22.5 22.5h60c12.406 0 22.5-10.094 22.5-22.5h60c0 45.49-37.010 82.5-82.5 82.5h-60c-45.49 0-82.5-37.010-82.5-82.5s37.010-82.5 82.5-82.5h60c12.406 0 22.5-10.094 22.5-22.5s-10.094-22.5-22.5-22.5h-60c-12.406 0-22.5 10.094-22.5 22.5h-60c0-45.49 37.010-82.5 82.5-82.5h60c45.49 0 82.5 37.010 82.5 82.5s-37.010 82.5-82.5 82.5zM910.748 814.795v-60h13.246l-43.246-55.656-43.248 55.656h13.248v60h-174.55v-170.748l-109.614 170.748h-94.21v-60h26.626v-150h-26.626v-60h113.252v60h-26.626v110.75l109.614-170.75h67.584v210h25.318l89.232-114.834v-35.166h-26.628v-60h113.254v60h-26.626v35.166l89.23 114.834h24.022v60zM355 820.539c-74.44 0-135-60.56-135-135s60.56-135 135-135c74.44 0 135 60.56 135 135s-60.56 135-135 135zM355 610.539c-41.356 0-75 33.644-75 75s33.644 75 75 75 75-33.644 75-75c0-41.356-33.644-75-75-75z" />
<glyph unicode="&#xe920;" glyph-name="super-mario" d="M874.040 1044.707c-96.706 96.702-225.28 149.96-362.040 149.96s-265.334-53.258-362.040-149.96c-96.702-96.706-149.96-225.28-149.96-362.040s53.258-265.334 149.96-362.040c96.706-96.702 225.28-149.96 362.040-149.96s265.334 53.258 362.040 149.96c96.702 96.706 149.96 225.28 149.96 362.040s-53.258 265.334-149.96 362.040zM512 230.667c-249.234 0-452 202.766-452 452s202.766 452 452 452 452-202.766 452-452-202.766-452-452-452zM671.984 1025.077l-159.984-159.984-159.984 159.984-207.382-478.574 155.114-165.174 113.322 341.82 98.93-130.028 98.93 130.030 113.322-341.82 155.114 165.174-207.382 478.572zM632.076 850.037l-120.076-157.824-120.076 157.822-117.418-354.18-59.14 62.974 156.618 361.426 140.016-140.014 140.016 140.016 156.618-361.426-59.14-62.974-117.418 354.18z" />
<glyph unicode="&#xe921;" glyph-name="tamiya" d="M0 1034.959v-518.41h1024v518.41h-1024zM542 974.959h169.708l-37.398-115.098h-132.31v115.098zM60 974.959h169.708l-37.398-115.098h-132.31v115.098zM100.258 576.551h-40.258v194.432l83.678-60.794-43.42-133.638zM214.384 576.551l56.616 41.134 56.618-41.134h-113.234zM271 691.849l-91.882-66.758 35.096 108.016-91.882 66.756h113.572l35.096 108.016 35.096-108.016h113.572l-91.882-66.756 35.096-108.016-91.882 66.758zM482 576.549h-40.258l-43.42 133.64 83.678 60.794v-194.434zM482 859.863h-132.312l-37.398 115.098h169.71v-115.098zM582.258 576.551h-40.258v194.432l83.678-60.794-43.42-133.638zM696.384 576.549l56.618 41.134 56.616-41.134h-113.234zM753 691.849l-91.882-66.758 35.096 108.016-91.882 66.756h113.572l35.096 108.016 35.096-108.016h113.572l-91.882-66.756 35.096-108.016-91.882 66.758zM964 576.549h-40.258l-43.42 133.638 83.678 60.796v-194.434zM964 859.863h-132.312l-37.398 115.098h169.71v-115.098zM0 456.551v-25.92h37.62v-100.256h32.038v100.256h37.978v25.92zM251.118 456.549l-32.938 0.002-54.36-125.998h32.94l9.18 23.218h55.078l9-23.218h34.198l-53.098 125.996zM215.3 378.073l18.36 46.618 18-46.618h-36.36zM479.896 456.551l-34.198-75.058-34.198 75.058h-35.1v-126.176h28.62v81.896l30.24-69.298h20.878l30.238 69.298 0.18-81.896h28.26v126.176zM603 456.547h32.040v-125.996h-32.040v125.996zM801.382 456.551l-29.7-54.9-30.418 54.9h-32.038l46.618-86.218v-39.78h31.858v40.68l45.718 85.318zM970.902 456.551h-32.94l-54.358-125.996h32.94l9.18 23.218h55.078l8.998-23.218h34.2l-53.098 125.996zM935.084 378.073l18.36 46.618 17.998-46.618h-36.358z" />
<glyph unicode="&#xe922;" glyph-name="ubisoft" d="M874.040 1044.707c-96.706 96.702-225.28 149.96-362.040 149.96s-265.334-53.258-362.040-149.96c-96.702-96.706-149.96-225.28-149.96-362.040s53.258-265.334 149.96-362.040c96.706-96.702 225.28-149.96 362.040-149.96s265.334 53.258 362.040 149.96c96.702 96.706 149.96 225.28 149.96 362.040s-53.258 265.334-149.96 362.040zM132.752 437.027c-29.73 47.79-45.412 102.568-45.412 159.372 0 166.706 135.626 302.33 302.33 302.33 76.106 0 145.724-28.278 198.928-74.864-24.066 8.126-49.826 12.534-76.598 12.534-2.068 0-4.13-0.026-6.186-0.078-180.698-3.312-326.68-151.312-326.68-332.788 0-62.504 17.33-121.032 47.418-171.054-36.406 29.732-68.106 65.014-93.8 104.548zM692 596.401c0-99.252-80.748-180-180-180s-180 80.748-180 180c0 99.252 80.748 180 180 180s180-80.748 180-180zM512 230.667c-2.352 0-4.692 0.054-7.036 0.090-147.22 3.744-265.832 124.67-265.832 272.776 0 49.886 13.468 96.68 36.942 136.96-2.666-14.298-4.074-29.034-4.074-44.092 0-132.336 107.664-240 240-240s240 107.664 240 240c0 2.068-0.026 4.13-0.078 6.186-3.316 196.944-164.53 356.144-362.252 356.144-140.706 0-262.932-80.624-322.92-198.098 37.050 212.206 222.598 374.034 445.25 374.034 249.234 0 452-202.766 452-452s-202.766-452-452-452z" />
<glyph unicode="&#xe923;" glyph-name="valve" d="M0 930.667v-496h1024v496h-1024zM964 494.667h-904v376h904v-376zM544 614.667v170h-60v-230h120v60zM402.342 784.667h-48.684l-68.764-230h62.624l30.482 101.956 30.482-101.956h62.624zM712.482 784.667l-30.482-101.956-30.482 101.956h-62.624l68.764-230h48.686l68.762 230zM835.424 683.871v25.38h60.118v25.198h-60.118v25.018h66.596v25.2h-98.636v-125.996h100.616v25.2zM240.482 784.667l-30.482-101.956-30.482 101.956h-62.624l68.764-230h48.684l68.764 230z" />
<glyph unicode="&#xe924;" glyph-name="we-pes" d="M668.214 1194.655l-19.854-179.988h-106.36v180h-60v-180h-106.362l-19.852 179.988-59.64-6.578 25.746-233.41h380.214l25.746 233.41zM668.656 651.379l26.834 243.288h-366.98l66.616-604h233.746l23.24 210.71-59.636 6.58-17.35-157.29h-126.254l-26.912 244.002h120.040v60h-126.658l-19.852 179.998h233.020l-19.49-176.708zM392 230.667h240v-60h-240v60zM153.094 492.407l146.258 119.332-31.206 282.928h-242.23l45.354-274.898 59.2 9.766-33.842 205.132h117.77l21.736-197.068-147.896-120.672 37.328-226.26h112.176v60h-61.264zM952.728 619.769l45.356 274.898h-242.23l-31.204-282.928 146.256-119.332-23.386-141.74h-61.262v-60h112.178l37.326 226.26-147.898 120.672 21.738 197.068h117.77l-33.844-205.132z" />
<glyph unicode="&#xe925;" glyph-name="xbox" d="M874.040 1044.707c-96.706 96.702-225.28 149.96-362.040 149.96s-265.334-53.258-362.040-149.96c-96.702-96.706-149.96-225.28-149.96-362.040s53.258-265.334 149.96-362.040c96.706-96.702 225.28-149.96 362.040-149.96s265.334 53.258 362.040 149.96c96.702 96.706 149.96 225.28 149.96 362.040s-53.258 265.334-149.96 362.040zM512 1134.667c98.378 0 189.502-31.612 263.788-85.186-92.49-10.040-182.27-38.032-263.788-82.504-81.518 44.472-171.298 72.464-263.788 82.504 74.286 53.574 165.41 85.186 263.788 85.186zM583.59 846.743c111.642-91.282 188.346-214.706 221.274-351.622-69.188 109.248-163.688 220.798-272.65 320.198l-20.218 18.444-20.218-18.444c-108.958-99.396-203.456-210.942-272.644-320.19 32.93 136.912 109.636 260.334 221.278 351.614l28.976 23.692-29.428 23.124c-38.348 30.13-77.084 57.574-115.386 81.84 60.37-14.556 118.51-37.654 172.414-68.8l15.010-8.672 15.010 8.672c53.908 31.148 112.050 54.246 172.424 68.802-38.298-24.264-77.034-51.71-115.386-81.842l-29.43-23.124 28.974-23.692zM145.156 418.919c-53.556 74.278-85.156 165.388-85.156 263.748 0 117.328 44.946 224.348 118.51 304.776 62.242-28.768 128.914-69.316 195.376-118.86-129.368-117.556-210.104-276.928-228.73-449.664zM512 230.667c-117.332 0-224.354 44.948-304.782 118.516 60.596 131.334 170 276.042 304.78 403.064 134.782-127.024 244.188-271.732 304.784-403.064-80.428-73.568-187.45-118.516-304.782-118.516zM650.122 868.581c66.472 49.552 133.136 90.098 195.366 118.86 73.566-80.426 118.512-187.446 118.512-304.774 0-98.36-31.6-189.47-85.156-263.748-18.626 172.736-99.356 332.108-228.722 449.662z" />
<glyph unicode="&#xe926;" glyph-name="zynga" d="M0 1194.667v-1024h1024v1024h-1024zM964 230.667h-904v904h904v-904zM724 1074.667v-60.456h-182v60.456h-60v-200.722c0-19.11-16.894-40.692-35.448-45.28l-266.552-65.906v171.184h-60v-583.276h60v60c0 49.632 40.374 90.012 90 90.012l92-0.002v-150.010h60v150.008l60-0.002v-210.006h60v210.006l182-0.006v-210h60v784h-60zM724 560.667l-454 0.010c-33.742 0-64.912-11.206-90-30.084v170.358l280.956 69.468c45.444 11.238 81.044 56.71 81.044 103.526v80.266h182v-393.544zM844 1074.667h60v-784h-60v784z" />
<glyph unicode="&#xe927;" d="M816.002 658.563c0-220.915-179.087-400.002-400.002-400.002s-400.002 179.087-400.002 400.002c0 220.915 179.087 400.002 400.002 400.002s400.002-179.087 400.002-400.002z" />
<glyph unicode="&#xe928;" d="M292.646 535.213c-119.468 119.47-159.452 288.3-120.014 440.84-13.716-10.542-26.914-22.080-39.476-34.642-156.212-156.21-156.212-409.478 0-565.688s409.476-156.21 565.688 0c12.562 12.562 24.1 25.76 34.64 39.476-152.538-39.436-321.368 0.546-440.838 120.014z" />
<glyph unicode="&#xe929;" d="M640 995.707l33.94 33.94c12.446 12.446 32.81 12.446 45.256 0l67.882-67.882c12.446-12.444 12.446-32.81 0-45.256l-33.942-33.942-113.136 113.14z" />
<glyph unicode="&#xe92a;" d="M887.102 1008.293c-4.358-4.356-10.266-6.676-16.696-6.596-6.606 0.106-12.852 2.776-17.59 7.512l-7.218 7.218c-0.004 0.004-0.006 0.006-0.010 0.010l-7.756 7.756c-11.276 11.276-26.316 17.488-42.346 17.488s-31.070-6.212-42.346-17.488c-1.016-1.018-1.85-2.144-2.536-3.334l-20.096 20.096c-9.040 9.040-21.092 14.020-33.94 14.020-12.846 0-24.898-4.98-33.94-14.020l-28.202-28.2c-65.002 40.262-140.054 61.814-218.426 61.814-111.118 0-215.584-43.272-294.156-121.846-78.572-78.57-121.844-183.038-121.844-294.156s43.272-215.584 121.844-294.156c81.098-81.098 187.626-121.646 294.156-121.646 106.526 0 213.058 40.548 294.156 121.646 78.572 78.572 121.842 183.038 121.842 294.156 0 78.374-21.552 153.424-61.81 218.428l28.204 28.202c18.712 18.714 18.712 49.164-0.002 67.878l-25.96 25.96c1.19 0.686 2.318 1.52 3.336 2.538 5.234 5.234 12.236 8.116 19.72 8.116 7.482 0 14.488-2.882 19.722-8.116l7.758-7.756c0.004-0.004 0.006-0.006 0.010-0.010l7.216-7.218c10.644-10.644 24.742-16.64 39.698-16.882 0.314-0.004 0.626-0.008 0.942-0.008 14.794 0 28.576 5.652 38.894 15.97 6.248 6.248 6.248 16.376 0 22.622-6.246 6.25-16.378 6.25-22.624 0.002zM687.53 387.035c-149.724-149.722-393.342-149.722-543.064 0-72.526 72.53-112.47 168.962-112.47 271.532 0 102.574 39.944 199.004 112.472 271.532 72.528 72.532 168.96 112.474 271.532 112.474s199.004-39.944 271.532-112.474 112.472-168.96 112.472-271.532c-0.002-102.57-39.944-199.002-112.474-271.532zM775.768 927.823l-23.808-23.808c-12.564 17.12-26.504 33.414-41.804 48.71-15.298 15.3-31.592 29.24-48.71 41.804l23.808 23.808c2.998 2.998 7.016 4.648 11.316 4.648s8.318-1.65 11.316-4.648l67.882-67.882c6.24-6.24 6.24-16.394 0-22.632zM880.002 1058.569v48.002c0 8.834 7.162 15.998 15.998 15.998s15.998-7.162 15.998-15.998v-48.002c0-8.836-7.162-15.998-15.998-15.998s-15.998 7.162-15.998 15.998zM948.69 1031.257c-6.25 6.248-6.25 16.376 0 22.622l32 32.002c6.248 6.248 16.378 6.248 22.624 0 6.25-6.248 6.25-16.378 0-22.624l-32-32c-3.124-3.124-7.216-4.686-11.312-4.686-4.094 0.002-8.188 1.564-11.312 4.686zM1024 978.569c0-8.834-7.162-15.998-15.998-15.998h-48.002c-8.834 0-15.998 7.162-15.998 15.998s7.162 15.998 15.998 15.998h48c8.838 0 16-7.164 16-15.998zM664.9 907.469c14.742-14.742 28.214-30.812 40.042-47.766 5.056-7.244 3.282-17.218-3.966-22.272-2.788-1.946-5.98-2.88-9.14-2.88-5.052 0-10.022 2.386-13.132 6.846-10.756 15.414-23.010 30.034-36.426 43.45-26.1 26.1-56.080 47.278-89.106 62.938-7.982 3.788-11.386 13.328-7.6 21.308 3.788 7.984 13.326 11.386 21.308 7.6 36.342-17.234 69.322-40.526 98.020-69.224zM527.376 976.061c-2.066-6.948-8.43-11.444-15.328-11.444-1.51 0-3.044 0.214-4.566 0.668-19.832 5.896-40.352 9.878-60.996 11.842-8.794 0.836-15.248 8.644-14.412 17.44s8.636 15.262 17.44 14.412c22.7-2.158 45.272-6.542 67.082-13.024 8.472-2.518 13.296-11.424 10.78-19.894z" />
<glyph unicode="&#xe92b;" d="M976.11 186.625c-8.172 0-16.344 3.12-22.58 9.352-32.318 32.316-38.88 97.729-47.96 188.263-11.198 111.637-26.27 261.828-98.143 391.926-24.216-7.1-51.714-0.94-71.030 18.38l-112.509 112.509c-13.38 13.378-20.91 31.112-21.21 49.938-0.116 7.264 0.844 14.348 2.808 21.080-129.619 71.53-279.26 86.521-390.504 97.667-91.109 9.128-156.935 15.724-189.663 48.452-12.472 12.47-12.472 32.688 0 45.156 12.47 12.472 32.688 12.472 45.156 0 16.612-16.612 84.866-23.45 150.873-30.064 125.415-12.566 297.176-29.778 445.331-123.201 8.212-5.178 13.622-13.812 14.702-23.46 1.078-9.65-2.29-19.264-9.154-26.13l-4.066-4.066c-1.382-1.384-1.65-3.166-1.63-4.416 0.020-1.246 0.372-3.656 2.512-5.798l112.509-112.509c2.956-2.956 7.73-3.37 10.216-0.884l4.074 4.072c6.866 6.864 16.47 10.234 26.126 9.154 9.646-1.078 18.278-6.484 23.46-14.694 93.785-148.641 111.067-320.936 123.687-446.739 6.572-65.522 13.37-133.275 29.574-149.479 12.472-12.47 12.472-32.688 0-45.156-6.234-6.238-14.406-9.354-22.578-9.354z" />
<glyph unicode="&#xe92c;" d="M127.725 378.788h79.828l111.759 111.759h-79.828z" />
<glyph unicode="&#xe92d;" d="M207.553 298.96l111.759 111.761v79.826l-111.759-111.759z" />
<glyph unicode="&#xe92e;" d="M1009.978 252.423c-1.682 1.684-7.664 10.090-13.942 47.592-4.458 26.632-7.802 59.958-11.036 92.193-12.776 127.383-30.276 301.842-126.071 453.667-7.814 12.384-20.64 20.416-35.19 22.042-13.35 1.492-26.47-2.6-36.542-11.276l-39.608 39.608 157.845 157.845-10.546-31.634c-2.788-8.364 1.732-17.406 10.098-20.194 1.674-0.558 3.376-0.824 5.052-0.824 6.686 0 12.914 4.23 15.144 10.92l31.93 95.793c0.022 0.064 0.034 0.13 0.054 0.194 0.050 0.154 0.102 0.306 0.146 0.462 0.054 0.188 0.094 0.38 0.142 0.568 0.046 0.184 0.094 0.368 0.132 0.55 0.024 0.116 0.050 0.23 0.072 0.346 0.040 0.208 0.064 0.42 0.096 0.63 0.030 0.206 0.062 0.412 0.084 0.616 0.008 0.084 0.020 0.17 0.026 0.254 0.020 0.22 0.026 0.442 0.038 0.66 0.010 0.22 0.024 0.44 0.026 0.658 0 0.072 0 0.146 0 0.218-0.002 0.22-0.014 0.44-0.026 0.658-0.010 0.222-0.018 0.442-0.038 0.66-0.008 0.084-0.018 0.17-0.026 0.254-0.022 0.206-0.054 0.412-0.084 0.616-0.030 0.21-0.056 0.422-0.096 0.63-0.022 0.116-0.048 0.23-0.072 0.346-0.040 0.184-0.086 0.368-0.132 0.55-0.046 0.19-0.088 0.382-0.142 0.568-0.044 0.156-0.096 0.308-0.146 0.462-0.020 0.064-0.032 0.13-0.054 0.194-0.036 0.106-0.084 0.206-0.122 0.31-0.056 0.156-0.106 0.314-0.166 0.468-0.068 0.174-0.146 0.346-0.22 0.518-0.076 0.176-0.158 0.348-0.238 0.518-0.058 0.122-0.112 0.246-0.174 0.368-0.086 0.168-0.178 0.332-0.27 0.494-0.102 0.184-0.206 0.366-0.316 0.542-0.066 0.11-0.132 0.222-0.202 0.33-0.092 0.144-0.19 0.286-0.288 0.428-0.124 0.182-0.25 0.36-0.382 0.534-0.088 0.118-0.18 0.236-0.272 0.352s-0.188 0.23-0.284 0.344c-0.138 0.164-0.276 0.326-0.418 0.482-0.124 0.136-0.252 0.27-0.382 0.402-0.048 0.050-0.088 0.102-0.136 0.152-0.048 0.048-0.102 0.088-0.15 0.136-0.134 0.13-0.268 0.26-0.406 0.386-0.156 0.142-0.316 0.278-0.476 0.414-0.114 0.096-0.228 0.19-0.342 0.282-0.118 0.094-0.238 0.186-0.36 0.276-0.174 0.13-0.352 0.254-0.53 0.378-0.142 0.098-0.282 0.194-0.426 0.286-0.11 0.070-0.222 0.136-0.334 0.204-0.178 0.108-0.358 0.212-0.54 0.314-0.164 0.092-0.328 0.182-0.492 0.268-0.122 0.062-0.246 0.116-0.37 0.174-0.174 0.084-0.348 0.164-0.526 0.242-0.17 0.074-0.338 0.15-0.508 0.216-0.154 0.060-0.312 0.11-0.468 0.166-0.106 0.038-0.208 0.086-0.316 0.124-0.066 0.022-0.134 0.034-0.202 0.056-0.15 0.048-0.3 0.098-0.452 0.142-0.188 0.054-0.378 0.094-0.566 0.142-0.186 0.046-0.372 0.094-0.558 0.134-0.114 0.024-0.226 0.050-0.34 0.072-0.208 0.040-0.42 0.064-0.628 0.096-0.208 0.030-0.418 0.064-0.624 0.086-0.082 0.008-0.164 0.018-0.246 0.026-0.222 0.020-0.442 0.028-0.664 0.038s-0.442 0.024-0.66 0.026c-0.070 0-0.14 0-0.21 0-0.222-0.002-0.446-0.014-0.668-0.026-0.22-0.010-0.442-0.018-0.658-0.038-0.082-0.008-0.164-0.018-0.246-0.026-0.21-0.022-0.42-0.056-0.628-0.086-0.21-0.030-0.42-0.056-0.626-0.096-0.114-0.022-0.226-0.048-0.34-0.070-0.188-0.040-0.376-0.088-0.562-0.134-0.188-0.046-0.378-0.088-0.564-0.14-0.152-0.044-0.302-0.094-0.452-0.142-0.068-0.022-0.134-0.034-0.202-0.056l-95.793-31.93c-8.364-2.788-12.886-11.83-10.098-20.194 2.23-6.692 8.46-10.92 15.144-10.92 1.672 0 3.376 0.266 5.052 0.824l31.634 10.546-157.845-157.845-39.032 39.034c8.676 10.070 12.76 23.192 11.268 36.54-1.628 14.55-9.666 27.376-22.052 35.19-151.337 95.429-325.262 112.855-452.271 125.581-32.462 3.252-66.030 6.616-92.891 11.142-37.874 6.378-46.522 12.578-48.27 14.326-9.036 9.036-21.064 14.020-33.858 14.020s-24.816-4.994-33.86-14.040c-9.046-9.046-14.030-21.074-14.030-33.866s4.984-24.822 14.030-33.87c15.394-15.394 36.328-25.528 62.374-32.818l404.932-404.932-168.637-168.637h-73.216c-0.060 0-0.118-0.008-0.178-0.008-0.464-0.006-0.93-0.024-1.392-0.070-0.258-0.026-0.508-0.072-0.762-0.11-0.262-0.038-0.522-0.068-0.782-0.12-0.284-0.056-0.556-0.134-0.834-0.204-0.228-0.058-0.456-0.108-0.68-0.176-0.272-0.082-0.532-0.184-0.798-0.28-0.226-0.082-0.456-0.156-0.676-0.248-0.248-0.102-0.484-0.224-0.726-0.338-0.232-0.11-0.462-0.212-0.69-0.334-0.234-0.126-0.458-0.268-0.684-0.406-0.22-0.132-0.442-0.256-0.654-0.398-0.256-0.172-0.494-0.36-0.74-0.544-0.172-0.13-0.348-0.248-0.514-0.386-0.412-0.338-0.806-0.692-1.182-1.068l-111.743-111.743c-0.376-0.376-0.73-0.768-1.068-1.18-0.144-0.174-0.268-0.358-0.402-0.534-0.18-0.238-0.364-0.47-0.528-0.72-0.148-0.222-0.276-0.45-0.412-0.674-0.132-0.22-0.27-0.434-0.392-0.662-0.126-0.236-0.232-0.476-0.346-0.716-0.11-0.232-0.226-0.458-0.324-0.696-0.098-0.236-0.176-0.474-0.262-0.714-0.090-0.252-0.188-0.5-0.266-0.758-0.074-0.244-0.128-0.488-0.19-0.734-0.066-0.26-0.138-0.514-0.19-0.78-0.058-0.288-0.092-0.578-0.134-0.868-0.032-0.226-0.076-0.448-0.098-0.674-0.104-1.050-0.104-2.106 0-3.156 0.022-0.228 0.066-0.45 0.098-0.674 0.042-0.29 0.076-0.58 0.134-0.868 0.052-0.266 0.126-0.52 0.19-0.78 0.062-0.246 0.116-0.49 0.19-0.734 0.078-0.258 0.176-0.506 0.266-0.758 0.086-0.24 0.164-0.478 0.262-0.714 0.098-0.238 0.214-0.466 0.324-0.696 0.114-0.24 0.22-0.482 0.346-0.716 0.122-0.228 0.26-0.444 0.392-0.662 0.136-0.226 0.264-0.456 0.412-0.674 0.166-0.248 0.35-0.48 0.528-0.72 0.134-0.178 0.258-0.362 0.402-0.534 0.668-0.816 1.416-1.564 2.234-2.234 0.168-0.138 0.344-0.256 0.514-0.386 0.246-0.184 0.484-0.374 0.74-0.544 0.216-0.144 0.44-0.268 0.658-0.4 0.226-0.136 0.448-0.278 0.68-0.402 0.23-0.122 0.466-0.228 0.7-0.338 0.238-0.112 0.47-0.23 0.714-0.332 0.228-0.094 0.462-0.172 0.694-0.254 0.26-0.094 0.514-0.194 0.78-0.274 0.234-0.070 0.47-0.122 0.706-0.182 0.268-0.068 0.532-0.144 0.806-0.198 0.278-0.056 0.556-0.088 0.836-0.128 0.236-0.034 0.466-0.080 0.706-0.102 0.522-0.052 1.050-0.080 1.574-0.080h63.862v-63.856c0-0.528 0.028-1.056 0.080-1.582 0.022-0.228 0.066-0.45 0.098-0.674 0.042-0.29 0.076-0.58 0.132-0.868 0.052-0.266 0.126-0.52 0.19-0.78 0.062-0.246 0.116-0.49 0.19-0.734 0.078-0.258 0.176-0.506 0.266-0.758 0.086-0.24 0.164-0.478 0.262-0.714 0.098-0.238 0.214-0.464 0.324-0.696 0.114-0.24 0.22-0.482 0.346-0.716 0.122-0.228 0.26-0.442 0.392-0.662 0.136-0.226 0.264-0.456 0.41-0.674 0.166-0.248 0.35-0.48 0.528-0.72 0.134-0.178 0.258-0.362 0.402-0.534 0.668-0.816 1.416-1.564 2.234-2.234 0.168-0.138 0.344-0.256 0.514-0.386 0.246-0.184 0.484-0.374 0.74-0.544 0.216-0.144 0.44-0.268 0.658-0.4 0.226-0.136 0.448-0.278 0.68-0.402 0.23-0.122 0.466-0.228 0.7-0.338 0.238-0.112 0.47-0.23 0.714-0.332 0.23-0.094 0.462-0.172 0.694-0.254 0.26-0.094 0.514-0.194 0.78-0.274 0.234-0.070 0.47-0.122 0.706-0.182 0.268-0.068 0.532-0.144 0.806-0.198 0.278-0.056 0.556-0.088 0.836-0.128 0.236-0.034 0.466-0.080 0.706-0.102 0.522-0.052 1.050-0.080 1.574-0.080s1.052 0.028 1.574 0.080c0.24 0.024 0.47 0.068 0.706 0.102 0.28 0.040 0.558 0.072 0.836 0.128 0.274 0.054 0.538 0.13 0.806 0.198 0.236 0.060 0.472 0.112 0.706 0.182 0.266 0.080 0.52 0.18 0.78 0.274 0.232 0.084 0.464 0.16 0.694 0.254 0.244 0.102 0.476 0.22 0.714 0.332 0.236 0.11 0.47 0.216 0.7 0.338 0.234 0.126 0.456 0.266 0.68 0.402 0.22 0.132 0.444 0.256 0.658 0.4 0.256 0.172 0.494 0.36 0.74 0.544 0.172 0.13 0.348 0.248 0.514 0.386 0.412 0.338 0.806 0.692 1.182 1.068l111.743 111.743c0.376 0.376 0.73 0.768 1.068 1.18 0.144 0.174 0.266 0.358 0.402 0.534 0.18 0.238 0.364 0.472 0.528 0.72 0.148 0.222 0.276 0.45 0.412 0.674 0.132 0.22 0.27 0.436 0.392 0.662 0.126 0.236 0.234 0.478 0.348 0.72 0.11 0.232 0.224 0.458 0.322 0.692 0.098 0.238 0.178 0.48 0.264 0.72 0.090 0.252 0.186 0.498 0.264 0.754 0.074 0.244 0.128 0.488 0.19 0.734 0.066 0.26 0.138 0.514 0.19 0.78 0.058 0.288 0.092 0.578 0.132 0.868 0.032 0.226 0.076 0.448 0.098 0.674 0.052 0.526 0.080 1.054 0.080 1.582v73.21l168.637 168.637 405.786-405.786c7.224-25.976 17.268-46.822 32.544-62.096 9.046-9.046 21.074-14.030 33.866-14.030s24.82 4.984 33.866 14.028c9.046 9.046 14.030 21.074 14.030 33.868 0.006 12.786-4.976 24.814-14.022 33.862zM223.517 372.174l59.186 59.186c6.236 6.234 6.236 16.342 0 22.58-6.234 6.234-16.342 6.234-22.578 0l-59.184-59.186h-34.674l79.828 79.828h57.25v-57.248l-79.828-79.828v34.668zM31.93 1146.769c0 4.264 1.66 8.274 4.678 11.29 3.014 3.016 7.022 4.676 11.288 4.676s8.274-1.66 11.29-4.678c19.25-19.25 73.5-25.936 160.569-34.662 123.835-12.408 293.434-29.4 438.407-120.817 4.13-2.604 6.81-6.882 7.352-11.73 0.542-4.852-1.126-9.614-4.576-13.066l-4.066-4.066c-4.164-4.164-6.404-9.836-6.304-15.956 0.098-6.322 2.652-12.302 7.188-16.838l44.678-44.678-22.58-22.58-44.678 44.678c-10.432 10.43-16.302 24.244-16.536 38.902-0.090 5.606 0.64 11.108 2.172 16.352 2.094 7.174-1.070 14.84-7.612 18.45-132.477 73.11-285.136 88.407-396.626 99.577-87.817 8.798-151.265 15.158-179.963 43.856-3.016 3.016-4.68 7.024-4.68 11.29zM132.693 1068.948c24.238-3.438 51.198-6.14 80.722-9.098 105.781-10.6 249.597-25.012 374.036-90.203-0.558-4.252-0.804-8.564-0.736-12.906 0.368-22.994 9.56-44.65 25.886-60.972l44.678-44.678-153.363-153.363-371.224 371.22zM526.493 675.15l153.363 153.363 45.254-45.254c19.662-19.664 47.058-28.756 73.912-25.154 65.53-124.931 80.012-269.286 90.665-375.458 2.92-29.118 5.592-55.72 8.97-79.66l-372.164 372.164zM987.4 207.265c-3.016-3.016-7.024-4.676-11.29-4.676-4.264 0-8.272 1.66-11.29 4.676-28.29 28.29-34.614 91.325-43.364 178.567-11.222 111.869-26.59 265.078-100.053 398.054-2.866 5.186-8.278 8.246-13.974 8.246-1.49 0-3.004-0.21-4.492-0.646-19.506-5.72-40.68-0.224-55.25 14.346l-45.254 45.254 22.58 22.58 45.256-45.256c9.286-9.282 23.996-9.678 32.792-0.882l4.072 4.072c3.452 3.45 8.214 5.12 13.064 4.578 4.85-0.54 9.124-3.22 11.728-7.348 91.779-145.461 108.843-315.59 121.305-439.823 8.672-86.447 15.298-140.295 34.17-159.169 3.016-3.016 4.676-7.024 4.676-11.288 0-4.26-1.662-8.27-4.676-11.286z" />
<glyph unicode="&#xe92f;" d="M1008 682.667c0-273.933-222.067-496-496-496s-496 222.067-496 496c0 273.933 222.067 496 496 496s496-222.067 496-496z" />
<glyph unicode="&#xe930;" d="M656 922.667v96c0 35.2-28.8 64-64 64h-160c-35.2 0-64-28.8-64-64v-192h-192c-35.2 0-64-28.8-64-64v-160c0-35.2 28.8-64 64-64h192v-192c0-35.2 28.8-64 64-64h160c35.2 0 64 28.8 64 64v192h192c35.2 0 64 28.8 64 64v160c0 35.2-28.8 64-64 64h-192v96z" />
<glyph unicode="&#xe931;" d="M624 682.667c0-61.856-50.144-112-112-112s-112 50.144-112 112c0 61.856 50.144 112 112 112s112-50.144 112-112z" />
<glyph unicode="&#xe932;" d="M304 602.667l-128 80 128 80z" />
<glyph unicode="&#xe933;" d="M720 602.667l128 80-128 80z" />
<glyph unicode="&#xe934;" d="M592 474.667l-80-128-80 128z" />
<glyph unicode="&#xe935;" d="M592 890.667l-80 128-80-128z" />
<glyph unicode="&#xe936;" d="M874.040 1044.707c-96.704 96.702-225.28 149.96-362.040 149.96s-265.336-53.258-362.040-149.96c-96.704-96.706-149.96-225.28-149.96-362.040s53.256-265.334 149.96-362.040c96.704-96.702 225.28-149.96 362.040-149.96s265.336 53.258 362.040 149.96c96.704 96.706 149.96 225.28 149.96 362.040s-53.256 265.334-149.96 362.040zM512 202.667c-264.672 0-480 215.328-480 480s215.328 480 480 480 480-215.328 480-480-215.328-480-480-480zM640 682.667c0-70.58-57.42-128-128-128s-128 57.42-128 128 57.42 128 128 128c22.5 0 44.634-5.924 64.012-17.134 7.648-4.424 10.262-14.21 5.838-21.86s-14.214-10.262-21.862-5.838c-14.512 8.394-31.108 12.832-47.988 12.832-52.934 0-96-43.066-96-96s43.066-96 96-96 96 43.066 96 96c0 16.88-4.438 33.474-12.834 47.988-4.424 7.648-1.81 17.436 5.838 21.862 7.646 4.426 17.436 1.812 21.862-5.838 11.21-19.378 17.134-41.514 17.134-64.012zM928 762.667v-16c0-8.836-7.164-16-16-16s-16 7.164-16 16v16c0 26.466-21.532 48-48 48h-192c-8.836 0-16 7.164-16 16v32c0 8.836 7.164 16 16 16s16-7.164 16-16v-16h176c44.112 0 80-35.888 80-80zM928 682.669v-80.002c0-44.112-35.888-80-80-80h-176v-176c0-44.112-35.888-80-80-80h-160c-44.112 0-80 35.888-80 80v176h-176c-44.112 0-80 35.888-80 80v160c0 44.112 35.888 80 80 80h176v176c0 44.112 35.888 80 80 80h160c44.112 0 80-35.888 80-80v-96c0-8.838-7.164-16-16-16s-16 7.162-16 16v96c0 26.466-21.532 48-48 48h-160c-26.468 0-48-21.534-48-48v-192c0-8.836-7.162-16-16-16h-192c-26.468 0-48-21.534-48-48v-160c0-26.466 21.532-48 48-48h192c8.838 0 16-7.164 16-16v-192c0-26.466 21.532-48 48-48h160c26.468 0 48 21.534 48 48v192c0 8.836 7.164 16 16 16h192c26.468 0 48 21.534 48 48v80.002c0 8.836 7.164 16 16 16s16-7.164 16-16zM295.52 776.235l-128-80c-4.678-2.924-7.52-8.052-7.52-13.568s2.842-10.644 7.52-13.568l128-80c2.59-1.618 5.532-2.432 8.482-2.432 2.666 0 5.338 0.666 7.754 2.006 5.088 2.82 8.244 8.178 8.244 13.994v160c0 5.816-3.156 11.174-8.244 13.994s-11.304 2.656-16.236-0.426zM288 631.535l-81.812 51.132 81.812 51.132v-102.264zM720 586.667c2.948 0 5.892 0.814 8.482 2.432l128 80c4.678 2.924 7.52 8.052 7.52 13.568s-2.842 10.644-7.52 13.568l-128 80c-4.932 3.082-11.148 3.246-16.236 0.426s-8.244-8.178-8.244-13.994v-160c0-5.816 3.156-11.174 8.244-13.994 2.414-1.34 5.086-2.006 7.754-2.006zM736 733.799l81.812-51.132-81.812-51.132v102.264zM592 490.667h-160c-5.816 0-11.174-3.156-13.994-8.244-2.82-5.086-2.656-11.304 0.426-16.236l80-128c2.924-4.678 8.052-7.52 13.568-7.52s10.644 2.842 13.568 7.52l80 128c3.082 4.932 3.244 11.15 0.426 16.236-2.82 5.088-8.178 8.244-13.994 8.244zM512 376.857l-51.132 81.81h102.264l-51.132-81.81zM432 874.667h160c5.816 0 11.174 3.156 13.994 8.244 2.82 5.086 2.656 11.304-0.426 16.236l-80 128c-2.924 4.678-8.052 7.52-13.568 7.52s-10.644-2.842-13.568-7.52l-80-128c-3.082-4.932-3.244-11.15-0.426-16.236 2.82-5.088 8.178-8.244 13.994-8.244zM512 988.477l51.132-81.81h-102.264l51.132 81.81z" />
<glyph unicode="&#xe937;" d="M943.676 666.667c0-26.4-21.6-48-48-48h-767.356c-26.4 0-48 21.6-48 48v464c0 26.4 21.6 48 48 48h767.358c26.4 0 48-21.6 48-48v-464h-0.002z" />
<glyph unicode="&#xe938;" d="M144.318 1114.667h736v-432h-736v432z" />
<glyph unicode="&#xe939;" d="M416.318 618.667h192v-96h-192v96z" />
<glyph unicode="&#xe93a;" d="M672.32 218.667c0-17.6-14.4-32-32-32h-448c-17.6 0-32 14.4-32 32v208c0 17.6 14.4 32 32 32h448c17.6 0 32-14.4 32-32v-208z" />
<glyph unicode="&#xe93b;" d="M914.32 250.667c0-35.2-28.8-64-64-64h-34c-35.2 0-64 28.8-64 64v144c0 35.2 28.8 64 64 64h34c35.2 0 64-28.8 64-64v-144z" />
<glyph unicode="&#xe93c;" d="M895.676 1194.667h-767.356c-35.29 0-64-28.712-64-64v-464c0-35.29 28.71-64 64-64h272v-64h-48c-8.836 0-16-7.164-16-16s7.164-16 16-16h320c8.838 0 16 7.164 16 16s-7.162 16-16 16h-48v64h271.36c35.29 0 64 28.71 64 64v464c-0.004 35.288-28.714 64-64.004 64zM592.32 538.667h-160v64h160v-64zM927.676 666.667c0-17.644-14.356-32-32-32h-767.356c-17.644 0-32 14.356-32 32v464c0 17.644 14.356 32 32 32h767.358c17.644 0 32-14.356 32-32v-464h-0.002zM880.32 1130.667h-736c-8.838 0-16-7.164-16-16v-432c0-8.836 7.162-16 16-16h736c8.838 0 16 7.164 16 16v432c0 8.836-7.164 16-16 16zM864.32 698.667h-704v400h704v-400zM640.32 474.667h-448c-26.466 0-48-21.534-48-48v-208c0-26.466 21.534-48 48-48h448c26.466 0 48 21.534 48 48v208c0 26.466-21.534 48-48 48zM656.32 218.667c0-8.822-7.178-16-16-16h-448c-8.822 0-16 7.178-16 16v208c0 8.822 7.178 16 16 16h448c8.822 0 16-7.178 16-16v-208zM288.32 298.667c0-8.836-7.162-16-16-16h-48c-8.838 0-16 7.164-16 16s7.162 16 16 16h48c8.836 0 16-7.164 16-16zM624.32 346.667v-48c0-8.836-7.162-16-16-16h-48c-8.836 0-16 7.164-16 16s7.164 16 16 16h32v32c0 8.836 7.164 16 16 16s16-7.164 16-16zM480.32 250.667c0-8.836-7.162-16-16-16h-96c-8.836 0-16 7.164-16 16s7.164 16 16 16h96c8.836 0 16-7.164 16-16zM212.998 383.369c-2.98 2.96-4.68 7.1-4.68 11.298 0 4.22 1.7 8.34 4.68 11.32s7.1 4.68 11.32 4.68c4.2 0 8.34-1.7 11.32-4.68s4.68-7.1 4.68-11.32c0-4.218-1.7-8.34-4.68-11.298-2.98-3-7.1-4.702-11.32-4.702s-8.338 1.702-11.32 4.702zM212.998 335.369c-2.98 2.96-4.68 7.080-4.68 11.298 0 4.22 1.7 8.34 4.68 11.32s7.1 4.68 11.32 4.68 8.34-1.7 11.32-4.68 4.68-7.12 4.68-11.32-1.7-8.34-4.68-11.298c-2.98-3-7.1-4.702-11.32-4.702s-8.338 1.702-11.32 4.702zM235.638 261.987c2.98-2.98 4.68-7.1 4.68-11.32 0-4.218-1.7-8.34-4.68-11.32-2.98-2.978-7.12-4.68-11.32-4.68-4.22 0-8.34 1.702-11.32 4.68-2.98 2.98-4.68 7.122-4.68 11.32 0 4.202 1.7 8.34 4.68 11.32s7.1 4.68 11.32 4.68c4.222 0 8.342-1.7 11.32-4.68zM283.638 261.987c2.98-2.98 4.68-7.1 4.68-11.32 0-4.2-1.7-8.34-4.68-11.32-2.98-2.978-7.1-4.68-11.32-4.68s-8.34 1.702-11.32 4.68c-2.98 2.98-4.68 7.102-4.68 11.32 0 4.22 1.7 8.34 4.68 11.32s7.1 4.68 11.32 4.68c4.222 0 8.342-1.7 11.32-4.68zM331.638 261.987c2.98-2.98 4.68-7.12 4.68-11.32s-1.7-8.32-4.68-11.32c-2.98-2.978-7.1-4.68-11.32-4.68-4.2 0-8.34 1.702-11.32 4.68-2.98 2.98-4.68 7.102-4.68 11.32 0 4.22 1.7 8.34 4.68 11.32s7.1 4.68 11.32 4.68c4.222 0 8.342-1.7 11.32-4.68zM331.638 309.987c2.98-2.98 4.68-7.12 4.68-11.32s-1.7-8.34-4.68-11.32c-2.98-2.978-7.12-4.68-11.32-4.68s-8.34 1.702-11.32 4.68c-2.98 2.98-4.68 7.122-4.68 11.32 0 4.202 1.7 8.34 4.68 11.32s7.1 4.68 11.32 4.68c4.222 0 8.342-1.7 11.32-4.68zM356.998 287.347c-2.98 2.98-4.68 7.102-4.68 11.32 0 4.22 1.7 8.34 4.68 11.32s7.1 4.68 11.32 4.68 8.34-1.7 11.32-4.68 4.68-7.1 4.68-11.32c0-4.218-1.7-8.34-4.68-11.32-2.98-2.978-7.1-4.68-11.32-4.68s-8.338 1.702-11.32 4.68zM356.998 335.369c-2.98 2.96-4.68 7.1-4.68 11.298 0 4.202 1.7 8.34 4.68 11.32s7.1 4.68 11.32 4.68c4.2 0 8.34-1.7 11.32-4.68s4.68-7.12 4.68-11.32-1.7-8.34-4.68-11.298c-2.98-3-7.1-4.702-11.32-4.702s-8.338 1.702-11.32 4.702zM331.638 357.987c2.98-2.98 4.68-7.1 4.68-11.32 0-4.218-1.7-8.34-4.68-11.298-2.98-3-7.1-4.702-11.32-4.702s-8.34 1.702-11.32 4.702c-2.98 2.96-4.68 7.1-4.68 11.298 0 4.202 1.7 8.34 4.68 11.32s7.1 4.68 11.32 4.68c4.222 0 8.342-1.7 11.32-4.68zM331.638 405.987c2.98-2.98 4.68-7.1 4.68-11.32 0-4.2-1.7-8.34-4.68-11.298-2.98-3-7.1-4.702-11.32-4.702s-8.34 1.702-11.32 4.702c-2.98 2.96-4.68 7.1-4.68 11.298 0 4.22 1.7 8.34 4.68 11.32s7.1 4.68 11.32 4.68c4.222 0 8.342-1.7 11.32-4.68zM283.638 405.987c2.98-2.98 4.68-7.1 4.68-11.32 0-4.2-1.7-8.34-4.68-11.298-2.98-3-7.1-4.702-11.32-4.702s-8.34 1.702-11.32 4.702c-2.98 2.96-4.68 7.1-4.68 11.298 0 4.22 1.7 8.34 4.68 11.32s7.12 4.68 11.32 4.68c4.2 0 8.342-1.7 11.32-4.68zM356.998 383.369c-2.98 2.96-4.68 7.1-4.68 11.298 0 4.22 1.7 8.34 4.68 11.32s7.1 4.68 11.32 4.68c4.2 0 8.34-1.7 11.32-4.68s4.68-7.1 4.68-11.32c0-4.2-1.7-8.34-4.68-11.298-2.98-3-7.1-4.702-11.32-4.702s-8.338 1.702-11.32 4.702zM404.998 287.347c-2.98 2.98-4.68 7.122-4.68 11.32 0 4.202 1.7 8.34 4.68 11.32s7.1 4.68 11.32 4.68 8.34-1.7 11.32-4.68 4.68-7.12 4.68-11.32-1.7-8.34-4.68-11.32c-2.98-2.978-7.12-4.68-11.32-4.68-4.198 0-8.338 1.702-11.32 4.68zM404.998 335.369c-2.98 2.96-4.68 7.1-4.68 11.298 0 4.202 1.7 8.34 4.68 11.32s7.12 4.68 11.32 4.68 8.34-1.7 11.32-4.68 4.68-7.12 4.68-11.32-1.7-8.34-4.68-11.298c-2.98-3-7.1-4.702-11.32-4.702s-8.338 1.702-11.32 4.702zM404.998 383.369c-2.98 2.96-4.68 7.080-4.68 11.298 0 4.22 1.7 8.34 4.68 11.32s7.12 4.68 11.32 4.68c4.22 0 8.34-1.7 11.32-4.68s4.68-7.1 4.68-11.32c0-4.2-1.7-8.34-4.68-11.298-2.98-3-7.1-4.702-11.32-4.702s-8.338 1.702-11.32 4.702zM475.638 309.987c2.98-2.98 4.68-7.12 4.68-11.32s-1.7-8.34-4.68-11.32c-2.98-2.978-7.12-4.68-11.32-4.68s-8.34 1.702-11.32 4.68c-2.98 2.98-4.68 7.122-4.68 11.32 0 4.202 1.7 8.34 4.68 11.32s7.1 4.68 11.32 4.68c4.222 0 8.342-1.7 11.32-4.68zM475.638 357.987c2.98-2.98 4.68-7.12 4.68-11.32s-1.7-8.34-4.68-11.298c-2.98-3-7.1-4.702-11.32-4.702s-8.34 1.702-11.32 4.702c-2.98 2.96-4.68 7.080-4.68 11.298 0 4.22 1.7 8.34 4.68 11.32s7.12 4.68 11.32 4.68c4.2 0 8.342-1.7 11.32-4.68zM475.638 405.987c2.98-2.98 4.68-7.1 4.68-11.32 0-4.2-1.7-8.34-4.68-11.298-2.98-3-7.1-4.702-11.32-4.702s-8.34 1.702-11.32 4.702c-2.98 2.96-4.68 7.080-4.68 11.298 0 4.22 1.7 8.34 4.68 11.32s7.12 4.68 11.32 4.68c4.2 0 8.342-1.7 11.32-4.68zM523.638 309.987c2.98-2.98 4.68-7.12 4.68-11.32s-1.7-8.34-4.68-11.32c-2.98-2.978-7.1-4.68-11.32-4.68s-8.34 1.702-11.32 4.68c-2.98 2.98-4.68 7.102-4.68 11.32 0 4.22 1.7 8.34 4.68 11.32s7.1 4.68 11.32 4.68c4.222 0 8.342-1.7 11.32-4.68zM523.638 261.987c2.98-2.98 4.68-7.1 4.68-11.32 0-4.2-1.7-8.34-4.68-11.32-2.98-2.978-7.1-4.68-11.32-4.68-4.2 0-8.34 1.702-11.32 4.68-2.98 2.98-4.68 7.102-4.68 11.32 0 4.22 1.7 8.34 4.68 11.32s7.12 4.68 11.32 4.68c4.222 0 8.342-1.7 11.32-4.68zM571.638 261.987c2.98-2.98 4.68-7.12 4.68-11.32s-1.7-8.32-4.68-11.32c-2.98-2.978-7.1-4.68-11.32-4.68-4.2 0-8.34 1.702-11.32 4.68-2.98 2.98-4.68 7.102-4.68 11.32 0 4.22 1.7 8.34 4.68 11.32s7.1 4.68 11.32 4.68c4.222 0 8.342-1.7 11.32-4.68zM619.638 261.987c2.98-2.98 4.68-7.12 4.68-11.32s-1.7-8.32-4.68-11.32c-2.98-2.978-7.12-4.68-11.32-4.68s-8.34 1.702-11.32 4.68c-2.98 2.98-4.68 7.122-4.68 11.32 0 4.202 1.7 8.34 4.68 11.32s7.1 4.68 11.32 4.68c4.222 0 8.342-1.7 11.32-4.68zM523.638 357.987c2.98-2.98 4.68-7.12 4.68-11.32s-1.7-8.34-4.68-11.298c-2.98-3-7.1-4.702-11.32-4.702s-8.34 1.702-11.32 4.702c-2.98 2.96-4.68 7.080-4.68 11.298 0 4.22 1.7 8.34 4.68 11.32s7.12 4.68 11.32 4.68c4.222 0 8.342-1.7 11.32-4.68zM548.998 335.369c-2.98 2.96-4.68 7.080-4.68 11.298 0 4.22 1.7 8.34 4.68 11.32s7.1 4.68 11.32 4.68c4.22 0 8.34-1.7 11.32-4.68s4.68-7.12 4.68-11.32-1.7-8.34-4.68-11.298c-2.98-3-7.1-4.702-11.32-4.702s-8.338 1.702-11.32 4.702zM523.638 405.987c2.98-2.98 4.68-7.1 4.68-11.32 0-4.2-1.7-8.34-4.68-11.298-2.98-3-7.1-4.702-11.32-4.702-4.2 0-8.34 1.702-11.32 4.702-2.98 2.96-4.68 7.080-4.68 11.298 0 4.22 1.7 8.34 4.68 11.32s7.12 4.68 11.32 4.68c4.222 0 8.342-1.7 11.32-4.68zM548.998 383.369c-2.98 2.96-4.68 7.1-4.68 11.298 0 4.22 1.7 8.34 4.68 11.32s7.12 4.68 11.32 4.68 8.34-1.7 11.32-4.68 4.68-7.1 4.68-11.32c0-4.2-1.7-8.34-4.68-11.298-2.98-3-7.1-4.702-11.32-4.702s-8.338 1.702-11.32 4.702zM619.638 405.987c2.98-2.98 4.68-7.1 4.68-11.32 0-4.218-1.7-8.34-4.68-11.298-2.98-3-7.1-4.702-11.32-4.702s-8.34 1.702-11.32 4.702c-2.98 2.96-4.68 7.1-4.68 11.298 0 4.22 1.7 8.34 4.68 11.32s7.1 4.68 11.32 4.68c4.2 0 8.342-1.7 11.32-4.68zM283.638 357.987c2.98-2.98 4.68-7.12 4.68-11.32s-1.7-8.34-4.68-11.298c-2.98-3-7.1-4.702-11.32-4.702s-8.34 1.702-11.32 4.702c-2.98 2.96-4.68 7.080-4.68 11.298 0 4.22 1.7 8.34 4.68 11.32s7.1 4.68 11.32 4.68c4.222 0 8.342-1.7 11.32-4.68zM850.32 474.667h-34c-44.112 0-80-35.888-80-80v-144c0-44.112 35.888-80 80-80h34c44.112 0 80 35.888 80 80v144c0 44.112-35.888 80-80 80zM898.32 250.667c0-26.466-21.532-48-48-48h-34c-26.468 0-48 21.534-48 48v144c0 26.466 21.532 48 48 48h34c26.468 0 48-21.534 48-48v-144zM848.32 410.667v-32c0-8.836-7.162-16-16-16-8.836 0-16 7.164-16 16v32c0 8.836 7.164 16 16 16s16-7.164 16-16z" />
<glyph unicode="&#xe93d;" d="M255.4 442.514h159.876v-79.892h-159.876v79.892z" />
<glyph unicode="&#xe93e;" d="M655.771 478.084c0-19.562-16.006-35.568-35.568-35.568h-568.625c-19.562 0-35.568 16.006-35.568 35.568v361.137c0 19.562 16.006 35.568 35.568 35.568h568.621c19.562 0 35.568-16.006 35.568-35.568l0.004-361.137z" />
<glyph unicode="&#xe93f;" d="M63.398 826.756h544.343v-336.211h-544.343v336.211z" />
<glyph unicode="&#xe940;" d="M1007.992 394.485h-288.181v576.207c0 17.77 14.406 32.174 32.174 32.174h223.83c17.77 0 32.176-14.406 32.176-32.174v-576.207z" />
<glyph unicode="&#xe941;" d="M767.843 938.827h192.12v-48.030h-192.12v48.030z" />
<glyph unicode="&#xe942;" d="M767.843 842.766h192.12v-48.030h-192.12v48.030z" />
<glyph unicode="&#xe943;" d="M895.924 602.614c0-17.684-14.336-32.020-32.020-32.020s-32.020 14.336-32.020 32.020c0 17.684 14.336 32.020 32.020 32.020s32.020-14.336 32.020-32.020z" />
<glyph unicode="&#xe944;" d="M620.201 890.798h-568.623c-28.442 0-51.578-23.14-51.578-51.578v-361.135c0-28.44 23.136-51.578 51.578-51.578h187.804v-48.030h-15.886c-8.844 0-16.010-7.166-16.010-16.010 0-8.842 7.166-16.010 16.010-16.010h225.26c8.842 0 16.010 7.168 16.010 16.010 0 8.844-7.168 16.010-16.010 16.010h-17.476v48.028h188.92c28.44 0 51.578 23.136 51.578 51.578v361.137c0.002 28.438-23.138 51.578-51.578 51.578zM399.259 378.475h-127.856v48.030h127.856v-48.030zM639.761 478.084c0-10.784-8.774-19.558-19.558-19.558h-568.625c-10.784 0-19.558 8.774-19.558 19.558v361.137c0 10.784 8.774 19.558 19.558 19.558h568.623c10.784 0 19.558-8.774 19.558-19.558l0.002-361.137zM607.741 842.768h-544.343c-8.842 0-16.010-7.166-16.010-16.010v-336.213c0-8.842 7.168-16.010 16.010-16.010h544.343c8.842 0 16.010 7.168 16.010 16.010v336.213c0 8.84-7.17 16.010-16.010 16.010zM591.731 506.556h-512.323v304.193h512.323v-304.193zM975.816 1018.879h-223.83c-26.568 0-48.186-21.616-48.186-48.186v-608.227c0-8.842 7.166-16.010 16.010-16.010 8.842 0 16.010 7.168 16.010 16.010v16.010h256.161v-16.010c0-8.842 7.166-16.010 16.010-16.010 8.842 0 16.010 7.168 16.010 16.010v608.227c0.002 26.568-21.616 48.186-48.184 48.186zM735.821 410.495v560.197c0 8.914 7.25 16.166 16.166 16.166h223.83c8.914 0 16.166-7.252 16.166-16.166v-560.197h-256.163zM959.962 954.839h-192.12c-8.844 0-16.010-7.168-16.010-16.010v-48.030c0-8.842 7.166-16.010 16.010-16.010h192.12c8.842 0 16.010 7.168 16.010 16.010v48.030c0 8.842-7.168 16.010-16.010 16.010zM943.952 906.808h-160.1v16.010h160.1v-16.010zM959.962 858.778h-192.12c-8.844 0-16.010-7.166-16.010-16.010v-48.030c0-8.842 7.166-16.010 16.010-16.010h192.12c8.842 0 16.010 7.168 16.010 16.010v48.030c0 8.84-7.168 16.010-16.010 16.010zM943.952 810.748h-160.1v16.010h160.1v-16.010zM911.932 602.616c0-26.484-21.546-48.030-48.030-48.030s-48.030 21.546-48.030 48.030 21.546 48.030 48.030 48.030c8.842 0 16.010-7.166 16.010-16.010 0-8.842-7.168-16.010-16.010-16.010-8.828 0-16.010-7.182-16.010-16.010s7.182-16.010 16.010-16.010c8.828 0 16.010 7.182 16.010 16.010 0 8.844 7.166 16.010 16.010 16.010 8.842 0 16.010-7.168 16.010-16.010zM895.922 506.556c0-17.656-14.366-32.020-32.020-32.020-17.656 0-32.020 14.364-32.020 32.020s14.364 32.020 32.020 32.020c17.654 0 32.020-14.364 32.020-32.020z" />
<glyph unicode="&#xe945;" d="M720 858.671v0h-7.464l-200.538-608.002 496.002 608.002z" />
<glyph unicode="&#xe946;" d="M720 858.671h288l-208 256h-3.028z" />
<glyph unicode="&#xe947;" d="M224 1114.671l-208.002-256h293.334z" />
<glyph unicode="&#xe948;" d="M309.332 858.669v0.002h-293.334l496-608.002z" />
<glyph unicode="&#xe949;" d="M796.972 1114.671h-284.974l208.002-256z" />
<glyph unicode="&#xe94a;" d="M309.332 858.671l202.666 256h-287.998z" />
<glyph unicode="&#xe94b;" d="M712.536 858.671h7.464l-208.002 256-202.666-256z" />
<glyph unicode="&#xe94c;" d="M309.332 858.671v-0.002l202.666-608 208.002 608.002z" />
<glyph unicode="&#xe94d;" d="M1020.35 848.483c0.468 0.566 0.878 1.166 1.258 1.78 0.074 0.12 0.144 0.24 0.214 0.36 0.328 0.564 0.626 1.138 0.88 1.732 0.016 0.036 0.034 0.070 0.050 0.108 0.262 0.622 0.474 1.262 0.654 1.91 0.044 0.154 0.078 0.31 0.116 0.466 0.132 0.54 0.238 1.084 0.316 1.636 0.018 0.126 0.042 0.25 0.058 0.378 0.074 0.652 0.106 1.306 0.1 1.966 0 0.148-0.012 0.292-0.018 0.44-0.020 0.558-0.070 1.116-0.148 1.672-0.020 0.136-0.034 0.27-0.056 0.404-0.112 0.67-0.266 1.334-0.464 1.992-0.024 0.082-0.058 0.162-0.084 0.246-0.188 0.586-0.414 1.162-0.674 1.73-0.034 0.076-0.054 0.156-0.090 0.232-0.026 0.054-0.060 0.1-0.086 0.152-0.302 0.618-0.636 1.226-1.026 1.812-0.038 0.058-0.082 0.108-0.12 0.164-0.254 0.374-0.516 0.744-0.806 1.1l-208 255.998c-3.040 3.742-7.604 5.914-12.424 5.914h-3.106c-0.046 0-0.092 0-0.138 0h-284.642c-0.002 0-0.004 0-0.006 0h-288.108c-0.030 0-0.058-0.004-0.088-0.004-0.538-0.004-1.078-0.032-1.62-0.090-0.032-0.004-0.066-0.004-0.098-0.006-0.574-0.066-1.148-0.162-1.722-0.292-0.102-0.024-0.2-0.060-0.302-0.084-0.412-0.102-0.822-0.206-1.232-0.342-0.032-0.010-0.060-0.026-0.092-0.036-0.202-0.068-0.394-0.154-0.594-0.232-0.338-0.13-0.678-0.26-1.002-0.412-0.178-0.082-0.348-0.178-0.522-0.268-0.338-0.172-0.672-0.348-0.994-0.542-0.158-0.096-0.31-0.2-0.466-0.3-0.324-0.212-0.642-0.43-0.948-0.662-0.148-0.112-0.29-0.228-0.434-0.346-0.298-0.244-0.586-0.496-0.866-0.76-0.136-0.128-0.27-0.258-0.402-0.39-0.274-0.278-0.534-0.568-0.786-0.864-0.082-0.096-0.174-0.18-0.252-0.278l-208-256.002c-0.29-0.356-0.55-0.726-0.804-1.1-0.038-0.056-0.082-0.108-0.12-0.164-0.388-0.586-0.722-1.194-1.024-1.814-0.026-0.052-0.060-0.098-0.086-0.152-0.036-0.076-0.056-0.156-0.090-0.232-0.258-0.566-0.486-1.142-0.674-1.728-0.026-0.084-0.060-0.164-0.086-0.248-0.2-0.656-0.352-1.32-0.464-1.992-0.022-0.134-0.036-0.27-0.056-0.404-0.078-0.556-0.128-1.112-0.148-1.672-0.006-0.148-0.016-0.294-0.018-0.44-0.006-0.656 0.026-1.312 0.1-1.966 0.014-0.126 0.040-0.252 0.056-0.378 0.076-0.55 0.182-1.094 0.314-1.636 0.038-0.156 0.074-0.312 0.116-0.466 0.18-0.648 0.392-1.286 0.654-1.91 0.016-0.036 0.034-0.072 0.050-0.108 0.254-0.592 0.552-1.168 0.88-1.73 0.070-0.122 0.142-0.242 0.216-0.362 0.38-0.614 0.79-1.212 1.258-1.778l495.948-607.934c0.076-0.094 0.166-0.176 0.244-0.268 0.254-0.298 0.516-0.588 0.792-0.866 0.060-0.060 0.112-0.13 0.172-0.188 0.062-0.062 0.134-0.114 0.2-0.174 0.008-0.008 0.016-0.014 0.024-0.022 0.282-0.266 0.572-0.52 0.874-0.766 0.14-0.114 0.28-0.228 0.424-0.338 0.132-0.1 0.258-0.206 0.392-0.302 0.016-0.012 0.034-0.022 0.052-0.034 0.166-0.118 0.344-0.22 0.514-0.332 0.15-0.098 0.298-0.2 0.452-0.292 0.284-0.172 0.58-0.326 0.876-0.48 0.116-0.060 0.228-0.126 0.344-0.184 0.098-0.048 0.196-0.098 0.294-0.144 0.33-0.154 0.676-0.286 1.022-0.418 0.192-0.074 0.38-0.158 0.574-0.224 0.030-0.010 0.058-0.024 0.088-0.034 0.026-0.008 0.054-0.010 0.080-0.020 0.152-0.050 0.308-0.080 0.462-0.126 0.54-0.16 1.088-0.29 1.646-0.392 0.12-0.022 0.24-0.066 0.36-0.086 0.106-0.016 0.214-0.014 0.32-0.030 0.664-0.092 1.334-0.15 2.014-0.158 0.060 0 0.118-0.014 0.178-0.014v0c0.060 0 0.118 0.014 0.178 0.014 0.678 0.008 1.348 0.066 2.014 0.158 0.106 0.014 0.214 0.012 0.32 0.030 0.12 0.020 0.24 0.064 0.36 0.086 0.558 0.102 1.106 0.232 1.646 0.392 0.152 0.046 0.308 0.076 0.46 0.126 0.026 0.008 0.054 0.010 0.082 0.020 0.030 0.010 0.058 0.024 0.088 0.034 0.194 0.066 0.382 0.15 0.574 0.224 0.346 0.132 0.69 0.264 1.022 0.418 0.1 0.046 0.198 0.096 0.296 0.146 0.116 0.056 0.226 0.122 0.34 0.18 0.298 0.154 0.594 0.31 0.88 0.482 0.154 0.092 0.302 0.194 0.452 0.292 0.174 0.112 0.354 0.218 0.522 0.338 0.014 0.010 0.028 0.018 0.042 0.026 0.136 0.096 0.262 0.204 0.396 0.304 0.144 0.11 0.284 0.224 0.424 0.338 0.302 0.246 0.594 0.5 0.874 0.766 0.012 0.010 0.024 0.020 0.036 0.032 0.060 0.058 0.128 0.106 0.186 0.164 0.060 0.060 0.114 0.13 0.174 0.19 0.276 0.28 0.538 0.568 0.792 0.866 0.078 0.092 0.166 0.174 0.244 0.268l495.948 607.93zM218.034 1081.943l69.088-207.266h-237.49l168.402 207.266zM735.984 911.835c1.538-0.462 3.090-0.682 4.616-0.682 6.882 0 13.242 4.472 15.324 11.402l48.496 161.292 169.946-209.166h-246.746l-181.986 223.982h229.81l-50.18-166.89c-2.548-8.466 2.252-17.394 10.72-19.938zM246.21 1098.663h232.698l-163.75-206.844-68.948 206.844zM512.16 1089.085l174.204-214.406h-304.436c-8.842 0-16.008-7.168-16.008-16.008 0-8.842 7.166-16.008 16.008-16.008h310.528l-180.456-541.37-184.742 554.228 184.902 233.564zM554.806 328.469l171.398 514.194h248.076l-419.474-514.194zM297.794 842.663l171.398-514.194-419.474 514.194h248.076z" />
<glyph unicode="&#xe94e;" d="M80.018 775.985l-62.678-317.532c-0.874-5.206-1.328-10.554-1.328-16.004 0-53.026 42.986-96.012 96.012-96.012 35.538 0 66.568 19.31 83.168 48.008l140.856 240.024h351.906l140.856-240.024c16.6-28.7 47.628-48.008 83.168-48.008 53.026 0 96.012 42.986 96.012 96.012 0 5.454-0.454 10.802-1.328 16.004l-62.678 317.532-15.348 98.512h-836.574l-12.044-98.512z" />
<glyph unicode="&#xe94f;" d="M398.272 794.753c0-87.321-70.787-158.108-158.108-158.108s-158.108 70.787-158.108 158.108c0 87.321 70.787 158.108 158.108 158.108s158.108-70.787 158.108-158.108z" />
<glyph unicode="&#xe950;" d="M940.642 794.753c0-87.321-70.787-158.108-158.108-158.108s-158.108 70.787-158.108 158.108c0 87.321 70.787 158.108 158.108 158.108s158.108-70.787 158.108-158.108z" />
<glyph unicode="&#xe951;" d="M480.064 874.497v48.39c0 17.674 14.328 32.004 32.004 32.004v0c17.674 0 32.004-14.328 32.004-32.004v-48.39h-64.008z" />
<glyph unicode="&#xe952;" d="M1022.45 461.103c-0.026 0.15-0.052 0.3-0.082 0.452l-62.678 317.532c-0.048 0.244-0.122 0.48-0.18 0.72 0.402 4.842 0.618 9.736 0.618 14.68 0 97.062-78.966 176.028-176.030 176.028-61.662 0-116.012-31.876-147.46-80.008h-76.558v32.378c0 20.862-13.378 38.652-32.004 45.258v50.754c0 8.842-7.168 16.010-16.010 16.010-8.844 0-16.010-7.168-16.010-16.010v-50.75c-18.624-6.608-32.004-24.396-32.004-45.258v-32.378h-76.462c-12.35 18.974-28.29 35.472-47.194 48.616-29.548 20.538-64.252 31.394-100.36 31.394-97.062 0-176.028-78.966-176.028-176.028 0-4.81 0.202-9.572 0.582-14.286-0.1-0.368-0.204-0.734-0.278-1.114l-62.68-317.538c-0.030-0.15-0.056-0.3-0.082-0.452-1.030-6.124-1.55-12.4-1.55-18.654 0-61.768 50.252-112.022 112.022-112.022 39.868 0 77.046 21.458 96.976 55.916l136.218 232.116h333.568l136.168-232.030c19.98-34.544 57.16-56.002 97.026-56.002 61.768 0 112.022 50.252 112.022 112.022 0 6.254-0.52 12.53-1.55 18.654zM496.076 922.885c0 8.818 7.172 15.992 15.992 15.992 8.818 0 15.992-7.174 15.992-15.992v-32.378h-31.984v32.378zM240.036 938.493c59.732 0 112.392-35.932 134.158-91.544 3.222-8.234 12.508-12.296 20.744-9.074 8.19 3.206 12.246 12.41 9.12 20.612h216.056c-7.772-19.846-12.046-41.432-12.046-63.998 0-33.562 9.484-66.208 27.426-94.398 4.748-7.462 14.646-9.658 22.106-4.912 7.46 4.748 9.658 14.644 4.912 22.104-14.668 23.046-22.422 49.744-22.422 77.206 0 79.406 64.6 144.006 144.006 144.006s144.008-64.6 144.008-144.006-64.602-144.006-144.008-144.006c-29.346 0-57.574 8.766-81.632 25.354-7.282 5.022-17.252 3.186-22.272-4.092-4.702-6.82-3.39-16 2.78-21.26h-341.82c45.274 31.884 74.914 84.546 74.914 144.006 0 8.842-7.166 16.010-16.010 16.010-8.842 0-16.010-7.168-16.010-16.010 0-79.406-64.602-144.006-144.008-144.006s-144.006 64.6-144.006 144.006 64.598 144.002 144.004 144.002zM181.332 402.463c-14.276-24.682-40.834-40.016-69.31-40.016-44.112 0-80 35.888-80 80 0 4.412 0.36 8.83 1.070 13.138l50.85 257.602c29.414-56.248 88.34-94.73 156.092-94.73 4.146 0 8.258 0.154 12.334 0.438 1.178-0.276 2.404-0.438 3.668-0.438h52.050l-126.754-215.994zM911.978 362.449c-28.474 0-55.032 15.332-69.36 40.102l-126.704 215.91h52.182c1.266 0 2.496 0.162 3.676 0.44 4.086-0.282 8.196-0.44 12.324-0.44 67.678 0 126.548 38.398 155.996 94.546l50.812-257.418c0.71-4.308 1.070-8.728 1.070-13.138 0.004-44.114-35.884-80.002-79.996-80.002zM464.054 714.479c0 8.844 7.166 16.010 16.010 16.010h64.006c8.844 0 16.010-7.166 16.010-16.010 0-8.842-7.166-16.010-16.010-16.010h-64.006c-8.844-0.002-16.010 7.168-16.010 16.010zM144.024 778.477c-8.844 0-16.010 7.168-16.010 16.010s7.166 16.010 16.010 16.010h48.006c8.844 0 16.010-7.168 16.010-16.010s-7.166-16.010-16.010-16.010h-48.006zM272.030 794.487c0 8.842 7.168 16.010 16.010 16.010h48.004c8.842 0 16.010-7.168 16.010-16.010s-7.168-16.010-16.010-16.010h-48.004c-8.842 0-16.010 7.168-16.010 16.010zM224.026 698.475v48.004c0 8.842 7.168 16.010 16.010 16.010 8.844 0 16.010-7.168 16.010-16.010v-48.004c0-8.842-7.166-16.010-16.010-16.010-8.842 0-16.010 7.168-16.010 16.010zM224.026 842.493v48.006c0 8.842 7.168 16.010 16.010 16.010 8.844 0 16.010-7.168 16.010-16.010v-48.004c0-8.842-7.166-16.010-16.010-16.010-8.842-0.004-16.010 7.166-16.010 16.008zM704.080 746.483c0 17.652 14.36 32.014 32.012 32.014s32.014-14.36 32.014-32.014c0-17.652-14.362-32.012-32.014-32.012-17.65 0-32.012 14.36-32.012 32.012zM800.090 746.483c0 17.652 14.362 32.014 32.014 32.014s32.014-14.36 32.014-32.014c0-17.652-14.362-32.012-32.014-32.012-17.654 0-32.014 14.36-32.014 32.012zM704.080 842.493c0 17.652 14.36 32.012 32.012 32.012s32.014-14.36 32.014-32.012c0-17.652-14.362-32.012-32.014-32.012-17.65 0-32.012 14.362-32.012 32.012zM800.090 842.493c0 17.652 14.362 32.012 32.014 32.012s32.014-14.36 32.014-32.012c0-17.652-14.362-32.012-32.014-32.012-17.654 0-32.014 14.362-32.014 32.012z" />
<glyph unicode="&#xe953;" d="M103.556 1068.735v-850.060c0-17.6-14.4-31.998-31.998-31.998v0c-17.6 0-31.998 14.4-31.998 31.998v927.986c-0.002 17.6 14.398 31.998 31.998 31.998v0c17.6 0 31.998-14.4 31.998-31.998v-77.926z" />
<glyph unicode="&#xe954;" d="M103.556 506.51c299.561 0 284.999-47.798 584.307-47.798 117.74 0 196.066 14.764 260.355 32.172 28.628 7.754 43.842 37.732 32.468 64.152l-109.16 253.594 93.996 232.756c14.406 35.672-18.588 72.404-57.35 63.714-56.814-12.74-125.888-22.234-220.31-22.234-299.307 0-284.745 47.798-584.307 47.798z" />
<glyph unicode="&#xe955;" d="M995.39 561.366l-106.52 247.462 91.494 226.564c8.82 21.84 4.914 45.684-10.444 63.778-15.914 18.748-40.912 27.004-65.252 21.548-66.474-14.906-135.366-21.846-216.806-21.846-148.288 0-220.006 12.032-289.363 23.672-68.152 11.434-138.552 23.244-278.937 24.078v0.042c0 26.47-21.536 48.004-48.006 48.004s-48.006-21.534-48.006-48.006v-927.988c0-26.47 21.534-48.008 48.006-48.008s48.008 21.536 48.008 48.008v271.779c137.708-0.834 206.784-12.414 273.641-23.634 70.65-11.852 143.706-24.112 294.659-24.112 127.338 0 208.264 17.492 264.539 32.73 18.472 5.002 33.728 17.528 41.86 34.366 7.836 16.226 8.246 35.020 1.126 51.564zM965.438 523.726c-4.094-8.476-11.894-14.814-21.4-17.388-54.362-14.72-132.608-31.616-256.171-31.616-148.288 0-220.006 12.032-289.363 23.672-68.152 11.434-138.552 23.244-278.937 24.078v546.263c0 8.84-7.166 16.006-16.006 16.006s-16.006-7.166-16.006-16.006v-850.060c0-8.82-7.174-15.994-15.994-15.994-8.818 0-15.992 7.174-15.992 15.994v927.986c0 8.818 7.174 15.992 15.992 15.992 8.82 0 15.994-7.174 15.994-15.992v-15.982c0-0.004 0-0.006 0-0.010s0-0.006 0-0.010c0-8.84 7.166-16.006 16.006-16.006 148.48 0 220.246-12.040 289.647-23.686 70.65-11.852 143.706-24.112 294.659-24.112 83.86 0 154.978 7.188 223.812 22.624 12.876 2.884 25.53-1.234 33.842-11.026 7.63-8.988 9.512-20.314 5.166-31.076l-93.996-232.756c-1.598-3.962-1.548-8.398 0.14-12.322l109.158-253.594c3.496-8.13 3.302-17.002-0.55-24.98zM871.054 1021.185l8.766 21.702c3.31 8.198 12.644 12.158 20.834 8.846 8.198-3.312 12.156-12.64 8.846-20.836l-8.766-21.702c-2.516-6.232-8.514-10.016-14.846-10.016-1.996 0-4.026 0.376-5.99 1.168-8.196 3.314-12.156 12.642-8.844 20.838zM878.786 954.847l-40.016-102.040c-2.474-6.31-8.514-10.166-14.906-10.166-1.944 0-3.92 0.356-5.84 1.108-8.23 3.228-12.284 12.516-9.058 20.746l40.016 102.040c3.228 8.23 12.514 12.286 20.746 9.058 8.23-3.228 12.286-12.516 9.058-20.746z" />
<glyph unicode="&#xe956;" d="M726.624 209.295c-12.446-12.446-37.030-22.628-54.63-22.628h-431.994c-17.6 0-32 14.4-32 32v928c0 17.6 14.4 32 32 32h544c17.6 0 32-14.4 32-32v-815.998c0-17.6-10.182-42.182-22.628-54.626l-66.748-66.748z" />
<glyph unicode="&#xe957;" d="M272.002 1066.667h480.004v-384.004h-480.004v384.004z" />
<glyph unicode="&#xe958;" d="M314.004 1024.665h394.004v-300.002h-394.004v300.002z" />
<glyph unicode="&#xe959;" d="M432 554.667h-32v32c0 8.8-7.2 16-16 16h-32c-8.8 0-16-7.2-16-16v-32h-32c-8.8 0-16-7.2-16-16v-32c0-8.8 7.2-16 16-16h32v-32c0-8.8 7.2-16 16-16h32c8.8 0 16 7.2 16 16v32h32c8.8 0 16 7.2 16 16v32c0 8.802-7.2 16-16 16z" />
<glyph unicode="&#xe95a;" d="M674.006 474.659c0-18.778-15.222-34-34-34s-34 15.222-34 34c0 18.778 15.222 34 34 34s34-15.222 34-34z" />
<glyph unicode="&#xe95b;" d="M754.008 554.661c0-18.778-15.222-34-34-34s-34 15.222-34 34c0 18.778 15.222 34 34 34s34-15.222 34-34z" />
<glyph unicode="&#xe95c;" d="M784 1194.667h-544c-26.466 0-48-21.532-48-48v-928c0-26.468 21.534-48 48-48h431.996c22.022 0 50.37 11.742 65.94 27.314l66.748 66.746c15.572 15.57 27.314 43.918 27.314 65.94v816c0.002 26.468-21.532 48-47.998 48zM800 330.669c0-13.28-8.55-33.924-17.94-43.312l-66.748-66.748c-9.39-9.39-30.034-17.94-43.314-17.94h-431.998c-8.822 0-16 7.178-16 16v927.998c0 8.822 7.178 16 16 16h544c8.822 0 16-7.178 16-16v-815.998zM752 1082.665h-480c-8.836 0-16-7.164-16-16v-384c0-8.836 7.164-16 16-16h480c8.836 0 16 7.164 16 16v384c0 8.838-7.164 16-16 16zM736 698.669h-448v351.998h448v-352zM416 474.667h16c17.644 0 31.998 14.356 31.998 32v32c0 17.646-14.354 32-31.998 32h-16v16c0 17.646-14.356 32-32 32h-32c-17.644 0-31.998-14.354-31.998-32v-16h-16c-17.644 0-32-14.354-32-32v-32c0-17.644 14.356-32 32-32h16v-16c0-17.646 14.354-32 31.998-32h32c17.644 0 32 14.354 32 32v16zM400 506.669c-8.836 0-16-7.164-16-16v-32h-31.998v32c0 8.836-7.162 16-16 16h-32v32h32c8.838 0 16 7.164 16 16l-0.002 32h32v-32c0-8.836 7.164-16 16-16h31.998l0.002-32h-32zM768 554.667c0-26.466-21.532-48-48-48s-48 21.532-48 48c0 26.468 21.532 48 47.998 48 8.836 0 16-7.164 16-16s-7.164-16-16-16c-8.822 0-15.998-7.178-15.998-16s7.176-16 15.998-16c8.822 0 16 7.178 16 16 0 8.836 7.164 16 16 16 8.838 0 16.002-7.162 16.002-16zM688 474.667c0-26.468-21.532-48-48-48-26.466 0-48 21.532-48 48 0 26.466 21.532 48 48 48 8.836 0 16-7.164 16-16s-7.164-16-16-16c-8.822 0-16-7.178-16-16s7.176-16 16-16c8.822 0 16 7.178 16 16 0 8.836 7.162 16 16 16 8.836 0.002 16-7.162 16-16zM493.312 371.543c4.902-7.354 2.916-17.286-4.438-22.188l-47.998-32c-2.728-1.818-5.81-2.69-8.86-2.69-5.17 0-10.244 2.502-13.326 7.128-4.902 7.352-2.916 17.286 4.438 22.188l47.998 32c7.35 4.902 17.284 2.914 22.186-4.438zM605.312 371.543c4.902-7.352 2.916-17.286-4.438-22.188l-48-32c-2.728-1.818-5.81-2.69-8.86-2.69-5.17 0-10.244 2.502-13.328 7.128-4.902 7.352-2.914 17.286 4.438 22.188l48 32c7.354 4.902 17.288 2.914 22.188-4.438z" />
<glyph unicode="&#xe95d;" d="M680 250.667c0-35.2-28.8-64-64-64h-208c-35.2 0-64 28.8-64 64v864c0 35.2 28.8 64 64 64h208c35.2 0 64-28.8 64-64v-864z" />
<glyph unicode="&#xe95e;" d="M584 1050.667h-48v48c0 8.8-7.2 16-16 16h-16c-8.8 0-16-7.2-16-16v-48h-48c-8.8 0-16-7.2-16-16v-16c0-8.8 7.2-16 16-16h48v-48c0-8.8 7.2-16 16-16h16c8.8 0 16 7.2 16 16v48h48c8.8 0 16 7.2 16 16v16c0 8.8-7.2 16-16 16z" />
<glyph unicode="&#xe95f;" d="M568 818.667c0-30.928-25.072-56-56-56s-56 25.072-56 56c0 30.928 25.072 56 56 56s56-25.072 56-56z" />
<glyph unicode="&#xe960;" d="M556 498.667c0-24.301-19.699-44-44-44s-44 19.699-44 44c0 24.301 19.699 44 44 44s44-19.699 44-44z" />
<glyph unicode="&#xe961;" d="M556 370.667c0-24.301-19.699-44-44-44s-44 19.699-44 44c0 24.301 19.699 44 44 44s44-19.699 44-44z" />
<glyph unicode="&#xe962;" d="M616 1194.667h-208c-44.112 0-80-35.888-80-80v-864c0-44.112 35.888-80 80-80h208c44.112 0 80 35.888 80 80v864c0 44.112-35.888 80-80 80zM664 250.667c0-26.468-21.532-48-48-48h-208c-26.468 0-48 21.532-48 48v864c0 26.468 21.532 48 48 48h208c26.468 0 48-21.532 48-48v-864zM584 1066.667h-32v32c0 17.644-14.356 32-32 32h-16c-17.644 0-32-14.356-32-32v-32h-32c-17.644 0-32-14.354-32-32v-16c0-17.646 14.356-32 32-32h32v-32c0-17.644 14.356-32 32-32h16c17.644 0 32 14.356 32 32v32h32c17.644 0 32 14.354 32 32v16c0 17.646-14.356 32-32 32zM584 1018.667h-48c-8.836 0-16-7.164-16-16v-48h-16v48c0 8.836-7.162 16-16 16h-48v16h48c8.838 0 16 7.164 16 16v48h16v-48c0-8.836 7.164-16 16-16h48v-16zM582.342 834.083c1.1-5.034 1.658-10.222 1.658-15.416 0-39.702-32.298-72-72-72s-72 32.298-72 72 32.298 72 72 72c5.192 0 10.378-0.558 15.414-1.658 8.634-1.886 14.104-10.412 12.218-19.046-1.884-8.632-10.408-14.102-19.044-12.218-2.798 0.612-5.688 0.92-8.588 0.92-22.056 0-40-17.944-40-40s17.944-40 40-40c22.056 0 40 17.944 40 40 0 2.902-0.31 5.79-0.92 8.586-1.886 8.632 3.584 17.16 12.216 19.046 8.636 1.882 17.16-3.582 19.046-12.214zM568 498.667c0-30.878-25.12-56-56-56s-56 25.122-56 56 25.122 56 56 56c8.836 0 16-7.164 16-16s-7.164-16-16-16c-13.234 0-24-10.766-24-24s10.766-24 24-24 24 10.766 24 24c0 8.836 7.164 16 16 16s16-7.164 16-16zM568 370.667c0-30.88-25.12-56-56-56s-56 25.12-56 56c0 30.878 25.122 56 56 56 8.836 0 16-7.164 16-16s-7.164-16-16-16c-13.234 0-24-10.766-24-24s10.766-24 24-24 24 10.766 24 24c0 8.836 7.164 16 16 16s16-7.164 16-16z" />
<glyph unicode="&#xe963;" d="M736.002 218.667c0-17.6-14.4-32-32-32h-384c-17.6 0-32 14.4-32 32v928c0 17.6 14.4 32 32 32h384c17.6 0 32-14.4 32-32v-928z" />
<glyph unicode="&#xe964;" d="M399.998 1082.669h223.998v-303.998h-223.998v303.998z" />
<glyph unicode="&#xe965;" d="M669.994 466.675c0-20.987-17.013-38-38-38s-38 17.013-38 38c0 20.987 17.013 38 38 38s38-17.013 38-38z" />
<glyph unicode="&#xe966;" d="M704.002 1194.667h-384.002c-26.466 0-48-21.532-48-48v-928c0-26.468 21.534-48 48-48h384c26.466 0 48 21.532 48 48v928c0.002 26.468-21.532 48-47.998 48zM704.002 202.667h-384.002c-8.822 0-16 7.178-16 16v16h320c8.836 0 16 7.164 16 16 0 8.838-7.164 16-16 16h-320v400h320c8.836 0 16 7.164 16 16s-7.164 16-16 16h-320v448c0 8.822 7.178 16 16 16h384c8.822 0 16-7.178 16-16v-448.002h-32c-8.838 0-16-7.164-16-16s7.162-16 16-16h32v-400h-32c-8.838 0-16-7.162-16-16 0-8.836 7.162-16 16-16h32v-16c0.002-8.822-7.176-15.998-15.998-15.998zM640.002 1082.669c0 8.836-7.164 16-16 16h-224c-8.838 0-16-7.164-16-16v-304.002c0-8.836 7.162-16 16-16h224.002c8.836 0 16 7.164 16 16v304.002zM608.004 794.667h-192.004v272h192.002v-272zM688.002 466.667c0-30.878-25.122-56-56-56-30.88 0-56.002 25.122-56.002 56s25.122 56 56.002 56c8.836 0 16-7.164 16-16s-7.164-16-16-16c-13.234 0-24.002-10.766-24.002-24s10.766-24 24.002-24c13.234 0 24 10.766 24 24 0 8.836 7.162 16 16 16 8.836-0.002 16-7.164 16-16zM384.002 466.667c0-13.234-10.766-24-24-24s-24 10.766-24 24c0 13.234 10.766 24 24 24 13.234-0.002 24-10.768 24-24zM480.002 466.667c0-13.234-10.766-24-24-24s-24 10.766-24 24c0 13.234 10.766 24 24 24s24-10.768 24-24zM432 418.667c0-13.234-10.766-24-24-24s-24 10.766-24 24 10.766 24 24 24c13.234 0 24-10.768 24-24zM432 514.665c0-13.234-10.766-24-24-24s-24 10.766-24 24 10.766 24 24 24c13.234 0 24-10.766 24-24zM544.002 602.667c0-8.836-7.164-16-16-16h-32c-8.838 0-16 7.164-16 16s7.162 16 16 16h32c8.836 0 16-7.164 16-16zM384.002 602.667c0 8.836 7.162 16 16 16h32.002c8.836 0 16-7.164 16-16s-7.164-16-16-16h-32.002c-8.838 0-16 7.164-16 16zM576.002 602.667c0 8.836 7.164 16 16 16h32.002c8.836 0 16-7.164 16-16s-7.164-16-16-16h-32.002c-8.836 0-16 7.164-16 16z" />
<glyph unicode="&#xe967;" d="M255.4 474.535h288.3v-47.936h-288.3v47.936z" />
<glyph unicode="&#xe968;" d="M783.85 510.105c0-19.562-16.006-35.568-35.568-35.568h-696.704c-19.562 0-35.568 16.006-35.568 35.568v393.154c0 19.562 16.006 35.568 35.568 35.568h696.702c19.562 0 35.568-16.006 35.568-35.568l0.002-393.154z" />
<glyph unicode="&#xe969;" d="M63.398 890.795h672.422v-368.23h-672.422v368.23z" />
<glyph unicode="&#xe96a;" d="M975.59 938.827h-95.3c-17.894 0-32.4-14.508-32.4-32.4v-447.52c0-17.894 14.508-32.4 32.4-32.4h95.3c17.896 0 32.4 14.508 32.4 32.4v447.52c0 17.894-14.508 32.4-32.4 32.4z" />
<glyph unicode="&#xe96b;" d="M960.602 842.765c0-17.684-14.336-32.020-32.020-32.020s-32.020 14.336-32.020 32.020c0 17.684 14.336 32.020 32.020 32.020s32.020-14.336 32.020-32.020z" />
<glyph unicode="&#xe96c;" d="M748.282 954.837h-696.704c-28.442 0-51.578-23.138-51.578-51.578v-393.154c0-28.44 23.136-51.578 51.578-51.578h187.804v-16.010h-31.896c-8.842 0-16.010-7.166-16.010-16.010 0-8.842 7.168-16.010 16.010-16.010h384.24c8.842 0 16.010 7.168 16.010 16.010 0 8.844-7.168 16.010-16.010 16.010h-32.020v16.010h188.572c28.44 0 51.578 23.136 51.578 51.578v393.154c0.004 28.44-23.134 51.578-51.574 51.578zM527.688 442.517h-256.286v16.010h256.286v-16.010zM767.84 510.105c0-10.784-8.774-19.558-19.558-19.558h-696.704c-10.784 0-19.558 8.774-19.558 19.558v393.154c0 10.784 8.774 19.558 19.558 19.558h696.702c10.784 0 19.558-8.774 19.558-19.558l0.002-393.154zM735.82 906.807h-672.422c-8.842 0-16.010-7.166-16.010-16.010v-368.23c0-8.842 7.168-16.010 16.010-16.010h672.422c8.842 0 16.010 7.168 16.010 16.010v368.23c0 8.842-7.17 16.010-16.010 16.010zM719.81 538.577h-640.402v336.21h640.402v-336.21zM975.59 954.837h-95.3c-26.694 0-48.41-21.718-48.41-48.41v-447.52c0-26.692 21.718-48.41 48.41-48.41h95.3c26.692 0 48.41 21.718 48.41 48.41v447.52c0 26.694-21.718 48.41-48.41 48.41zM991.98 458.907c0-9.038-7.352-16.39-16.39-16.39h-95.3c-9.038 0-16.39 7.352-16.39 16.39v447.52c0 9.038 7.352 16.39 16.39 16.39h95.3c9.038 0 16.39-7.352 16.39-16.39v-447.52zM975.97 842.767c0-26.484-21.546-48.030-48.030-48.030s-48.030 21.546-48.030 48.030 21.546 48.030 48.030 48.030c8.842 0 16.010-7.166 16.010-16.010 0-8.842-7.168-16.010-16.010-16.010-8.828 0-16.010-7.182-16.010-16.010s7.182-16.010 16.010-16.010c8.828 0 16.010 7.182 16.010 16.010 0 8.844 7.168 16.010 16.010 16.010s16.010-7.168 16.010-16.010zM943.95 746.707v-256.16c0-8.842-7.168-16.010-16.010-16.010s-16.010 7.168-16.010 16.010v256.16c0 8.844 7.168 16.010 16.010 16.010s16.010-7.168 16.010-16.010z" />
<glyph unicode="&#xe96d;" d="M944.166 810.405c0-26.346-21.556-47.902-47.902-47.902h-782.396c-26.346 0-41.086 20.45-32.754 45.442l49.54 148.622c8.33 24.994 36.702 45.442 63.048 45.442h702.56c26.346 0 47.902-21.556 47.902-47.902l0.002-143.702z" />
<glyph unicode="&#xe96e;" d="M100.188 874.273h-28.234c-15.808 0-30.604 14.97-23.95 33.93l12.866 34.608c4.998 14.998 22.022 27.266 37.83 27.266h35.128l-33.64-95.804z" />
<glyph unicode="&#xe96f;" d="M992.052 874.273h-47.886v79.836h47.888c8.826 0 15.982-7.156 15.982-15.982v-47.874c0-8.824-7.156-15.98-15.984-15.98z" />
<glyph unicode="&#xe970;" d="M405.27 762.503l-131.060-354.262c-9.152-24.706-38.194-44.92-64.54-44.92h-159.672c-26.346 0-40.416 20.214-31.264 44.92l129.064 352.266 257.472 1.996z" />
<glyph unicode="&#xe971;" d="M592.886 1002.013v-47.902c0-26.456-21.448-47.904-47.904-47.904h-191.606c-26.456 0-47.904 21.446-47.904 47.904v47.902h287.414z" />
<glyph unicode="&#xe972;" d="M992.054 970.077h-33.942c-7.108 27.516-32.142 47.902-61.848 47.902h-702.56c-24.034 0-48.602-12.888-64.384-31.934h-30.622c-22.468 0-45.632-16.624-52.882-37.898l-12.782-34.38c-0.034-0.092-0.068-0.184-0.1-0.278-4.588-13.080-2.838-26.764 4.802-37.542 7.832-11.048 20.622-17.642 34.216-17.642h9.118l-15.104-45.312c-5.614-16.842-3.584-33.782 5.566-46.48 9.152-12.696 24.582-19.98 42.334-19.98h11.806l-121.912-332.746c-6.204-16.746-4.676-33.656 4.19-46.39 8.864-12.736 24.19-20.042 42.048-20.042h159.672c33.090 0 68.018 24.308 79.516 55.346l62.224 168.196h193.446c33.092 0 68.018 24.308 79.448 55.17l46.192 120.47h225.77c35.218 0 63.87 28.652 63.87 63.87v47.9h31.92c17.616 0 31.948 14.332 31.948 31.948v47.872c-0.004 17.62-14.334 31.95-31.95 31.95zM321.44 986.045h255.478v-31.934c0-17.61-14.326-31.934-31.936-31.934h-191.606c-17.61 0-31.936 14.326-31.936 31.934v31.934zM71.952 890.241c-3.16 0-6.362 1.638-8.162 4.176-1.648 2.326-1.898 5.070-0.762 8.386l12.806 34.444c0.064 0.17 0.124 0.342 0.182 0.512 2.802 8.402 13.826 16.348 22.684 16.348h14.304l-21.29-63.87-19.762 0.004zM259.236 413.787c-6.808-18.378-29.968-34.5-49.566-34.5h-159.674c-7.364 0-12.988 2.256-15.838 6.348-2.85 4.096-3.010 10.152-0.434 17.11l3.106 8.474h172.84c8.818 0 15.968 7.15 15.968 15.968 0 8.82-7.15 15.968-15.968 15.968h-161.14l111.152 303.378h222.654l-123.1-332.746zM594.418 637.327c-6.806-18.376-29.968-34.498-49.564-34.498h-181.632l53.164 143.706h17.762c3.492-31.776 19.574-93.96 91.1-111.32 1.266-0.308 2.532-0.456 3.78-0.456 7.198 0 13.732 4.902 15.504 12.206 2.080 8.57-3.182 17.202-11.75 19.284-49.916 12.116-63.080 55.284-66.48 80.288h169.99l-41.874-109.21zM896.262 778.471h-782.396c-7.47 0-13.304 2.386-16.426 6.718s-3.54 10.622-1.178 17.71l2.502 7.506h717.664c8.818 0 15.968 7.15 15.968 15.968 0 8.82-7.15 15.968-15.968 15.968h-707.020l36.394 109.18c6.132 18.392 28.516 34.526 47.902 34.526h95.804v-31.934c0-35.218 28.652-63.87 63.872-63.87h191.606c35.218 0 63.872 28.652 63.872 63.87v31.934h287.41c17.608 0 31.934-14.326 31.934-31.934v-111.77h-48.4c-8.82 0-15.968-7.148-15.968-15.968 0-8.818 7.148-15.968 15.968-15.968h48.4c-0.004-17.61-14.33-31.936-31.94-31.936zM992.054 890.241h-31.92v47.898l31.934-0.010 0.008-47.886c-0.002 0-0.008-0.002-0.022-0.002z" />
<glyph unicode="&#xe973;" d="M959.376 811.444h32.606c8.844 0 16.014-7.17 16.014-16.014v-32.762c0-8.844-7.17-16.014-16.014-16.014h-53.988l21.382 64.79z" />
</font>
</defs>
</svg>
