<?xml version="1.0" encoding="iso-8859-1"?>
<!-- Generator: Adobe Illustrator 19.0.0, SVG Export Plug-In . SVG Version: 6.00 Build 0)  -->
<svg version="1.1" id="Capa_1" xmlns="http://www.w3.org/2000/svg" xmlns:xlink="http://www.w3.org/1999/xlink" x="0px" y="0px"
	 viewBox="0 0 512 512" style="enable-background:new 0 0 512 512;" xml:space="preserve">
<path style="fill:#4A94CC;" d="M504.5,337.452c0,6.628-5.372,12.001-12.001,12.001H19.501c-6.627,0-12.001-5.372-12.001-12.001
	V174.548c0-6.627,5.373-12.001,12.001-12.001h472.998c6.628,0,12.001,5.373,12.001,12.001V337.452z"/>
<path style="fill:#2884BC;" d="M27.502,337.452V174.548c0-6.627,5.373-12.001,12.001-12.001H19.501
	c-6.627,0-12.001,5.373-12.001,12.001v162.904c0,6.628,5.373,12.001,12.001,12.001h20.001
	C32.875,349.453,27.502,344.08,27.502,337.452z"/>
<path d="M259.938,216.122c-14.031,0-22.747,8.31-22.747,21.686v36.401c0,7.668-3.902,12.247-10.438,12.247h-40.885
	c-1.381,0-2.5,1.119-2.5,2.5v4.423c0,1.381,1.119,2.5,2.5,2.5h46.48c14.03,0,22.745-8.298,22.745-21.657v-36.428
	c0-7.679,3.9-12.265,10.433-12.265h41.38c1.381,0,2.5-1.119,2.5-2.5c0-4.274,0.268-5.177-0.732-6.176
	C307.628,215.807,310.41,216.12,259.938,216.122z"/>
<path d="M165.83,216.128c-97.954-0.006-92.365-0.352-93.443,0.726c-1,1-0.732,1.902-0.732,6.18c0,1.38,1.119,2.5,2.5,2.5h86.087
	c6.535,0,10.438,4.583,10.438,12.261c0,7.669-3.901,12.249-10.438,12.249H91.004c-11.031,0-19.349,9.252-19.349,21.518v21.809
	c0,1.381,1.119,2.5,2.5,2.5h12.894c1.381,0,2.5-1.119,2.5-2.5v-21.809c0-7.236,3.982-12.099,9.91-12.099h66.372
	c14.031,0,22.747-8.297,22.747-21.651C188.577,224.437,179.861,216.128,165.83,216.128z"/>
<path d="M434.471,254.569c12.745-11.803,9.407-38.441-15.599-38.441c-97.862-0.006-92.375-0.353-93.454,0.726
	c-0.999,1-0.732,1.897-0.732,6.18c0,1.38,1.119,2.5,2.5,2.5h86.095c6.534,0,10.436,4.583,10.436,12.261
	c0,7.669-3.901,12.249-10.436,12.249l-86.095,0.007c-1.381,0-2.5,1.119-2.5,2.5v4.412c0,1.381,1.119,2.5,2.5,2.5h86.08
	c8.033,0.064,10.345,6.717,10.458,14.717c0,7.693-3.901,12.288-10.438,12.288h-86.1c-1.381,0-2.5,1.119-2.5,2.5
	c0,4.275-0.268,5.179,0.732,6.178c1.075,1.076-4.766,0.733,93.454,0.729c13.545,0,22.752-8.299,22.752-22.63
	C441.625,260.545,435.222,255.569,434.471,254.569z"/>
<path d="M504.5,249.111c-4.142,0-7.5-3.358-7.5-7.5v-67.063c0-2.481-2.019-4.5-4.5-4.5H273.501c-4.142,0-7.5-3.358-7.5-7.5
	c0-4.142,3.358-7.5,7.5-7.5h218.997c10.753,0,19.501,8.749,19.501,19.501v67.063C512,245.753,508.642,249.111,504.5,249.111z"/>
<path d="M492.499,356.954H19.501C8.749,356.954,0,348.206,0,337.452V174.548c0-10.753,8.749-19.501,19.501-19.501h218.997
	c4.142,0,7.5,3.358,7.5,7.5c0,4.142-3.358,7.5-7.5,7.5H19.501c-2.481,0-4.5,2.019-4.5,4.5v162.904c0,2.482,2.019,4.5,4.5,4.5
	h472.998c2.481,0,4.5-2.018,4.5-4.5v-60.839c0-4.142,3.358-7.5,7.5-7.5s7.5,3.358,7.5,7.5v60.839
	C512,348.205,503.251,356.954,492.499,356.954z"/>
<g>
</g>
<g>
</g>
<g>
</g>
<g>
</g>
<g>
</g>
<g>
</g>
<g>
</g>
<g>
</g>
<g>
</g>
<g>
</g>
<g>
</g>
<g>
</g>
<g>
</g>
<g>
</g>
<g>
</g>
</svg>
