<?xml version="1.0" encoding="iso-8859-1"?>
<!-- Generator: Adobe Illustrator 19.0.0, SVG Export Plug-In . SVG Version: 6.00 Build 0)  -->
<svg version="1.1" id="Capa_1" xmlns="http://www.w3.org/2000/svg" xmlns:xlink="http://www.w3.org/1999/xlink" x="0px" y="0px"
	 viewBox="0 0 512 512" style="enable-background:new 0 0 512 512;" xml:space="preserve">
<path style="fill:#4A94CC;" d="M504.5,337.452c0,6.628-5.372,12.001-12.001,12.001H19.501c-6.627,0-12.001-5.372-12.001-12.001
	V174.548c0-6.627,5.373-12.001,12.001-12.001h472.998c6.628,0,12.001,5.373,12.001,12.001V337.452z"/>
<path style="fill:#2884BC;" d="M27.502,337.452V174.548c0-6.627,5.373-12.001,12.001-12.001H19.501
	c-6.627,0-12.001,5.373-12.001,12.001v162.904c0,6.628,5.373,12.001,12.001,12.001h20.001
	C32.875,349.453,27.502,344.08,27.502,337.452z"/>
<path d="M190.294,258.23v-33.433c0-2.761-2.239-5-5-5H72.551c-2.761,0-5,2.239-5,5v4.458c0,2.761,2.239,5,5,5h103.283v14.516H72.551
	c-2.761,0-5,2.239-5,5v33.432c0,2.761,2.239,5,5,5h4.457c2.761,0,5-2.239,5-5v-23.972h103.283
	C188.054,263.23,190.294,260.992,190.294,258.23z"/>
<path d="M439.448,263.23c2.761,0,5-2.239,5-5v-33.433c0-2.761-2.239-5-5-5H326.704c-2.761,0-5,2.239-5,5v4.458c0,2.761,2.239,5,5,5
	h103.279v14.516H326.704c-2.761,0-5,2.239-5,5v33.432c0,2.761,2.239,5,5,5h112.745c2.761,0,5-2.239,5-5v-4.681
	c0-3.368-3.271-5.775-6.483-4.776H336.16v-14.515h103.287V263.23z"/>
<path d="M305,219.796h-62.196c-2.761,0-5,2.239-5,5v52.948h-52.511c-2.761,0-5,2.239-5,5v4.457c0,2.761,2.239,5,5,5h62.19
	c2.761,0,5-2.239,5-5v-52.947h52.518c2.761,0,5-2.239,5-5v-4.458C310.001,222.035,307.763,219.796,305,219.796z"/>
<path d="M504.5,249.111c-4.142,0-7.5-3.358-7.5-7.5v-67.063c0-2.481-2.019-4.5-4.5-4.5H273.501c-4.142,0-7.5-3.358-7.5-7.5
	c0-4.142,3.358-7.5,7.5-7.5h218.997c10.753,0,19.501,8.749,19.501,19.501v67.063C512,245.753,508.642,249.111,504.5,249.111z"/>
<path d="M492.499,356.954H19.501C8.749,356.954,0,348.206,0,337.452V174.548c0-10.753,8.749-19.501,19.501-19.501h218.997
	c4.142,0,7.5,3.358,7.5,7.5c0,4.142-3.358,7.5-7.5,7.5H19.501c-2.481,0-4.5,2.019-4.5,4.5v162.904c0,2.482,2.019,4.5,4.5,4.5
	h472.998c2.481,0,4.5-2.018,4.5-4.5v-60.839c0-4.142,3.358-7.5,7.5-7.5s7.5,3.358,7.5,7.5v60.839
	C512,348.205,503.251,356.954,492.499,356.954z"/>
<g>
</g>
<g>
</g>
<g>
</g>
<g>
</g>
<g>
</g>
<g>
</g>
<g>
</g>
<g>
</g>
<g>
</g>
<g>
</g>
<g>
</g>
<g>
</g>
<g>
</g>
<g>
</g>
<g>
</g>
</svg>
