<?xml version="1.0" encoding="iso-8859-1"?>
<!-- Generator: Adobe Illustrator 19.0.0, SVG Export Plug-In . SVG Version: 6.00 Build 0)  -->
<svg version="1.1" id="Capa_1" xmlns="http://www.w3.org/2000/svg" xmlns:xlink="http://www.w3.org/1999/xlink" x="0px" y="0px"
	 viewBox="0 0 511.999 511.999" style="enable-background:new 0 0 511.999 511.999;" xml:space="preserve">
<g>
	<path style="fill:#EA473B;" d="M151.479,165.068c120.502-0.07,112.953,0.533,114.215-1.462
		c15.614-24.703,15.653-23.794,14.511-25.865c-0.527-0.958-1.534-1.552-2.627-1.552c-120.538,0-112.985-0.601-114.246,1.402
		c-15.48,24.605-15.626,23.856-14.48,25.927C149.375,164.468,150.377,165.068,151.479,165.068z"/>
	<path style="fill:#EA473B;" d="M309.844,139.171c-0.55-0.869-1.506-1.396-2.535-1.397c-2.43,0,2.386-6.378-73.83,114.009H152.72
		l18.496-28.926c52.517,0,49.857,0.53,51.076-1.395l14.498-22.896c1.262-1.995-0.174-4.605-2.535-4.605
		c-113.027,0-106.1-0.599-107.362,1.397l-14.475,22.903c-1.26,1.995,0.177,4.604,2.537,4.603l21.402-0.007l-33.643,53.194
		c-1.261,1.994,0.176,4.603,2.536,4.603c154.259,0,144.615,0.553,145.863-1.428l56.212-89.239l20.703,32.829
		c-17.115,0-17.498-0.466-18.675,1.398l-14.473,22.916c-1.259,1.994,0.177,4.602,2.537,4.602h48.88
		c18.609,29.436,17.646,28.899,19.922,28.899c29.896,0,29.076,0.518,30.216-1.552C397.704,276.778,401.895,284.811,309.844,139.171z
		"/>
</g>
<g>
	<path style="fill:#D82B27;" d="M168.64,160.47c15.336-24.375,14.679-24.281,16.933-24.281h-19.702
		c-2.209,0-1.273-0.609-16.933,24.281c-1.253,1.991,0.178,4.598,2.541,4.598l19.617-0.011
		C168.748,164.989,167.415,162.416,168.64,160.47z"/>
	<path style="fill:#D82B27;" d="M134.611,222.858c-2.358-0.036-3.732-2.631-2.491-4.596c15.743-24.909,14.807-24.3,17.011-24.3
		c-21.137,0-21.061-0.465-22.238,1.397c-15.579,24.649-15.709,23.881-14.566,25.954
		C113.467,223.382,113.657,222.865,134.611,222.858z"/>
</g>
<path style="fill:#EAE8E8;" d="M256,7.527C118.764,7.527,7.513,118.778,7.513,256.013c0,137.234,111.251,248.486,248.487,248.486
	c137.235,0,248.486-111.252,248.486-248.486C504.487,118.777,393.236,7.527,256,7.527z M255.998,466.22
	c-116.093,0-210.206-94.113-210.206-210.207S139.906,45.805,255.998,45.805s210.208,94.113,210.208,210.207
	S372.091,466.22,255.998,466.22z"/>
<g>
	<path style="fill:#D3D1D1;" d="M265.998,465.978c120.488,5.646,220.209-90.454,220.209-209.965
		c0-119.495-99.703-215.612-220.209-209.965c111.449,5.221,200.208,97.224,200.208,209.965S377.447,460.757,265.998,465.978z"/>
	<path style="fill:#D3D1D1;" d="M27.513,256.013C27.513,122.128,133.404,12.994,266,7.744
		C124.296,2.134,7.513,115.396,7.513,256.013c0,140.604,116.771,253.88,258.487,248.269
		C133.404,499.031,27.513,389.897,27.513,256.013z"/>
</g>
<g>
	<path style="fill:#D82B27;" d="M122.416,276.05c0.001-0.002,28.002-44.276,28.002-44.276c5.295-8.372-0.344-8.885-1.183-8.915
		l-12.882,0.004l-33.639,53.188c-1.261,1.994,0.176,4.603,2.536,4.603h19.702C122.593,280.654,121.155,278.044,122.416,276.05z"/>
	<path style="fill:#D82B27;" d="M257.506,244.952c0.001-0.001,59.646-94.215,59.647-94.216c-7.769-12.293-7.666-12.96-9.844-12.961
		c-2.43,0,2.386-6.378-73.83,114.009h12.604C248.062,251.704,253.718,250.935,257.506,244.952z"/>
	<path style="fill:#D82B27;" d="M370.48,258.822c0,0,0-0.001-0.001-0.001c-4.28-6.77-10.615-7.08-11.585-7.087h-12.597
		c18.609,29.436,17.646,28.899,19.922,28.899h19.702C383.716,280.632,384.432,280.89,370.48,258.822z"/>
	<path style="fill:#D82B27;" d="M342.034,213.786c-4.004-6.347-14.71-23.317-18.948-30.035c-5.947-9.428-10.553-2.054-10.553-2.054
		l0,0l-5.208,8.29l20.703,32.829c-17.115,0-17.498-0.466-18.675,1.398l-14.473,22.916c-1.259,1.994,0.177,4.602,2.537,4.602h19.702
		c-2.358,0-3.796-2.606-2.537-4.602c15.744-24.928,14.804-24.314,17.01-24.314h9.11
		C347.023,222.817,342.054,213.822,342.034,213.786z"/>
</g>
<path d="M110.507,319.863v-12.504h22.576v5.474c0,1.381,1.119,2.5,2.5,2.5h5.733c1.381,0,2.5-1.119,2.5-2.5v-2.339
	c0-9.907-3.738-13.418-14.286-13.418h-15.886c-10.757,0-14.21,3.487-14.21,14.351c0,22.297,4.025,19.207,33.905,19.207v13.661
	l-22.542,0.056c0-10.174,0.922-8.96-8.878-8.903c-1.375,0.008-2.485,1.125-2.485,2.5c0,11.39,1.346,16.852,14.345,16.852
	c28.693,0,30.691,1.89,30.691-20.567C144.471,316.785,134.813,319.863,110.507,319.863z"/>
<path d="M349.771,297.075h-43.964c-1.381,0-2.5,1.119-2.5,2.5v5.283c0,1.381,1.119,2.5,2.5,2.5h15.984v44.94
	c0,1.381,1.119,2.5,2.5,2.5h6.945c1.381,0,2.5-1.119,2.5-2.5v-44.94h16.033c1.381,0,2.5-1.119,2.5-2.5v-5.283
	C352.271,298.194,351.152,297.075,349.771,297.075z"/>
<path d="M385.955,319.863h-19.755v-12.504h22.641v5.474c0,1.381,1.119,2.5,2.5,2.5h5.664c1.381,0,2.5-1.119,2.5-2.5v-2.339
	c0-9.781-3.862-13.418-14.25-13.418c-26.226,0-30.096-2.498-30.096,19.204c0,10.866,3.425,14.354,14.095,14.354h19.712v13.659
	h-24.541l0.005-6.333c0.001-0.664-0.263-1.3-0.731-1.769c-0.469-0.469-1.105-0.733-1.769-0.733h-6.421c-1.381,0-2.5,1.119-2.5,2.5
	v2.435c-0.003,5.595,0.97,9.067,3.154,11.256c2.172,2.178,5.61,3.149,11.148,3.149h18.644c10.766,0,14.222-3.5,14.222-14.404v-6.163
	C400.177,323.488,396.588,319.863,385.955,319.863z"/>
<path d="M181.714,297.075h-29.8c-1.381,0-2.5,1.119-2.5,2.5v52.723c0,1.381,1.119,2.5,2.5,2.5h7.012c1.381,0,2.5-1.119,2.5-2.5
	v-18.843h20.288c8.886,0,13.024-3.835,13.024-12.071v-12.277C194.738,300.898,190.599,297.075,181.714,297.075z M182.678,318.996
	c0,3.71-0.974,4.237-4.569,4.237h-16.684V307.05h16.684c3.939,0,4.569,1.02,4.569,4.293V318.996z"/>
<path d="M235.415,297.006c-27.403,0-36.453-2.955-36.453,14.398v28.988c0,10.769,3.614,14.404,14.322,14.404
	c27.821,0,36.266,2.96,36.266-14.404v-28.988C249.55,300.505,246.115,297.006,235.415,297.006z M237.698,344.229h-26.704v-36.903
	h26.704V344.229z"/>
<path d="M303.533,350.393l-19.928-16.939h4.175c8.881,0,13.017-3.835,13.017-12.071v-12.277c0-8.208-4.136-12.031-13.017-12.031
	h-29.742c-1.381,0-2.5,1.119-2.5,2.5v52.723c0,1.381,1.119,2.5,2.5,2.5h6.942c1.381,0,2.5-1.119,2.5-2.5v-18.843h0.806
	l21.645,20.652c1,0.955,1.13,0.691,11.983,0.691C304.235,354.798,305.299,351.894,303.533,350.393z M267.479,323.414V307.05h16.673
	c3.428,0,4.495,0.576,4.495,4.174c0,11.035,0.885,12.19-4.495,12.19H267.479z"/>
<path d="M146.048,172.571l118.768-0.068c2.571-0.001,4.962-1.32,6.336-3.493l18.212-28.813c3.15-4.986-0.439-11.507-6.34-11.507
	H164.215c-2.578,0-4.976,1.324-6.348,3.506l-18.171,28.881c-1.455,2.312-1.538,5.231-0.217,7.622
	C140.776,171.046,143.265,172.571,146.048,172.571z M168.357,143.689H269.41l-8.732,13.816l-101.049,0.058L168.357,143.689z"/>
<path d="M102.057,102.071c-41.119,41.119-63.766,95.791-63.766,153.942c0,120.325,97.37,217.708,217.707,217.708
	c120.325,0,217.709-97.371,217.709-217.708c0-58.152-22.646-112.822-63.767-153.942C324.857,16.986,187.148,16.978,102.057,102.071z
	 M255.999,458.72c-111.772,0-202.706-90.934-202.706-202.707S144.226,53.306,255.999,53.306
	c111.774,0,202.708,90.934,202.708,202.707S367.772,458.72,255.999,458.72z"/>
<path d="M451.64,90.945c-2.672-3.165-7.405-3.564-10.568-0.891c-3.165,2.673-3.564,7.405-0.891,10.569
	c36.631,43.373,56.806,98.557,56.806,155.389c0,132.881-108.105,240.986-240.986,240.986S15.013,388.894,15.013,256.013
	S123.12,15.027,256.001,15.027c59.27,0,116.244,21.728,160.432,61.183c3.091,2.759,7.831,2.489,10.59-0.599
	c2.759-3.09,2.49-7.831-0.6-10.589C326.488-24.211,172.27-22.273,74.99,75.004C26.64,123.352,0.013,187.636,0.013,256.013
	c0,141.485,114.491,255.986,255.987,255.986c141.486,0,255.986-114.493,255.986-255.986
	C511.987,195.643,490.556,137.021,451.64,90.945z"/>
<path d="M300.973,131.15L229.35,244.284h-62.932l8.904-13.926h46.086c2.57,0,4.962-1.316,6.337-3.488l18.297-28.896
	c1.463-2.31,1.552-5.233,0.233-7.629c-1.318-2.395-3.836-3.883-6.57-3.883H127.776c-2.572,0-4.966,1.318-6.34,3.493l-18.268,28.904
	c-3.155,4.989,0.447,11.507,6.342,11.507l13.228-0.004l-29.272,46.284c-3.153,4.986,0.438,11.509,6.339,11.509h49.61
	c4.143,0,7.5-3.358,7.5-7.5c0-4.142-3.357-7.5-7.5-7.5h-35.993l29.275-46.289c3.151-4.983-0.434-11.509-6.341-11.509l-13.232,0.004
	l8.785-13.9h94.171l-8.799,13.896h-46.064c-2.559,0-4.94,1.304-6.318,3.46l-18.497,28.926c-1.477,2.309-1.576,5.239-0.26,7.643
	c1.316,2.403,3.838,3.898,6.578,3.898h80.759c2.57,0,4.962-1.316,6.337-3.488l67.489-106.603l78.335,123.94h-16.941l-16.061-25.407
	c-1.375-2.174-3.768-3.492-6.34-3.492h-40.715l8.789-13.916h13.658c2.731,0,5.248-1.485,6.567-3.877
	c1.319-2.392,1.233-5.313-0.224-7.623l-20.703-32.829c-1.374-2.178-3.768-3.5-6.344-3.5c-0.001,0-0.001,0-0.002,0
	c-2.576,0.001-4.971,1.323-6.344,3.502l-54.889,87.137c-64.321,0.011,2.118,0.027-61.678,0.027c-4.143,0-7.5,3.358-7.5,7.5
	c0,4.142,3.357,7.5,7.5,7.5c46.805,0,11.254-0.018,65.818-0.027c2.576-0.001,4.972-1.323,6.345-3.503l50.753-80.571l7.103,11.263
	h-4.195c-2.573,0-4.967,1.319-6.341,3.495l-18.263,28.916c-3.149,4.983,0.441,11.505,6.341,11.505h50.191l16.062,25.407
	c1.375,2.174,3.767,3.492,6.34,3.492h34.687c2.733,0,5.25-1.487,6.569-3.881c1.318-2.394,1.23-5.316-0.23-7.626l-91.943-145.471
	C310.705,126.495,303.911,126.509,300.973,131.15z"/>
<g>
</g>
<g>
</g>
<g>
</g>
<g>
</g>
<g>
</g>
<g>
</g>
<g>
</g>
<g>
</g>
<g>
</g>
<g>
</g>
<g>
</g>
<g>
</g>
<g>
</g>
<g>
</g>
<g>
</g>
</svg>
