<?xml version="1.0" encoding="iso-8859-1"?>
<!-- Generator: Adobe Illustrator 19.0.0, SVG Export Plug-In . SVG Version: 6.00 Build 0)  -->
<svg version="1.1" id="Capa_1" xmlns="http://www.w3.org/2000/svg" xmlns:xlink="http://www.w3.org/1999/xlink" x="0px" y="0px"
	 viewBox="0 0 512 512" style="enable-background:new 0 0 512 512;" xml:space="preserve">
<path style="fill:#EA473B;" d="M504.5,337.452c0,6.627-5.372,12.001-12.001,12.001H19.501c-6.627,0-12.001-5.373-12.001-12.001
	V174.548c0-6.627,5.373-12.001,12.001-12.001h472.998c6.628,0,12.001,5.373,12.001,12.001V337.452z"/>
<path style="fill:#D82B27;" d="M27.502,337.452V174.548c0-6.627,5.373-12.001,12.001-12.001H19.501
	c-6.627,0-12.001,5.373-12.001,12.001v162.905c0,6.627,5.373,12.001,12.001,12.001h20.001
	C32.875,349.453,27.502,344.08,27.502,337.452z"/>
<path d="M245.567,220.715c-0.031,5.681-0.128,22.971-5.468,34.468c-5.353,11.515-18.234,18-23.634,19.336
	c-1.115,0.276-1.899,1.277-1.899,2.427v13.704c0,1.576,1.448,2.769,3.007,2.448c16.535-3.425,26.584-20.146,30.474-34.651
	c1.524-5.677,3.337-16.83,3.323-37.721c-0.001-1.38-1.12-2.499-2.5-2.499h-0.802C246.692,218.229,245.575,219.34,245.567,220.715z"
	/>
<path d="M248.527,290.05c-0.342,0.773-0.27,1.667,0.191,2.375s1.249,1.136,2.095,1.136c16.805,0,16.828,0.388,17.81-1.164
	c0.458-0.724,0.513-1.632,0.146-2.407c-6.867-14.481-6.922-33.718-7.03-69.267c-0.004-1.378-1.122-2.493-2.5-2.493
	c-1.513,0-2.646-0.234-3.611,0.733c-0.469,0.469-0.732,1.106-0.731,1.77C254.932,255.869,254.974,275.463,248.527,290.05z"/>
<path d="M298.943,293.099c1.555,0.323,3.009-0.868,3.009-2.448v-13.705c0-1.148-0.782-2.149-1.897-2.426
	c-5.386-1.338-18.238-7.824-23.583-19.337c-4.801-10.324-5.42-24.614-5.468-34.466c-0.007-1.376-1.124-2.488-2.5-2.488h-0.801
	c-1.38,0-2.499,1.118-2.5,2.498c-0.015,20.888,1.799,32.043,3.322,37.72C272.413,272.953,282.445,289.673,298.943,293.099z"/>
<path d="M187.216,293.825h10.108c1.381,0,2.5-1.119,2.5-2.5V231.39h20.926c1.381,0,2.5-1.119,2.5-2.5v-5.451
	c0-2.655-2.081-4.735-4.738-4.735h-52.484c-2.642,0-4.791,2.124-4.791,4.735v5.451c0,1.381,1.119,2.5,2.5,2.5h20.98v59.935
	C184.716,292.705,185.835,293.825,187.216,293.825z"/>
<path d="M358.358,261.882c22.542-10.283,16.961-43.187-12.552-43.187c0,0,0.426,0.007-18.952,0.007
	c-6.125,0-11.109,4.982-11.109,11.107v61.461c0,1.381,1.119,2.5,2.5,2.5h10.108c1.381,0,2.5-1.119,2.5-2.5v-56.88
	c0-1.887,1.512-3.423,3.369-3.423c7.887,0,12.652-0.042,14.466,0.163c9.981,0.857,13.327,14.333,4.103,19.46
	c-3.573,2.134-7.91,2.374-11.267,5.612c-3.754,3.917-4.311,10.326-0.447,14.944c19.895,23.5,18.716,22.624,20.313,22.624h11.528
	c2.109,0,3.274-2.464,1.926-4.094C354.871,265.549,352.282,264.73,358.358,261.882z"/>
<path d="M403.052,293.825c1.381,0,2.5-1.119,2.5-2.5v-70.121c0-1.381-1.119-2.5-2.5-2.5H393c-1.381,0-2.5,1.119-2.5,2.5v70.121
	c0,1.381,1.119,2.5,2.5,2.5H403.052z"/>
<path d="M121.489,225.387c-27.487,69.935-26.359,65.785-25.297,67.345c0.994,1.455,1.46,1.092,12.804,1.092
	c2.339,0,2.098-0.949,7.913-17.004h30.008c6.199,16.15,5.953,17.004,8.245,17.004c11.77,0,12.189,0.362,13.177-1.102
	c1.063-1.577,2.266,2.664-26.035-67.335C138.562,215.51,124.725,216.085,121.489,225.387z M121.544,264.131l10.16-27.899
	l10.371,27.899H121.544z"/>
<path d="M492.499,155.046H276.163c-4.143,0-7.5,3.358-7.5,7.5c0,4.142,3.357,7.5,7.5,7.5h216.336c2.482,0,4.5,2.019,4.5,4.5v63.642
	c0,4.142,3.357,7.5,7.5,7.5s7.5-3.358,7.5-7.5v-63.642C512,163.795,503.251,155.046,492.499,155.046z"/>
<path d="M504.5,265.691c-4.143,0-7.5,3.358-7.5,7.5v64.261c0,2.481-2.018,4.5-4.5,4.5H19.501c-2.481,0-4.5-2.019-4.5-4.5V174.548
	c0-2.481,2.019-4.5,4.5-4.5H241.16c4.143,0,7.5-3.358,7.5-7.5c0-4.142-3.357-7.5-7.5-7.5H19.501C8.749,155.046,0,163.795,0,174.548
	v162.905c0,10.753,8.749,19.501,19.501,19.501h472.998c10.753,0,19.501-8.749,19.501-19.501v-64.261
	C512,269.049,508.642,265.691,504.5,265.691z"/>
<g>
</g>
<g>
</g>
<g>
</g>
<g>
</g>
<g>
</g>
<g>
</g>
<g>
</g>
<g>
</g>
<g>
</g>
<g>
</g>
<g>
</g>
<g>
</g>
<g>
</g>
<g>
</g>
<g>
</g>
</svg>
