<?xml version="1.0" encoding="iso-8859-1"?>
<!-- Generator: Adobe Illustrator 19.0.0, SVG Export Plug-In . SVG Version: 6.00 Build 0)  -->
<svg version="1.1" id="Capa_1" xmlns="http://www.w3.org/2000/svg" xmlns:xlink="http://www.w3.org/1999/xlink" x="0px" y="0px"
	 viewBox="0 0 511.999 511.999" style="enable-background:new 0 0 511.999 511.999;" xml:space="preserve">
<path style="fill:#989DA0;" d="M504.499,477.472c0,14.927-12.101,27.027-27.027,27.027H34.528
	c-14.927,0-27.027-12.101-27.027-27.027V34.527C7.501,19.601,19.602,7.5,34.528,7.5h442.943c14.927,0,27.027,12.101,27.027,27.027
	v442.945H504.499z"/>
<g>
	<path style="fill:#F4F4F4;" d="M151.687,226.681c0.249-4.157,0.164-8.286,0.084-12.28c-0.365-17.485-1.559-27.769,3.097-31.768
		c1.098-0.937,3.778-1.47,2.841-2.85v-0.001l-42.6,0.001c1.386,2.105,4.608,4.234,5.592,8.178
		c1.016,4.054,0.584,11.929,0.545,15.647l0,0c-0.387,15.215,0.961,24.494-2.786,26.126c-7.604,3.362-11.342-5.669-12.387-13.807
		c-1.854-14.355-1.941-42.363-0.862-58.521c0.713-10.656,2.546-20.516,11.073-20.516c1.417,0,2.704,0.142,3.425,1.529
		c3.891,7.489,2.134,20.266,2.283,30.604h30.121c-0.068-5.335-0.146-9.083-0.084-13.291c0.044-2.773,3.734-3.728,5.109-1.314
		c3.641,6.38,5.713,14.189,6.161,23.21c0.57,11.505-1.056,23.807,0.858,33.139c2.35,11.405,13.283,14.479,24.859,17.729
		c12.403,3.487,20.239,6.836,30.651,9.803c-6.186-7.569-4.071-23.649-4.407-48.373c-0.108-5.9-0.835-27.357,5.74-26.911
		c1.02,0.072,1.913,0.71,2.316,1.65c0.949,2.224,4.594,4.079,5.386,7.798c1.303,6.138,0,16.638,0,25.818
		c0,9.993,1.29,20.38,0,26.252c-0.379,1.718-1.75,3.066-2.959,4.257c-1.64,1.613-2.071,2.356-1.775,3.057
		c1.662-0.19,6.449-0.554,7.415-0.435c0.188-0.031,18.721,0.09,21.418,0.004c-7.596-4.208-5.597-17.327-5.597-33.134
		c0-9.605-1.331-20.334,0-26.244c0.954-4.23,5.64-5.951,5.166-8.178c-29.442,0-28.761,0.527-29.752-1.563
		c-1.095-2.313,1.16-2.962,0.919-4.463l-0.288-1.754c-0.266,1.083-1.169,1.933-2.329,2.067c-8.886,1.033-18.718,1.891-30.945,2.702
		c0.332,0.643,0.966,1.327,1.698,2.12c3.665,3.957,4.594,4.931,3.781,23.074c-0.935,20.711,2.359,36.45-3.838,36.45
		c-2.352,0-4.762-2.027-5.472-3.063c-2.08-3.213-1.956-9.394-1.56-17.779c0.598-12.399,1-36.177-3.645-47.686l-0.001-0.001
		c-8.307-2.084-17.77-3.043-26.311-4.977c-1.342-0.307-2.249-1.562-2.116-2.934c0.523-5.39,2.086-15.294,7.077-17.478
		c1.745-0.764,1.646-1.272,1.558-1.72c-17.004-1.704-33.814,4.846-40.353-8.366c-0.983-1.989-1.911-3.864-3.968-5.402
		c-3.032,16.842-25.563,14.991-43.891,14.196c-0.323,20.162,2.281,43.909-8.178,54.217c14.057,12.651,8.812,50.764,9.037,73.582
		c9.786-11.643,32.83-13.82,48.644-12.694c1.463,0.107,2.584,1.346,2.54,2.812c-0.495,16.241-7.308,29.575-13.319,41.34
		c-1.049,2.051-2.064,4.039-3.01,5.976C127.641,275.245,149.681,259.722,151.687,226.681z"/>
	<path style="fill:#F4F4F4;" d="M259.687,344.151v-21.943c-3.05,1.307-4.883,3.665-8.176,5.595
		c-5.586,3.278-12.847,4.134-18.069,7.317c-2.522,1.532-3.252,3.722-5.606,2.725c-1.03-0.435-1.69-1.452-1.669-2.569
		c0.072-4.113-0.156-8.396-0.097-11.6c0.064-3.504,17.515-10.82,32.324-19.543h0.002v-41.734
		c-10.317-0.437-24.353-2.652-27.106-16.779c-3.475,15.473-20.719,17.491-27.971,17.641v79.6
		c15.792,0.754,22.878,10.468,30.12,19.796C237.914,351.304,246.747,345.078,259.687,344.151L259.687,344.151z M227.662,268.234
		c2.798-1.355,3.167,2.075,11.23,4.785c1.112,0.375,1.863,1.419,1.863,2.594c0,23.017,0.455,22.662-1.365,23.718
		c-3.105,1.799-6.082,3.555-9.317,5.155c-0.839,0.416-1.849,0.375-2.654-0.128c-1.672-1.033-1.293-1.901-1.296-10.988
		C226.109,269.002,225.608,269.228,227.662,268.234z"/>
</g>
<path style="fill:#EAE8E8;" d="M215.321,261.432c-4.585,1.404-9.096,1.767-12.001,1.827v79.6c4.695,0.225,8.615,1.248,12.001,2.809
	V261.432z"/>
<path style="fill:#F4F4F4;" d="M310.379,300.771c-0.254-1.018,0.096-2.089,0.902-2.761c3.968-3.316,13.79-5.583,15.102-9.796
	c0.82-2.635-1.415-13.909-1.722-15.912c-4.754-31.353-40.763-24.926-75.73-24.536c12.444,4.852,19.435,11.549,20.223,19.365
	c1.91,19.049-0.538,47.98,0.164,67.007c0.186,5.209,0.362,10.123-0.596,13.029c-1.735,5.264-7.788,6.543-10.757,9.036
	c17.823,0,28.997,1.314,42.169,0.432c-12.061-7.883-13.123-2.307-10.929-37.614c0.181-2.902,4.205-3.552,5.276-0.831
	c1.888,4.805,3.872,10.248,4.438,11.757c15.063,40.712,20.091,47.887,53.277,53.365c-2.628-2.479-5.435-4.241-8.149-5.949
	C319.264,361.805,318.579,333.601,310.379,300.771z M299.889,288.438c-5.633,3.457-7.575,4.5-8.576,4.5
	c-1.489,0-2.686-1.186-2.732-2.648c-0.11-3.405,0.203-7.063,0.504-10.599c0.352-4.154,1.382-14.056-1.167-17.286
	c-1.455-1.847-0.049-4.583,2.358-4.422c13.66,1.042,15.238,5.528,16.175,19.679c0.105,1.583,0.214,3.221,0.37,4.861
	C307.039,284.784,305.516,284.98,299.889,288.438z"/>
<path style="fill:#EAE8E8;" d="M279.978,334.982c-0.733-19.889,1.825-50.07-0.171-69.983c-0.693-6.87-5.991-12.907-15.395-17.67
	c-4.868,0.172-10.206,0.378-15.481,0.437c12.444,4.852,19.435,11.549,20.223,19.365c1.673,16.683,0,41.653,0,60.241
	c0,7.463,0.931,15.661-0.432,19.795c-1.735,5.264-7.788,6.543-10.757,9.036c1,0,4.113-0.108,12.678,0.182
	C280.184,351.126,280.511,349.884,279.978,334.982z"/>
<path style="fill:#F4F4F4;" d="M223.275,154.839c0.312-1.311,1.451-2.102,2.649-2.104c9.741-0.007,20.245-0.396,29.482,0.181
	c1.44,0.09,2.563,1.282,2.563,2.727c0.085,61.649-0.202,54.639,0.268,63.055c0.513,8.967,0.838,14.293-3.095,13.774
	c2.496,3.172-2.568,4.58-4.063,7.981h0.001c10.665-1.099,22.898-0.658,33.99-1.291c-1.395-0.677-2.46-1.563-2.302-3.185
	c-4.957-1.049-3.695-15.221-3.756-38.615c-0.069-16.935-0.24-16.398,0.389-17.398c-0.268-0.426-0.426-0.924-0.424-1.454
	c0.028-9.462,0.153-16.834,0.395-23.202c0.056-1.469,1.263-2.632,2.733-2.632h21.9c5.68-5.42,13.458-11.484,15.062-19.797
	c-23.245,4.958-55.037,3.413-82.619,3.018c-5.259,5.915-11.34,11.069-16.779,16.779C220.67,152.695,222.776,152.574,223.275,154.839
	z"/>
<g>
	<path style="fill:#EAE8E8;" d="M265.394,232.471c4.295,0.567,3.526-6.234,3.095-13.774c-0.47-8.437-0.183-1.723-0.268-63.055
		c-0.001-1.444-1.123-2.637-2.563-2.727c-6.251-0.39-12.683-0.321-17.563-0.275c2.714,0.048,5.104,0.138,7.312,0.275
		c1.44,0.09,2.563,1.282,2.563,2.727c0.018,12.844,0.007,24.423-0.003,55.979c0,10.643,2.455,21.546-2.824,20.849
		c2.496,3.172-2.568,4.58-4.063,7.981c0,0,3.658-0.43,10.612-0.664C263.545,236.822,267.683,235.379,265.394,232.471z"/>
	<path style="fill:#EAE8E8;" d="M229.921,152.674c5.374-5.642,11.36-10.724,16.613-16.6c-3.413-0.067-6.79-0.133-10.085-0.18
		c-5.259,5.915-11.34,11.069-16.779,16.779c1,0.021,3.105-0.1,3.604,2.165c0.312-1.311,1.451-2.102,2.649-2.104
		c1.652-0.001,3.325-0.023,4.992-0.04C230.917,152.696,230.965,152.696,229.921,152.674z"/>
</g>
<g>
	<path style="fill:#F4F4F4;" d="M284.642,178.922c2.738,0.238,7.407,1.531,7.195,4.462c-1.237,17.053,4.17,41.046-5.041,50.187
		c4.174,0,20.144,1.987,27.971,2.58c-4.639-3.344-4.988-14.089-4.086-29.191c0.102-1.734,1.788-2.95,3.487-2.466
		c7.383,2.103,10.543,2.958,10.335,5.707c-0.674,8.895,2.149,26.335-0.598,29.472c-0.249,2.284-4.2,5.067-3.979,7.232
		c10.668-1.788,22.281-2.744,32.273-5.16c-14.209-3.99-9.46-24.096-10.026-51.607c-0.307-14.924-0.594-28.953,6.585-34.453
		c-7.717-4.919-14.54-10.744-22.375-15.489c-1.386,5.58-5.01,8.472-9.21,11.818C292.312,171.878,286.538,175.66,284.642,178.922z
		 M322.987,167.818c2.735,1.248,1.415,3.828,1.622,28.934c0.013,1.543-1.242,2.759-2.735,2.759c-1,0-5.568-1.386-9.718-3.088
		c-2.2-0.903-1.695-1.451-1.695-18.617c0-0.687,0.256-1.346,0.719-1.85c2.301-2.505,4.912-4.573,7.677-6.763
		C320.027,168.262,321.198,167,322.987,167.818z"/>
	<path style="fill:#F4F4F4;" d="M194.283,337.267v-51.632c0-9.471-1.117-18.983,0-25.817c1.328-8.115,8.903-12.337,11.187-16.785
		c-15.381-4.337-29.908-9.79-45.179-14.201c4.164,7.711,7.488,6.922,5.233,47.278c-0.523,9.366-1.018,18.209-0.608,25.951
		c0.056,1.024-0.468,1.994-1.354,2.511c-3.301,1.918-6.851,3.698-10.559,5.291c-0.848,0.366-1.825,0.274-2.595-0.235
		c-1.643-1.094-1.118-1.634-1.305-12.666c-0.195-11.812-0.396-24.016,3.011-32.415c-18.474,16.275-32.276,29.148-44.751,41.741
		c3.161,0.071,8.188,1.721,9.467,5.16c2.486,6.717,0.015,18.994,0.626,44.903c0.509,21.041,1.825,35.006-16.119,45.464
		c1.595,0.873,3.6-0.522,5.171-0.862c16.199-3.569,32.828-4.841,47.756-8.605c-11.709-10.514,1.061-52.21-9.102-65.034
		c-0.555-0.7-0.732-1.628-0.476-2.483c0.255-0.855,0.912-1.532,1.759-1.811c3.927-1.301,8.336-2.017,12.416-2.017
		c1.389,0,2.725,0.086,3.972,0.256c1.439,0.199,2.473,1.487,2.354,2.936c-0.465,5.648-0.068,12.232,0.313,18.601
		c1.115,18.58,0.765,25.6-4.677,31.373c-1.48,1.57-2.438,2.665-2.258,3.55c16.647,0.012,31.757-0.039,49.055-0.861
		C189.922,368.48,194.283,360.557,194.283,337.267z"/>
</g>
<path style="fill:#EAE8E8;" d="M179.4,370.401c3.031-6.609,2.392-17.272,1.771-27.607c-0.382-6.368-0.778-12.952-0.314-18.601
	c0.118-1.448-0.915-2.736-2.354-2.936c-4.454-0.607-9.532-0.085-13.884,1.034c0.407,0.523,0.628,1.192,0.57,1.901
	c-1.127,13.701,2.804,32.603-0.572,43.814c-0.049,3.422-0.007,6.694,0.222,9.711c3.201-0.003,6.336-0.011,9.396-0.03
	C173.934,375.95,178.081,373.28,179.4,370.401z"/>
<path style="fill:#F4F4F4;" d="M397.537,188.769c-0.35-1.258,0.239-2.59,1.406-3.176c4.426-2.235,9.737-3.98,13.5-7.103h0.001
	c-3.338-33.584-6.484-41.586-55.2-40.415c-7.304,0.179-14.658,0.356-21.821-0.031c5.795,4.336,15.005,6.416,18.687,14.937
	c0.268,0.478,0.388,1.021,0.336,1.596c3.262,3.778,0.057,23.565,1.179,47.267c1.008,21.02-0.213,21.671-3.457,25.222
	c-1.475,1.614-2.49,2.842-2.116,3.924c4.773-0.311,11.164-0.046,18.15,0.213c0.35,0.013,0.688,0.093,0.997,0.227
	c0.321-0.113,0.662-0.168,1.014-0.157c2.517,0.083,5.811,0.18,8.988,0.18c1.056,0,2.101-0.011,3.125-0.035
	c-0.614-0.868-1.41-1.617-2.251-2.41c-1.52-1.434-3.237-3.052-4.206-5.763c-1.88-5.258-1.273-12.802-0.778-19.881
	c0.101-1.436,1.293-2.544,2.729-2.544c1.013,0,1.962,0.564,2.435,1.492c0.851,1.67,1.708,3.364,2.58,5.092l0.066,0.132
	c7.173,14.185,4.836,9.255,9.155,17.818c9.731,19.306,14.714,29.367,53.519,33.606C413.335,245.652,410.214,234.499,397.537,188.769
	z M389.855,176.929c-3.508,1.817-7.248,3.816-11.44,5.486c-0.834,0.33-1.765,0.233-2.511-0.252
	c-1.384-0.906-1.651-1.818-0.768-12.234c0.351-4.153,1.327-13.334-1.25-16.558c-1.493-1.871-0.029-4.652,2.405-4.432
	c11.868,1.169,14.898,3.615,16.211,18.111c0.179,1.964,0.363,3.993,0.679,6.063C393.516,175.371,391.574,176.028,389.855,176.929z"
	/>
<path style="fill:#EAE8E8;" d="M366.217,222.376c2.101-9.899-0.822-21.377,0.403-45.274c0.187-3.664,1.203-19.771-1.175-22.526
	c0.052-0.574-0.068-1.118-0.336-1.596c-3.61-8.354-12.477-10.471-18.379-14.724c-3.917,0.026-7.206,0.009-11.309-0.213
	c5.795,4.336,15.005,6.416,18.687,14.937c0.222,0.395,0.349,0.852,0.349,1.337c0,0.087-0.005,0.173-0.013,0.259
	c3.262,3.778,0.057,23.565,1.179,47.267c1.008,21.02-0.213,21.671-3.457,25.222c-1.475,1.614-2.49,2.842-2.116,3.924
	c3.409-0.222,7.547-0.139,10.994-0.036C360.341,228.726,365.451,225.946,366.217,222.376z"/>
<path style="fill:#F4F4F4;" d="M404.788,288.01c0.251-7.704,0.511-15.666-0.092-21.31c-17.183-3.069-28.867-12.361-35.714-28.402
	h-0.002c-7.01,14.079-18.574,20.181-33.99,18.072c-3.486,14.485,6.355,42.558-8.606,45.613v0.001
	c2.523,3.506,7.185,5.988,8.175,12.047c2.109,12.878-1.662,31.567,0.431,42.172c20.395,2.093,28.185,17.159,33.561,33.13
	c5.825-14.505,17.228-22.247,34.857-23.663c2.565-17.367-7.158-47.377,9.894-50.345c-0.529-0.435-1.057-0.854-1.579-1.269
	C403.844,307.802,404.182,306.742,404.788,288.01z M374.389,357.936c-0.767,1.099-2.193,1.403-4.073,1.403
	c-7.51,0-7.719-10.459-7.787-13.896c-0.22-11.004-0.143-22.792-0.07-34.193l0.002-0.227c0.035-5.556,0.068-11.046,0.068-16.352
	c0-2.102-0.095-4.363-0.186-6.553c-0.324-7.715-0.66-15.664,2.846-19.321c1.352-1.409,3.156-2.096,5.515-2.097
	c0.682,0,2.994,0.087,4.204,1.195c0.096,0.088,0.185,0.181,0.266,0.279c1.33,1.619,2.012,5.196,1.304,18.012
	c-0.098,1.76-0.177,3.223-0.177,4.182v47.331C376.299,345.273,377.684,353.204,374.389,357.936z"/>
<path style="fill:#818689;" d="M27.034,477.472V34.527c0-14.926,12.1-27.027,27.027-27.027H34.528
	C19.602,7.5,7.501,19.601,7.501,34.527v442.945c0,14.927,12.101,27.027,27.027,27.027H54.06
	C39.133,504.5,27.034,492.399,27.034,477.472z"/>
<g>
	<path style="fill:#EAE8E8;" d="M157.14,154.418c3.641,6.38,5.713,14.189,6.161,23.21c1.376,27.76-5.877,40.5,17.62,48.442
		c-10.157-13.449-7.557-40.506-7.557-53.717c0-15.981-17.752-19.18-17.797-19.189C156.214,153.364,156.785,153.797,157.14,154.418z"
		/>
	<path style="fill:#EAE8E8;" d="M165.525,276.111c-0.482,8.626-1.027,18.024-0.608,25.951c0,0,14.132,0.598,15.686-14.156
		c0,0,0.111-3.207,0.591-11.795c0.523-9.358,2.173-32.833-1.855-41.301c-6.235-2.05-12.598-4.114-19.046-5.977
		C164.535,236.691,167.759,236.059,165.525,276.111z"/>
	<path style="fill:#EAE8E8;" d="M348.439,316.062c-0.82-5.016-3.872-7.909-6.614-10.671c-1.652-1.73-0.978-3.484,0.923-4.435h-0.001
		c7.267-4.478,6.488-17.107,5.73-29.374c-0.331-5.353-0.655-10.821-0.324-15.627c-4.345,0.984-8.716,1.023-13.165,0.415
		c-3.486,14.485,6.355,42.558-8.606,45.613v0.001c2.523,3.506,7.185,5.988,8.175,12.047c2.109,12.878-1.662,31.567,0.431,42.172
		c5.258,0.54,9.674,1.947,13.431,4.005C347.335,347.737,350.6,329.26,348.439,316.062z"/>
	<path style="fill:#EAE8E8;" d="M149.166,281.247c0.289-6.255,1.067-12.061,2.95-16.7c-18.474,16.275-32.276,29.148-44.751,41.741
		c3.161,0.071,8.188,1.721,9.467,5.16c2.486,6.717,0.015,18.994,0.626,44.903c0.509,21.041,1.825,35.006-16.119,45.464
		c1.595,0.873,3.6-0.522,5.171-0.862c5.297-1.167,10.662-2.087,15.96-2.928c13.999-11.595,10.463-25.68,10.463-53.874
		c0-10.985,1.858-26.513-0.433-32.702c-0.699-1.88-2.518-3.221-4.539-4.065c-0.599-0.275-3.975-2.123,0.873-6.873
		C135.063,294.379,141.717,288.073,149.166,281.247z"/>
	<path style="fill:#EAE8E8;" d="M141.113,242.39c-5.941-0.423-11.986-0.381-17.836,0.207c1.03,0.42,1.743,1.434,1.708,2.604
		c-0.495,16.241-7.308,29.575-13.319,41.34c-1.049,2.051-2.064,4.039-3.01,5.976c11.899-10.825,24.726-20.769,33.327-34.704
		c0.924-4.009,1.536-8.2,1.67-12.611C143.697,243.736,142.575,242.497,141.113,242.39z"/>
	<path style="fill:#EAE8E8;" d="M86.102,178.162l-0.011-0.004c7.264-11.435,5.256-32.277,5.516-50.479
		c-5.958,0.204-12.054-0.109-18.666-0.396c-0.323,20.162,2.281,43.909-8.178,54.217c14.057,12.651,8.812,50.764,9.037,73.582
		c3.867-4.601,10.436-8.148,18.798-10.364c0.614-22.135,2.698-46.517-6.482-59.942C84.622,182.095,84.99,179.523,86.102,178.162z"/>
	<path style="fill:#EAE8E8;" d="M326.383,140.196c-1.652,6.652-6.489,9.483-11.616,13.77
		c-13.852,11.587-27.674,20.739-30.125,24.957c2.738,0.238,7.407,1.531,7.195,4.462c-1.237,17.053,4.17,41.046-5.041,50.187
		c1.773,0,9.334,0.721,11.491,0.943c8.514-9.537,3.339-32.925,4.551-49.63c0.135-1.877-1.341-2.711-3.065-3.447l0.011-0.018
		c0,0-3.866-2.581,0.466-5.91c1.692-1.339,3.217-2.382,4.861-3.693c9.792-7.804,27.323-20.748,30.329-25.519
		C332.526,144.194,329.525,142.1,326.383,140.196z"/>
</g>
<path d="M375.006,155.687c0.994,4.048,0.555,9.223,0.13,14.242c-0.283,3.341-0.574,6.797-0.468,10.035
	c0.029,0.891,0.491,1.712,1.235,2.199c0.452,0.294,0.975,0.445,1.499,0.445c0.342,0,0.685-0.064,1.012-0.193
	c4.18-1.665,7.887-3.646,11.441-5.486c0.622-0.326,1.245-0.648,1.871-0.971c1.044-0.537,1.628-1.68,1.455-2.843
	c-1.152-7.559-0.563-14.868-4.404-19.58c-2.982-3.66-7.813-4.135-12.485-4.595c-1.099-0.1-2.147,0.451-2.672,1.417
	c-0.525,0.968-0.42,2.154,0.267,3.015C374.422,154.042,374.789,154.799,375.006,155.687z"/>
<path d="M320.144,168.169c-3.502,2.78-6.413,5.007-8.966,7.785c-0.958,1.043-0.719,0.381-0.719,17.937
	c0,1.109,0.67,2.109,1.695,2.53c4.146,1.701,8.718,3.088,9.718,3.088c1.49,0,2.748-1.212,2.735-2.759
	c-0.028-3.425,0.015-6.936,0.059-10.329c0.066-5.386,0.137-10.956-0.083-16.229C324.491,167.961,321.896,166.772,320.144,168.169z"
	/>
<path d="M290.276,257.984c-2.407-0.161-3.813,2.575-2.357,4.422c0.485,0.615,0.822,1.314,1.028,2.145
	c2.316,9.253-2.643,25.834,0.964,28.002c2.571,1.527,4.999-1.66,15.493-7.365c0.964-0.522,1.522-1.571,1.417-2.662
	C305.25,266.039,306.735,259.24,290.276,257.984z"/>
<path d="M227.417,304.359c0.805,0.502,1.815,0.544,2.654,0.128c3.229-1.597,6.201-3.35,9.317-5.155
	c0.844-0.489,1.365-1.391,1.365-2.367v-21.351c0-1.175-0.751-2.219-1.863-2.594c-3.1-1.042-5.906-2.548-8.342-4.471
	c-0.822-0.649-1.945-0.77-2.887-0.314c-0.943,0.457-1.543,1.412-1.544,2.459c-0.005,7.071,0,15.154,0.004,22.678
	C226.124,302.466,225.747,303.327,227.417,304.359z"/>
<path d="M375.172,268.175c-0.081-0.099-0.17-0.191-0.266-0.279c-1.21-1.108-3.522-1.195-4.204-1.195
	c-2.358,0.001-4.163,0.688-5.515,2.097c-3.506,3.657-3.17,11.606-2.846,19.321c0.472,11.257-0.247,35.642,0.187,57.324
	c0.164,8.257,2.153,15.461,10.232,13.594c5.258-1.212,3.539-16.472,3.539-21.337V290.37
	C376.299,285.92,377.919,271.518,375.172,268.175z"/>
<path d="M324.592,122.805c-19.946,5.602-67.823,4.937-78.69,3.906c-3.386-0.322-6.889-0.656-9.757-0.656
	c-1.705,0-3.05,0.125-4.014,0.376c-3.343,0.888-6.972,8.659-10.74,12.042c-2.891,2.592-7.007,5.649-9.893,6.456
	c-2.692,0.748-5.579,1.111-8.833,1.111c-12.483,0-25.915-5.46-36.355-5.845c2.831-7.092,7.341-10.856,14.193-11.846
	c1.081-0.155,1.965-0.939,2.249-1.993c0.286-1.055-0.083-2.175-0.937-2.855c-1.884-1.498-4.059-2.686-6.469-3.531
	c-4.684-1.644-10.463-1.865-15.495-1.865c-30.321,0-31.8,0.309-40.142-17.528c-0.444-0.952-1.395-1.565-2.445-1.578
	c-0.012,0-0.021,0-0.032,0c-1.979,0-2.503,1.621-3.251,3.149l-0.107,0.218c-8.255,16.91-14.637,18.63-36.41,16.05
	c-3.861-0.457-7.855-0.928-11.752-1.031c-0.771-0.044-1.542,0.297-2.077,0.873c-0.534,0.575-0.795,1.353-0.718,2.134
	c1.883,18.85,3.199,40.072-5.039,53.365c-1.83,2.955-4.018,5.206-6.136,7.386c-0.38,0.392-0.754,0.776-1.122,1.16
	c-0.64,0.67-0.897,1.615-0.688,2.517c0.211,0.899,0.861,1.632,1.73,1.947c13.101,4.761,13.101,24.97,13.101,41.21
	c0,4.22-0.098,8.516-0.191,12.677c-0.285,12.674-0.555,24.645,1.683,33.511c0.287,1.136,1.265,1.963,2.433,2.058
	c1.168,0.099,2.265-0.567,2.729-1.643c6.708-15.529,20.609-23.403,41.32-23.403c0.781,0,1.568,0.011,2.371,0.032
	c-4.512,26.486-17.202,44.727-29.477,62.367c-0.673,0.969-0.65,2.26,0.057,3.202c0.709,0.944,1.941,1.327,3.058,0.954l0.155-0.054
	c0.938-0.33,1.924-0.677,2.969-1.061c0.442-0.162,0.936-0.355,1.464-0.564c18.768-7.395,14.284,3.832,15.011,40.086
	c0.493,25.469,1.535,35.752-27.712,51.727c-1.098,0.599-1.648,1.866-1.34,3.077c0.31,1.211,1.4,2.059,2.652,2.059h20.044
	c0.141,0,0.279-0.012,0.418-0.032c23.581-3.646,46.36-8.46,68.389-13.116c1.029-0.219,1.843-1.009,2.091-2.033
	c0.811-3.331-4.482-3.625-4.854-8.919c18.973-1.203,40.634-0.086,55.238-5.818c0.943-0.371,1.604-1.233,1.718-2.238
	c0.228-2.028-1.099-2.707-6.538-5.818c-7.313-4.18-14.221-8.128-14.272-19.253c14.339,0.161,20.224,8.535,25.923,18.637
	c0.42,0.741,1.16,1.247,2.004,1.364c1.775,0.246,2.546-1.049,4.01-2.532c6.177-6.554,7.718-7.535,29.436-6.889
	c9.196,0.265,9.676,0.238,16.904-0.167c22.704-1.265,21.954-0.336,25.725,5.352c0.935,1.412,1.817,2.745,2.709,3.592
	c11.538,11,30.168,13.271,43.178,14.022c0.062,0.002,0.132,0.01,0.18,0.004c1.095-0.001,2.038-0.646,2.475-1.576l0.287,0.272
	c0.131,0.666,0.507,1.279,1.092,1.696c3.541,2.536,5.554,6.418,7.814,11.23c0.45,0.956,1.409,1.568,2.465,1.571
	c3.454,0.091,2.69-5.325,9.596-12.114l12.554-10.397c4.556-3.896,15.963-4.135,21.897-2.127c0.527,0.183,0.88,0.341,1.438,0.341
	c0.007-0.002,0.014-0.002,0.017,0c1.513,0,2.736-1.227,2.736-2.736c0-0.151-0.011-0.297-0.033-0.441
	c-0.497-11.337,0.116-26.63-0.456-37.823c-0.283-5.377-0.527-10.022,1.904-13.553c1.675-2.434,4.119-4.133,7.925-5.508
	c0.946-0.341,1.628-1.174,1.775-2.169c0.148-0.995-0.261-1.99-1.066-2.592c-0.463-0.347-0.935-0.691-1.416-1.043
	c-3.324-2.423-6.763-4.93-8.079-9.768c-2.991-11.01,1.196-25.388-0.434-39.159c6.736,0.927,39.02,7.675,58.724,4.218
	c2.795-0.495,3.069-4.415,0.38-5.293c-4.46-1.462-9.004-2.933-13.835-4.493c-0.23-0.109-16.347-7.74-16.588-7.821
	c-30.961-10.378-31.262-45.502-32.831-48.16c-1.501-2.52-2.291-5.811-3.054-9.002l-0.108-0.446h0.002
	c13.425-6.487,13.784-7.122,13.721-8.92c-1.424-40.538-17.322-52.311-45.26-53.909c-17.02-0.924-33.253-0.901-49.785-0.857
	c-0.177-0.575-0.108-1.801-0.043-2.984C328.166,123.731,326.415,122.302,324.592,122.805z M236.449,135.895
	c27.61,0.395,59.38,1.939,82.619-3.018c-1.604,8.314-9.385,14.38-15.061,19.797h-21.901c-1.471,0-2.678,1.163-2.733,2.632
	c-0.241,6.368-0.366,13.741-0.395,23.202c-0.002,0.53,0.156,1.028,0.424,1.454c-0.271,0.431-0.429,0.928-0.43,1.446
	c-0.033,43.511-0.859,53.578,3.797,54.567c-0.158,1.623,0.908,2.508,2.302,3.185c-11.089,0.633-23.326,0.192-33.99,1.291h-0.001
	c1.463-3.329,6.539-4.837,4.063-7.981c5.328,0.703,2.824-10.01,2.824-20.849c0.01-31.586,0.021-43.195,0.003-55.979
	c-0.001-1.444-1.123-2.637-2.563-2.727c-3.457-0.216-7.354-0.316-12.261-0.316c-5.773,0-11.592,0.131-17.222,0.135
	c-1.195,0.001-2.336,0.788-2.649,2.104c-0.499-2.265-2.604-2.144-3.605-2.165C225.108,146.966,231.193,141.808,236.449,135.895z
	 M124.985,245.202c0.044-1.466-1.077-2.705-2.54-2.812c-2.635-0.188-5.284-0.281-7.872-0.281c-18.699,0-33.942,4.851-40.771,12.976
	c-0.057-5.74,0.164-11.948,0.374-17.954c0.768-21.886,1.563-44.518-9.41-55.627l-0.001-0.001c8.549-8.426,8.369-25.861,8.196-42.721
	c-0.04-3.793-0.078-7.716-0.018-11.497c18.643,0.808,40.875,2.552,43.891-14.196c2.057,1.538,2.984,3.413,3.968,5.402
	c6.572,13.282,22.777,6.604,40.353,8.366c0.269,1.355-1.673,1.558-2.747,2.347c-3.972,2.989-5.413,11.965-5.888,16.851
	c-0.133,1.372,0.774,2.627,2.116,2.934c3.944,0.893,8.132,1.588,12.228,2.264c4.722,0.782,9.607,1.591,14.083,2.714l0.001,0.001
	c4.675,11.582,4.248,35.197,3.645,47.686c-0.396,8.387-0.52,14.566,1.56,17.779c0.71,1.035,3.119,3.063,5.472,3.063
	c0.97,0,1.751-0.426,2.255-1.105c1.593-2.145,1.983-7.463,1.439-19.653c-0.091-2.055-0.17-3.832-0.17-5.171
	c0-3.524,0.159-7.079,0.314-10.521c0.81-18.079-0.099-19.099-3.781-23.074c-0.732-0.793-1.366-1.477-1.698-2.12
	c12.228-0.811,22.06-1.669,30.945-2.702c1.16-0.135,2.063-0.984,2.329-2.067l0.288,1.754c0.238,1.482-2.008,2.163-0.919,4.463
	c0.988,2.086,0.228,1.563,29.752,1.563c0.474,2.227-4.211,3.947-5.166,8.178c-0.873,3.875-0.601,9.831-0.312,16.144
	c1.118,24.225-2.594,38.522,5.908,43.233c-6.215,0.198-20.034-0.233-21.418-0.004c-0.966-0.119-5.743,0.244-7.415,0.435
	c-0.297-0.7,0.135-1.443,1.774-3.057c1.209-1.19,2.58-2.539,2.959-4.257c1.552-7.06-0.593-16.359,0.299-35.865
	c0.761-16.574,0.036-17.616-3.645-21.406c-0.818-0.842-1.663-1.712-2.04-2.596c-0.403-0.94-1.297-1.578-2.316-1.65
	c-7.442-0.504-5.636,26.338-5.636,35.697c0,15.977-1.608,32.354,4.303,39.586c-10.435-2.973-18.222-6.307-30.651-9.803
	c-25.087-7.043-26.309-11.836-25.708-37.455c0.253-11.125,0.747-24.497-6.172-36.622c-0.61-1.071-1.861-1.605-3.057-1.294
	c-2.623,0.676-2.142,2.371-1.969,15.899h-30.121c-0.112-7.744,1.983-31.375-4.417-32.062c-0.436-0.046-0.87-0.071-1.291-0.071
	c-8.527,0-10.36,9.86-11.073,20.516c-1.079,16.157-0.991,44.165,0.862,58.521c0.902,7.027,3.805,14.538,9.245,14.538
	c1.196,0,3.185-0.48,4.004-1.332c1.562-1.618,2.012-5.241,1.851-14.988c-0.021-1.305-0.043-2.59-0.043-3.812
	c0-2.126,0.059-4.463,0.116-6.725l-2.736-0.068l2.737-0.027c0.159-6.248,0.307-12.148-0.546-15.551
	c-0.983-3.943-4.205-6.072-5.592-8.178l42.6-0.001v0.001c1.008,1.484-1.916,1.858-3.037,3.034
	c-3.747,3.899-3.452,11.408-3.141,19.419c1.984,50.307-6.805,57.465-42.876,90.28C115.016,279.486,124.401,264.355,124.985,245.202z
	 M207.623,376.856c-17.249,0.82-32.336,0.873-49.055,0.861c-0.352-1.734,3.836-4.42,5.163-7.315
	c4.883-10.648,0.247-31.488,1.458-46.208c0.118-1.448-0.915-2.736-2.354-2.936c-5.137-0.7-11.314,0.08-16.388,1.761
	c-0.847,0.279-1.504,0.957-1.759,1.811c-0.257,0.855-0.079,1.783,0.476,2.483c10.158,12.819-2.604,54.523,9.102,65.034
	c-15.735,3.967-43.197,6.695-49.416,9.164c-1.197,0.478-2.479,0.868-3.511,0.304c9.911-5.775,14.972-13.433,15.926-24.099
	c0.557-6.272,0.382-13.578,0.193-21.364c-0.615-26.093,1.844-38.228-0.626-44.903c-1.278-3.439-6.305-5.089-9.467-5.16
	c12.475-12.593,26.277-25.466,44.751-41.741c-4.383,10.805-2.795,27.824-2.927,42.78c-0.017,1.984,2.02,3.312,3.815,2.536
	c3.707-1.593,7.257-3.373,10.559-5.291c0.886-0.517,1.409-1.486,1.354-2.511c-0.409-7.741,0.085-16.585,0.608-25.951
	c2.255-40.354-1.069-39.566-5.233-47.278c15.27,4.411,29.797,9.864,45.179,14.201c-2.284,4.448-9.859,8.671-11.187,16.785
	c-0.733,4.486-0.504,10.146-0.26,16.137c0.4,9.956,0.384,61.024,0.02,69.94c-0.303,7.423-0.616,15.1,1.102,19.773
	C197.207,371.29,202.362,374.367,207.623,376.856z M233.44,362.655c-7.23-9.315-14.32-19.042-30.12-19.796v-79.6
	c7.251-0.149,24.495-2.168,27.971-17.641c2.752,14.127,16.788,16.343,27.106,16.779v41.734h-0.002
	c-10.102,5.95-21.212,10.981-31.065,17.293c-2.086,1.332-0.978,3.238-1.163,13.85c-0.021,1.117,0.639,2.135,1.669,2.569
	c2.355,0.997,3.083-1.191,5.606-2.725c5.228-3.188,12.477-4.036,18.069-7.317c3.292-1.93,5.124-4.288,8.175-5.595v21.943h-0.001
	C246.746,345.078,237.914,351.304,233.44,362.655z M316.054,366.958c-9.268-12.983-14.965-31.962-21.57-48.769
	c-0.471-1.195-1.703-1.902-2.972-1.703c-1.267,0.202-2.225,1.253-2.305,2.534c-2.206,35.482-0.965,29.842,10.929,37.614
	c-13.295,0.891-23.934-0.432-42.169-0.432c0.927-0.778,2.103-1.41,3.462-2.141c8.151-4.374,8.367-6.564,7.891-19.924
	c-0.206-5.587-0.293-7.763,0.191-26.32c0.38-14.469,0.773-29.429-0.355-40.687c-0.788-7.816-7.778-14.514-20.223-19.365
	c39.621-0.441,70.214-6.761,75.992,26.079c0.456,2.462,2.184,12.041,1.459,14.37c-1.708,5.486-17.277,7.455-16.004,12.557
	c8.411,33.673,9.045,61.134,33.67,76.591c2.715,1.708,5.521,3.47,8.149,5.949C338.481,381.046,323.462,377.332,316.054,366.958z
	 M403.407,365.669c-17.63,1.416-29.032,9.159-34.857,23.663c-5.376-15.971-13.166-31.037-33.561-33.13
	c-2.092-10.602,1.678-29.295-0.431-42.172c-0.99-6.056-5.659-8.55-8.175-12.047v-0.001c14.962-3.055,5.12-31.128,8.606-45.613
	c1.949,0.267,3.866,0.401,5.695,0.401c12.671,0,22.189-6.214,28.295-18.474h0.002c6.847,16.041,18.531,25.333,35.714,28.402
	c1.091,10.217-0.656,28.462,0,37.004c0.449,5.831,4.613,8.334,8.607,11.62C396.249,318.293,405.973,348.302,403.407,365.669z
	 M368.887,137.884c39.053,0,40.888,13.569,43.305,38.07l0.252,2.535h-0.001c-6.946,5.764-16.14,5.841-14.906,10.279l1.089,3.928
	c11.778,42.611,15.831,53.417,46.948,66.26c-42.966-4.693-44.425-16.658-56.367-39.162c-9.329-17.542-8.735-18.978-11.389-18.978
	c-1.437,0-2.628,1.111-2.729,2.544l-0.04,0.573c-0.493,6.988-1.003,14.215,0.818,19.308c0.969,2.711,2.686,4.329,4.206,5.763
	c0.841,0.793,1.637,1.542,2.251,2.41c-1.024,0.024-2.069,0.035-3.125,0.035c-3.176,0-6.471-0.097-8.988-0.18
	c-0.352-0.011-0.692,0.044-1.014,0.157c-0.684-0.298-1.191-0.235-2.792-0.294c-4.018-0.146-7.813-0.287-11.277-0.287
	c-1.962,0-3.624,0.046-5.078,0.141c-0.77-2.227,4.396-5.023,5.166-8.611c2.114-9.958-0.846-20.914,0.403-45.274
	c0.183-3.584,1.209-19.765-1.175-22.526c0.052-0.574-0.068-1.118-0.336-1.596c-3.682-8.521-12.893-10.601-18.687-14.937
	C346.544,138.644,358.14,137.884,368.887,137.884z M348.758,155.685c-7.179,5.5-6.892,19.529-6.585,34.453
	c0.594,28.848-3.97,47.677,10.026,51.607c-9.992,2.416-21.596,3.371-32.272,5.16c-0.223-2.186,3.726-4.918,3.978-7.232
	c2.723-3.109-0.068-20.68,0.598-29.472c0.181-2.387-2.009-3.362-8.892-5.296c-1.442-0.411-2.523-0.904-3.779-0.016
	c-0.679,0.48-1.103,1.241-1.151,2.07c-0.902,15.103-0.553,25.848,4.086,29.191c-7.804-0.591-23.792-2.58-27.971-2.58
	c9.211-9.139,3.804-33.14,5.041-50.187c0.071-0.988-0.396-1.938-1.222-2.482c-1.713-1.13-3.666-1.779-5.974-1.98
	c1.574-2.709,4.177-4.637,6.935-6.682l0.076-0.057c0.823-0.608,1.651-1.227,2.457-1.869c0,0,0.811-0.521,23.063-18.3
	c4.199-3.347,7.823-6.237,9.21-11.818C334.219,144.943,341.041,150.766,348.758,155.685z"/>
<path d="M477.471,0h-203.97c-4.143,0-7.5,3.358-7.5,7.5c0,4.143,3.357,7.5,7.5,7.5h203.97c10.768,0,19.526,8.76,19.526,19.526
	v194.509c0,4.143,3.357,7.5,7.5,7.5c4.143,0,7.5-3.357,7.5-7.5V34.527C511.999,15.489,496.509,0,477.471,0z"/>
<path d="M504.499,256.538c-4.143,0-7.5,3.357-7.5,7.5v213.434c0,10.768-8.76,19.526-19.526,19.526H34.528
	c-10.768,0-19.526-8.76-19.526-19.526V34.527c0-10.767,8.76-19.526,19.526-19.526h203.97c4.143,0,7.5-3.357,7.5-7.5
	c0-4.142-3.357-7.5-7.5-7.5H34.528C15.49,0,0.001,15.489,0.001,34.527v442.945c0,19.038,15.489,34.527,34.527,34.527h442.943
	c19.038,0,34.527-15.489,34.527-34.527V264.038C511.999,259.896,508.641,256.538,504.499,256.538z"/>
<g>
</g>
<g>
</g>
<g>
</g>
<g>
</g>
<g>
</g>
<g>
</g>
<g>
</g>
<g>
</g>
<g>
</g>
<g>
</g>
<g>
</g>
<g>
</g>
<g>
</g>
<g>
</g>
<g>
</g>
</svg>
