<?xml version="1.0" encoding="iso-8859-1"?>
<!-- Generator: Adobe Illustrator 19.0.0, SVG Export Plug-In . SVG Version: 6.00 Build 0)  -->
<svg version="1.1" id="Capa_1" xmlns="http://www.w3.org/2000/svg" xmlns:xlink="http://www.w3.org/1999/xlink" x="0px" y="0px"
	 viewBox="0 0 512 512" style="enable-background:new 0 0 512 512;" xml:space="preserve">
<g>
	<path style="fill:#EAE8E8;" d="M504.501,418.174c0,7.129-5.779,12.909-12.909,12.909H20.409c-7.129,0-12.909-5.779-12.909-12.909
		V93.826c0-7.129,5.779-12.909,12.909-12.909h471.181c7.129,0,12.909,5.779,12.909,12.909v324.348H504.501z"/>
	<path style="fill:#D3D1D1;" d="M27.502,418.174V93.826c0-7.129,5.779-12.909,12.909-12.909H20.409
		c-7.128,0-12.909,5.779-12.909,12.909v324.348c0,7.129,5.779,12.909,12.909,12.909h20.001
		C33.282,431.083,27.502,425.304,27.502,418.174z"/>
	<path style="fill:#4A94CC;" d="M463.609,109.267H256v210.098h207.609c6.627,0,12.001-5.372,12.001-12.001V121.268
		C475.61,114.64,470.236,109.267,463.609,109.267z M464.365,194.971l-54.228,42.802l20.569,68.792
		c0.469,1.569-0.111,3.264-1.445,4.214c-1.334,0.951-3.123,0.945-4.455-0.009l-56.147-40.367
		c-62.846,43.806-58.654,41.243-60.371,41.243c-2.575,0-4.419-2.499-3.656-4.957l19.829-64.158l-55.747-46.257
		c-1.242-1.031-1.703-2.728-1.156-4.245c0.547-1.518,1.988-2.529,3.602-2.529h69.617l22.239-66.142
		c0.523-1.555,1.978-2.604,3.619-2.607c0.002,0,0.006,0,0.01,0c1.635,0,3.09,1.039,3.619,2.587l22.19,64.803h69.535
		c1.631,0,3.082,1.031,3.617,2.572C466.142,192.252,465.642,193.961,464.365,194.971z"/>
	<path style="fill:#2884BC;" d="M268.714,196.274c-1.242-1.031-1.703-2.728-1.156-4.245c0.547-1.518,1.988-2.529,3.602-2.529h5.575
		v-80.233h-20.734v210.098h20.734V202.93L268.714,196.274z"/>
	<path style="fill:#EA473B;" d="M48.391,109.267c-6.627,0-12.001,5.373-12.001,12.001v186.097c0,6.628,5.373,12.001,12.001,12.001
		H256V109.267H48.391z M242.191,196.376l-53.972,41.396l20.578,68.789c0.47,1.57-0.113,3.265-1.446,4.215
		c-1.336,0.95-3.128,0.945-4.456-0.009l-56.142-40.365c-62.85,43.809-58.656,41.244-60.371,41.244c-2.565,0-4.42-2.489-3.656-4.957
		l19.824-64.159l-55.746-46.257c-2.748-2.282-1.133-6.775,2.444-6.775h69.625l22.206-66.045c0.523-1.558,1.984-2.607,3.628-2.607
		c1.643,0,3.105,1.05,3.627,2.606l22.216,66.059h69.309c1.641,0,3.099,1.045,3.624,2.598
		C244.013,193.663,243.491,195.379,242.191,196.376z"/>
	<path style="fill:#D82B27;" d="M56.392,307.364V204.23l-9.588-7.956c-1.242-1.031-1.703-2.728-1.157-4.245
		c0.548-1.518,1.988-2.529,3.602-2.529h7.143v-68.232c0-6.627,5.373-12.001,12.001-12.001H48.392
		c-6.627,0-12.001,5.373-12.001,12.001v186.097c0,6.628,5.373,12.001,12.001,12.001h20.001
		C61.764,319.365,56.392,313.992,56.392,307.364z"/>
	<g>
		<path style="fill:#F4F4F4;" d="M268.714,196.274l55.747,46.257l-19.829,64.158c-0.484,1.561,0.078,3.256,1.398,4.221
			c1.322,0.964,3.109,0.983,4.447,0.048l58.182-40.555l56.147,40.367c1.332,0.954,3.121,0.96,4.455,0.009
			c1.334-0.95,1.914-2.645,1.445-4.214l-20.569-68.792l54.228-42.802c1.277-1.01,1.777-2.719,1.244-4.259
			c-0.535-1.541-1.986-2.572-3.617-2.572h-69.535l-22.19-64.803c-0.529-1.548-1.984-2.587-3.619-2.587c-0.004,0-0.008,0-0.01,0
			c-1.641,0.004-3.096,1.053-3.619,2.607l-22.239,66.142h-69.617c-1.613,0-3.055,1.012-3.602,2.529
			C267.011,193.546,267.472,195.242,268.714,196.274z"/>
		<path style="fill:#F4F4F4;" d="M239.861,189.512h-69.309l-22.216-66.059c-0.522-1.557-1.983-2.606-3.627-2.606
			c-1.644,0-3.105,1.05-3.628,2.607l-22.206,66.045H49.248c-3.573,0-5.197,4.489-2.444,6.775l55.746,46.257L82.726,306.69
			c-0.483,1.562,0.079,3.257,1.399,4.221c1.32,0.965,3.11,0.982,4.445,0.048l58.183-40.556l56.142,40.365
			c1.328,0.954,3.12,0.959,4.456,0.009c1.333-0.95,1.916-2.645,1.446-4.215l-20.578-68.789l53.972-41.396
			c1.3-0.997,1.822-2.713,1.294-4.267C242.96,190.557,241.502,189.512,239.861,189.512z"/>
	</g>
	<g>
		<path style="fill:#EAE8E8;" d="M115.899,228.045L115.899,228.045c-0.354-0.294-46.085-38.217-46.406-38.546H49.248
			c-1.613,0-3.054,1.012-3.602,2.529c-0.546,1.518-0.085,3.214,1.157,4.245l55.746,46.257l-19.824,64.159
			c-0.483,1.562,0.079,3.257,1.399,4.221c1.32,0.965,3.11,0.982,4.445,0.048l17.587-12.259l14.872-48.13
			C125.432,236.318,115.899,228.045,115.899,228.045z"/>
		<path style="fill:#EAE8E8;" d="M337.809,228.045L337.809,228.045l-46.123-38.271c-0.102-0.085-0.191-0.181-0.283-0.275h-20.244
			c-1.613,0-3.054,1.012-3.602,2.529c-0.546,1.518-0.085,3.214,1.157,4.245l55.746,46.257l-19.824,64.159
			c-0.483,1.562,0.079,3.257,1.399,4.221c1.32,0.965,3.11,0.982,4.445,0.048l17.587-12.259l14.872-48.13
			C347.343,236.318,337.809,228.045,337.809,228.045z"/>
	</g>
</g>
<path d="M483.11,319.365V109.267c0-4.143-3.357-7.5-7.5-7.5c-6.279,0-432.94,0-439.219,0c-4.142,0-7.5,3.357-7.5,7.5v210.098
	c0,4.142,3.358,7.5,7.5,7.5c6.279,0,432.94,0,439.219,0C479.752,326.865,483.11,323.507,483.11,319.365z M263.5,116.767h94.938
	c-1.115,1.172-1.99,2.595-2.531,4.199l-20.52,61.032H271.16c-2.894,0-5.609,1.111-7.658,2.988v-68.219H263.5z M248.5,116.767v69.241
	c-2.108-2.484-5.239-3.997-8.639-3.997h-63.918l-20.496-60.945c-0.554-1.65-1.461-3.107-2.622-4.299
	C152.825,116.767,248.5,116.767,248.5,116.767z M43.891,116.767h92.702c-1.16,1.19-2.067,2.646-2.622,4.296l-20.488,60.936H49.248
	c-1.91,0-3.743,0.484-5.357,1.354C43.891,183.353,43.891,116.767,43.891,116.767z M43.891,311.865V203.603l50.015,41.501
	c-20.077,64.979-19.964,61.89-18.105,66.761H43.891z M100.388,311.865l46.298-32.271l44.884,32.271H100.388z M151.132,264.314
	c-2.584-1.856-6.058-1.883-8.668-0.063l-49.419,34.446l16.67-53.951c0.896-2.897-0.042-6.049-2.376-7.985l-47.916-39.761h59.45
	c3.221,0,6.083-2.057,7.109-5.109l18.725-55.692l18.734,55.704c1.027,3.053,3.888,5.109,7.109,5.109h58.486l-45.384,34.809
	c-2.47,1.895-3.513,5.118-2.621,8.102l17.49,58.466L151.132,264.314z M196.886,240.577l49.868-38.249
	c0.648-0.496,1.23-1.054,1.744-1.658v111.195h-32.85C217.605,306.974,217.814,310.532,196.886,240.577z M263.5,311.865V201.676
	c0.138,0.127,0.279,0.25,0.424,0.37l51.891,43.058l-18.347,59.362c-0.771,2.482-0.647,5.082,0.239,7.398H263.5V311.865z
	 M322.294,311.865l46.298-32.272l44.887,32.272H322.294z M373.037,264.314c-2.581-1.855-6.055-1.883-8.668-0.063l-49.417,34.445
	l16.675-53.95c0.895-2.897-0.043-6.05-2.377-7.986l-47.916-39.76h59.443c3.221,0,6.082-2.057,7.109-5.109l18.789-55.882
	l18.684,54.562c1.039,3.033,3.89,5.07,7.096,5.07h58.955l-45.921,36.245c-2.414,1.904-3.42,5.09-2.539,8.035l17.482,58.468
	L373.037,264.314z M468.109,311.865h-30.55c1.952-4.891,2.141-1.402-18.777-71.359l49.327-38.933V311.865z M468.109,182.434
	c-1.785-1.145-3.897-1.795-6.117-1.795h-64.177l-20.453-59.73c-0.541-1.582-1.408-2.984-2.513-4.143h93.26L468.109,182.434
	L468.109,182.434z"/>
<path d="M107.154,368.607h2.891c1.381,0,2.5-1.119,2.5-2.5v-24.121c0-1.381-1.119-2.5-2.5-2.5H48.924c-1.381,0-2.5,1.119-2.5,2.5
	v24.121c0,1.381,1.119,2.5,2.5,2.5h2.892c1.381,0,2.5-1.119,2.5-2.5v-2.303c0-11.203,5.624-16.42,17.7-16.42v51.084
	c0,4.524-2.686,3.837-9.971,3.837c-1.381,0-2.5,1.119-2.5,2.5v2.892c0,1.381,1.119,2.5,2.5,2.5h34.879c1.381,0,2.5-1.119,2.5-2.5
	v-2.892c0-1.381-1.119-2.5-2.5-2.5c-7.297,0-9.977,0.679-9.977-3.837v-51.084c12.079,0,17.705,5.217,17.705,16.42v2.303
	C104.654,367.488,105.774,368.607,107.154,368.607z"/>
<path d="M182.287,407.698v-2.953c0-4.837-7.961,0.269-11.197-8.179l-20.727-55.454c-0.365-0.978-1.299-1.625-2.342-1.625h-11.437
	c-1.057,0-1.999,0.664-2.354,1.659l-19.772,55.391c-3.046,8.421-11.203,3.44-11.203,8.21v2.951c0,1.381,1.119,2.5,2.5,2.5h28.27
	c1.381,0,2.5-1.119,2.5-2.5v-2.892c0-1.381-1.119-2.5-2.5-2.5c-7.61,0-10.451,0.708-8.793-4.177l3.511-10.648h24.212
	c5.496,16.67,6.512,14.825-5.283,14.825c-1.381,0-2.5,1.119-2.5,2.5v2.892c0,1.381,1.119,2.5,2.5,2.5h32.115
	C181.168,410.198,182.287,409.079,182.287,407.698z M131.835,379.588l8.536-25.705h0.212l9.283,25.705H131.835z"/>
<path d="M281.348,344.884v-2.897c0-1.381-1.119-2.5-2.5-2.5h-27.932c-1.061,0-2.006,0.67-2.357,1.672l-15.625,44.509h-0.217
	l-13.851-44.425c-0.326-1.045-1.293-1.756-2.387-1.756h-29.15c-1.381,0-2.5,1.119-2.5,2.5v2.897c0,1.381,1.119,2.5,2.5,2.5h4.224
	c1.896,0,4.156,0.629,4.156,3.626v47.67c0,7.105-10.881,0.542-10.881,6.125v2.892c0,1.381,1.119,2.5,2.5,2.5h28.387
	c1.381,0,2.5-1.119,2.5-2.5v-2.892c0-1.381-1.119-2.5-2.5-2.5h-4.113c-2.828,0-4.803-1.49-4.803-3.625v-48.525h0.217l18.957,58.316
	c0.707,2.175,2.651,1.727,7.618,1.727c2.497,0,0.862,2.739,22.167-60.043h0.211v48.525c0,2.202-1.803,3.625-4.592,3.625h-4.533
	c-1.381,0-2.5,1.119-2.5,2.5v2.892c0,1.381,1.119,2.5,2.5,2.5h32.004c1.381,0,2.5-1.119,2.5-2.5v-2.892c0-1.381-1.119-2.5-2.5-2.5
	c-4.652,0-8.802,0.796-8.802-5.12V351.01C270.046,343.969,281.348,350.359,281.348,344.884z"/>
<path d="M319.31,347.384c1.381,0,2.5-1.119,2.5-2.5v-2.897c0-1.381-1.119-2.5-2.5-2.5h-32.752c-1.381,0-2.5,1.119-2.5,2.5v2.897
	c0,1.381,1.119,2.5,2.5,2.5h3.469c3.609,0,5.439,1.613,5.439,4.796v46.288c0,6.962-11.409,1.012-11.409,6.337v2.892
	c0,1.381,1.119,2.5,2.5,2.5h32.752c1.381,0,2.5-1.119,2.5-2.5v-2.892c0-1.381-1.119-2.5-2.5-2.5h-3.686
	c-3.518,0-5.228-1.709-5.228-5.224v-44.589C310.395,347.657,314.653,347.384,319.31,347.384z"/>
<path d="M392.987,350.861c1.611-2.269,4.014-3.371,7.566-3.469c1.353-0.037,2.432-1.145,2.432-2.499v-2.906
	c0-1.381-1.119-2.5-2.5-2.5h-28.807c-1.381,0-2.5,1.119-2.5,2.5v2.897c0,1.381,1.119,2.5,2.5,2.5h5.391
	c2.784,0,3.282,2.763,1.586,5.025l-13.214,17.901l-12.189-17.953c-0.625-0.847-0.93-1.674-0.93-2.528
	c0-1.531,0.955-2.445,2.555-2.445h5.186c1.381,0,2.5-1.119,2.5-2.5v-2.897c0-1.381-1.119-2.5-2.5-2.5h-32.758
	c-1.381,0-2.5,1.119-2.5,2.5v2.913c0,1.342,1.059,2.444,2.4,2.498c3.492,0.14,5.883,1.319,7.549,3.756l20.983,29.394v17.921
	c0,2.488-0.697,3.837-4.375,3.837h-6.355c-1.381,0-2.5,1.119-2.5,2.5v2.892c0,1.381,1.119,2.5,2.5,2.5h36.49
	c1.381,0,2.5-1.119,2.5-2.5v-2.892c0-1.381-1.119-2.5-2.5-2.5h-6.561c-2.713,0-4.268-1.594-4.268-4.372v-16.742L392.987,350.861z"/>
<path d="M430.956,402.305c-1.381,0-2.5,1.119-2.5,2.5v2.892c0,1.381,1.119,2.5,2.5,2.5h32.121c1.381,0,2.5-1.119,2.5-2.5v-2.953
	c0-1.325-1.033-2.42-2.357-2.496c-4.086-0.235-7.152-1.294-8.833-5.682l-20.733-55.455c-0.365-0.977-1.299-1.624-2.342-1.624
	h-11.431c-1.057,0-2,0.664-2.355,1.659l-19.782,55.394c-1.594,4.418-4.688,5.478-8.843,5.71c-1.324,0.074-2.361,1.17-2.361,2.496
	v2.951c0,1.381,1.119,2.5,2.5,2.5h28.285c1.381,0,2.5-1.119,2.5-2.5v-2.892c0-1.381-1.119-2.5-2.5-2.5
	c-11.998,0-10.628,1.351-5.283-14.825h24.205l3.525,10.673c0.098,0.297,0.42,1.359,0.42,2.557
	C440.192,402.642,437.665,402.305,430.956,402.305z M415.125,379.588l8.532-25.705h0.215l9.284,25.705H415.125z"/>
<path d="M491.591,73.417H383.306c-4.142,0-7.5,3.357-7.5,7.5s3.358,7.5,7.5,7.5h108.285c2.982,0,5.408,2.426,5.408,5.408v324.348
	c0,2.982-2.426,5.408-5.408,5.408H163.696c-4.142,0-7.5,3.357-7.5,7.5c0,4.143,3.358,7.5,7.5,7.5h327.895
	c11.254,0,20.409-9.156,20.409-20.409V93.826C512,82.572,502.844,73.417,491.591,73.417z"/>
<path d="M128.694,423.582H20.409c-2.982,0-5.408-2.426-5.408-5.408V93.826c0-2.982,2.426-5.408,5.408-5.408h327.893
	c4.143,0,7.5-3.357,7.5-7.5s-3.357-7.5-7.5-7.5H20.409C9.156,73.417,0,82.572,0,93.826v324.348c0,11.254,9.156,20.409,20.409,20.409
	h108.285c4.142,0,7.5-3.357,7.5-7.5C136.195,426.941,132.836,423.582,128.694,423.582z"/>
<g>
</g>
<g>
</g>
<g>
</g>
<g>
</g>
<g>
</g>
<g>
</g>
<g>
</g>
<g>
</g>
<g>
</g>
<g>
</g>
<g>
</g>
<g>
</g>
<g>
</g>
<g>
</g>
<g>
</g>
</svg>
