<?xml version="1.0" encoding="iso-8859-1"?>
<!-- Generator: Adobe Illustrator 19.0.0, SVG Export Plug-In . SVG Version: 6.00 Build 0)  -->
<svg version="1.1" id="Capa_1" xmlns="http://www.w3.org/2000/svg" xmlns:xlink="http://www.w3.org/1999/xlink" x="0px" y="0px"
	 viewBox="0 0 511.999 511.999" style="enable-background:new 0 0 511.999 511.999;" xml:space="preserve">
<path style="fill:#EA473B;" d="M135.055,263.835c-0.439-1.541-1.861-2.612-3.465-2.556l-20.289,0.436
	c-1.194,0.025-2.295,0.654-2.923,1.672l-16.371,26.535l-8.983-25.669c-0.494-1.412-1.828-2.359-3.326-2.359
	c-25.179,0-25.382-0.617-26.711,1.85L7.898,347.231c-0.535,0.988-0.565,2.174-0.082,3.189c0.483,1.016,1.424,1.738,2.529,1.947
	l29.972,5.653c1.573,0.297,3.157-0.512,3.841-1.963l22.152-47.059l17.164,22.765c0.593,0.785,1.487,1.289,2.468,1.385
	c0.981,0.09,1.955-0.221,2.691-0.877l22.474-20.031c10.359,29.907,7.253,19.999,14.69,46.526c0.43,1.531,1.823,2.573,3.391,2.573
	c0.097,0,0.194-0.004,0.291-0.012c30.658-2.526,29.228-2.103,30.488-3.319C154,328.398,158.824,347.207,135.055,263.835z"/>
<path style="fill:#D82B27;" d="M25.1,354.133l49.816-92.24c-19.775,0-20.601-0.617-21.93,1.85L7.897,347.23
	c-0.535,0.988-0.565,2.174-0.082,3.189c0.483,1.016,1.424,1.738,2.529,1.947l14.396,2.716
	C24.82,354.754,24.936,354.435,25.1,354.133z"/>
<path style="fill:#4A94CC;" d="M381.481,262.979c-0.361-1.707-1.918-2.903-3.665-2.786l-19.162,1.186
	c-1.904,0.119-3.371,1.734-3.303,3.642c3.513,98.78,2.821,92.876,4.48,94.311c0.781,0.675,1.792,0.945,2.69,0.836l34.779-3.829
	c0.989-0.107,1.887-0.629,2.471-1.438c0.582-0.805,0.798-1.82,0.591-2.794L381.481,262.979z"/>
<path style="fill:#2884BC;" d="M372.574,260.518l-13.92,0.861c-1.904,0.119-3.371,1.734-3.303,3.642l3.264,91.771
	c0.035,0.979,0.475,1.899,1.217,2.54c0.643,0.557,1.463,0.857,2.304,0.857c0.128,0,0.257-0.006,0.386-0.022l13.782-1.517
	C375.907,357.65,376.265,364.3,372.574,260.518z"/>
<path style="fill:#F2D422;" d="M330.873,327.388c14.561-16.245,14.458-15.593,14.316-17.586l-2.067-28.315
	c-0.074-1.033-0.601-1.98-1.437-2.591c-24.441-17.832-23.177-17.305-24.952-17.16l-51.27,3.95c-0.935,0.07-1.801,0.512-2.41,1.227
	c-0.608,0.711-0.907,1.637-0.831,2.573l7.305,89.146c0.15,1.826,1.677,3.235,3.512,3.235c0.291,0,23.322,0,22.982,0
	c2.34,0,4.037-2.242,3.386-4.509l-3.999-22.689l30.218,25.823c1.023,0.873,2.453,1.088,3.689,0.555l21.564-9.342
	c1.105-0.479,1.891-1.492,2.079-2.683c0.189-1.191-0.246-2.396-1.151-3.194L330.873,327.388z M312.754,297.748l-8.844,12.757
	l-9.106-1.195l0.873-20.684L312.754,297.748z"/>
<path style="fill:#3BBC56;" d="M225.189,263.667c-0.627-1.367-2.044-2.182-3.555-2.035l-22.484,2.248
	c-1.111,0.111-2.105,0.744-2.678,1.705l-50.584,85.067c-0.591,0.994-0.656,2.213-0.176,3.267c0.48,1.051,1.447,1.799,2.586,2.002
	c0.484,0.087,30.658,5.511,31.152,5.511c1.539,0,2.937-1.014,3.38-2.538l6.622-22.755l34.068,0.836
	c3.029,22.351,2.589,21.737,4.177,22.919c0.762,0.566,1.72,0.799,2.656,0.652c34.577-5.499,33.458-4.842,34.566-6.907
	c0.52-0.973,0.556-2.131,0.097-3.134L225.189,263.667z M220.093,311.722l-22.381-0.584l6.013-14.964l11.234,0.443L220.093,311.722z"
	/>
<path style="fill:#29A53D;" d="M207.233,263.994c0.186-0.38,0.447-0.703,0.737-0.996l-8.819,0.882
	c-1.111,0.111-2.105,0.744-2.678,1.705l-50.584,85.067c-0.591,0.994-0.656,2.213-0.176,3.267c0.48,1.051,1.447,1.799,2.586,2.002
	l12.978,2.319L207.233,263.994z"/>
<path style="fill:#3BBC56;" d="M476.157,263.694c-1.394-1.734-0.031-1.227-36.76-2.442c-0.71-0.016-1.404,0.168-2.002,0.547
	l-29.551,18.734c-1.873,1.19-1.127-0.68-7.43,41.296c-0.178,1.182,0.257,2.373,1.151,3.165l39.849,35.171
	c0.652,0.574,1.483,0.881,2.332,0.881c0.297,0,0.596-0.037,0.889-0.113l49.467-12.9c1.337-0.348,2.346-1.445,2.583-2.806
	l7.728-44.499C504.79,298.558,505.991,300.781,476.157,263.694z M463.839,299.847l0.717,15.943l-13.313,4.866l-12.607-8.457
	l7.319-16.358L463.839,299.847z"/>
<path style="fill:#29A53D;" d="M421.125,323.93c-0.825-0.73-1.227-1.83-1.063-2.922l5.383-35.856
	c0.14-0.932,0.678-1.758,1.475-2.264l32.722-20.965l-20.245-0.67c-0.71-0.016-1.404,0.168-2.002,0.547l-29.551,18.734
	c-1.873,1.19-1.127-0.68-7.43,41.296c-0.178,1.182,0.257,2.373,1.151,3.165l39.849,35.171c0.652,0.574,1.483,0.881,2.332,0.881
	c0.297,0,0.596-0.037,0.889-0.113l14.666-3.824C458.15,356.83,460.91,359.043,421.125,323.93z"/>
<path style="fill:#4A94CC;" d="M97.713,150.136c-31.702,0-30.632-0.423-32.061,1.176c-34.869,39.032-33.417,36.655-33.066,38.94
	c0.16,1.041,0.777,1.955,1.683,2.493l34.964,20.758l-4.506,6.993l-23.397-13.21c-1.663-0.939-3.78-0.379-4.761,1.266l-9.46,15.895
	c-0.901,1.516-0.544,3.464,0.836,4.562c29.129,23.143,27.299,22.058,28.99,22.058H97.03c1.305,0,2.502-0.721,3.112-1.873
	l15.159-28.582c0.819-1.545,0.382-3.456-1.029-4.491l-34.558-25.343l5.806-7.332l18.015,11.568c1.51,0.969,3.51,0.648,4.64-0.744
	l13.162-16.222c1.111-1.371,1.038-3.353-0.171-4.636C98.655,149.521,99.796,150.136,97.713,150.136z"/>
<g>
	<path style="fill:#2884BC;" d="M37.917,232.733c11.135-18.709,10.891-19.522,13.831-19.565l-10.417-5.881
		c-1.663-0.939-3.78-0.379-4.761,1.266l-9.46,15.895c-0.901,1.516-0.544,3.464,0.836,4.562l10.299,8.183
		C37.233,235.942,37.064,234.166,37.917,232.733z"/>
	<path style="fill:#2884BC;" d="M34.269,192.745l9.621,5.712c0.144-0.313,0.318-0.614,0.553-0.877l32.211-36.057
		c1.401-1.569,0.148-1.176,32.061-1.176c0.052,0,0.103,0.014,0.155,0.016c-9.333-9.905-9.187-10.227-11.157-10.227H68.28
		c-1.004,0-1.959,0.428-2.628,1.176c-34.869,39.032-33.417,36.655-33.066,38.94C32.747,191.292,33.364,192.206,34.269,192.745z"/>
</g>
<path style="fill:#F2D422;" d="M221.036,158.483h-33.521c-0.997,0-1.947,0.424-2.615,1.162c-0.669,0.74-0.992,1.729-0.89,2.722
	l4.639,45.245l-18.169,13.085l1.961-65.977c0.028-0.951-0.329-1.875-0.993-2.56c-0.663-0.684-1.575-1.068-2.528-1.068h-36.024
	c-1.945,0-3.523,1.578-3.523,3.522c0,77.084-0.34,72.283,0.794,73.671l17.998,22.034c0.67,0.818,1.671,1.293,2.73,1.293h47.864
	c1.008,0,1.968-0.432,2.637-1.186l22.279-25.142c0.57-0.645,0.887-1.475,0.887-2.336v-60.943
	C224.56,160.062,222.982,158.483,221.036,158.483z"/>
<path style="fill:#F4BD25;" d="M150.173,228.287c-0.514-0.629-0.794-1.418-0.794-2.229v-71.443c0-1.943,1.577-3.522,3.523-3.522
	h-20.004c-1.945,0-3.523,1.578-3.523,3.522c0,77.084-0.34,72.283,0.794,73.671l17.998,22.034c0.67,0.818,1.671,1.293,2.73,1.293
	H170.9c-1.058,0-2.059-0.475-2.73-1.293L150.173,228.287z"/>
<path style="fill:#F2D422;" d="M464.759,216.859c14.562-16.241,14.46-15.589,14.316-17.582c-2.213-30.343-1.702-29.591-3.503-30.904
	c-24.408-17.815-23.16-17.3-24.954-17.166c-55.611,4.291-52.341,3.61-53.678,5.183c-0.608,0.713-0.907,1.639-0.83,2.573
	l7.305,89.146c0.148,1.826,1.677,3.235,3.512,3.235h22.963c0.006,0,0.015,0,0.02,0c1.946,0,3.523-1.578,3.523-3.524
	c0-0.34-0.048-0.67-0.139-0.982l-3.997-22.691l30.216,25.823c1.023,0.873,2.455,1.088,3.691,0.555
	c23.161-10.037,23.243-9.479,23.644-12.027C487.253,235.922,487.395,236.8,464.759,216.859z M446.642,187.225l-8.843,12.751
	l-9.108-1.189l0.875-20.693L446.642,187.225z"/>
<g>
	<path style="fill:#F4BD25;" d="M416.114,155.699c-0.053-0.644,0.076-1.277,0.336-1.856c-18.607,1.436-18.248,1.061-19.51,2.547
		c-0.608,0.713-0.907,1.639-0.83,2.573l7.305,89.146c0.148,1.826,1.677,3.235,3.512,3.235h17.026L416.114,155.699z"/>
	<path style="fill:#F4BD25;" d="M282.226,266.224c-0.053-0.643,0.076-1.277,0.336-1.856l-17.101,1.319
		c-0.934,0.07-1.802,0.512-2.41,1.227c-0.608,0.713-0.907,1.639-0.83,2.573l7.305,89.146c0.148,1.826,1.677,3.235,3.512,3.235
		h17.026L282.226,266.224z"/>
</g>
<path style="fill:#EA473B;" d="M312.48,166.297c-23.186-15.94-21.894-15.337-23.401-15.337h-50.333
	c-1.878,0-3.427,1.473-3.519,3.349l-4.663,93.747c-0.047,0.963,0.302,1.904,0.967,2.605c0.665,0.697,1.588,1.094,2.553,1.094h23.623
	c1.945,0,3.524-1.578,3.524-3.524v-15.739l29.232-1.848c0.835-0.053,1.624-0.4,2.226-0.982l21.978-21.245
	c0.729-0.703,1.118-1.688,1.07-2.7l-1.732-36.682C313.951,167.934,313.389,166.92,312.48,166.297z M287.835,185.577l-12.214,14.398
	l-9.768-1.328l1.021-17.609L287.835,185.577z"/>
<path style="fill:#D82B27;" d="M250.568,248.054l4.663-93.747c0.093-1.875,1.641-3.349,3.52-3.349h-20.004
	c-1.878,0-3.427,1.473-3.519,3.349l-4.663,93.747c-0.047,0.963,0.302,1.904,0.967,2.605c0.665,0.697,1.588,1.094,2.553,1.094h20.005
	c-0.964,0-1.887-0.396-2.553-1.094C250.87,249.96,250.522,249.017,250.568,248.054z"/>
<path style="fill:#3BBC56;" d="M388.599,226.687c-0.549-1.287-1.81-2.127-3.211-2.139l-29.337-0.25l-2.628-8.336l23.182-2.076
	c1.733-0.156,3.094-1.553,3.202-3.29l0.899-14.335c0.121-1.924-1.328-3.589-3.252-3.733l-25.673-1.93l0.465-7.875l30.587-4.7
	c1.466-0.225,2.634-1.342,2.922-2.796c4.441-22.407,4.787-21.948,3.379-23.665c-0.67-0.814-1.668-1.287-2.724-1.287h-58.86
	c-1.674,0-3.117,1.178-3.452,2.817c-7.096,34.694-6.749,32.519-6.651,33.378l6.913,61.199c0.2,1.781,1.707,3.128,3.501,3.128h65.699
	c1.183,0,2.287-0.594,2.94-1.582c0.651-0.986,0.765-2.236,0.3-3.325L388.599,226.687z"/>
<path style="fill:#29A53D;" d="M344.364,247.668c-7.379-65.319-7.039-61.456-6.863-62.3l6.602-32.277
	c0.335-1.639,1.777-2.817,3.452-2.817h-20.004c-1.674,0-3.117,1.178-3.452,2.817l-6.602,32.277c-0.075,0.361-0.092,0.732-0.05,1.102
	l6.913,61.199c0.2,1.781,1.707,3.128,3.501,3.128h20.004C346.072,250.796,344.565,249.449,344.364,247.668z"/>
<path d="M316.322,291.132l-17.077-9.123c-4.865-2.601-10.797,0.783-11.029,6.3l-0.873,20.684c-0.164,3.883,2.665,7.249,6.518,7.755
	c16.07,2.109,12.396,3.588,25.091-14.725C321.505,298.34,320.278,293.247,316.322,291.132z"/>
<path d="M190.786,308.341c-1.946,4.843,1.54,10.161,6.764,10.296c0.133,0.004,22.444,0.587,22.577,0.587
	c5.134,0,8.754-5.057,7.102-9.915l-5.133-15.105c-0.999-2.939-3.705-4.96-6.806-5.082
	C196.053,288.363,199.634,286.322,190.786,308.341z M208.731,303.921l0.017-0.042l0.801,0.031l0.011,0.032L208.731,303.921z"/>
<path d="M472.166,254.829l15.612-6.766c7.432-3.215,8.961-13.062,2.91-18.391l-15.257-13.441
	c12.82-14.298,11.634-10.997,10.52-26.275c-0.301-4.131-3.893-7.231-8.027-6.935c-4.132,0.302-7.237,3.896-6.936,8.028l0.517,7.087
	c-13.177,14.696-14.435,15.164-14.199,19.163c0.237,4.039,1.303,4.107,18.762,19.487l-13.536,5.865l-28.329-24.21
	c-5.321-4.549-13.481,0.081-12.262,7.003l3.24,18.395h-14.556l-6.678-81.507l45.819-3.535l7.944,5.798
	c3.347,2.443,8.04,1.71,10.482-1.636c2.442-3.347,1.71-8.04-1.636-10.482c-9.341-6.818-11.359-9.124-16.48-8.752
	c-55.844,4.309-52.086,3.856-54.094,4.569c-2.069-3.581-5.731-5.523-9.536-5.523h-58.86c-5.214,0-9.757,3.708-10.801,8.815
	l-1.531,7.488l-19.887-13.673c-1.847-1.271-4.009-1.944-6.25-1.944H238.78c-5.674,0-10.361,4.285-10.95,9.857
	c-3.977-3.099-4.144-2.333-40.279-2.333c-2.829,0-5.549,1.094-7.588,3.027c-0.149-2.636-1.25-5.172-3.095-7.069
	c-2.063-2.127-4.947-3.348-7.913-3.348h-36.024c-6.079,0-11.024,4.945-11.024,11.023v8.609l-16.135-17.125
	c-2.074-2.202-5-3.466-8.025-3.466H68.314c-3.137,0-6.134,1.342-8.222,3.68L27.88,182.368c-4.625,5.181-3.366,13.287,2.595,16.824
	l3.196,1.896c-2.839,1.824-2.675,2.219-12.974,19.522c-2.805,4.717-1.681,10.85,2.618,14.27l26.793,21.286
	c0.006,0.005,0.014,0.01,0.02,0.015c-3.179,2.061-2.523,1.802-18.02,30.497c-1.968,3.646-0.609,8.197,3.036,10.165
	c3.645,1.97,8.196,0.61,10.165-3.035l13.187-24.417h18.415l8.051,23.006c2.085,5.956,10.162,6.813,13.465,1.461l15.235-24.693
	l15.057-0.323l18.514,64.933c-7.692,12.935-9.549,14.818-9.282,19.323l-5.783,0.477c-6.869-24.503-2.96-12.102-13.939-43.796
	c-0.821-2.369-2.772-4.172-5.198-4.804c-2.428-0.634-5.009-0.01-6.881,1.659l-19.251,17.159l-14.564-19.317
	c-3.394-4.502-10.374-3.781-12.777,1.321l-20.841,44.275L17.12,346l11.502-21.295c1.968-3.646,0.609-8.197-3.036-10.165
	c-3.647-1.971-8.197-0.61-10.165,3.035L1.334,343.657c-3.548,6.552,0.316,14.692,7.653,16.079l29.971,5.653
	c4.932,0.928,9.877-1.593,12.019-6.14l16.859-35.812c9.896,13.125,11.326,16.58,17.454,17.179
	c6.057,0.546,7.745-2.193,22.442-15.294c5.989,17.29,3.678,9.802,10.873,35.467c1.409,5.023,6.231,8.445,11.52,8.011
	c30.765-2.535,29.254-2.267,31.142-2.948c17.905,3.201,16.908,3.081,18.219,3.081c4.87,0,9.221-3.267,10.582-7.943l5.009-17.21
	l21.904,0.537c1.991,14.7,1.611,18.123,6.275,21.597c2.298,1.708,5.284,2.514,8.311,2.041l31.507-5.011
	c1.765,3.793,5.621,6.424,9.999,6.424h22.983c7.076,0,12.386-6.626,10.723-13.595l-0.321-1.822
	c15.017,12.834,16.245,14.888,21.494,14.888c1.511,0,2.983-0.304,4.381-0.907l19.227-8.329c1.528,5.5,6.814,8.639,11.819,8.022
	l34.768-3.828c3.1-0.336,5.922-1.979,7.739-4.499c3.533-4.884,1.941-8.321-0.79-21.213c33.653,29.703,34.056,32.041,41.47,30.108
	l49.462-12.898c4.173-1.085,7.347-4.532,8.086-8.782l7.728-44.502c0.539-3.119-0.287-6.321-2.272-8.794
	C478.249,254.285,480.754,255.116,472.166,254.829z M452.943,254.194c-0.557-0.018-13.181-0.447-13.729-0.435
	c2.635-4.099,1.609-7.604,1.128-10.334L452.943,254.194z M390.499,181.935l3.186,38.878c-2.042-2.333-4.891-3.741-8.557-3.771
	c2.517-3.331,2.137-4.993,3.1-20.312c0.303-4.814-2.583-9.143-6.833-10.893C384.284,185.394,387.52,185.219,390.499,181.935z
	 M330.831,157.776H381.6l-2.627,13.256l-27.833,4.276c-3.496,0.537-6.141,3.442-6.349,6.972l-0.465,7.875
	c-0.242,4.09,2.842,7.616,6.926,7.923l21.754,1.636l-0.439,7.005l-19.78,1.771c-2.262,0.202-4.311,1.419-5.572,3.311
	c-2.447,3.672-0.975,6.217,1.714,14.752c0.977,3.101,3.84,5.218,7.09,5.246l26.736,0.228l4.812,11.267H331.45l-6.443-57.038
	L330.831,157.776z M350.351,334.521l-8.808-7.761l8.206-9.155L350.351,334.521z M348.228,274.85
	c-1.269-1.579-0.051-0.526-22.254-16.726c1.349,0.238,0.002,0.173,24.072,0.173C347.156,262.185,347.887,265.252,348.228,274.85z
	 M242.565,158.461h45.31l18.762,12.899l1.554,32.911l-19.631,18.976l-27.771,1.755c-3.952,0.25-7.028,3.528-7.028,7.487v11.762
	h-15.465L242.565,158.461z M257.739,259.254c6.079,0,11.025-4.946,11.025-11.025v-8.697c23.589-1.491,25.401-0.832,29.17-4.48
	l15.763-15.235c3.543,31.359,2.953,31.336,5.9,34.706c-2.509-0.598,1.374-0.633-54.665,3.685c-2.911,0.219-5.666,1.62-7.547,3.83
	c-1.894,2.213-2.846,5.15-2.609,8.063l3.992,48.72c-28.942-63.105-26.875-58.793-27.737-60.019
	C233.095,259.405,231.798,259.254,257.739,259.254z M223.653,236.658c-0.564,11.333-1.294,13.974,1.456,17.901
	c-2.704-0.791-3.132-0.497-18.233,1.013C207.617,254.767,203.521,259.378,223.653,236.658z M179.023,186.939l1.755,17.122
	l-2.314,1.666L179.023,186.939z M136.91,158.594h27.946l-1.839,61.88c-0.185,6.2,6.843,9.938,11.881,6.31l18.169-13.085
	c2.178-1.568,3.353-4.182,3.079-6.851l-4.189-40.864h25.136v55.455l-20.09,22.673h-44.187L136.91,224.64L136.91,158.594
	L136.91,158.594z M121.907,189.292v24.434c-1.5-2.8-2.358-3.064-13.316-11.099C112.72,201.415,113.589,199.543,121.907,189.292z
	 M35.368,225.297l5.694-9.568l20.011,11.299c3.461,1.953,7.843,0.87,9.994-2.471c4.664-7.239,6.404-8.942,5.502-12.777
	c-0.467-1.982-1.72-3.69-3.473-4.73l-30.807-18.291l27.805-31.124h25.934l17.324,18.386l-8.727,10.755l-15.019-9.645
	c-3.246-2.085-7.541-1.367-9.935,1.654c-5.721,7.225-7.899,8.993-7.359,12.992c0.272,2.019,1.354,3.841,2.999,5.046l31.785,23.31
	l-12.427,23.43H58.36L35.368,225.297z M142.302,261.778c-1.387-4.865-5.853-8.182-10.875-7.997
	c-30.108,0.646-24.384-2.461-37.505,18.807c-4.117-11.763-4.056-12.127-5.56-14.02h8.702c4.093,0,7.826-2.246,9.739-5.859
	l15.104-28.478c0,7.253-0.68,4.925,20.488,30.841c2.103,2.569,5.214,4.043,8.534,4.043h41.349
	c-1.923,1.683,0.594-2.091-34.503,56.931L142.302,261.778z M233.229,352.499l-2.24-16.53c-0.495-3.651-3.567-6.401-7.25-6.492
	l-34.068-0.836c-3.418-0.042-6.435,2.136-7.387,5.403l-5.623,19.32l-15.34-2.742c-0.001,0-0.003-0.001-0.004-0.001l-6.007-1.074
	l46.621-78.402l17.66-1.766l36.458,79.493L233.229,352.499z M328.644,353.178l-28.331-24.21c-5.334-4.561-13.479,0.094-12.262,7.004
	l3.242,18.394h-14.557l-6.678-81.506l45.82-3.53l19.93,14.541l1.811,24.79c-19.769,22.057-20.041,16.98,4.559,38.655
	L328.644,353.178z M365.993,352.243l-2.974-83.616l11.867-0.734l17.26,81.47L365.993,352.243z M387.655,258.297
	c6.013,0,8.82,0.438,12.292-2.012c3.973,3.297,5.614,2.56,28.134,2.56l-24.228,15.359c-5.343,3.396-4.946,7.366-7.346,23.35
	C388.2,258.346,388.831,260.366,387.655,258.297z M489.768,341.422l-44.942,11.719l-36.638-32.337l5.24-34.906l26.983-17.108
	l31.078,1.028l25.258,31.399L489.768,341.422z"/>
<path d="M465.513,292.526l-17.885-4.007c-3.483-0.78-7.03,0.999-8.488,4.257l-7.319,16.358c-1.491,3.334-0.365,7.259,2.669,9.293
	l12.607,8.457c1.252,0.84,2.71,1.271,4.18,1.271c0.867,0,1.739-0.15,2.575-0.456l13.314-4.866c3.075-1.123,5.066-4.112,4.918-7.383
	l-0.716-15.942C471.215,296.128,468.816,293.266,465.513,292.526z M452.286,312.3l-4.187-2.809l2.232-4.99l6.305,1.412l0.212,4.719
	L452.286,312.3z"/>
<path d="M433.138,171.478c-4.865-2.605-10.799,0.778-11.032,6.297l-0.875,20.694c-0.165,3.886,2.668,7.253,6.523,7.756l9.109,1.189
	c2.725,0.359,5.507-0.814,7.135-3.163c9.371-13.513,10.964-14.666,9.971-18.785C452.969,181.324,451.47,181.282,433.138,171.478z"/>
<path d="M264.877,206.079l9.768,1.328c0.338,0.046,0.676,0.068,1.012,0.068c2.185,0,4.284-0.956,5.719-2.649l12.214-14.398
	c1.705-2.009,2.229-4.767,1.383-7.263s-2.941-4.364-5.516-4.922l-20.959-4.54c-4.491-0.977-8.811,2.298-9.077,6.896l-1.021,17.609
	C258.172,202.122,260.994,205.55,264.877,206.079z"/>
<g>
</g>
<g>
</g>
<g>
</g>
<g>
</g>
<g>
</g>
<g>
</g>
<g>
</g>
<g>
</g>
<g>
</g>
<g>
</g>
<g>
</g>
<g>
</g>
<g>
</g>
<g>
</g>
<g>
</g>
</svg>
