<?xml version="1.0" encoding="iso-8859-1"?>
<!-- Generator: Adobe Illustrator 19.0.0, SVG Export Plug-In . SVG Version: 6.00 Build 0)  -->
<svg version="1.1" id="Capa_1" xmlns="http://www.w3.org/2000/svg" xmlns:xlink="http://www.w3.org/1999/xlink" x="0px" y="0px"
	 viewBox="0 0 512 512" style="enable-background:new 0 0 512 512;" xml:space="preserve">
<path style="fill:#EA473B;" d="M504.5,337.452c0,6.629-5.371,12.001-12.001,12.001H19.501c-6.627,0-12.001-5.371-12.001-12.001
	V174.548c0-6.627,5.373-12.001,12.001-12.001h472.998c6.629,0,12.001,5.373,12.001,12.001V337.452z"/>
<path style="fill:#D82B27;" d="M27.502,337.452V174.548c0-6.629,5.373-12.001,12.001-12.001H19.501
	c-6.627,0-12.001,5.371-12.001,12.001v162.905c0,6.627,5.373,12.001,12.001,12.001h20.001
	C32.875,349.453,27.502,344.08,27.502,337.452z"/>
<path d="M87.14,278.942v15.21h3.173v-5.783h9.148c5.324,0,5.322-7.184,2.367-8.818C100.411,278.74,100.449,278.942,87.14,278.942z
	 M99.141,286.197h-8.828v-5.179h8.828C101.065,280.991,100.982,286.117,99.141,286.197z"/>
<path d="M109.492,288.367h4.657l5.455,5.783h4.142l-5.761-5.783c1,0,1.893,0.033,3.022-0.598c2.396-1.333,2.891-6.611,0-8.221
	c-0.718-0.407-1.509-0.608-2.367-0.608h-12.321v15.21h3.172V288.367z M109.492,281.018h8.827c1.92-0.027,1.838,5.099,0,5.179h-8.827
	V281.018z"/>
<path d="M140.955,280.12c-1.46-1.377-6.21-1.178-6.21-1.178c-0.507,0-0.377,0-0.884,0c-0.506,0-0.382,0-0.889,0
	c0,0-4.749-0.199-6.209,1.178c-1.649,1.547-1.424,3.146-1.424,3.146c0,6.977-0.416,7.997,1.482,9.785
	c1.391,1.312,5.461,1.1,6.711,1.1c0.239,0,0.417,0,0.652,0c1.001,0,5.283,0.246,6.711-1.1c1.866-1.758,1.482-2.695,1.482-9.785
	C142.379,283.266,142.605,281.666,140.955,280.12z M138.955,289.759c-0.197,2.072-2.461,2.231-4.614,2.163
	c-1.078,0-3.961,0.102-4.778-0.634c-1.036-0.929-0.801-1.32-0.801-7.953c-0.231-1.931,2.73-2.271,4.56-2.276
	c1.122,0,3.895-0.019,4.832,0.729C139.205,282.629,138.955,282.757,138.955,289.759z"/>
<path d="M153.49,281.801c0.743-0.594,2.993-0.627,3.773-0.619c0.168,0,8.221,0.004,8.221,0.004v-2.244
	c-6.967,0-12.826-0.357-14.678,1.385c-1.691,1.593-1.325,1.913-1.325,9.502c0,0-0.321,1.388,1.325,2.94
	c1.464,1.377,6.092,1.384,6.092,1.384h8.586v-2.247c-8.282,0.003-10.994,0.183-11.994-0.616c-1.016-0.808-0.816-1.536-0.816-1.536
	v-2.127h11.878v-2.123h-11.878v-2.159C152.674,283.342,152.475,282.613,153.49,281.801z"/>
<path d="M176.665,294.181c1.77,0.024,2.825-1.795,3.479-3.445l5.51-11.856h-3.692l-5.296,12.194l-5.299-12.194h-3.692l5.51,11.856
	C173.839,292.394,174.895,294.205,176.665,294.181z"/>
<path d="M202.035,280.12c-1.375-1.293-5.318-1.178-7.098-1.178c-0.317,0-0.571,0-0.888,0c0,0-4.75-0.199-6.21,1.178
	c-1.794,1.683-1.424,2.41-1.424,9.709c0,0-0.163,1.672,1.482,3.223c1.464,1.377,6.151,1.1,6.151,1.1h0.564h0.324h0.324h0.562
	c0,0,4.691,0.276,6.151-1.1c1.646-1.551,1.482-3.223,1.482-3.223v-6.561C203.456,283.266,203.682,281.666,202.035,280.12z
	 M200.032,289.759c-0.186,2.059-2.44,2.232-4.609,2.163h-0.969c0,0-3.004,0.095-3.814-0.634c-0.717-0.644-0.802-1.529-0.802-1.529
	v-6.424c0,0-0.097-0.826,0.802-1.548c0.937-0.747,3.71-0.729,4.833-0.729c0,0,2.855,0.008,3.758,0.729
	C200.298,282.639,200.032,282.8,200.032,289.759z"/>
<path d="M209.161,278.88h-3.194c0,16.904-2.114,15.272,16.007,15.272v-2.247c-8.193,0.003-10.994,0.187-11.994-0.616
	c-1.016-0.808-0.818-1.536-0.818-1.536V278.88H209.161z"/>
<path d="M231.821,294.152h0.561h0.721h0.561c0,0,4.632-0.007,6.094-1.384c1.749-1.649,1.328-1.559,1.328-13.888h-3.204v10.872
	c0,0,0.197,0.728-0.819,1.536c-0.899,0.722-3.756,0.728-3.756,0.728h-0.349h-0.44h-0.35c0,0-2.856-0.007-3.755-0.728
	c-1.017-0.808-0.82-1.536-0.82-1.536V278.88H224.4c0,12.332-0.424,12.239,1.329,13.888
	C227.188,294.145,231.821,294.152,231.821,294.152z"/>
<path d="M253.257,294.152v-13.134h6.405v-2.138c-2.277,0-13.941,0-15.909,0v2.138h6.086v13.134H253.257z"/>
<rect x="262.226" y="278.877" width="3.416" height="15.272"/>
<path d="M277.616,278.942c-0.318,0-0.573,0-0.89,0c-0.503,0-0.38,0-0.885,0c0,0-4.749-0.199-6.213,1.178
	c-1.646,1.547-1.42,3.146-1.42,3.146v6.561c0,0-0.168,1.672,1.482,3.223c1.46,1.377,6.15,1.1,6.15,1.1h0.561h0.324h0.324h0.565
	c0,0,4.69,0.276,6.15-1.1c1.647-1.551,1.482-3.223,1.482-3.223C285.247,282.272,286.57,278.566,277.616,278.942z M281.825,289.759
	c0,0-0.083,0.886-0.8,1.529c-0.819,0.737-3.71,0.634-4.782,0.634c-2.217,0.07-4.428-0.13-4.611-2.163
	c0-6.945-0.267-7.115,0.802-7.973c0.931-0.746,3.699-0.729,4.832-0.729c0,0,2.857,0.008,3.76,0.729
	C282.091,282.643,281.825,282.812,281.825,289.759z"/>
<path d="M298.983,293.219c0.864,1.184,5.031,1.608,5.361-1.016v-13.272h-3.23c0.007,11.49,0.315,12.483-0.48,11.483l-7.522-10.551
	c0,0-0.681-0.933-2.71-0.933c-2.403,0-2.649,1.948-2.649,1.948v13.272h3.228c0,0-0.003-10.937-0.003-11.517
	C290.978,281.635,291.756,283.078,298.983,293.219z"/>
<path d="M317.481,292.003c0,0-1.942-0.145-1.942-1.589l-3.404,0.023c0.141,2.226,1.819,3.715,3.845,3.715c2.521,0,7.849,0,7.849,0
	s4.283-0.036,4.283-4.163c0-4.272-3.726-4.476-3.726-4.476h-3.967c-2.519,0-5.314,0.388-5.314-2.211
	c0-2.921,4.087-2.294,7.511-2.294c0,0,1.94,0.143,1.94,1.569l3.405-0.022c-0.135-2.09-1.697-3.675-3.846-3.675
	c-2.521,0-7.849,0-7.849,0c-5.894,0.05-5.391,8.28-0.56,8.545l6.545-0.004c0,0,2.734-0.087,2.734,2.262
	C324.987,292.628,320.924,292.003,317.481,292.003z"/>
<path d="M345.972,280.12c-1.464-1.377-6.212-1.178-6.212-1.178h-0.562h-0.324h-0.328h-0.561c0,0-4.748-0.199-6.208,1.178
	c-1.649,1.547-1.424,3.146-1.424,3.146c0,6.975-0.417,7.996,1.482,9.785c1.465,1.377,6.15,1.1,6.15,1.1h0.561
	c0.24,0,0.418,0,0.652,0c1,0,5.282,0.247,6.711-1.1c1.887-1.773,1.482-2.752,1.482-9.785
	C347.392,283.266,347.618,281.666,345.972,280.12z M343.969,289.759c-0.186,2.059-2.443,2.232-4.611,2.163
	c-2.683,0-5.359,0.184-5.582-2.163c0-6.945-0.267-7.115,0.802-7.973c0.903-0.721,3.758-0.729,3.758-0.729
	c1.122,0,3.895-0.019,4.832,0.729C344.219,282.629,343.969,282.757,343.969,289.759z"/>
<path d="M363.028,283.899h3.423c0-4.838-3.333-4.957-8.193-4.957c-1.639,0-5.977-0.185-7.422,1.178
	c-1.799,1.687-1.421,2.427-1.421,9.709c0,0-0.168,1.672,1.479,3.223c1.409,1.325,5.446,1.1,7.363,1.1
	c4.331,0,8.193,0.187,8.193-4.804h-3.423c0,2.82-2.755,2.574-5.579,2.574c0,0-3.005,0.095-3.813-0.634
	c-1.052-0.944-0.797-1.494-0.797-7.953c-0.24-1.93,2.726-2.271,4.556-2.276c2.231,0,5.912,0.008,5.634,2.276L363.028,283.899
	L363.028,283.899z"/>
<path d="M368.847,283.266c0,9.727-1.054,10.886,9.404,10.886c0,0,4.691,0.276,6.151-1.1c1.405-1.321,1.482-2.531,1.482-3.703h-3.423
	c0,0.73-0.18,1.385-0.803,1.941c-0.817,0.737-3.7,0.634-4.777,0.634c-2.148,0.068-4.424-0.091-4.611-2.163
	c0-7.802-1.214-8.701,5.631-8.701c0,0,2.859,0.008,3.758,0.729c0.903,0.722,0.803,1.548,0.803,1.548v0.565h3.423
	c0-4.838-3.334-4.957-8.196-4.957c-0.233,0-0.412,0-0.646,0c-1,0-5.349-0.167-6.775,1.178
	C368.618,281.666,368.847,283.266,368.847,283.266z"/>
<path d="M388.234,289.828c0,0-0.321,1.388,1.329,2.94c1.843,1.736,7.626,1.384,14.677,1.384v-2.247c0,0-8.055,0.003-8.223,0.007
	c-0.775,0.008-3.029-0.029-3.769-0.623c-1.017-0.808-0.82-1.536-0.82-1.536c0-0.796,0-1.331,0-2.127h11.878v-2.123h-11.878
	c0-2.95,0,0.791,0-2.159c0,0-0.196-0.729,0.82-1.541c1-0.803,3.816-0.619,11.992-0.615v-2.244h-8.583
	C386.813,278.957,388.234,282.456,388.234,289.828z"/>
<path d="M423.497,283.528c0-3.154-1.92-4.586-4.33-4.586h-12.321v15.21h3.172v-5.783h4.658l5.455,5.783h4.145l-5.765-5.783
	C421.65,288.367,423.497,287.044,423.497,283.528z M410.017,286.197v-5.179h8.829c1.922-0.027,1.832,5.099,0,5.179H410.017z"/>
<path d="M112.416,241.757c0-17.903,2.034-23.939-19.628-23.939l-35.853,0.004c-1.381,0-2.5,1.119-2.5,2.5v47.216
	c0,1.381,1.119,2.5,2.5,2.5h11.283c1.381,0,2.5-1.119,2.5-2.5v-14.159c22.534,0.001,31.836,0.657,37.058-2.4
	C112.363,248.285,112.416,242.023,112.416,241.757z M70.718,242.781v-14.385c23.446,0.008,22.577-0.256,24.241,0.8
	c1.455,0.922,1.117,1.195,1.118,11.238C95.57,243.471,92.131,242.78,70.718,242.781z"/>
<path d="M175.842,267.373v-5.914c0-1.381-1.119-2.5-2.5-2.5c-37.853-0.005-38.17,0.606-38.791-1.523l-0.031-8.04
	c38.964,0.033,36.721,0.337,37.759-0.701c0.47-0.469,0.733-1.105,0.733-1.769c0-6.245,0.267-6.922-0.733-7.92
	c-0.464-0.464-1.096-0.732-1.769-0.732l-35.984,0.031l0.043-8.094c0.052-0.143,0.209-0.462,0.657-0.918
	c0.343-0.352,1.619-0.554,3.48-0.554l0.352,0.003l34.284-0.001c1.381,0,2.5-1.119,2.5-2.5v-5.918c0-1.381-1.119-2.5-2.5-2.5
	c-35.252-0.004-45.954-0.714-51.209,2.51c-3.467,2.131-4.187,6.663-4.336,8.514c-0.005,0.064-0.008,0.13-0.008,0.194
	c-0.004,1.658-0.004,27.953,0,29.616c0,0.065,0.003,0.13,0.008,0.194c0.149,1.851,0.869,6.384,4.337,8.516
	c3.796,2.331,12.606,2.513,15.216,2.513c0.006,0,0.012,0,0.019,0l35.974-0.004C174.723,269.873,175.842,268.754,175.842,267.373z"/>
<path d="M239.587,258.287l-0.002-8.768c0.005-0.544-0.067-5.404-4.137-8.353c-5.05-3.664-15.088-2.887-34.367-2.885
	c-1.646,0-3.255-1.207-3.255-1.908v-5.785c0.028-0.462,1.063-1.914,3.255-1.914h18.804c1.62,0,3.201,0.895,3.255,1.843
	c0.074,1.324,1.17,2.359,2.496,2.359h11.449c1.381,0,2.5-1.119,2.5-2.5c0-3.894-1.023-7.678-4.215-9.776
	c-4.173-2.744-13.434-2.783-13.828-2.783h-22.119c-19.735,0-18.04,8.479-18.04,19.518c0,0.243,0.048,6,4.217,9.026
	c3.249,2.355,9.789,2.876,13.769,2.779l20.622,0.049c1.924,0,3.15,1.497,3.15,2.28v5.794c0,0.946-1.895,1.908-3.257,1.908
	c-18.444,0-21.941,0.569-22.057-1.823c-0.064-1.332-1.163-2.379-2.497-2.379h-11.448c-1.381,0-2.5,1.119-2.5,2.5
	c0,3.918,1.037,7.674,4.216,9.777c4.148,2.747,13.431,2.778,13.824,2.778C223.271,270.026,240.21,272.318,239.587,258.287z"/>
<path d="M263.225,254.938c0-2.391,2.547-5.319,4.683-5.49c0.187,0,22.201,0.001,22.387-0.018c0.74-0.067,6.82-0.758,10.706-5.382
	c7.125-8.481,3.687-24.688-10.761-25.991c-0.074-0.007-0.149-0.01-0.224-0.01c-0.162,0-27.744-0.005-27.905,0.01
	c-7.59,0.665-12.989,6.075-14.335,12.69c-0.315,1.549,0.871,2.998,2.45,2.998h11.529c1.039,0,1.971-0.643,2.338-1.615
	c0.21-0.554,0.519-1.07,0.916-1.531c1.312-1.517,3.409-1.707,3.379-1.707c-0.001,0-0.001,0-0.002,0l0.097-0.005l15.446,0.007
	c0.374,0.044,2.213,0.325,3.398,1.697c1.322,1.536,2.37,6.528-3.509,8.599l-22.025,0.001c-0.073,0-0.146,0.003-0.22,0.01
	c-1.124,0.099-6.931,0.824-10.762,5.381c-3.829,4.557-3.715,10.315-3.656,11.371c0.011,0.303,0.012,2.357,0.012,11.805
	c0,1.381,1.119,2.5,2.5,2.5h51.021c1.381,0,2.5-1.119,2.5-2.5v-5.885c0-1.381-1.119-2.5-2.5-2.5H263.2v-0.012
	C263.201,259.137,263.225,255.764,263.225,254.938z"/>
<path d="M361.755,222.851c-3.563-3.521-8.747-4.858-10.659-4.858c-0.236,0-27.436-0.008-27.67,0.02
	c-7.96,0.89-14.04,6.068-14.877,15.168c-0.007,0.076-0.011,0.153-0.011,0.229c0,0.165-0.005,21.454,0.01,21.618
	c0.1,1.103,0.771,6.778,4.268,10.235c3.563,3.521,8.746,4.857,10.658,4.857c0.211,0,27.21,0.005,27.42-0.017
	c1.1-0.12,6.793-0.923,10.861-4.942c3.154-3.115,4.279-8.747,4.279-10.46V233.31c0-0.076-0.004-0.151-0.011-0.228
	C365.924,231.98,365.246,226.3,361.755,222.851z M344.457,259.476h-14.3c-3.434,0-5.413-2.905-5.524-6.005
	c0.006-19.549,0.007-16.882,0-18.728c0.002-0.061,0.302-6.005,5.524-6.005h14.3c5.211,0,5.523,5.905,5.525,5.905l0.004,18.728
	C349.985,253.433,349.686,259.476,344.457,259.476z"/>
<path d="M379.279,217.992h-5.72c-1.381,0-2.5,1.119-2.5,2.5v5.78c0,3.698,5.418,1.544,5.523,5.296l0.005,35.949
	c0,1.381,1.119,2.5,2.5,2.5h11.533c0.663,0,1.3-0.264,1.768-0.733c0.469-0.469,0.732-1.105,0.732-1.769l-0.034-38.674
	C393.087,220.26,384.054,217.992,379.279,217.992z"/>
<path d="M399.632,254.876v1.766c0,7.388,5.875,13.377,13.121,13.377h31.981c7.245,0,13.121-5.988,13.121-13.377v-1.766
	c0-4.484-2.172-8.444-5.494-10.871c9.953-7.269,6.07-26.014-7.626-26.014h-31.981c-7.245,0-13.121,5.988-13.121,13.377v1.766
	c0,4.484,2.172,8.443,5.494,10.871C401.804,246.433,399.632,250.392,399.632,254.876z M419.905,228.562h17.95
	c2.843,0,5.147,2.306,5.147,5.148c0,2.843-2.305,5.148-5.147,5.148h-17.95c-2.843,0-5.148-2.305-5.148-5.148
	C414.757,230.868,417.062,228.562,419.905,228.562z M419.905,249.336h17.95c2.843,0,5.147,2.305,5.147,5.148
	c0,2.842-2.305,5.147-5.147,5.147h-17.95c-2.843,0-5.148-2.305-5.148-5.147C414.757,251.641,417.062,249.336,419.905,249.336z"/>
<path d="M492.499,155.046H273.501c-4.143,0-7.5,3.357-7.5,7.5c0,4.143,3.357,7.5,7.5,7.5h218.997c2.482,0,4.5,2.019,4.5,4.5v67.063
	c0,4.143,3.358,7.5,7.5,7.5c4.143,0,7.5-3.357,7.5-7.5v-67.063C512,163.795,503.251,155.046,492.499,155.046z"/>
<path d="M504.5,269.112c-4.142,0-7.5,3.357-7.5,7.5v60.84c0,2.481-2.018,4.5-4.5,4.5H19.501c-2.481,0-4.5-2.019-4.5-4.5V174.548
	c0-2.481,2.019-4.5,4.5-4.5h218.997c4.143,0,7.5-3.357,7.5-7.5c0-4.143-3.357-7.5-7.5-7.5H19.501C8.749,155.046,0,163.795,0,174.548
	v162.905c0,10.753,8.749,19.501,19.501,19.501h472.998c10.753,0,19.501-8.749,19.501-19.501v-60.84
	C512,272.469,508.642,269.112,504.5,269.112z"/>
<g>
</g>
<g>
</g>
<g>
</g>
<g>
</g>
<g>
</g>
<g>
</g>
<g>
</g>
<g>
</g>
<g>
</g>
<g>
</g>
<g>
</g>
<g>
</g>
<g>
</g>
<g>
</g>
<g>
</g>
</svg>
