<?xml version="1.0" encoding="iso-8859-1"?>
<!-- Generator: Adobe Illustrator 19.0.0, SVG Export Plug-In . SVG Version: 6.00 Build 0)  -->
<svg version="1.1" id="Capa_1" xmlns="http://www.w3.org/2000/svg" xmlns:xlink="http://www.w3.org/1999/xlink" x="0px" y="0px"
	 viewBox="0 0 512 512" style="enable-background:new 0 0 512 512;" xml:space="preserve">
<path style="fill:#4D5066;" d="M504.5,403.456c0,6.627-5.372,12.001-12.001,12.001H19.501c-6.627,0-12.001-5.373-12.001-12.001
	V108.544c0-6.628,5.373-12.001,12.001-12.001h472.998c6.628,0,12.001,5.372,12.001,12.001V403.456z"/>
<path style="fill:#414356;" d="M28.493,403.456V108.544c0-6.627,5.373-12.001,12.001-12.001H19.501
	c-6.627,0-12.001,5.373-12.001,12.001v294.913c0,6.628,5.373,12.001,12.001,12.001h20.992
	C33.866,415.457,28.493,410.085,28.493,403.456z"/>
<path style="fill:#F2D422;" d="M348.538,338.884c-0.185,1.097-0.406,2.179-0.666,3.247
	C348.132,341.062,348.354,339.98,348.538,338.884z"/>
<polygon style="fill:#F4BD25;" points="282.702,161.8 274.496,150.649 257.617,170.969 259.236,173.434 "/>
<path style="fill:#F4F4F4;" d="M304.016,347.659c7.99,0,14.603-5.814,15.886-13.436h-5.568c-2.764,10.583-17.855,10.615-20.632,0
	h-5.568C289.416,341.846,296.03,347.659,304.016,347.659z"/>
<path style="fill:#414356;" d="M303.86,286.044c-24.806,0-44.947,19.94-45.293,44.667c7.951,0.086,15.903,0.324,23.767,0.707
	c0.06-11.926,9.743-21.573,21.682-21.573c13.362,0,23.604,11.99,21.385,25.279c8.102,1.031,15.865,2.235,23.163,3.604
	C353.111,310.933,331.658,286.044,303.86,286.044z"/>
<path style="fill:#2C2F3F;" d="M316.62,287.878c-4.049-1.187-8.326-1.834-12.76-1.834c-24.806,0-44.947,19.94-45.293,44.667
	c6.694,0.072,13.387,0.259,20.028,0.543C279.242,309.306,295.477,291.277,316.62,287.878z"/>
<path style="fill:#EA473B;" d="M314.333,328.837h5.566c-1.283-7.623-7.895-13.436-15.884-13.436
	c-7.984,0-14.599,5.811-15.882,13.436h5.566c1.199-4.584,5.361-7.98,10.315-7.98C308.972,320.855,313.136,324.253,314.333,328.837z"
	/>
<path style="fill:#414356;" d="M180.998,334.775c-3.199-21.88,24.399-34.056,39.161-18.071l17.297-15.4
	c-8.68-9.578-21.072-15.062-34.069-15.062c-27.742,0-49.365,24.462-45.286,51.926C165.349,336.876,173.019,335.743,180.998,334.775z
	"/>
<path style="fill:#2C2F3F;" d="M208.041,286.481c-29.607-3.006-54.277,22.484-49.94,51.686c6.127-1.092,12.572-2.063,19.234-2.924
	C174.47,313.614,187.637,293.346,208.041,286.481z"/>
<path style="fill:#5B628C;" d="M202.812,340.507h21.309c-4.258,8.843-12.44,13.308-20.733,13.308
	c-10.086,0-18.649-6.513-21.559-15.479c-8.221,0.986-15.922,2.134-23.052,3.417c4.664,20.143,22.887,35.218,44.611,35.218
	c24.279,0,44.195-18.827,45.684-42.519c-16.495,0.063-31.978,0.709-46.259,1.82L202.812,340.507L202.812,340.507z"/>
<path style="fill:#444C72;" d="M177.934,338.829c-6.76,0.871-13.172,1.847-19.157,2.923c4.664,20.143,22.887,35.218,44.611,35.218
	c8.9,0,17.207-2.537,24.242-6.909C205.247,373.018,184.558,359.462,177.934,338.829z"/>
<path style="fill:#5B628C;" d="M282.638,335.149c-7.71-0.36-15.707-0.587-23.968-0.669c1.607,23.564,21.22,42.186,45.191,42.186
	c21.247,0,39.071-14.628,43.971-34.358c-7.184-1.361-14.981-2.584-23.335-3.638C317.145,359.753,286.334,357.149,282.638,335.149z"
	/>
<path style="fill:#444C72;" d="M278.617,334.98c-6.463-0.26-13.109-0.432-19.946-0.5c1.884,27.619,28.178,47.491,55.703,40.949
	C295.082,371.372,280.322,355.041,278.617,334.98z"/>
<path style="fill:#414356;" d="M247.798,320.635l-44.986,0.002v11.96c15.049-1.198,30.725-1.849,46.332-1.916
	C249.05,326.098,248.17,321.635,247.798,320.635z"/>
<path style="fill:#F2D422;" d="M270.555,216.499c-1.526,0.273-2.52-1.571-1.459-2.697l20.173-21.473
	c-11.5-14.118-32.285-11.175-42.809-1.778c-18.313,16.18-5.938,48.847,25.912,41.576c9.395-2.271,16.444-5.868,22.959-12.615
	l-11.921-10.737C279.713,213.106,276.281,215.485,270.555,216.499z M255.377,215.815c-5.325-4.808-5.797-13.096-0.905-18.468
	c7.813-8.653,21.083-1.905,18.394,1.164C257.411,216.2,257.147,217.472,255.377,215.815z"/>
<path style="fill:#F4BD25;" d="M257.851,184.249c-32.973,10.333-22.803,56.397,14.523,47.877c5.845-1.413,10.584-3.309,14.785-5.936
	C248.207,240.105,234.847,199.953,257.851,184.249z"/>
<path style="fill:#F2D422;" d="M351.314,209.186l-5.268-34.223H333.36c-3.601,20.325-3.192,20.586-5,20.591
	c-1.801,0-1.443-0.501-4.416-16.739h-17.737l-5.883,35.013c6.532,5.848,6.402,4.07-0.16,10.826c-0.643,0.662-1.297,1.287-1.961,1.91
	c0,0.002-2.472,14.704-2.473,14.705l17.583,3.06l3.371-21.298c0.251-1.583,2.396-1.856,3.061-0.427l8.405,18.128
	c5.105-13.201,4.88-13.727,6.527-13.548c0.729,0.08,1.313,0.641,1.422,1.364l4.074,26.979l18.71,2.855l-0.672-4.435
	C342.345,247.578,336.822,225.691,351.314,209.186z"/>
<path style="fill:#F4BD25;" d="M305.107,242.901l11.513-64.086h-10.414l-5.883,35.013c6.532,5.848,6.402,4.07-0.16,10.826
	c-0.643,0.662-1.297,1.287-1.961,1.91c0,0.002-2.472,14.704-2.473,14.705L305.107,242.901z"/>
<path style="fill:#F2D422;" d="M422.821,221.71c-0.754-0.012-1.402-0.544-1.557-1.283l-6.74-31.966l-24.436-4.913l-0.359,6.705
	c3.734,0.992,5.397,1.06,5.234,2.789l-1.068,11.193c12.139,11.087,10.392,31.61-4.164,43.904c0,0.002-1.014,10.645-1.014,10.647
	l14.185,2.263l3.713-21.01c0.335-1.894,3.161-1.703,3.207,0.243l0.752,31.724l12.999,3.871l26.18-79.278l-18.585-4.106
	C424.011,222.146,424.594,221.756,422.821,221.71z"/>
<path style="fill:#F4BD25;" d="M390.087,183.548l-0.359,6.705c3.734,0.992,5.397,1.06,5.234,2.789l-1.068,11.193
	c12.139,11.087,10.392,31.61-4.164,43.904c0,0.002-1.014,10.645-1.014,10.647l14.185,2.263l5.135-73.892L390.087,183.548z"/>
<g>
	<path style="fill:#F2D422;" d="M367.377,205.464c-22.892,8.804-24.345,39.726-2.805,43.996c8.684,1.732,19.356-2.127,26.102-11.307
		C404.389,219.402,389.222,197.321,367.377,205.464z M373.386,231.154c-12.69-0.549-16.12-16.835-4.549-21.569
		c1.466-0.605,2.853,1.081,1.947,2.407c-0.648,0.948-1.016,2.045-1.06,3.173c-0.072,1.622,0.527,3.204,1.688,4.46
		c3.092,3.347,8.963,3.21,11.755-0.329c0.971-1.241,2.977-0.477,2.881,1.099C385.651,226.863,379.956,231.446,373.386,231.154z"/>
	<path style="fill:#F2D422;" d="M234.578,223.888c-20.887-8.262-20.119-7.668-20.373-8.824c-0.26-1.173-1.374,0.414,21.767-23.965
		l-16.452-15.666c-15.122,21.247-14.419,20.96-15.934,20.527c-1.466-0.421-1.074,0.103-2.297-20.444l-22.843,6.801l0.282,6.123
		l4.531-1.176c0.96-0.252,1.932,0.426,2.017,1.429l1.879,22.311c9.641,9.495,9.906,24.234,3.036,36.011l0.991,11.878l14.225-1.939
		l-0.089-26.193c-0.004-1.2,1.26-1.989,2.339-1.451l52.645,26.331L260.3,240.14C248.261,238.947,239.105,232.467,234.578,223.888z"
		/>
</g>
<path style="fill:#F4BD25;" d="M196.334,176.99l-17.889,5.326l0.282,6.123l4.531-1.176c0.96-0.252,1.932,0.426,2.017,1.429
	l1.879,22.311c9.641,9.495,9.906,24.234,3.036,36.011l0.991,11.878l8.31-1.133L196.334,176.99z"/>
<path style="fill:#F2D422;" d="M140.636,195.056c-10.576-24.47-50.569-19.456-77.372-2.338l11.261,19.023
	c5.325-2.6,7.45-4.313,8.378-2.237l30.402,67.898l15.155-4.842c-9.71-37.253-9.755-35.662-8.377-36.549
	C137.151,225.036,145.988,207.429,140.636,195.056z M118.026,227.301c-0.418,0.282-0.95,0.357-1.439,0.184
	c-0.481-0.169-0.855-0.557-1.008-1.044c-7.616-24.485-7.919-24.318-6.2-25.112c9.225-4.257,17.987-0.084,19.278,6.841
	C130.408,217.526,124.266,223.092,118.026,227.301z"/>
<path style="fill:#F4BD25;" d="M87.088,195.886c-1.425,0.71-2.335,1.147-7.217,3.53l-7.086-11.973
	c-3.382,1.64-6.58,3.397-9.522,5.275l11.261,19.023c4.16-2.031,4.948-2.409,6.182-3.023c0.813-0.409,1.82-0.055,2.195,0.786
	l30.402,67.898l10.881-3.476C88.146,193.441,89.586,194.632,87.088,195.886z"/>
<path style="fill:#F2D422;" d="M180.294,212.648c-18.088-12.283-45.437,9.162-39.4,30.569c5.299,18.819,30.294,19.311,42.438,2.277
	C191.615,234.082,190.32,219.449,180.294,212.648z M166.856,237.176c-12.669,0-16.819-16.064-5.429-21.347
	c0.649-0.301,1.417-0.14,1.892,0.396c1.293,1.467-0.772,2.124-0.772,5.141c0,6.508,9.567,9.063,13.592,3.581
	c0.925-1.269,2.949-0.585,2.918,0.988C178.927,232.238,173.569,237.176,166.856,237.176z"/>
<g>
	<path style="fill:#F4BD25;" d="M149.639,240.384c-3.223-11.427,3.586-24.899,15.313-30.995
		c-16.194,2.304-28.133,19.377-24.057,33.828c3.675,13.05,18.096,18.631,31.751,11.562
		C161.487,256.361,152.382,250.127,149.639,240.384z"/>
	<path style="fill:#F4BD25;" d="M380.434,246.923c-22.142,2-31.249-25.582-11.888-41.84c-3.782,1.223-7.116,3.228-10.07,5.876
		C337.273,230.249,356.405,259.229,380.434,246.923z"/>
</g>
<path d="M504.5,314.115c-4.141,0-7.5-3.358-7.5-7.5V108.544c0-2.481-2.018-4.5-4.5-4.5H273.501c-4.142,0-7.5-3.358-7.5-7.5
	s3.358-7.5,7.5-7.5h218.997c10.755,0,19.501,8.749,19.501,19.501v198.071C512,310.757,508.642,314.115,504.5,314.115z"/>
<path d="M492.499,422.958H19.501C8.749,422.958,0,414.209,0,403.456V108.544c0-10.753,8.749-19.501,19.501-19.501h218.997
	c4.143,0,7.5,3.358,7.5,7.5s-3.357,7.5-7.5,7.5H19.501c-2.48,0-4.5,2.019-4.5,4.5v294.913c0,2.481,2.02,4.5,4.5,4.5h472.998
	c2.482,0,4.5-2.019,4.5-4.5v-61.839c0-4.142,3.359-7.5,7.5-7.5c4.143,0,7.5,3.358,7.5,7.5v61.839
	C512,414.209,503.253,422.958,492.499,422.958z"/>
<path d="M303.86,280.787c-25.548,0-46.717,19.046-50.088,43.682c-0.192-1.326-0.418-2.652-0.718-3.973l-0.04-0.142
	c-0.427-1.282-1.043-2.463-1.606-3.081l-0.008-0.009c-0.229-0.246-0.688-0.671-2.041-1.511l-0.362-0.226l-19.787-0.016
	l15.487-13.791l-3.14-3.529c-14.396-16.16-36.012-21.375-56.415-13.605c-20.147,7.672-32.663,25.69-32.663,47.022
	c0,27.841,22.838,50.49,50.909,50.49c15.626,0,30.173-6.993,39.909-19.189c5.727-7.172,9.285-15.577,10.514-24.364
	c3.502,24.491,24.606,43.383,50.05,43.383c27.886,0,50.571-22.686,50.571-50.571C354.431,303.471,331.746,280.787,303.86,280.787z
	 M159.105,331.607c0-18.429,10.799-34.042,28.181-40.746c5.511-2.126,11.13-3.162,16.636-3.162c11.681,0,22.853,4.667,31.391,13.508
	l-15.08,13.427c-7.346-7.09-17.967-8.78-27.463-4.246c-9.1,4.344-14.25,13.29-13.43,23.081c-6.945,0.865-13.641,1.855-19.945,2.95
	C159.244,334.953,159.105,333.163,159.105,331.607z M213.331,345.634c-2.907,1.966-6.379,3.051-9.944,3.051
	c-9.647,0-17.495-7.661-17.495-17.078c0-6.565,3.599-12.258,9.626-15.223c2.54-1.25,5.253-1.865,7.942-1.865
	c1.976,0,3.939,0.332,5.812,0.989h-11.589v30.126H213.331z M203.387,375.47c-20.153,0-37.642-13.493-42.772-32.521
	c6.388-1.118,13.17-2.119,20.199-2.98c3.534,9.229,12.452,15.345,22.571,15.345c9.561,0,17.816-5.292,22.085-14.156l1.036-2.15
	h-22.195v-1.344c13.781-1.038,28.273-1.61,43.132-1.702C245.218,358.243,226.173,375.47,203.387,375.47z M204.312,330.974v-8.838
	l42.338-0.001c0.316,1.422,0.767,4.086,0.935,7.053C232.99,329.289,218.449,329.888,204.312,330.974z M303.86,375.166
	c-22.396,0-41.22-17.075-43.553-39.166c7.123,0.088,14.203,0.288,21.081,0.595c2.191,10.076,10.182,17.074,20.664,17.962
	c10.488,0.891,19.567-4.671,23.428-14.249c7.18,0.927,14.057,1.993,20.481,3.178C340.593,362.218,323.503,375.166,303.86,375.166z
	 M304.016,319.356c-5.132,0-9.672,3.228-11.415,7.979h-2.584c1.818-6.141,7.447-10.435,13.999-10.435
	c6.552,0,12.183,4.293,14,10.435h-2.582C313.692,322.584,309.152,319.356,304.016,319.356z M307.804,331.53
	c0,2.088-1.699,3.787-3.787,3.787c-2.087,0-3.785-1.699-3.785-3.787c0-2.088,1.698-3.787,3.785-3.787
	C306.105,327.743,307.804,329.442,307.804,331.53z M292.596,335.723c1.743,4.867,6.11,7.951,11.42,7.951c0.001,0,0.002,0,0.004,0
	c5.311-0.001,9.68-3.084,11.42-7.951h2.579c-1.817,6.141-7.448,10.436-14.002,10.436c-6.552,0-12.183-4.294-14-10.436H292.596z
	 M327.086,333.829c0.621-6.243-1.299-12.467-5.377-17.282c-4.414-5.213-10.863-8.202-17.692-8.202
	c-12.193,0-22.255,9.511-23.121,21.503c-6.923-0.319-13.899-0.526-20.78-0.618c1.117-23.12,20.434-41.686,43.746-41.686
	c12.876,0,25.048,5.633,33.393,15.454c8.003,9.418,11.625,21.721,10.054,33.971C340.937,335.804,334.149,334.749,327.086,333.829z"
	/>
<path d="M109.378,201.329c-1.637,0.756-0.89,1.873,1.213,9.078c5.354,17.212,4.941,16.708,5.995,17.078
	c0.489,0.172,1.022,0.097,1.439-0.184c6.239-4.209,12.383-9.774,10.631-19.13C127.366,201.245,118.602,197.072,109.378,201.329z
	 M119.181,219.48L119.181,219.48c-3.223-10.516-1.322-4.098-4.322-14.146C124.336,203.637,126.39,213.056,119.181,219.48z"/>
<path d="M254.472,197.347c-8.053,8.845,0.553,21.584,3.31,18.428l15.084-17.264C275.592,195.401,262.254,188.73,254.472,197.347z
	 M256.779,210.227c-3.81-6.929,3.082-14.758,10.397-11.981L256.779,210.227z"/>
<path d="M383.165,219.296c-1.357,1.721-3.574,2.748-5.933,2.748c-2.44,0-4.47-0.957-5.82-2.419c-1.16-1.256-1.76-2.838-1.688-4.46
	c0.12-3.003,2.205-3.588,0.982-5.101c-0.449-0.556-1.211-0.751-1.869-0.48c-11.835,4.842-7.903,21.581,5.092,21.581
	c6.531,0,11.743-4.631,12.118-10.772C386.143,218.815,384.135,218.057,383.165,219.296z"/>
<path d="M176.138,224.948c-1.379,1.878-3.695,2.999-6.198,2.999c-5.627,0-9.203-5.41-6.462-9.796
	c0.849-1.359-0.596-2.995-2.05-2.322c-11.393,5.285-7.238,21.347,5.429,21.347c6.712,0,12.071-4.938,12.2-11.24
	C179.087,224.359,177.061,223.682,176.138,224.948z"/>
<path d="M456.899,191.791c-29.113-7.076-30.011-7.99-30.553-5.763l-2.648,10.913c-2.763-13.668-2.452-13.748-3.824-14.048
	c-36.626-8.062-34.869-8.025-35.811-7.256c-0.381,0.311-0.602,0.779-0.596,1.274c0.238,18.699-0.177,18.7,1.486,19.071l4.398,0.984
	l-0.408,3.747c-0.14-0.059-0.129-0.078-0.287-0.161c-9.683-5.039-22.04-3.545-31.295,3.179l-0.002,0.001
	c-5.811-36.678-5.13-35.672-7.031-35.672c-23.366,0-23.455-0.45-23.757,1.35l-0.459,2.751h-24.848c-1.87,0-1.457,0.518-4.367,18.337
	l-2.178-2.691c-6.289-7.724-15.439-12.097-25.764-12.312c22.232-11.951,21.248-11.156,21.495-12.156
	c0.109-0.442,0.027-0.911-0.227-1.289c-14.454-21.572-13.486-20.575-14.596-20.644c-0.482-0.03-0.99,0.173-1.32,0.554
	c-27.683,31.897-26.989,30.322-25.798,31.774l3.976,4.848c-4.319,1.765-8.151,4.203-11.392,7.247
	c-24.333-21.592-22.762-20.548-23.863-20.344c-1.069,0.196-0.593-0.208-8.592,15.123c0.286-13.693,0.628-13.807-0.372-14.555
	c-1-0.744,0.826-0.974-35.719,10.702c-0.697,0.223-1.157,0.885-1.123,1.616c1.008,21.088-0.892,19.427,7.301,17.302l0.945,10.237
	c-9.991-4.489-21.955-2.463-30.981,4.092c1.443-6.395,0.994-12.575-1.301-17.868c-12.551-28.977-56.617-25.67-88.082-5.615
	l-4.69,2.973c-0.737,0.468-0.971,1.436-0.525,2.189c16.686,28.197,15.68,26.5,16.794,28.373c0.428,0.72,1.334,0.991,2.089,0.631
	l5.637-2.709l30.085,67.129c0.267,0.595,0.853,0.956,1.475,0.956c0.163,0,0.329-0.025,0.492-0.077l25.205-8.068
	c0.817-0.262,1.287-1.116,1.07-1.946l-9.41-36.151c2.301-1.703,4.476-3.53,6.466-5.431c-3.285,27.025,28.754,41.249,50.205,20.295
	c0.922,9.932,0.508,12.399,2.829,12.05l23.452-3.454c0.795-0.116,1.382-0.799,1.381-1.601l-0.04-22.386
	c57.274,28.306,53.568,26.84,54.659,26.162c0.475-0.295,0.763-0.814,0.763-1.373V240.16c11.689-0.982,20.518-6.264,22.741-7.376
	c-1.956,11.987-2.977,14.14-0.719,14.497c28.299,4.455,27.031,4.524,27.877,3.906c0.844-0.62,0.627-0.961,2.035-10.208
	c8.633,15.945,7.031,15.907,12.577,5.224l1.605,13.897c0.082,0.711,0.621,1.282,1.324,1.406c0.219,0.039,30.522,5.397,30.744,5.397
	c1.149,0,1.896-1.095,1.555-2.124l-1.402-8.908c1.011,0,8.44,1.302,17.526-3.334l-1.176,10.568
	c-0.096,0.868,0.516,1.656,1.381,1.778l20.993,2.962c0.153,8.352-0.16,9.142,1.281,9.596l20.884,6.555
	c2.168,0.678-0.042,5.175,31.576-90.125C458.347,192.984,457.822,192.014,456.899,191.791z M295.905,196.523l-1.877,11.626
	l-4.897-4.41L295.905,196.523z M274.496,150.649l8.206,11.15l-23.467,11.635l-1.619-2.464L274.496,150.649z M120.082,236.011
	c-0.587,0.378-0.866,1.091-0.69,1.767l9.066,34.782l-15.155,4.842c-31.65-70.684-30.427-69.774-32.598-68.684
	c-1.23,0.613-1.987,0.976-6.182,3.023l-11.261-19.023c26.779-17.103,66.793-22.141,77.372,2.338
	C145.988,207.429,137.151,225.036,120.082,236.011z M183.331,245.495c-12.226,17.148-37.154,16.482-42.438-2.277
	c-6.037-21.409,21.314-42.852,39.4-30.569C190.363,219.479,191.595,234.109,183.331,245.495z M206.081,229.382
	c-1.071,0.665-0.771-0.745-0.675,27.572l-14.225,1.939l-0.991-11.878c6.95-11.917,6.505-26.614-3.036-36.011
	c-1.953-23.192-1.556-22.786-2.556-23.493c-0.937-0.664-1.745-0.141-5.871,0.93l-0.282-6.123l22.843-6.801
	c1.223,20.554,0.831,20.023,2.297,20.444c1.515,0.433,0.81,0.721,15.934-20.527l16.452,15.666
	c-23.025,24.257-22.031,22.77-21.767,23.965c0.115,0.523,0.484,0.956,0.983,1.154l19.39,7.669
	c4.513,8.552,13.648,15.057,25.722,16.251l0.003,15.502C203.645,227.303,207.18,228.702,206.081,229.382z M231.748,215.793
	l-7.649-2.951l7.13-6.93C230.918,209.157,231.092,212.481,231.748,215.793z M263.891,233.13c-26.339,0-33.324-28.537-17.43-42.58
	c10.536-9.408,31.313-12.334,42.809,1.778l-20.173,21.473c-1.064,1.129-0.064,2.97,1.459,2.697
	c5.997-1.062,9.309-3.569,12.856-7.725l11.921,10.737C286.584,228.569,273.972,233.13,263.891,233.13z M340.173,255.526
	c-4.341-28.748-3.793-28.156-5.496-28.343c-1.644-0.178-1.419,0.339-6.527,13.548c-9.073-19.568-8.501-19.265-10.095-19.049
	c-1.621,0.225-1.169,0.068-4.742,22.646l-17.583-3.06c0-0.001,2.473-14.704,2.473-14.705c0.664-0.623,1.318-1.248,1.961-1.91
	c6.636-6.831,6.619-5.042,0.16-10.826l5.883-35.013h17.737c2.973,16.238,2.616,16.739,4.412,16.739c1.808,0,1.36-0.026,5.004-20.591
	h12.687l5.268,34.223c-14.448,16.454-9.019,38.372,6.896,44.761l0.672,4.435L340.173,255.526z M364.573,249.46
	c-21.549-4.271-20.083-35.194,2.805-43.996c13.499-5.032,25.37,1.718,27.92,12.669c1.584,6.543-0.104,13.842-4.623,20.021
	C383.864,247.422,373.145,251.169,364.573,249.46z M423.571,275.877l-12.999-3.871l-0.752-31.724
	c-0.046-1.946-2.872-2.137-3.207-0.243l-3.713,21.01l-14.185-2.263c0-0.002,1.014-10.645,1.014-10.647
	c14.639-12.364,16.225-32.888,4.164-43.904c1.094-11.465,1.635-12.44-0.127-12.909l-4.039-1.073l0.359-6.705l24.436,4.913
	l6.74,31.966c0.154,0.739,0.803,1.271,1.557,1.283c1.773,0.047,1.191,0.433,8.345-29.218l18.585,4.106L423.571,275.877z"/>
<g>
</g>
<g>
</g>
<g>
</g>
<g>
</g>
<g>
</g>
<g>
</g>
<g>
</g>
<g>
</g>
<g>
</g>
<g>
</g>
<g>
</g>
<g>
</g>
<g>
</g>
<g>
</g>
<g>
</g>
</svg>
