<?xml version="1.0" encoding="iso-8859-1"?>
<!-- Generator: Adobe Illustrator 19.0.0, SVG Export Plug-In . SVG Version: 6.00 Build 0)  -->
<svg version="1.1" id="Capa_1" xmlns="http://www.w3.org/2000/svg" xmlns:xlink="http://www.w3.org/1999/xlink" x="0px" y="0px"
	 viewBox="0 0 511.999 511.999" style="enable-background:new 0 0 511.999 511.999;" xml:space="preserve">
<g>
	<path style="fill:#F2D422;" d="M158.018,142.964c-0.278-1.705-1.751-2.959-3.479-2.959H11.026c-1.177,0-2.275,0.588-2.929,1.564
		c-0.654,0.979-0.777,2.217-0.328,3.307l52.459,127.03c0.442,1.07,1.385,1.857,2.519,2.1c1.134,0.244,2.315-0.086,3.158-0.883
		l26.521-25.045c1.064-1.006,1.397-2.563,0.836-3.914l-24.512-59.051h54.421l13.855,78.842L80.07,313.673
		c-1.139,0.994-1.517,2.604-0.939,4l32.764,79.352c0.545,1.318,1.831,2.18,3.258,2.18c50.914,0,48.169,0.465,49.629-1.193
		c0.669-0.758,0.98-1.764,0.855-2.768l-4.385-35.194c-0.22-1.764-1.719-3.088-3.497-3.088h-17.684l-9.996-24.084l49.678-46.888
		c0.851-0.803,1.247-1.975,1.06-3.131L158.018,142.964z"/>
	<path style="fill:#F2D422;" d="M503.904,141.569c-0.654-0.977-1.754-1.564-2.931-1.564H357.461c-1.728,0-3.2,1.254-3.478,2.959
		c-24.434,149.951-23.706,141.168-21.736,143.027l49.678,46.888l-9.995,24.084h-17.689c-1.777,0-3.277,1.324-3.498,3.088
		c-4.724,37.96-4.974,36.321-3.523,37.962c0.668,0.76,1.63,1.193,2.641,1.193h46.987c1.427,0,2.713-0.861,3.257-2.18l32.765-79.352
		c0.577-1.396,0.199-3.006-0.939-4l-56.96-49.719l13.858-78.842h54.421l-24.511,59.051c-0.562,1.352-0.23,2.908,0.835,3.914
		l26.519,25.045c0.844,0.797,2.028,1.131,3.158,0.883c1.136-0.242,2.076-1.029,2.52-2.1l52.46-127.03
		C504.68,143.786,504.557,142.548,503.904,141.569z"/>
	<path style="fill:#F2D422;" d="M173.127,162.814c0.275,1.711,1.749,2.967,3.48,2.967h159.161c1.736,0,3.213-1.262,3.482-2.979
		c19.352-123.136,18.613-115.032,17.106-116.796c-0.67-0.783-1.648-1.232-2.679-1.232h-35.217c-1.74,0-3.22,1.268-3.483,2.986
		l-11.792,76.494h-26.694V48.298c0-1.947-1.579-3.523-3.525-3.523h-34.479c-1.946,0-3.524,1.576-3.524,3.523v75.957h-26.525
		l-11.661-76.488c-0.263-1.723-1.742-2.992-3.483-2.992h-34.964c-1.032,0-2.013,0.451-2.683,1.236
		c-0.67,0.787-0.961,1.826-0.798,2.846L173.127,162.814z"/>
	<path style="fill:#F2D422;" d="M331.629,185.113H180.841c-2.166,0-3.823,1.942-3.48,4.082l35.959,224.224
		c0.274,1.711,1.749,2.967,3.48,2.967h79.591c1.736,0,3.214-1.262,3.483-2.977l14.423-91.763c0.159-1.02-0.134-2.057-0.803-2.838
		c-0.671-0.785-1.648-1.234-2.68-1.234h-34.415c-1.738,0-3.219,1.268-3.483,2.986l-8.373,54.299h-17.887l-11.245-73.751h28.981
		c1.73,0,3.205-1.256,3.48-2.967l5.767-35.909c0.342-2.136-1.308-4.084-3.481-4.084h-41.297l-5.348-35.089h64.44
		c-5.14,33.329-5.425,32.172-3.978,33.858c0.669,0.781,1.647,1.23,2.675,1.23h34.608c1.736,0,3.213-1.262,3.482-2.977l10.372-65.985
		C335.446,187.05,333.793,185.113,331.629,185.113z"/>
	<path style="fill:#F2D422;" d="M298.46,430.133c-0.514-1.379-1.831-2.293-3.302-2.293h-77.075c-1.472,0-2.788,0.916-3.303,2.293
		c-12.951,34.75-13.068,33.528-11.643,35.577c0.657,0.949,1.739,1.514,2.893,1.514c108.9,0,102.587,0.649,104.086-1.514
		c0.658-0.949,0.81-2.16,0.407-3.242L298.46,430.133z"/>
</g>
<g>
	<path style="fill:#F4BD25;" d="M27.771,144.876c-0.449-1.09-0.326-2.328,0.328-3.307c0.653-0.977,1.752-1.564,2.929-1.564H11.026
		c-1.177,0-2.275,0.588-2.929,1.564c-0.654,0.979-0.777,2.217-0.328,3.307l52.459,127.03c0.442,1.07,1.385,1.857,2.519,2.1
		c1.134,0.244,2.315-0.086,3.158-0.883l10.667-10.073L27.771,144.876z"/>
	<path style="fill:#F4BD25;" d="M193.129,162.814C173.382,39.695,174.142,47.783,175.651,46.011c0.67-0.785,1.65-1.236,2.683-1.236
		h-20.001c-1.032,0-2.013,0.451-2.683,1.236c-0.67,0.787-0.961,1.826-0.798,2.846l18.276,113.957
		c0.275,1.711,1.749,2.967,3.48,2.967h20.001C194.878,165.781,193.404,164.525,193.129,162.814z"/>
	<path style="fill:#F4BD25;" d="M233.321,413.419c-38.455-239.789-36.73-225.225-35.161-227.068c0.67-0.785,1.65-1.238,2.683-1.238
		h-20.001c-2.166,0-3.823,1.942-3.48,4.082l35.959,224.224c0.274,1.711,1.749,2.967,3.48,2.967h20.001
		C235.07,416.386,233.595,415.13,233.321,413.419z"/>
	<path style="fill:#F4BD25;" d="M222.731,462.467l12.051-32.334c0.515-1.377,1.831-2.293,3.303-2.293h-20.001
		c-1.472,0-2.788,0.916-3.303,2.293l-12.051,32.334c-0.857,2.303,0.847,4.756,3.302,4.756h20.001
		C223.575,467.224,221.874,464.769,222.731,462.467z"/>
	<path style="fill:#F4BD25;" d="M238.49,44.775c-1.946,0-3.524,1.576-3.524,3.523v75.957h8.001c6.627,0,12.001-5.373,12.001-12.001
		V48.298v-3.523H238.49z"/>
	<path style="fill:#F4BD25;" d="M326.354,103.725l8.627-55.964c0.264-1.719,1.743-2.986,3.483-2.986h-20.001
		c-1.74,0-3.22,1.268-3.483,2.986l-11.792,76.494C316.805,124.255,324.146,116.757,326.354,103.725z"/>
	<path style="fill:#F4BD25;" d="M438.741,244.164l18.945-45.644c0.001-0.002,0.002-0.004,0.003-0.007
		c5.421-13.062-14.439-13.4-14.439-13.4l-24.511,59.051c-0.562,1.352-0.23,2.908,0.835,3.914l26.519,25.045
		c0.844,0.797,2.028,1.131,3.158,0.883c1.136-0.242,2.076-1.029,2.52-2.1l3.657-8.856l-15.853-14.972
		C438.511,247.073,438.179,245.516,438.741,244.164z"/>
	<path style="fill:#F4BD25;" d="M393.849,352.344l1.741-4.195c0.815-1.964,1.947-4.691,3.366-8.111
		c2.117-5.1-0.445-10.165-4.357-14.077l0,0l-42.348-39.971c-0.852-0.803-1.249-1.975-1.06-3.131l22.796-139.895
		c0.277-1.705,1.75-2.959,3.478-2.959h-20.001c-1.728,0-3.2,1.254-3.478,2.959c-24.434,149.951-23.706,141.168-21.736,143.027
		l49.678,46.888l-9.995,24.084h-17.689c-1.777,0-3.277,1.324-3.498,3.088c-4.724,37.96-4.974,36.321-3.523,37.962
		c0.668,0.76,1.63,1.193,2.641,1.193h20.001c-1.011,0-1.973-0.434-2.641-1.193c-0.67-0.758-0.982-1.764-0.856-2.768l4.38-35.194
		c0.221-1.764,1.721-3.088,3.498-3.088h8.136C390.625,356.962,393.148,353.715,393.849,352.344z"/>
	<path style="fill:#F4BD25;" d="M305.683,237.783c0.001-0.003,0.001-0.006,0.001-0.009c2.16-14.007-10.687-14.691-12.641-14.715
		h-5.091c-5.14,33.329-5.425,32.172-3.978,33.858c1.407,1.643,1.007,1.23,22.677,1.23c-1.027,0-2.006-0.449-2.675-1.23
		C302.597,255.31,302.979,255.315,305.683,237.783z"/>
	<path style="fill:#F4BD25;" d="M286.948,359.274l5.969-38.713c0.265-1.719,1.745-2.986,3.483-2.986h-20.001
		c-1.738,0-3.219,1.268-3.483,2.986c-1.575,10.218-6.538,42.4-8.373,54.299C273.526,374.86,284.913,370.385,286.948,359.274z"/>
	<path style="fill:#F4BD25;" d="M131.896,397.026l-32.764-79.352c-0.577-1.396-0.199-3.006,0.939-4l50.829-44.369
		c2.374-2.455,5.77-7.375,4.499-14.614c-0.001-0.005-0.001-0.009-0.002-0.013l-9.901-56.344c-1.244-7.071-6.84-13.22-22.325-13.22
		l13.855,78.842L80.07,313.673c-1.139,0.994-1.517,2.604-0.939,4l32.764,79.352c0.545,1.318,1.831,2.18,3.258,2.18h20.001
		C133.727,399.205,132.441,398.344,131.896,397.026z"/>
</g>
<path d="M362.058,41.131c-2.097-2.451-5.15-3.857-8.379-3.857h-35.216c-5.482,0-10.066,3.932-10.897,9.345l-10.813,70.136h-12.761
	V48.298c0-6.078-4.946-11.024-11.026-11.024h-34.479c-6.079,0-11.025,4.945-11.025,11.024v68.456h-12.581l-10.69-70.118
	c-0.827-5.424-5.41-9.362-10.898-9.362h-34.964c-3.233,0-6.291,1.41-8.395,3.875c-2.094,2.461-3.002,5.701-2.492,8.896
	l13.559,84.542c-1.823-1.316-4.059-2.083-6.465-2.083H11.026c-3.687,0-7.113,1.83-9.164,4.895
	c-2.048,3.063-2.433,6.926-1.026,10.339l52.46,127.033c1.387,3.355,4.334,5.811,7.872,6.566c3.455,0.745,7.172-0.196,9.887-2.762
	l26.523-25.047c3.306-3.124,4.355-8.045,2.611-12.241l-20.203-48.675h36.889l12.032,68.473l-53.77,46.938
	c-3.564,3.111-4.746,8.142-2.939,12.513l32.765,79.355c1.711,4.14,5.71,6.815,10.19,6.815h46.985c6.645,0,11.758-5.831,10.941-12.39
	l-4.385-35.194c-0.686-5.507-5.389-9.661-10.94-9.661h-12.675l-6.092-14.68l45.915-43.337c0.391-0.369,0.742-0.77,1.07-1.185
	l19.941,124.347c0.559,3.487,2.687,6.346,5.595,7.932c-1.669,1.242-2.999,2.948-3.756,4.976L195.7,459.853
	c-1.26,3.387-0.781,7.179,1.271,10.128c2.057,2.971,5.443,4.744,9.061,4.744h101.192c7.693,0,13.005-7.686,10.329-14.879
	c-13.025-34.91-12.31-34.71-15.837-37.322c2.903-1.593,5.021-4.457,5.569-7.95l4.578-29.131c0.643-4.092-2.152-7.931-6.245-8.574
	c-4.098-0.64-7.931,2.154-8.574,6.245l-4.05,25.772h-72.804l-34.684-216.274h141.475l-9.122,58.033h-26.572l4.078-26.444
	c0.334-2.163-0.294-4.364-1.719-6.026c-1.425-1.661-3.505-2.617-5.693-2.617h-64.44c-2.186,0-4.264,0.954-5.689,2.612
	c-1.425,1.658-2.055,3.857-1.726,6.018l5.348,35.089c0.559,3.664,3.709,6.37,7.416,6.37h36.634l-4.49,27.959h-25.593
	c-2.187,0-4.264,0.954-5.689,2.612c-1.425,1.659-2.055,3.856-1.726,6.019l11.246,73.751c0.558,3.663,3.709,6.369,7.415,6.369h17.887
	c3.701,0,6.849-2.699,7.413-6.357l7.854-50.928h26.356l-3.62,23.037c-0.643,4.092,2.153,7.931,6.245,8.574
	c4.097,0.641,7.932-2.153,8.574-6.245l4.343-27.636c1.046-6.703-4.138-12.731-10.894-12.731H276.4
	c-5.479,0-10.064,3.93-10.896,9.345l-7.394,47.942h-5.01l-8.958-58.75h20.251c5.444,0,10.023-3.902,10.886-9.278l5.664-35.273
	c1.702,1.029,3.669,1.59,5.706,1.59h34.608c1.942,0,3.769-0.503,5.36-1.384l-2.832,17.381c-0.593,3.62,0.646,7.285,3.313,9.799
	l45.915,43.337l-6.092,14.68h-12.681c-5.548,0-10.252,4.151-10.941,9.662l-4.379,35.188c-0.827,6.593,4.328,12.396,10.94,12.396
	h46.987c4.481,0,8.481-2.677,10.19-6.818l32.764-79.35c1.807-4.373,0.626-9.402-2.94-12.516l-53.773-46.937l12.036-68.473h36.89
	l-20.202,48.673c-1.745,4.199-0.696,9.12,2.611,12.246l26.52,25.044c2.653,2.506,6.36,3.537,9.873,2.766
	c3.547-0.757,6.495-3.21,7.889-6.572l52.464-127.04c1.399-3.404,1.016-7.265-1.034-10.335c-2.051-3.062-5.476-4.89-9.162-4.89
	H442.66c-4.143,0-7.501,3.357-7.501,7.501c0,4.143,3.357,7.501,7.501,7.501h52.37l-47.987,116.2l-20.327-19.196l23.46-56.52
	c0.961-2.315,0.702-4.955-0.69-7.04c-1.392-2.085-3.731-3.336-6.237-3.336h-54.42c-3.642,0-6.757,2.615-7.388,6.201l-13.858,78.842
	c-0.455,2.587,0.477,5.223,2.455,6.95l54.811,47.843l-30.661,74.257h-39.826l3.391-27.242h14.178c3.031,0,5.765-1.825,6.928-4.625
	l9.995-24.084c1.194-2.877,0.486-6.191-1.778-8.33l-48.145-45.44l21.914-134.479h46.815c4.142,0,7.501-3.357,7.501-7.501
	c0-4.143-3.358-7.501-7.501-7.501h-50.197c-2.27,0-4.385,0.686-6.148,1.869l13.26-84.368
	C365.071,46.819,364.156,43.586,362.058,41.131z M211.757,459.723l9.088-24.383h71.553l9.098,24.383H211.757z M275.863,252.236
	c-1.7-1.029-3.667-1.589-5.704-1.589h-34.854l-3.061-20.087h46.963L275.863,252.236z M189.879,52.275l11.146,73.109
	c0.559,3.664,3.709,6.37,7.416,6.37h26.525c4.142,0,7.501-3.358,7.501-7.501V52.275h26.527v71.98c0,4.142,3.357,7.501,7.501,7.501
	h26.694c3.701,0,6.849-2.699,7.413-6.358l11.273-73.122h27.157L332.37,158.281H179.997L162.996,52.275
	C162.996,52.275,189.879,52.275,189.879,52.275z M124.928,327.423c-2.265,2.138-2.973,5.453-1.779,8.33l9.996,24.084
	c1.162,2.8,3.895,4.625,6.928,4.625h14.171l3.394,27.242h-39.825l-30.66-74.257l54.807-47.843c1.978-1.727,2.909-4.362,2.455-6.949
	l-13.855-78.842c-0.63-3.587-3.745-6.202-7.388-6.202H68.751c-2.506,0-4.846,1.252-6.238,3.336c-1.391,2.084-1.65,4.725-0.689,7.04
	l23.46,56.519l-20.328,19.196L16.97,147.505h134.188l21.912,134.479L124.928,327.423z M340.011,181.476
	c-2.098-2.455-5.152-3.863-8.382-3.863H180.841c-3.232,0-6.29,1.41-8.395,3.877c-0.163,0.191-0.306,0.396-0.454,0.597l-1.763-10.822
	c1.806,1.277,4.01,2.018,6.379,2.018c171.556,0,161.23,0.746,165.119-1.741l-1.636,10.041
	C340.063,181.548,340.041,181.511,340.011,181.476z"/>
<g>
</g>
<g>
</g>
<g>
</g>
<g>
</g>
<g>
</g>
<g>
</g>
<g>
</g>
<g>
</g>
<g>
</g>
<g>
</g>
<g>
</g>
<g>
</g>
<g>
</g>
<g>
</g>
<g>
</g>
</svg>
