<?xml version="1.0" encoding="iso-8859-1"?>
<!-- Generator: Adobe Illustrator 19.0.0, SVG Export Plug-In . SVG Version: 6.00 Build 0)  -->
<svg version="1.1" id="Capa_1" xmlns="http://www.w3.org/2000/svg" xmlns:xlink="http://www.w3.org/1999/xlink" x="0px" y="0px"
	 viewBox="0 0 511.999 511.999" style="enable-background:new 0 0 511.999 511.999;" xml:space="preserve">
<path id="SVGCleanerId_0" style="fill:#818689;" d="M27.033,477.472V34.527C27.033,19.601,39.133,7.5,54.06,7.5H34.528
	C19.601,7.5,7.5,19.601,7.5,34.527v442.945c0,14.927,12.101,27.027,27.027,27.027h19.532
	C39.133,504.5,27.033,492.399,27.033,477.472z"/>
<path style="fill:#989DA0;" d="M504.498,477.472c0,14.927-12.101,27.027-27.027,27.027H34.528
	c-14.927,0-27.027-12.101-27.027-27.027V34.527C7.5,19.601,19.601,7.5,34.528,7.5h442.943c14.927,0,27.027,12.101,27.027,27.027
	L504.498,477.472L504.498,477.472z"/>
<g>
	<path style="fill:#F4F4F4;" d="M135.532,215.894v-90.648H92.525c-10.723,0-11.962,5.311-11.962,9.306v57.42
		c0,11.029,11.608,8.827,28.522,8.827c3.946,0,4.027,6.27,0,6.27H80.563v17.656h43.01
		C134.173,224.725,135.532,220.005,135.532,215.894z M111.585,180.641c0,1.104-0.896,2-2,2h-2.599c-1.104,0-2-0.896-2-2v-34.763
		c0-1.104,0.896-2,2-2h2.599c1.104,0,2,0.896,2,2V180.641z"/>
	<path style="fill:#F4F4F4;" d="M154.622,328.602h-31.05c-10.721,0-11.961,5.313-11.961,9.31v13.613h23.92v-1.786
		c0-1.657,1.344-3,3-3h1.599c1.657,0,3,1.343,3,3v5.533c0,1.657-1.343,3-3,3h-16.559c-7.936,0-11.961,2.97-11.961,8.827v29.666
		c0,3.996,1.24,9.311,11.961,9.311h43.01V337.91C166.582,333.915,165.342,328.602,154.622,328.602z M142.632,385.437
		c0,1.104-0.895,2-2,2h-2.599c-1.105,0-2-0.896-2-2v-6.533c0-1.104,0.895-2,2-2h2.599c1.105,0,2,0.896,2,2V385.437z"/>
	<path style="fill:#F4F4F4;" d="M264.903,330.388v-1.786h-23.45v1.786c0,1.657-1.343,3-3,3h-6.303c-1.657,0-3-1.343-3-3v-1.786
		h-23.449v56.335c0,1.657-1.343,3-3,3h-1.598c-1.656,0-3-1.343-3-3v-56.335h-23.45v68.162c0,4.334,1.306,9.311,11.49,9.311h31.52
		c7.73,0,11.489-3.045,11.489-9.311v-42.24c0-1.657,1.343-3,3-3h6.303c1.657,0,3,1.343,3,3v42.24c0,4.334,1.306,9.311,11.49,9.311
		h31.517c7.731,0,11.49-3.045,11.49-9.311v-38.492H272.5v26.666c0,1.657-1.343,3-3,3h-1.596c-1.657,0-3-1.343-3-3v-30.413
		c0-1.657,1.343-3,3-3h28.046v-18.136h-28.046C266.246,333.388,264.903,332.045,264.903,330.388z"/>
	<path style="fill:#F4F4F4;" d="M184.927,301.067v-38.492h-23.45v26.666c0,1.657-1.344,3-3,3h-1.597c-1.656,0-3-1.343-3-3v-29.936
		c0-1.657,1.344-3,3-3h28.048v-18.135h-28.048c-1.656,0-3-1.343-3-3v-2.265H129.96v2.265c0,1.657-1.344,3-3,3h-3.116v18.135h3.116
		c1.656,0,3,1.343,3,3v41.763c0,3.994,1.239,9.305,11.96,9.305h31.52C181.17,310.372,184.927,307.329,184.927,301.067z"/>
</g>
<path style="fill:#EAE8E8;" d="M141.649,301.067v-41.763c0-1.657-1.344-3-3-3h-3.116v-18.135h3.116c1.656,0,3-1.343,3-3v-2.265
	H129.96v2.265c0,1.657-1.344,3-3,3h-3.116v18.135h3.116c1.656,0,3,1.343,3,3v41.763c0,3.994,1.239,9.305,11.96,9.305h11.689
	C142.888,310.372,141.649,305.061,141.649,301.067z"/>
<g>
	<path style="fill:#F4F4F4;" d="M148.809,214.076c0,2.04,0.044,3.411-0.28,5.556h12.754c-0.435-2.143-0.379-3.499-0.379-5.556
		H148.809z"/>
	<path style="fill:#F4F4F4;" d="M291.717,146.378c0-1.657,1.343-3,3-3h1.599c1.657,0,3,1.343,3,3v54.42h23.921v-66.247
		c0-5.917-7.478-9.306-11.961-9.306c-6.105,0-11.217,1.035-15.189,3.075c-1.988,1.023-4.371-0.42-4.371-2.668v-0.407h-23.45v75.553
		h23.449v-54.42H291.717z"/>
</g>
<rect x="268.266" y="125.248" style="fill:#EAE8E8;" width="11.718" height="75.555"/>
<path style="fill:#F4F4F4;" d="M217.66,200.798h43.007v-66.247c0-3.994-1.239-9.306-11.96-9.306
	c-47.184,0-43.008-3.293-43.008,22.918h23.919v-1.786c0-1.657,1.343-3,3-3c5.011,0,4.127,2.703,4.127,8.054c0,1.657-1.343,3-3,3
	H217.66c-7.936,0-11.961,2.97-11.961,8.827v28.713C205.699,196.081,207.059,200.798,217.66,200.798z M234.246,172.59
	c1.105,0,2,0.895,2,2v6.05c0,1.104-0.895,2-2,2h-2.127c-1.105,0-2-0.896-2-2C230.119,172.253,229.658,172.59,234.246,172.59z"/>
<g>
	<path style="fill:#EAE8E8;" d="M217.95,134.551c0-3.994,1.24-9.306,11.961-9.306H217.66c-10.721,0-11.961,5.311-11.961,9.306
		v13.613h12.251V134.551z"/>
	<path style="fill:#EAE8E8;" d="M217.95,191.972v-28.713c0-5.856,4.024-8.827,11.961-8.827c-11.846,0-24.211-1.859-24.211,8.827
		v28.713c0,4.109,1.359,8.827,11.961,8.827h12.251C219.309,200.798,217.95,196.081,217.95,191.972z"/>
</g>
<path style="fill:#F4F4F4;" d="M167.051,175.091c0-1.657,1.343-3,3-3h1.129c1.656,0,3,1.343,3,3v40.803
	c0,2.337,1.484,4.587,4.293,6.507c3.701,2.5,4.801,2.323,11.524,2.323c1.656,0,3,1.343,3,3v82.647h23.448v-55.852
	c0-1.657,1.343-3,3-3h1.598c1.657,0,3,1.343,3,3v55.852h23.92v-68.157c0-3.996-1.24-9.31-11.961-9.31h-16.558c-1.657,0-3-1.343-3-3
	v-22.836H201.1c-1.656,0-3-1.343-3-3v-32.672c0-5.706-3.912-5.068-3.957-8.144c-0.048-3.05,3.957-2.795,3.957-8.125v-20.575
	c0-3.994-1.239-9.306-11.961-9.306h-43.01v75.553h23.92L167.051,175.091L167.051,175.091z M167.551,145.878c0-1.104,0.896-2,2-2
	h2.129c1.104,0,2,0.896,2,2v6.054c0,1.104-0.896,2-2,2h-2.129c-1.104,0-2-0.896-2-2V145.878z"/>
<rect x="143.129" y="125.248" style="fill:#EAE8E8;" width="11.775" height="75.555"/>
<path style="fill:#F4F4F4;" d="M342.793,200.798h43.01v-94.694h-23.92v16.141c0,1.657-1.343,3-3,3
	c-16.637,0-28.046-2.093-28.046,9.306v57.42C330.836,196.081,332.195,200.798,342.793,200.798z M354.782,145.878
	c0-1.104,0.895-2,2-2h2.599c1.104,0,2,0.896,2,2v34.763c0,1.104-0.896,2-2,2h-2.599c-1.105,0-2-0.896-2-2V145.878z"/>
<g>
	<path style="fill:#EAE8E8;" d="M373.883,122.245v-16.141h-12.001v16.141c0,1.657-1.343,3-3,3h12.001
		C372.54,125.246,373.883,123.904,373.883,122.245z"/>
	<path style="fill:#EAE8E8;" d="M342.837,191.972v-57.42c0-3.994,1.239-9.306,11.957-9.306c-11.794,0-23.957-2.127-23.957,9.306
		v57.42c0,10.668,11.128,8.827,23.957,8.827C344.196,200.798,342.837,196.081,342.837,191.972z"/>
</g>
<path style="fill:#F4F4F4;" d="M318.602,242.214v68.157h23.447v-31.446c0-1.657,1.343-3,3-3h19.113v-18.138h-19.112
	c-1.657,0-3-1.343-3-3c0-2.156,1.489-3.267,3-3.267h19.113v-18.614l-33.721,0.005C322.616,233.354,318.602,236.486,318.602,242.214z
	"/>
<path style="fill:#EAE8E8;" d="M342.677,232.909l21.487-0.003v-0.002l-33.721,0.005c-7.827,0.444-11.841,3.576-11.841,9.305v68.157
	h12.234v-68.157C330.836,236.486,334.849,233.354,342.677,232.909z"/>
<path style="fill:#F4F4F4;" d="M315.509,328.602c-7.732,0-11.49,3.045-11.49,9.31v58.854c0,6.266,3.758,9.311,11.49,9.311h31.52
	c10.721,0,11.961-5.314,11.961-9.311v-58.854c0-3.996-1.24-9.31-11.961-9.31H315.509z M334.567,385.437c0,1.104-0.896,2-2,2h-2.598
	c-1.104,0-2-0.896-2-2v-36.199c0-1.104,0.896-2,2-2h2.598c1.104,0,2,0.896,2,2V385.437z"/>
<path style="fill:#EAE8E8;" d="M316.519,396.764V337.91c0-6.264,3.758-9.31,11.49-9.31c-12.699,0-23.99-1.948-23.99,9.31v58.854
	c0,11.266,11.312,9.311,23.99,9.311C320.277,406.076,316.519,403.03,316.519,396.764z"/>
<g>
	<path style="fill:#F4F4F4;" d="M400.387,235.169v-2.265h-23.92v2.265c0,1.657-1.343,3-3,3h-3.116v18.135h3.116c1.657,0,3,1.343,3,3
		v41.763c0,3.994,1.24,9.305,11.961,9.305h31.519c10.183,0,11.488-4.972,11.488-9.305v-38.492h-23.45v26.666c0,1.657-1.343,3-3,3
		h-1.596c-1.657,0-3-1.343-3-3v-29.936c0-1.657,1.343-3,3-3h28.047v-18.135h-28.047C401.73,238.169,400.387,236.827,400.387,235.169
		z"/>
	<path style="fill:#F4F4F4;" d="M310.535,287.453h-23.45v1.786c0,1.657-1.343,3-3,3h-1.6c-1.657,0-3-1.343-3-3v-5.533
		c0-1.657,1.343-3,3-3h28.051v-38.492c0-6.264-3.759-9.31-11.491-9.31h-31.519c-10.721,0-11.961,5.313-11.961,9.31v58.854
		c0,3.994,1.24,9.305,11.961,9.305C314.559,310.372,310.535,313.77,310.535,287.453z M279.984,254.019c0-1.105,0.896-2,2-2h2.6
		c1.104,0,2,0.895,2,2v6.055c0,1.104-0.896,2-2,2h-2.6c-1.104,0-2-0.896-2-2V254.019z"/>
</g>
<g>
	<path style="fill:#EAE8E8;" d="M268.266,301.067v-58.854c0-3.996,1.24-9.31,11.961-9.31c-12.816,0-24.663-2.066-24.663,9.31v58.854
		c0,3.994,1.24,9.305,11.961,9.305h12.702C269.507,310.372,268.266,305.061,268.266,301.067z"/>
	<path style="fill:#EAE8E8;" d="M109.085,207.069h12.269c1.656,0,3-1.343,3-3c0-2.157-1.488-3.27-3-3.27h-12.269
		C113.08,200.798,113.096,207.069,109.085,207.069z"/>
	<rect x="80.565" y="207.073" style="fill:#EAE8E8;" width="12.268" height="17.656"/>
	<path style="fill:#EAE8E8;" d="M104.793,200.798c-10.603,0-11.962-4.717-11.962-8.827v-57.42c0-3.994,1.239-9.306,11.962-9.306
		H92.525c-10.723,0-11.962,5.311-11.962,9.306v57.42C80.563,202.726,91.986,200.798,104.793,200.798z"/>
</g>
<g>
	<path id="SVGCleanerId_0_1_" style="fill:#818689;" d="M27.033,477.472V34.527C27.033,19.601,39.133,7.5,54.06,7.5H34.528
		C19.601,7.5,7.5,19.601,7.5,34.527v442.945c0,14.927,12.101,27.027,27.027,27.027h19.532
		C39.133,504.5,27.033,492.399,27.033,477.472z"/>
</g>
<g>
	<path style="fill:#EAE8E8;" d="M201.773,224.725h-3.857c-4.618,0-6.123-1.281-7.666-2.323c-2.808-1.92-4.293-4.17-4.293-6.507
		v-30.397c0-7.066-4.796-10.407-11.775-10.407c0,14.41,0,25.978,0,40.803c0,3.366,2.767,5.269,4.477,6.644
		c5.859,4.703,14.34-0.565,14.34,5.187v82.647h11.775v-82.647C204.773,226.068,203.429,224.725,201.773,224.725z"/>
	<path style="fill:#EAE8E8;" d="M388.155,301.067v-41.763c0-1.657-1.344-3-3-3h-3.116v-18.135h3.116c1.656,0,3-1.343,3-3v-2.265
		h-11.689v2.265c0,1.657-1.344,3-3,3h-3.116v18.135h3.116c1.656,0,3,1.343,3,3v41.763c0,3.994,1.239,9.305,11.96,9.305h11.689
		C389.395,310.372,388.155,305.061,388.155,301.067z"/>
	<path style="fill:#EAE8E8;" d="M243.815,333.388h6.303c1.657,0,3-1.343,3-3v-1.786h-11.666c0,1.581,0.121,2.218-0.319,3.107
		C241.624,332.701,242.635,333.388,243.815,333.388z"/>
	<path style="fill:#EAE8E8;" d="M186.316,396.764v-68.162h-11.666v68.162c0,11.372,11.079,9.311,23.155,9.311
		C187.622,406.076,186.316,401.098,186.316,396.764z"/>
	<path style="fill:#EAE8E8;" d="M253.118,396.764v-42.24c0-1.657-1.343-3-3-3h-6.303c-1.181,0-2.191,0.688-2.681,1.679
		c0.198,0.4,0.319,0.845,0.319,1.321v42.24c0,4.334,1.306,9.311,11.49,9.311h11.666
		C254.424,406.076,253.118,401.098,253.118,396.764z"/>
</g>
<path d="M281.985,262.075h2.6c1.104,0,2-0.896,2-2v-6.055c0-1.105-0.896-2-2-2h-2.6c-1.104,0-2,0.895-2,2v6.055
	C279.985,261.179,280.88,262.075,281.985,262.075z"/>
<path d="M234.246,172.59h-2.127c-1.105,0-2,0.895-2,2v6.05c0,1.104,0.895,2,2,2h2.127c1.105,0,2-0.896,2-2v-6.05
	C236.246,173.486,235.351,172.59,234.246,172.59z"/>
<path d="M109.585,143.878h-2.599c-1.104,0-2,0.896-2,2v34.763c0,1.104,0.896,2,2,2h2.599c1.104,0,2-0.896,2-2v-34.763
	C111.585,144.774,110.69,143.878,109.585,143.878z"/>
<path d="M171.681,143.878h-2.129c-1.104,0-2,0.896-2,2v6.054c0,1.104,0.896,2,2,2c4.996,0,4.129-0.322,4.129-8.054
	C173.682,144.774,172.785,143.878,171.681,143.878z"/>
<path d="M356.784,182.641h2.599c1.104,0,2-0.896,2-2v-34.763c0-1.104-0.896-2-2-2h-2.599c-1.105,0-2,0.896-2,2v34.763
	C354.783,181.745,355.679,182.641,356.784,182.641z"/>
<path d="M333.784,214.076c0.681,0,1.335-0.23,1.86-0.646c4.457,0.862,2.092,0.646,60.436,0.646c1.657,0,3-1.343,3-3V95.829
	c0-1.657-1.343-3-3-3h-44.472c-1.657,0-3,1.343-3,3v16.14h-5.814c-6.693,0-12.256,1.576-16.537,4.686
	c-7.348-4.788-13.753-5.283-22.372-4.24c-0.471-0.29-1.015-0.445-1.573-0.445c-47.875,0-45.303-0.291-46.486,0.68
	c-4.381-0.895-4.777-0.68-38.163-0.68c-6.287,0-11.588,1.395-15.76,4.146c-8.387-5.527-8.252-4.146-109.376-4.146
	c-18.627,0-25.237,12.165-25.237,22.582v57.416c0,0.877,0.048,1.766,0.141,2.643l0.073,0.69c-0.141,0.353-0.214,0.729-0.214,1.111
	v38.585c0,1.657,1.344,3,3,3h40.279v28.585c0,1.657,1.343,3,3,3h3.115v31.484c0,3.237,0.676,9.285,5.042,14.484
	c-17.105,0.782-23.209,12.443-23.209,22.359c0,25.405-0.182,24.387,0.307,25.384c-0.426,2.952-0.307,0.456-0.307,33.47
	c0,10.337,6.562,22.405,25.057,22.405c57.434,0,54.112,0.309,55.314-0.721c2.219,0.479,4.659,0.721,7.254,0.721
	c32.822,0,40.885,1.503,49.077-5.818c4.296,3.861,10.257,5.818,17.725,5.818c33.598,0,39.285,1.088,47.043-4.227
	c7.768,5.322,13.5,4.227,47.043,4.227c18.495,0,25.058-12.069,25.058-22.405V337.91c0-8.373-4.412-18.354-16.758-21.452V289.2h7.861
	v11.866c0,10.418,6.609,22.582,25.238,22.582h31.517c18.261,0,24.767-11.666,24.767-22.582v-73.174c0-1.657-1.343-3-3-3h-28.05
	v-2.261c0-0.796-0.316-1.559-0.879-2.121s-1.325-0.879-2.121-0.879l-80.248,0.002l-0.68,0.022
	c-5.881,0.337-10.87,1.813-14.834,4.389c-4.153-2.929-9.486-4.413-15.856-4.413c-33.515,0-39.371-1.072-47.278,4.145
	c-4.168-2.75-9.469-4.145-15.761-4.145h-6.281v-5.556h104.058V214.076z M330.836,134.551c0-3.994,1.239-9.306,11.957-9.306h16.089
	c1.657,0,3-1.343,3-3v-16.141h23.92v94.694h-43.01c-10.598,0-11.957-4.717-11.957-8.827L330.836,134.551L330.836,134.551z
	 M370.35,238.169h3.116c1.657,0,3-1.343,3-3v-2.265h23.92v2.265c0,1.657,1.343,3,3,3h28.047v18.135h-28.047c-1.657,0-3,1.343-3,3
	v29.936c0,1.657,1.343,3,3,3h1.596c1.657,0,3-1.343,3-3v-26.666h23.45v38.492c0,4.332-1.306,9.305-11.488,9.305h-31.519
	c-10.721,0-11.961-5.31-11.961-9.305v-41.763c0-1.657-1.343-3-3-3h-3.116L370.35,238.169L370.35,238.169z M268.267,125.246h23.449
	c0,3.089,2.635,3.968,4.371,3.075c3.972-2.04,9.083-3.075,15.189-3.075c2.657,0,5.365,0.923,8.05,2.742
	c2.631,1.785,3.91,3.932,3.91,6.562v66.247h-23.921v-54.42c0-1.657-1.343-3-3-3h-1.599c-1.657,0-3,1.343-3,3v54.42h-23.449
	L268.267,125.246L268.267,125.246z M80.564,224.725v-17.656h28.522c4.042,0,3.934-6.27,0-6.27H92.525
	c-10.602,0-11.962-4.717-11.962-8.827v-57.42c0-3.994,1.239-9.306,11.962-9.306h43.008v90.648c0,4.111-1.359,8.831-11.96,8.831
	H80.564z M166.582,406.076h-43.01c-10.721,0-11.961-5.314-11.961-9.311v-29.666c0-5.856,4.024-8.827,11.961-8.827h16.559
	c1.657,0,3-1.343,3-3v-5.533c0-1.657-1.343-3-3-3h-1.599c-1.656,0-3,1.343-3,3v1.786h-23.92c0-26.401-3.871-22.922,43.011-22.922
	c10.72,0,11.96,5.313,11.96,9.31V406.076z M141.921,310.372c-10.721,0-11.96-5.31-11.96-9.305v-41.763c0-1.657-1.344-3-3-3h-3.116
	v-18.135h3.116c1.656,0,3-1.343,3-3v-2.265h23.919v2.265c0,1.657,1.344,3,3,3h28.048v18.135H156.88c-1.656,0-3,1.343-3,3v29.936
	c0,1.657,1.344,3,3,3h1.597c1.656,0,3-1.343,3-3v-26.666h23.45v38.492c0,6.261-3.758,9.305-11.488,9.305L141.921,310.372
	L141.921,310.372z M161.283,219.631h-12.754c0.323-2.138,0.28-3.52,0.28-5.556h12.095v1.818
	C160.904,217.134,161.031,218.389,161.283,219.631z M318.603,242.214c0-5.728,4.013-8.86,11.841-9.305l33.721-0.005v18.614h-19.114
	c-1.657,0-3,1.343-3,3v0.267c0,1.657,1.343,3,3,3h19.113v18.138h-19.113c-1.657,0-3,1.343-3,3v31.446h-23.447L318.603,242.214
	L318.603,242.214z M315.509,328.602h31.52c10.721,0,11.961,5.313,11.961,9.31v58.854c0,3.996-1.24,9.311-11.961,9.311h-31.52
	c-7.731,0-11.49-3.045-11.49-9.311v-58.854C304.019,331.647,307.778,328.602,315.509,328.602z M255.565,242.214
	c0-3.996,1.24-9.31,11.961-9.31h31.519c7.731,0,11.491,3.045,11.491,9.31v38.492h-28.051c-1.657,0-3,1.343-3,3v5.533
	c0,1.657,1.343,3,3,3h1.6c1.657,0,3-1.343,3-3v-1.786h23.45c0,26.628,3.654,22.917-43.01,22.917c-10.721,0-11.961-5.31-11.961-9.305
	V242.214z M264.904,328.602v1.786c0,1.657,1.343,3,3,3h28.046v18.136h-28.046c-1.657,0-3,1.343-3,3v30.413c0,1.657,1.343,3,3,3
	h1.596c1.657,0,3-1.343,3-3v-26.666h23.449v38.492c0,6.266-3.758,9.311-11.49,9.311h-31.517c-10.185,0-11.49-4.977-11.49-9.311
	v-42.24c0-1.657-1.343-3-3-3h-6.303c-1.657,0-3,1.343-3,3v42.24c0,6.266-3.758,9.311-11.489,9.311h-31.52
	c-10.185,0-11.49-4.977-11.49-9.311v-68.162h23.45v56.335c0,1.657,1.344,3,3,3h1.598c1.657,0,3-1.343,3-3v-56.335h23.449v1.786
	c0,1.657,1.343,3,3,3h6.303c1.657,0,3-1.343,3-3v-1.786H264.904z M236.005,232.905c10.721,0,11.961,5.313,11.961,9.31v68.157h-23.92
	v-55.852c0-1.657-1.343-3-3-3h-1.598c-1.657,0-3,1.343-3,3v55.852h-23.448v-82.647c0-1.657-1.344-3-3-3h-3.857
	c-2.214,0-5.066-0.248-7.482-2.187c-0.059-0.048-0.121-0.094-0.184-0.137c-2.809-1.92-4.293-4.17-4.293-6.507v-40.803
	c0-1.657-1.344-3-3-3h-1.129c-1.657,0-3,1.343-3,3v25.708h-23.92v-75.553h43.01c10.722,0,11.961,5.311,11.961,9.306v20.575
	c0,5.27-4.004,5.109-3.957,8.125c0.014,0.937,0.464,1.814,1.218,2.37c1.869,1.379,2.739,3.214,2.739,5.773v32.672
	c0,1.657,1.344,3,3,3h15.346v22.836c0,1.657,1.343,3,3,3h16.557V232.905z M217.66,200.798c-10.602,0-11.961-4.717-11.961-8.827
	v-28.713c0-5.856,4.024-8.827,11.961-8.827h16.086c1.657,0,3-1.343,3-3v-5.054c0-1.657-1.343-3-3-3h-1.127c-1.657,0-3,1.343-3,3
	v1.786h-23.919c0-26.407-3.858-22.918,43.008-22.918c10.721,0,11.96,5.311,11.96,9.306v66.247L217.66,200.798L217.66,200.798z"/>
<path d="M329.97,387.437h2.598c1.104,0,2-0.896,2-2v-36.199c0-1.104-0.896-2-2-2h-2.598c-1.105,0-2,0.896-2,2v36.199
	C327.97,386.541,328.866,387.437,329.97,387.437z"/>
<path d="M140.632,376.904h-2.599c-1.105,0-2,0.896-2,2v6.533c0,1.104,0.895,2,2,2h2.599c1.104,0,2-0.896,2-2v-6.533
	C142.632,377.799,141.736,376.904,140.632,376.904z"/>
<path d="M504.499,256.538c-4.142,0-7.5,3.357-7.5,7.5v213.434c0,10.768-8.76,19.526-19.526,19.526H34.528
	c-10.767,0-19.526-8.76-19.526-19.526V34.527c0-10.767,8.76-19.526,19.526-19.526h203.97c4.142,0,7.5-3.358,7.5-7.5
	c0-4.143-3.358-7.5-7.5-7.5H34.528C15.49,0,0.001,15.489,0.001,34.527v442.945c0,19.038,15.489,34.527,34.527,34.527h442.943
	c19.038,0,34.527-15.489,34.527-34.527V264.038C511.999,259.896,508.641,256.538,504.499,256.538z"/>
<path d="M477.471,0h-203.97c-4.142,0-7.5,3.357-7.5,7.5c0,4.142,3.358,7.5,7.5,7.5h203.97c10.767,0,19.526,8.76,19.526,19.526
	v194.509c0,4.143,3.358,7.5,7.5,7.5c4.142,0,7.5-3.357,7.5-7.5V34.527C511.999,15.489,496.509,0,477.471,0z"/>
<g>
</g>
<g>
</g>
<g>
</g>
<g>
</g>
<g>
</g>
<g>
</g>
<g>
</g>
<g>
</g>
<g>
</g>
<g>
</g>
<g>
</g>
<g>
</g>
<g>
</g>
<g>
</g>
<g>
</g>
</svg>
