<?xml version="1.0" encoding="iso-8859-1"?>
<!-- Generator: Adobe Illustrator 19.0.0, SVG Export Plug-In . SVG Version: 6.00 Build 0)  -->
<svg version="1.1" id="Capa_1" xmlns="http://www.w3.org/2000/svg" xmlns:xlink="http://www.w3.org/1999/xlink" x="0px" y="0px"
	 viewBox="0 0 512 512" style="enable-background:new 0 0 512 512;" xml:space="preserve">
<path style="fill:#989DA0;" d="M131.845,188.608h-27.547c-1.412,0-2.558,1.145-2.558,2.559v129.671c0,1.413,1.146,2.558,2.558,2.558
	h27.547c1.413,0,2.559-1.145,2.559-2.558V191.167C134.404,189.754,133.258,188.608,131.845,188.608z"/>
<path style="fill:#F2D422;" d="M490.527,253.998c13.413-10.939,11.984-24.073,11.984-32.681c0-18.036-15.91-32.709-35.468-32.709
	h-14.285c-19.559,0-35.47,14.674-35.47,32.709c0,8.465-1.498,21.682,11.986,32.681c-15.46,11.43-13.902,26.071-13.902,35.218
	c0,18.848,16.628,34.179,37.063,34.179h14.93c20.436,0,37.062-15.332,37.062-34.179C504.427,280.485,506.163,265.56,490.527,253.998
	z M473.235,230.883c0,7.354-5.983,13.335-13.334,13.335c-7.353,0-13.334-5.981-13.334-13.335v-4.548
	c0-7.353,5.98-13.335,13.334-13.335c7.352,0,13.334,5.982,13.334,13.335L473.235,230.883L473.235,230.883z M445.507,282.798
	c0-7.935,6.457-14.393,14.395-14.393c7.936,0,14.393,6.457,14.393,14.393v4.911c0,7.937-6.457,14.394-14.393,14.394
	c-7.938,0-14.395-6.457-14.395-14.394V282.798z"/>
<g>
	<path style="fill:#989DA0;" d="M88.638,188.608H39.205c-17.499,0-31.733,13.54-31.733,30.184v102.046
		c0,1.413,1.145,2.558,2.558,2.558h27.547c1.413,0,2.559-1.145,2.559-2.558v-51.4h33.516c1.413,0,2.559-1.145,2.559-2.559v-21.242
		c0-1.412-1.146-2.558-2.559-2.558H40.134v-20.259c0-6.051,3.344-7.39,5.387-7.643l43.117-0.008c1.413,0,2.558-1.145,2.558-2.559
		v-21.444C91.196,189.754,90.051,188.608,88.638,188.608z"/>
	<path style="fill:#989DA0;" d="M227.491,188.608h-49.434c-17.498,0-31.733,13.54-31.733,30.184v102.046
		c0,1.413,1.145,2.558,2.559,2.558h27.547c1.413,0,2.558-1.145,2.558-2.558v-51.4h33.517c1.413,0,2.558-1.145,2.558-2.559v-21.242
		c0-1.412-1.145-2.558-2.558-2.558h-33.517v-20.259c0-6.051,3.344-7.39,5.388-7.643l43.116-0.008c1.413,0,2.559-1.145,2.559-2.559
		v-21.444C230.049,189.754,228.904,188.608,227.491,188.608z"/>
	<path style="fill:#989DA0;" d="M297.43,188.608h-25.86c-17.498,0-31.732,13.54-31.732,30.184
		c-0.001,109.081-0.358,102.75,0.749,103.854c1.042,1.044-0.438,0.749,29.354,0.749c1.412,0,2.559-1.145,2.559-2.558v-97.291
		c0-7.662,5.594-8.424,7.233-8.475l9.408-0.002c1.619,0.049,6.938,0.744,7.336,7.581l0.004,28.803h-15.634
		c-1.413,0-2.558,1.145-2.558,2.559v21.346c0,1.414,1.145,2.559,2.558,2.559h15.634v42.922c0,1.413,1.146,2.558,2.559,2.558h27.546
		c1.414,0,2.559-1.145,2.559-2.558l-0.001-102.915C328.691,201.485,314.762,188.608,297.43,188.608z"/>
</g>
<path style="fill:#F2D422;" d="M373.074,188.608h-19.977c-1.413,0-2.558,1.145-2.558,2.559v21.346c0,1.412,1.145,2.558,2.558,2.558
	l11.669-0.001c0.068,0.002,6.758,0.193,6.758,8.269v97.5c0,1.413,1.145,2.558,2.558,2.558h27.546c1.413,0,2.558-1.145,2.558-2.558
	V219.72C404.186,202.565,390.229,188.608,373.074,188.608z"/>
<path style="fill:#818689;" d="M117.74,320.838V191.167c0-1.413,1.146-2.559,2.558-2.559h-16c-1.412,0-2.558,1.145-2.558,2.559
	v129.671c0,1.413,1.146,2.558,2.558,2.558h16C118.885,323.395,117.74,322.251,117.74,320.838z"/>
<path style="fill:#F4BD25;" d="M431.373,289.215c0-9.185-1.339-20.966,10.279-32.144l-0.014-0.003
	c1.497-1.387,1.993-3.915-0.04-6.563c-9.406-10.342-8.309-20.295-8.309-29.188c0-17.771,15.451-32.266,34.612-32.689
	c-1.222-0.027,1.852-0.02-15.143-0.02c-19.559,0-35.47,14.674-35.47,32.709c0,8.465-1.498,21.682,11.986,32.681
	c-15.46,11.43-13.902,26.071-13.902,35.218c0,18.848,16.628,34.179,37.063,34.179h14.93c0.179,0,0.356-0.01,0.535-0.013
	C447.711,323.117,431.373,307.897,431.373,289.215z"/>
<g>
	<path style="fill:#818689;" d="M23.47,320.838V218.792c0-16.644,14.235-30.184,31.733-30.184h-16
		c-17.499,0-31.733,13.54-31.733,30.184v102.046c0,1.413,1.145,2.558,2.558,2.558h16C24.616,323.395,23.47,322.251,23.47,320.838z"
		/>
	<path style="fill:#818689;" d="M162.323,320.838V218.792c0-16.644,14.236-30.184,31.733-30.184h-16
		c-17.498,0-31.733,13.54-31.733,30.184v102.046c0,1.413,1.145,2.558,2.559,2.558h16
		C163.468,323.395,162.323,322.251,162.323,320.838z"/>
	<path style="fill:#818689;" d="M255.836,218.792c0-16.644,14.235-30.184,31.732-30.184h-16c-17.498,0-31.732,13.54-31.732,30.184
		c-0.001,109.081-0.358,102.75,0.749,103.854c0.999,1.001,0.366,0.749,17.809,0.749c-0.679,0-1.329-0.269-1.809-0.749
		C255.51,321.573,255.835,328.017,255.836,218.792z"/>
</g>
<path style="fill:#F4BD25;" d="M387.524,320.838v-97.5c0-8.075-6.689-8.267-6.758-8.269l-11.669,0.001
	c-1.413,0-2.558-1.145-2.558-2.558v-21.346c0-1.413,1.145-2.559,2.558-2.559h-16c-1.413,0-2.558,1.145-2.558,2.559v21.346
	c0,1.412,1.145,2.558,2.558,2.558l11.669-0.001c0.068,0.002,6.758,0.193,6.758,8.269v97.5c0,1.413,1.145,2.558,2.558,2.558h16
	C388.668,323.395,387.524,322.251,387.524,320.838z"/>
<path d="M510.04,221.317c0-22.171-19.275-40.209-42.968-40.209h-14.285c-20.317,0-37.373,13.268-41.826,31.026
	c-3.534-17.671-19.165-31.026-37.858-31.026h-19.977c-5.546,0-10.058,4.512-10.058,10.059v21.346
	c0,5.546,4.512,10.058,10.059,10.058l10.874-0.001c0.081,0.507,0.052,19.4,0.052,19.915c0,4.143,3.357,7.5,7.5,7.5
	s7.5-3.357,7.5-7.5v-19.146c0-11.071-8.286-15.769-14.259-15.769l-6.726,0.001v-11.463h15.034c13.02,0,23.611,10.593,23.611,23.612
	v96.175h-17.662v-38.412c0-4.143-3.357-7.5-7.5-7.5s-7.5,3.357-7.5,7.5v43.354c0,5.546,4.512,10.058,10.058,10.058h27.546
	c5.546,0,10.058-4.512,10.058-10.058v-14.784c6.932,14.616,22.583,24.841,40.751,24.841h14.93c24.571,0,44.561-18.697,44.561-41.679
	c0-9.371,1.33-22.444-10.577-35.515C511.157,241.568,510.04,230.283,510.04,221.317z M411.714,263.772v-22.489
	c1.465,4.467,3.747,8.673,6.766,12.418C415.698,256.753,413.432,260.146,411.714,263.772z M496.956,289.215
	c0,14.711-13.262,26.679-29.561,26.679h-14.93c-16.302,0-29.563-11.969-29.563-26.679c0-8.947-1.426-20.104,10.861-29.187
	c1.862-1.377,2.983-3.537,3.039-5.853c0.055-2.315-0.963-4.526-2.758-5.99c-5.863-4.783-9.227-11.596-9.227-18.692v-8.178
	c0-13.9,12.548-25.209,27.97-25.209h14.285c15.422,0,27.968,11.31,27.968,25.209c0,8.635,1.222,18.351-9.225,26.868
	c-3.788,3.089-3.654,8.933,0.281,11.843C498.409,269.133,496.956,280.377,496.956,289.215z"/>
<path d="M459.929,260.906c-12.072,0-21.894,9.821-21.894,21.892v4.911c0,12.072,9.822,21.893,21.894,21.893
	c12.072,0,21.893-9.821,21.893-21.893v-4.911C481.823,270.727,472.002,260.906,459.929,260.906z M466.823,287.709
	c0,3.801-3.093,6.894-6.894,6.894c-3.802,0-6.895-3.093-6.895-6.894v-4.911c0-3.801,3.093-6.893,6.895-6.893
	c3.801,0,6.894,3.092,6.894,6.893V287.709z"/>
<path d="M459.929,251.717c11.488,0,20.833-9.347,20.833-20.835v-4.548c0-11.488-9.346-20.835-20.833-20.835
	c-11.488,0-20.833,9.347-20.833,20.835v4.548C439.096,242.371,448.441,251.717,459.929,251.717z M454.095,226.336
	c0-3.218,2.617-5.835,5.834-5.835c3.217,0,5.834,2.617,5.834,5.835v4.548c0,3.218-2.617,5.835-5.834,5.835
	c-3.217,0-5.834-2.617-5.834-5.835V226.336z"/>
<path d="M10.058,330.894h27.547c5.546,0,10.059-4.512,10.059-10.058v-43.9H73.68c5.546,0,10.059-4.513,10.059-10.059v-21.242
	c0-5.546-4.512-10.058-10.059-10.058H47.663c0-0.13-0.001-12.772,0.001-12.901c44.719-0.008,43.223,0.561,46.605-1.718v17.541
	c0,4.143,3.358,7.5,7.5,7.5c4.142,0,7.5-3.357,7.5-7.5v-42.394h17.664v119.787h-17.664v-42.395c0-4.143-3.358-7.5-7.5-7.5
	c-4.142,0-7.5,3.357-7.5,7.5v47.337c0,5.546,4.512,10.058,10.058,10.058h27.547c3.59,0,6.738-1.897,8.519-4.734
	c1.78,2.838,4.928,4.734,8.519,4.734h27.547c5.546,0,10.058-4.512,10.058-10.058v-43.9h26.017c5.546,0,10.058-4.513,10.058-10.059
	v-21.242c0-5.546-4.512-10.058-10.058-10.058h-26.018c0-0.143-0.001-12.758,0.001-12.901c44.831-0.009,42.829,0.412,45.85-1.258
	l-0.001,99.417c0,2.689,1.048,5.218,2.941,7.106c1.899,1.903,4.427,2.951,7.117,2.951h27.546c5.546,0,10.059-4.512,10.059-10.058
	v-35.457c0.279,0.023,0.562,0.035,0.847,0.035h8.134v35.422c0,5.546,4.513,10.058,10.059,10.058h27.546
	c5.546,0,10.059-4.512,10.059-10.058l-0.001-102.915c0-0.068-0.001-0.137-0.003-0.205c-0.563-20.529-17.785-36.609-39.208-36.609
	h-25.86c-14.537,0-27.242,7.64-34.02,18.953v-8.895c0-5.546-4.512-10.059-10.059-10.059h-49.436
	c-16.233,0-30.194,9.519-36.153,23.049v-12.988c0-5.546-4.512-10.059-10.059-10.059h-27.547c-3.163,0-5.985,1.471-7.83,3.76
	c-1.845-2.29-4.668-3.76-7.83-3.76H39.233C17.601,181.108,0,198.013,0,218.792v102.046C0,326.383,4.512,330.894,10.058,330.894z
	 M280.027,243.988v-20.443c0-0.449,0.036-0.766,0.074-0.975l8.856-0.002c0.018,0.092,0.033,0.206,0.046,0.346l0.003,21.039h-8.133
	C280.589,243.953,280.307,243.964,280.027,243.988z M247.365,218.792c0-12.509,10.871-22.684,24.232-22.684h25.86
	c13.206,0,23.821,9.623,24.211,21.925l0.001,97.862h-17.664v-37.979c0-4.143-3.357-7.5-7.5-7.5h-10.691v-11.463h10.691
	c1.989,0,3.897-0.79,5.304-2.197c2.929-2.929,2.196-3.43,2.192-34.106c0-0.145-0.004-0.29-0.013-0.436
	c-0.572-9.827-7.744-14.435-14.597-14.642c-0.076-0.002-0.152-0.003-0.229-0.003c-0.161,0-9.477,0-9.639,0.006
	c-6.983,0.216-14.5,5.307-14.5,15.971v92.35h-17.662L247.365,218.792z M153.851,218.792c0-12.509,10.871-22.684,24.233-22.684
	h44.492v11.564l-38.176,0.007c-0.307,0-0.614,0.019-0.919,0.057c-5.521,0.684-11.967,5.044-11.967,15.086v20.259
	c0,4.143,3.358,7.5,7.5,7.5h28.574v11.358h-28.573c-4.142,0-7.5,3.357-7.5,7.5v46.458h-17.664v-97.103H153.851z M15,218.792
	c0-12.509,10.872-22.684,24.233-22.684h44.491v11.564c-40.749,0.007-38.39-0.025-39.096,0.063
	c-5.519,0.684-11.965,5.045-11.965,15.086v20.259c0,4.143,3.358,7.5,7.5,7.5h28.574v11.358H40.163c-4.142,0-7.5,3.357-7.5,7.5
	v46.458H15V218.792z"/>
<g>
</g>
<g>
</g>
<g>
</g>
<g>
</g>
<g>
</g>
<g>
</g>
<g>
</g>
<g>
</g>
<g>
</g>
<g>
</g>
<g>
</g>
<g>
</g>
<g>
</g>
<g>
</g>
<g>
</g>
</svg>
