<?xml version="1.0" encoding="iso-8859-1"?>
<!-- Generator: Adobe Illustrator 19.0.0, SVG Export Plug-In . SVG Version: 6.00 Build 0)  -->
<svg version="1.1" id="Capa_1" xmlns="http://www.w3.org/2000/svg" xmlns:xlink="http://www.w3.org/1999/xlink" x="0px" y="0px"
	 viewBox="0 0 512 512" style="enable-background:new 0 0 512 512;" xml:space="preserve">
<path style="fill:#EA473B;" d="M504.5,337.452c0,6.627-5.372,12.001-12.001,12.001H19.501c-6.627,0-12.001-5.373-12.001-12.001
	V174.548c0-6.627,5.373-12.001,12.001-12.001h472.998c6.628,0,12.001,5.373,12.001,12.001V337.452z"/>
<path style="fill:#D82B27;" d="M27.502,337.452V174.548c0-6.628,5.373-12.001,12.001-12.001H19.501
	c-6.627,0-12.001,5.372-12.001,12.001v162.905c0,6.627,5.373,12.001,12.001,12.001h20.001
	C32.875,349.453,27.502,344.08,27.502,337.452z"/>
<path d="M333.07,212.157c0.246-0.059,0.408-0.295,0.378-0.546s-0.244-0.439-0.496-0.439h-14.635c-0.253,0-0.466,0.188-0.497,0.439
	c-0.03,0.251,0.132,0.486,0.378,0.546c3.003,0.735,3.679,2.175,3.772,4.11c0.095,1.861,0.095,34.473-0.001,36.344
	c-0.092,1.924-0.77,3.357-3.772,4.102c-0.246,0.061-0.407,0.295-0.376,0.545c0.03,0.25,0.244,0.439,0.496,0.439
	c15.076,0,15.043,0.279,15.131-0.439c0.03-0.25-0.131-0.484-0.376-0.545c-3.004-0.742-3.682-2.18-3.774-4.109
	c-0.095-1.863-0.095-34.475,0.001-36.344C329.39,214.329,330.067,212.891,333.07,212.157z"/>
<path d="M347.64,210.582c-0.177-0.169-0.383-0.197-0.566-0.121c-0.183,0.079-0.302,0.26-0.302,0.46v39.063
	c-0.476,5.535-3.647,6.527-4.989,6.701c-0.766,0.095-0.642,1.012-0.03,1.012h16.815c0.174,0,0.338-0.092,0.428-0.242
	c0.173-0.287,0.066-0.693-0.464-0.773c-2.152-0.328-5.76-1.725-5.76-7.418l-0.015-23.185l1.697,1.643
	c6.72,6.504,27.023,25.584,28.857,27.301c2.096,1.971,3.444,3.238,3.579,3.369c0.14,0.139,0.362,0.182,0.543,0.105
	c0.187-0.08,0.308-0.26,0.308-0.459l0.071-38.493c-0.001-5.599,3.599-7.011,5.745-7.352c0.248-0.039,0.392-0.094,0.493-0.285
	c0.082-0.154,0.077-0.343-0.013-0.492c-0.09-0.149-0.255-0.242-0.429-0.242h-16.81c-0.59,0-0.769,0.906,0.033,1.014
	c2.832,0.38,4.646,2.791,4.977,6.617l0.004,24.575C370.943,232.893,358.874,221.327,347.64,210.582z"/>
<path d="M120.114,263.169l-24.972-62.557c-0.153-0.381-0.776-0.383-0.929,0l-27.471,68.381c-0.997,2.482-4,4.23-8.924,5.193
	c-0.601,0.117-0.715,0.17-0.814,0.387c-0.068,0.146-0.061,0.316,0.018,0.457c0.089,0.158,0.256,0.256,0.436,0.256h15.019
	c0.207,0,0.396-0.131,0.468-0.324l5.824-15.532h27.231l5.832,15.532c0.073,0.193,0.261,0.324,0.468,0.324
	c0.31,0,20.344,0.076,20.568-0.137c0.295-0.281,0.259-0.769-0.466-0.914C129.507,273.65,124.058,271.434,120.114,263.169z
	 M80.371,255.162l12.006-32.018l12.023,32.018H80.371z"/>
<path d="M227.931,257.421c0.073,0.193,0.261,0.324,0.468,0.324c0.31,0,13.638,0.076,13.864-0.137
	c0.284-0.266,0.25-0.765-0.391-0.895c-1.906-0.385-5.491-1.844-8.084-7.279l-16.707-41.843c-0.153-0.381-0.776-0.384-0.929-0.001
	l-18.366,45.719c-0.646,1.605-2.612,2.74-5.846,3.371c-0.426,0.084-0.564,0.141-0.662,0.352c-0.067,0.147-0.06,0.318,0.019,0.459
	c0.088,0.156,0.255,0.254,0.435,0.254h10.042c0.208,0,0.395-0.131,0.468-0.324l4.452-11.872h16.78L227.931,257.421z
	 M207.804,242.587l7.274-19.397l7.283,19.397H207.804z"/>
<path d="M407.039,200.065c-0.092-0.082-0.211-0.127-0.333-0.127c-0.078,0-0.194,0.018-0.306,0.104
	c-0.344,0.266-8.388,6.672-5.42,21.347c0.125,0.617,1.076,0.452,0.981-0.195c-1.198-8.311,2.405-13.022,5.638-15.512
	c0.142-0.108,0.214-0.287,0.191-0.464c-0.025-0.177-0.142-0.328-0.308-0.396c-0.536-0.217-0.87-0.542-1.022-0.996
	c-0.425-1.263,0.658-3.104,0.669-3.122C407.257,200.491,407.218,200.225,407.039,200.065z"/>
<path d="M157.635,311.092c0.809-0.332,1.085-0.639,1.337-1.492c0.404-1.375,0.91-4.959,0.91-5.517c0-1.324-1.541-1.711-1.871,0.059
	c-0.154,0.699-0.65,1.787-1.28,2.492c-1.52,1.75-3.639,2.082-7.015,2.082c-4.938,0-12.244-4.416-12.244-13.899
	c0-16.74,16.169-12.799,18.688-10.118c2.262,2.342,0.744,4.752,2.333,4.752c1.111,0,1.021-1.333,1.046-3.451
	c0.019-1.517,0.029-2.542,0.213-4.006c0.105-0.845,0.004-1.461-0.99-1.547c-0.613-0.063-1.247-0.188-1.917-0.318
	c-17.085-3.371-26.076,4.521-26.076,15.095C130.768,312.61,150.675,313.885,157.635,311.092z"/>
<path d="M201.207,298.924c6.694,8.763,7.38,12.571,14.32,12.571c3.982,0,5.105,0.234,5.112-0.902c0-0.986-1.084-0.763-2.053-0.943
	c-0.588-0.115-2.127-0.416-4.227-2.592c-2.266-2.382-4.864-5.708-8.44-10.214c2.396-2.163,5.133-4.767,5.133-9.149
	c0-2.59-1.49-4.953-2.962-5.949c-3.894-2.672-8.994-1.569-14.922-1.746c-4.25-0.139-5.444-0.285-5.444,0.777
	c0.008,1.299,1.742,0.607,3.074,1.09h0.352c0.418,0.66,0.521,0.736,0.58,1.736c0.061,1.003,0.445,23.005-0.542,25.947
	c-0.656,0.127-1.033,0.217-1.712,0.217c-1.557,0-1.601,1.729,0.162,1.729c2.382,0,3.773-0.164,6.12-0.092
	c1,0.018,2.712,0.092,4.763,0.092c1.81,0,1.609-1.729,0.323-1.729c-0.518,0-1.436-0.078-2.543-0.262c-0.54-1-0.72-0.872-0.72-10.667
	L201.207,298.924z M197.582,282.884c0.832-0.041,1.224-0.068,2.009-0.068c2.113,0,5.689,1.453,5.689,6.902
	c0,3.535-1.358,5.061-2.168,5.656c-0.652,0.467-1.069,0.6-2.59,0.6c-1.257,0-1.939-0.148-2.939-0.334v-12.757H197.582z"/>
<path d="M243.925,279.916c-1.39,0-1.39,0.648-1.39,0.861c0.003,0.395,0.21,0.867,1.189,0.867c0.486,0,1.134,0.031,1.496,0.115
	c0.142,0.029,0.272,0.066,0.392,0.107h0.343l0.296,0.455c0.118,0.182,0.244,0.475,0.292,1.283c0.079,1.273,0.079,2.383,0.079,8.54
	c0,15.222,0.033,15.455-0.619,17.405l-0.575,0.109c-0.372,0.072-0.744,0.107-1.138,0.107c-1.036,0-1.147,0.578-1.147,0.826
	c0.003,0.412,0.232,0.902,1.31,0.902c0.397,0,0.851-0.02,1.321-0.039c0.501-0.02,1-0.041,1.53-0.041
	c0.502-0.023,1.023-0.025,1.452-0.027c0.309-0.002,0.565-0.002,0.736-0.012c0.023,0,0.047,0,0.07,0c1.31,0,2.624,0.047,4.205,0.119
	l1.051,0.027c1.592,0.041,3.513,0.092,5.936,0.092c1.698,0,2.304-0.07,2.675-1.443c0.212-0.85,0.536-3.609,0.536-4.596
	c0-1.102-0.469-1.228-0.822-1.228c-0.372,0-0.774,0.123-0.94,1.033c-0.294,1.725-0.785,2.266-1.533,2.613
	c-0.881,0.406-2.319,0.439-3.597,0.439c-3.315,0-4.274-0.125-4.355-2.92c-0.027-0.814-0.015-2.975-0.006-4.553l0.009-4.799
	l1.008,0.012c0.152,0,3.728,0.039,4.424,0.113c0.471,0.051,1.571,0.17,1.826,1.164c0.084,0.363,0.108,0.717,0.128,1.029l0.025,0.34
	c0.024,0.551,0.354,0.863,0.866,0.863c0.572,0,0.862-0.424,0.862-1.262c0.002-0.154,0.027-0.551,0.058-1.014l0.015-0.225
	c0.035-0.516,0.071-1.072,0.087-1.408c0.108-1.383,0.21-2.102,0.272-2.529c0.035-0.248,0.053-0.397,0.053-0.492
	c0-0.484-0.321-0.822-0.781-0.822c-0.357,0-0.596,0.207-0.938,0.617l-0.125,0.148l-0.171,0.092
	c-0.215,0.113-0.536,0.205-1.406,0.275c-0.674,0.061-3.549,0.076-5.203,0.078l-1.002,0.002v-10.085l1.017,0.016
	c1.056,0.019,3.913,0.078,4.446,0.141c1.328,0.16,1.747,0.404,1.948,0.576l0.165,0.18c0.07,0.098,0.13,0.217,0.208,0.412
	c0.155,0.373,0.197,0.982,0.197,1.25c0,0.928,0.541,1.066,0.863,1.066c0.218,0,0.742-0.086,0.904-0.893
	c0.051-0.305,0.101-1.123,0.146-1.846c0.024-0.397,0.042-0.686,0.059-0.871c0.079-1.197,0.191-1.799,0.259-2.16
	c0.042-0.219,0.064-0.361,0.064-0.477c0-0.635-0.401-0.859-0.744-0.859c-0.204,0-0.4,0.063-0.558,0.115l-0.169,0.049
	c-0.305,0.076-0.857,0.152-1.637,0.234c-0.753,0.041-7.946,0.045-10.135,0.045c-0.454,0-1.141-0.027-1.936-0.059l-0.649-0.025
	c-0.456,0.002-0.987-0.008-1.529-0.018C245.065,279.926,244.485,279.916,243.925,279.916z"/>
<path d="M309.959,283.787l0.115,0.113c0.099,0.115,0.168,0.244,0.265,0.488c0.192,0.459,0.195,1.213,0.195,1.244
	c0,1.372,1.512,1.447,1.769,0.17c0.049-0.293,0.097-1.049,0.151-1.93l0.007-0.123c0.017-0.275,0.031-0.504,0.044-0.654
	c0.079-1.203,0.193-1.805,0.261-2.166c0.042-0.219,0.063-0.361,0.063-0.477c0-0.635-0.4-0.859-0.742-0.859
	c-0.206,0-0.394,0.061-0.56,0.115l-0.165,0.049c-0.309,0.076-0.86,0.152-1.639,0.234c-0.751,0.041-7.948,0.045-10.138,0.045
	c-0.474,0-1.201-0.029-2.041-0.065l-0.545-0.02c-0.449-0.008-0.988-0.008-1.53-0.018c-0.569-0.01-1.149-0.02-1.709-0.02
	c-1.389,0-1.389,0.648-1.389,0.861c0.002,0.395,0.21,0.867,1.188,0.867c0.483,0,1.128,0.029,1.492,0.115
	c0.143,0.029,0.274,0.064,0.393,0.107h0.348c0.778,1.208,0.664-0.218,0.664,17.399c0,3.693,0,6.885-0.194,8.525
	c-0.131,0.944-0.178,1.019-0.427,1.758c-1.842,0.352-2.857,0.04-2.857,1.043c0.009,1.349,1.702,0.781,6.39,0.781
	c12.215,0,13.27,1.111,13.893-1.205c0.213-0.855,0.538-3.615,0.538-4.594c0-1.102-0.471-1.228-0.825-1.228
	c-0.349,0-0.771,0.117-0.939,1.037c-0.44,2.58-1.315,3.049-5.128,3.049c-5.258,0-4.375-0.02-4.352-12.273
	c6.517,0.076,7.211-0.216,7.384,2.295c0.046,0.689,0.109,1.227,0.891,1.227c1,0,0.849-1.15,0.932-2.404
	c0.103-1.573,0.139-2.474,0.366-4.039c0.104-0.712-0.006-1.309-0.728-1.309c-0.354,0-0.597,0.207-0.978,0.643l-0.156,0.18
	c-1.035,0.424-2.289,0.38-7.712,0.391v-10.085C305.061,283.097,308.967,282.947,309.959,283.787z"/>
<path d="M345.676,309.553c-1.798,0.34-2.861,0.039-2.861,1.041c0.003,0.412,0.232,0.902,1.31,0.902c0.662,0,1.967-0.08,2.853-0.08
	c6.338-0.286,17.682,2.764,24.77-4.479c5.563-5.668,6.4-16.103,0.492-22.253c-5.646-5.903-14.877-4.646-22.817-4.646
	c-5.062,0-7.213-0.614-7.213,0.74c0.008,1.284,1.673,0.607,3.077,1.09h0.343c0.824,1.268,0.666,1.342,0.666,10.278
	C346.294,307.535,346.321,307.605,345.676,309.553z M352.395,283.027c20.128-2.354,19.925,18.267,14.255,23.146
	c-4.302,3.729-12.006,3.339-13.894,1.371C352.171,305.508,352.354,285.387,352.395,283.027z"/>
<path d="M410.916,257.085c-0.3-0.664-0.423-0.764-0.692-0.764c-0.28,0-0.504,0.229-0.504,0.502v15.782
	c0,0.203,0.122,0.385,0.311,0.461c0.178,0.074,0.36,0.135,0.478,0.158c2.576,0.732,9.864,2.066,16.176,2.066
	c13.163,0,22.356-7.994,22.356-19.44c0-19.08-27.918-25.865-27.918-39.244c0-6.027,4.344-10.028,10.748-9.82
	c6.548,0.196,11.284,4.429,13.692,12.24c0.222,0.72,0.364,0.795,0.635,0.795c0.157,0,0.307-0.074,0.402-0.199
	c0.159-0.211,0.102-15.824,0.102-16.089c0-0.409-0.407-0.526-0.819-0.622c-2.874-0.815-6.871-1.737-12.77-1.737
	c-13.166,0-22.36,7.996-22.36,19.444c0,19.089,27.922,25.874,27.922,39.242C438.674,272.15,418.968,274.937,410.916,257.085z"/>
<path d="M282.499,246.211c-0.211-0.469-0.342-0.598-0.608-0.598c-0.775,0-0.502,0.861-0.502,10.71c0,0.366,0.294,0.483,0.647,0.572
	c1.672,0.475,6.413,1.344,10.5,1.344c8.617,0,14.635-5.242,14.635-12.751c0-12.207-18.056-17.1-18.056-25.379
	c0-3.694,2.604-6.177,6.481-6.177c4.743,0.068,7.552,3.177,8.979,7.79c0.184,0.594,0.372,0.642,0.581,0.642
	c0.154,0,0.302-0.072,0.397-0.194c0.164-0.21,0.105-10.245,0.105-10.512c0-0.337-0.276-0.487-0.605-0.562
	c-12.892-3.654-22.995,1.624-22.995,11.608c0,12.338,18.056,17.015,18.056,25.379C300.114,255.826,287.64,257.611,282.499,246.211z"
	/>
<path d="M259.031,254.252c-4.712,0-8.459-2.779-10.831-8.041c-0.212-0.469-0.342-0.598-0.608-0.598
	c-0.271,0-0.502,0.221-0.502,0.502v10.208c0,0.207,0.123,0.389,0.315,0.465c1,0.393,6.359,1.451,10.832,1.451
	c8.617,0,14.635-5.242,14.635-12.751c0-12.189-18.056-17.111-18.056-25.379c0-3.694,2.604-6.177,6.481-6.177
	c4.755,0.068,7.559,3.192,8.979,7.794c0.182,0.591,0.37,0.639,0.58,0.639c0.273,0,0.502-0.221,0.502-0.502V211.66
	c0-0.336-0.272-0.49-0.602-0.562c-12.833-3.643-22.998,1.58-22.998,11.607c0,12.339,18.058,17.01,18.058,25.379
	C265.815,251.83,263.152,254.252,259.031,254.252z"/>
<path d="M164.032,246.211c-0.212-0.469-0.342-0.598-0.608-0.598c-0.809,0-0.502,0.616-0.502,10.71c0,0.207,0.124,0.389,0.315,0.465
	c0.109,0.043,0.23,0.082,0.332,0.107c1.67,0.475,6.41,1.344,10.501,1.344c8.616,0,14.633-5.242,14.633-12.751
	c0-12.281-18.053-16.973-18.053-25.379c0-7.719,12.04-9.451,15.459,1.613c0.184,0.594,0.372,0.642,0.581,0.642
	c0.774,0,0.502-0.85,0.502-10.706c0-0.336-0.273-0.491-0.602-0.562c-12.892-3.658-22.998,1.624-22.998,11.607
	c0,12.466,18.056,16.82,18.056,25.379C181.645,255.826,169.173,257.611,164.032,246.211z"/>
<path d="M129.733,246.211c-0.211-0.469-0.342-0.598-0.608-0.598c-0.809,0-0.502,0.617-0.502,10.71c0,0.207,0.123,0.389,0.315,0.465
	c1,0.396,6.362,1.451,10.832,1.451c8.617,0,14.635-5.242,14.635-12.751c0-12.345-18.056-16.908-18.056-25.379
	c0-7.612,12.012-9.547,15.459,1.613c0.184,0.594,0.372,0.642,0.581,0.642c0.809,0,0.502-0.606,0.502-10.706
	c0-0.336-0.275-0.493-0.604-0.562c-1.915-0.543-4.509-1.143-8.362-1.143c-8.617,0-14.635,5.243-14.635,12.751
	c0,12.432,18.056,16.87,18.056,25.379C147.346,255.826,134.873,257.61,129.733,246.211z"/>
<path d="M492.499,155.046H273.501c-4.142,0-7.5,3.358-7.5,7.5c0,4.142,3.358,7.5,7.5,7.5h218.997c2.481,0,4.5,2.019,4.5,4.5v67.063
	c0,4.142,3.358,7.5,7.5,7.5s7.5-3.358,7.5-7.5v-67.063C512,163.794,503.251,155.046,492.499,155.046z"/>
<path d="M504.5,269.112c-4.142,0-7.5,3.357-7.5,7.5v60.84c0,2.482-2.019,4.5-4.5,4.5H19.501c-2.481,0-4.5-2.018-4.5-4.5V174.548
	c0-2.481,2.019-4.5,4.5-4.5h218.997c4.142,0,7.5-3.358,7.5-7.5c0-4.142-3.358-7.5-7.5-7.5H19.501C8.749,155.046,0,163.794,0,174.548
	v162.905c0,10.753,8.749,19.501,19.501,19.501h472.998c10.753,0,19.501-8.749,19.501-19.501v-60.84
	C512,272.469,508.642,269.112,504.5,269.112z"/>
<g>
</g>
<g>
</g>
<g>
</g>
<g>
</g>
<g>
</g>
<g>
</g>
<g>
</g>
<g>
</g>
<g>
</g>
<g>
</g>
<g>
</g>
<g>
</g>
<g>
</g>
<g>
</g>
<g>
</g>
</svg>
