<?xml version="1.0" encoding="iso-8859-1"?>
<!-- Generator: Adobe Illustrator 19.0.0, SVG Export Plug-In . SVG Version: 6.00 Build 0)  -->
<svg version="1.1" id="Capa_1" xmlns="http://www.w3.org/2000/svg" xmlns:xlink="http://www.w3.org/1999/xlink" x="0px" y="0px"
	 viewBox="0 0 512 512" style="enable-background:new 0 0 512 512;" xml:space="preserve">
<path style="fill:#EA473B;" d="M504.5,337.453c0,6.627-5.371,12.001-12.001,12.001H19.501c-6.627,0-12.001-5.373-12.001-12.001
	V174.548c0-6.628,5.373-12.001,12.001-12.001h472.998c6.629,0,12.001,5.372,12.001,12.001V337.453z"/>
<path style="fill:#D82B27;" d="M27.502,337.453V174.548c0-6.628,5.373-12.001,12.001-12.001H19.501
	c-6.627,0-12.001,5.372-12.001,12.001v162.904c0,6.627,5.373,12.001,12.001,12.001h20.001
	C32.875,349.454,27.502,344.08,27.502,337.453z"/>
<path d="M504.5,249.112c-4.142,0-7.5-3.358-7.5-7.5v-67.063c0-2.481-2.018-4.5-4.5-4.5H273.501c-4.143,0-7.5-3.358-7.5-7.5
	c0-4.142,3.357-7.5,7.5-7.5h218.997c10.753,0,19.501,8.749,19.501,19.501v67.063C512,245.753,508.642,249.112,504.5,249.112z"/>
<path d="M105.027,282.499h11.962c1.656,0,3-1.343,3-3v-39.069c0-5.786-6.781-11.682-13.439-11.682H55.424c-1.656,0-3,1.343-3,3
	v47.751c0,1.657,1.344,3,3,3h11.579c1.658,0,3-1.343,3-3v-35.681h32.023v35.681C102.027,281.156,103.37,282.499,105.027,282.499z"/>
<path d="M207.02,232.126v47.248c0,1.657,1.344,3,3,3h11.456c1.658,0,3-1.343,3-3V244.07h21.981v35.428c0,1.657,1.344,3,3,3h11.202
	c1.656,0,3-1.343,3-3v-35.681h20.974v35.555c0,1.657,1.344,3,3,3h11.591c1.654,0,2.996-1.337,3-2.991l0.117-38.531
	c-0.125-5.479-5.744-11.726-10.552-11.726h-81.771C208.364,229.125,207.02,230.468,207.02,232.126z"/>
<path d="M321.958,282.877l0.1-0.001c0.002,0,51.382,0.119,51.382,0.119c1.654,0,3-1.341,3-3c0-8.197,0.259-8.657-0.881-9.798
	c-1.255-1.251,1.434-0.885-46.718-0.759v-26.372c0.005,0,44.599,0.116,44.599,0.116c1.666,0,3-1.354,3-3v-7.805c0-1.657-1.344-3-3-3
	h-51.003c-5.342,0-11.431,5.753-11.431,10.8v31.647c0,1.89,1.391,4.628,3.541,6.974
	C316.887,281.353,319.645,282.877,321.958,282.877z"/>
<path d="M139.431,247.824v0.001c-5.823-0.271-11.852,4.095-12.282,15.458l-0.002,0.008c-0.117,0.465-0.127,0.896-0.127,1.501
	c0,8.491,3.978,17.629,12.714,17.629c0.338,0,0.684-0.014,1.037-0.041l54.214-0.005c1.654,0,2.996-1.337,3-2.991l0.117-38.149
	c-0.127-5.707-6.334-11.376-11.138-11.842c-0.096-0.009-0.193-0.014-0.289-0.014H136.05c-1.656,0-3,1.343-3,3v5.804
	c0,1.657,1.344,3,3,3h43.343v6.782L139.431,247.824z M179.643,260.27l0.127,8.918l-33.156,0.125v-9.043H179.643z"/>
<path d="M396.279,284.258l52.425,0.125c0.002,0,0.004,0,0.006,0c0.068,0,0.135-0.002,0.201-0.007
	c3.615-0.242,10.663-6.561,10.663-11.547c0-0.167,0.004-33.496-0.008-33.663c-0.486-6.084-6.812-11.549-11.778-11.549H397.66
	c-7.701,0-12.306,6.896-12.306,13.564v31.146C385.354,277.733,390.388,284.352,396.279,284.258z M402.933,241.433l39.061-0.125
	v30.139h-39.061V241.433z"/>
<path d="M504.5,269.113c-4.142,0-7.5,3.358-7.5,7.5v60.839c0,2.482-2.018,4.5-4.5,4.5H19.501c-2.481,0-4.5-2.018-4.5-4.5V174.548
	c0-2.481,2.019-4.5,4.5-4.5h218.997c4.143,0,7.5-3.358,7.5-7.5c0-4.142-3.357-7.5-7.5-7.5H19.501C8.749,155.047,0,163.795,0,174.548
	v162.904c0,10.754,8.749,19.501,19.501,19.501h472.998c10.753,0,19.501-8.748,19.501-19.501v-60.839
	C512,272.471,508.642,269.113,504.5,269.113z"/>
<g>
</g>
<g>
</g>
<g>
</g>
<g>
</g>
<g>
</g>
<g>
</g>
<g>
</g>
<g>
</g>
<g>
</g>
<g>
</g>
<g>
</g>
<g>
</g>
<g>
</g>
<g>
</g>
<g>
</g>
</svg>
