<?xml version="1.0" encoding="iso-8859-1"?>
<!-- Generator: Adobe Illustrator 19.0.0, SVG Export Plug-In . SVG Version: 6.00 Build 0)  -->
<svg version="1.1" id="Capa_1" xmlns="http://www.w3.org/2000/svg" xmlns:xlink="http://www.w3.org/1999/xlink" x="0px" y="0px"
	 viewBox="0 0 512 512" style="enable-background:new 0 0 512 512;" xml:space="preserve">
<path style="fill:#EA473B;" d="M504.5,337.452c0,6.628-5.373,12.001-12.001,12.001H19.501c-6.627,0-12.001-5.372-12.001-12.001
	V174.548c0-6.627,5.373-12.001,12.001-12.001h472.998c6.627,0,12.001,5.373,12.001,12.001V337.452z"/>
<path style="fill:#D82B27;" d="M27.502,337.452V174.548c0-6.628,5.373-12.001,12.001-12.001H19.501
	c-6.627,0-12.001,5.372-12.001,12.001v162.905c0,6.627,5.373,12.001,12.001,12.001h20.001
	C32.875,349.453,27.502,344.08,27.502,337.452z"/>
<path d="M504.5,249.111c-4.143,0-7.5-3.358-7.5-7.5v-67.063c0-2.481-2.018-4.5-4.5-4.5H273.501c-4.143,0-7.5-3.358-7.5-7.5
	c0-4.142,3.357-7.5,7.5-7.5h218.997c10.753,0,19.501,8.749,19.501,19.501v67.063C512,245.753,508.642,249.111,504.5,249.111z"/>
<path d="M146.85,223.469c1.375-10.239-10.96-12.25-18.581-12.25h-4.148c-4.318,1.926-11.458,1.221-12.8,6.813
	c-0.051,1.462-0.156,4.385-0.223,5.85c5.367-0.432,3.697,5.728,3.51,9.066c-7.33,1.135-14.868,1.221-21.921,3.768
	c-6.33-0.912-7.895-8.775-9.085-14.075c-2.289,6.108,0.602,12.786,4.766,17.361c-6.555,6.623-8.291,16.122-10.392,24.827
	c-0.533,5.849-3.027,11.648-7.588,15.416c-0.102,1.239-0.172,2.477-0.189,3.716c2.943,0.534,6.023-1.239,6.471-4.334
	c3.078-9.653,9.478-17.826,18.03-23.159c2.633-0.706,4.869,1.463,6.367,3.338c0.756,3.751-2.877,7.346-0.553,10.96
	c0.879,4.715,3.578,10.617,9.325,7.742c-0.93-3.819-6.709-3.94-5.865-8.775c1.633-1.928,2.975-4.301,5.418-5.316
	c2.014,10.34,4.404,20.663,3.355,31.315c-1.066,4.696,7.76,5.402,7.828,1.032c-5.059-9.604-2.443-21.061,0.758-30.833
	c3.561-0.053,7.018-0.929,10.546-1.205c1.65,8.018-2.287,16.035-1.805,24.053c0.188,3.89,6.813,4.302,8.206,1.015
	c-0.723-2.752-4.061-4.852-2.803-7.983c1.807-8.43,5.471-16.257,8.205-24.361c1.789-7.381-2.322-14.487-2.562-21.645
	C143.289,231.797,141.447,224.913,146.85,223.469z"/>
<path d="M233.566,228.387c-2.987-0.049-6.305,0.231-9.267,0.122c-2.193-0.079-3.738,2.155-2.865,4.186
	c0.265,0.613,0.198,0.511,0.365,0.972c6.378,16.408,12.164,31.515,18.647,48.161v0.001c-2.457,5.821-5.033,11.637-7.652,17.285
	c-0.779,1.68,0.016,4.259,3.195,4.263c8.846,0,10.565,0.514,11.524-1.885c30.09-75.16,28.614-69.995,27.399-71.832
	c-0.549-0.827-1.469-1.329-2.461-1.342c-6.684-0.091-10.183-0.657-11.245,2.033c-3.814,9.655-7.967,19.514-11.796,29.354
	c-0.017,0.014-1.338,1.442-1.357,1.462C235.964,228.224,236.067,228.428,233.566,228.387z"/>
<path d="M279.098,281.747c-0.004,1.64,1.309,2.979,2.947,3.007c0.955,0.017,2.031,0.023,3.16,0.023c1.418,0,2.385-0.008,5.51-0.025
	c1.645-0.007,2.977-1.336,2.986-2.98c0.061-9.17,0.025-17.266-0.002-31.051c2.518-4.81,7.422-9.95,13.638-9.95l0.195,0.001
	c0.088,0.001,0.172-0.001,0.258-0.007c1.914-0.122,2.895,1.046,3.67,4.611l0.027,0.132c0.026,9.403,0.015,18.283,0.002,36.235
	c-0.002,1.644,1.32,2.982,2.965,3.001c3.096,0.036,6.002,0.039,8.831,0.005c1.648-0.02,2.971-1.367,2.963-3.016
	c-0.027-5.464-0.022-10.969-0.014-16.319c0.01-7.051,0.02-14.343-0.055-21.587c-0.143-5.797-3.076-11.208-7.736-14.167
	c-2.75-1.626-5.898-2.451-9.358-2.451c-5.455,0-11.196,2.235-15.353,5.978c-0.014-0.508-0.037-1.23-0.064-1.988
	c-0.055-1.598-1.354-2.872-2.953-2.896c-7.191-0.107-11.666-0.75-11.642,3.09C279.186,246.75,279.157,264.226,279.098,281.747z"/>
<path d="M369.677,278.733c0.493,22.775-27.137,7.267-27.305,16.132c-0.217,11.09-0.583,9.743,10.011,9.763
	c8.628,0,16.31-0.391,22.939-5.199c5.666-4.116,8.653-11.438,8.876-21.728c0.504-15.359,0.026-30.742,0.262-46.222
	c0.023-1.533-1.111-2.837-2.633-3.023c-2.59-0.318-10.13-0.85-11.94,1.017c-1.452,1.492-3.517-0.665-5.233-1.143
	c-29.551-7.98-40.154,30.999-24.732,48.873C347.278,285.205,360.984,285.864,369.677,278.733z M369.404,244.27
	c1.044,6.019,0.157,12.443,0.445,18.616c-6.619,9.135-21.577,11.89-21.56-5.418C347.617,235.984,362.613,237.205,369.404,244.27z"/>
<path d="M167.941,283.213c0.527,0.957,1.535,1.551,2.627,1.551c1.383,0,37.872-0.005,44.483-0.007
	c1.652-0.001,2.992-1.338,2.998-2.99c0.053-11.876,3.073-9.425-27.24-9.367c7.47-13.371,16.123-26.309,23.993-39.525
	c1.192-2.002-0.266-4.56-2.607-4.535c-14.634,0.147-29.472-0.423-44.048,0.246c-1.607,0.074-2.871,1.403-2.861,3.013
	c0.009,1.897,0.024,4,0.012,6.227c-0.01,1.654,1.32,3.004,2.975,3.018c8.383,0.069,16.574-0.012,25.031,0.019
	C168.485,280.433,166.365,280.363,167.941,283.213z"/>
<path d="M396.589,282.379c3.061,2.35,6.85,3.593,10.96,3.593c5.184,0,10.407-1.949,14.329-5.347
	c2.539,3.395,6.613,5.343,11.183,5.343c2.34,0,4.715-0.526,6.867-1.52c1.152-0.531,1.844-1.727,1.732-2.989
	c-0.119-1.345-0.281-2.7-0.449-4.106l-0.1-0.826c-0.178-1.504-1.451-2.64-2.967-2.646c-1.022-0.004-2.055-0.091-3.07-0.258
	c-0.807-5.624-0.697-11.432-0.594-17.053c0.094-4.933,0.189-10.034-0.336-15.027c-0.543-5.013-3.717-10.892-9.524-12.704
	l-0.057-0.019c-2.982-1.062-6.242-1.6-9.69-1.6c-5.365,0-11.294,1.271-18.12,3.885c-1.102,0.422-1.854,1.45-1.922,2.628
	c-0.447,7.774-0.205,9.004,1.352,9.935c0.885,0.529,1.979,0.566,2.897,0.1c3.459-1.754,8.673-4.087,14.007-4.087
	c1.008,0,2.012,0.08,2.986,0.237l0.18,0.042c2.883,0.934,3.906,3.713,3.424,9.265c-7.17,0.13-15.374,0.877-21.782,5.39l-0.068,0.047
	c-4.434,2.787-7.211,7.935-7.426,13.773C390.187,274.153,392.519,279.379,396.589,282.379z M405.924,264.873
	c2.455-3.058,6.762-4.741,12.132-4.741c0.56,0,1.115,0.019,1.656,0.053c-0.104,1.161-0.043,2.365,0.016,3.529
	c0.098,1.934,0.197,3.934-0.447,5.78v0.001c-3.023,2.265-5.955,3.414-8.71,3.414c-0.408,0-0.818-0.026-1.176-0.072
	c-1.768-0.251-3.309-1.524-4.021-3.321C404.716,267.865,404.926,266.126,405.924,264.873z"/>
<path d="M504.5,269.112c-4.143,0-7.5,3.358-7.5,7.5v60.839c0,2.482-2.018,4.5-4.5,4.5H19.501c-2.481,0-4.5-2.018-4.5-4.5V174.548
	c0-2.481,2.019-4.5,4.5-4.5h218.997c4.143,0,7.5-3.358,7.5-7.5c0-4.142-3.357-7.5-7.5-7.5H19.501C8.749,155.046,0,163.795,0,174.548
	v162.905c0,10.754,8.749,19.501,19.501,19.501h472.998c10.753,0,19.501-8.748,19.501-19.501v-60.839
	C512,272.471,508.642,269.112,504.5,269.112z"/>
<g>
</g>
<g>
</g>
<g>
</g>
<g>
</g>
<g>
</g>
<g>
</g>
<g>
</g>
<g>
</g>
<g>
</g>
<g>
</g>
<g>
</g>
<g>
</g>
<g>
</g>
<g>
</g>
<g>
</g>
</svg>
