<?xml version="1.0" encoding="iso-8859-1"?>
<!-- Generator: Adobe Illustrator 19.0.0, SVG Export Plug-In . SVG Version: 6.00 Build 0)  -->
<svg version="1.1" id="Capa_1" xmlns="http://www.w3.org/2000/svg" xmlns:xlink="http://www.w3.org/1999/xlink" x="0px" y="0px"
	 viewBox="0 0 512 512" style="enable-background:new 0 0 512 512;" xml:space="preserve">
<path style="fill:#4A94CC;" d="M504.499,337.453c0,6.627-5.372,12.001-12.001,12.001H19.5c-6.627,0-12.001-5.373-12.001-12.001
	V174.548c0-6.628,5.373-12.001,12.001-12.001h472.998c6.628,0,12.001,5.372,12.001,12.001V337.453z"/>
<path style="fill:#2884BC;" d="M27.501,337.453V174.548c0-6.628,5.373-12.001,12.001-12.001H19.5
	c-6.627,0-12.001,5.372-12.001,12.001v162.904c0,6.627,5.373,12.001,12.001,12.001h20.001
	C32.875,349.454,27.501,344.08,27.501,337.453z"/>
<path d="M504.5,249.112c-4.143,0-7.5-3.358-7.5-7.5v-67.063c0-2.481-2.018-4.5-4.5-4.5H273.501c-4.143,0-7.5-3.358-7.5-7.5
	c0-4.142,3.357-7.5,7.5-7.5h218.997c10.753,0,19.501,8.749,19.501,19.501v67.063C512,245.753,508.642,249.112,504.5,249.112z"/>
<path d="M106.396,250.174l0.228,0.194c0.807,0.688,2.012,0.626,2.745-0.142l8.205-8.604c0.746-0.782,0.735-2.016-0.024-2.786
	c-2.859-2.895-10.719-9.631-21.919-9.631c-15.458,0-31.446,11.028-31.446,29.482c0,12.059,12.143,29.504,34.097,29.504h16.373
	c1.104,0,2-0.896,2-2V275.88c0-1.105-0.896-2-2-2c-0.767,0-1.395,0.201-1.854,0.87c-1.179,1.722-4.218,4.609-11.335,4.609
	c-27.289,0-28.55-41.872-6.365-41.872c10.042,0,11.126,6.054,11.126,8.657c0,0.587-0.119,1.144-0.364,1.702
	C105.506,248.656,105.724,249.601,106.396,250.174z"/>
<path d="M166.387,286.369c0,1.105,0.896,2,2,2h18.165c1.104,0,2-0.895,2-2c0-1,0.072-2.032-1.132-2.612
	c-3.729-1.8-3.026-1.949-22.045-51.691c-0.296-0.774-1.039-1.286-1.868-1.286h-12.33c-0.838,0-1.587,0.522-1.877,1.308
	c-18.677,50.697-17.601,49.781-21.084,51.656c-1.665,0.895-1.484,4.624,0.948,4.624h13.756c1.104,0,2-0.895,2-2
	c0-3.224-1.861-1.86-2.654-3.841c-0.352-0.869-0.351-2.29,0.006-3.169c0.352-0.871,4.021-10.668,4.061-10.773h18.103
	c4.832,12.443,5.212,12.482,4.076,14.478C167.703,284.473,166.387,283.588,166.387,286.369z M149.334,259.574l5.657-16.782
	L161,259.574H149.334z"/>
<path d="M244.733,246.496c0-9.989-7.598-15.718-20.845-15.718h-26.267c-1.104,0-2,0.895-2,2c0,3.832,0.577,2.534,2.391,4.363
	c0.479,0.479,0.656,1.614,0.615,2.557c0.002,44.606,0.402,41.905-1.054,43.366c-1,0.995-2.13,0.897-2.13,2.522v0.78
	c0,1.105,0.895,2,2,2h16.498c1.104,0,2-0.895,2-2c0-2.899-0.53-1.977-1.859-3.564c-1.245-1.492-0.961-0.79-0.969-10.864l0.004-0.001
	C236.211,265.588,244.733,259.601,244.733,246.496z M213.286,239.433c7.22-1.765,16.606-0.819,16.606,7.95
	c0,9.606-16.408,16.523-16.606,16.604V239.433z"/>
<path d="M285.369,288.291h16.373c1.104,0,2-0.896,2-2V275.98c0-2.09-2.783-2.692-3.853-1.129c-1.178,1.72-4.217,4.607-11.336,4.607
	c-27.275,0-28.558-41.869-6.36-41.869c10.959,0,11.931,7.703,10.762,10.355c-0.365,0.825-0.213,1.694,0.755,2.523
	c0.809,0.691,2.016,0.629,2.748-0.139l8.206-8.604c0.746-0.782,0.734-2.016-0.024-2.786c-2.859-2.896-10.72-9.633-21.92-9.633
	c-15.458,0-31.446,11.029-31.446,29.485C251.272,270.848,263.413,288.291,285.369,288.291z"/>
<path d="M341.727,290.027c18.693,0,32.792-13.28,32.792-30.891c0-17.166-14.099-30.111-32.792-30.111
	c-18.697,0-32.796,12.945-32.796,30.111C308.931,276.746,323.03,290.027,341.727,290.027z M341.727,238.197
	c6.364,0,17.136,4.465,17.136,21.199c0,19.67-13.116,21.199-17.136,21.199c-7.737,0-16.961-3.678-16.961-21.199
	C324.766,239.725,337.747,238.197,341.727,238.197z"/>
<path d="M377.645,288.369h14.288c2.271,0,2.746-3.273,0.73-4.064c-0.621-0.243-1.117-0.629-1.469-1.139
	c-1.062-1.554-0.766-1.318,4.058-34.372l8.641,25.328c0.277,0.81,1.038,1.354,1.893,1.354h8.239c0.867,0,1.637-0.56,1.903-1.385
	l8.742-27.061c0.156,1,5.038,32.183,5.211,33.552c0.233,1.951-0.545,3.124-1.911,3.659c-1.994,0.781-1.599,4.157,0.728,4.157h17.115
	c2.162,0,2.653-3.018,1.135-4.065c-1-0.689-1.484-1.255-1.873-4.449c-0.11-0.855-2.644-18.111-2.988-20.459
	c-3.419-23.303-3.603-22.308-2.405-23.783c0.817-1,2.117-1.032,2.117-2.635c0-1.49-0.983-2.225-2-2.225h-18.566
	c-0.853,0-1.611,0.54-1.891,1.346l-7.658,22.148l-7.145-22.075c-0.267-0.825-1.035-1.384-1.902-1.384H385.06c-1.103,0-2,0.895-2,2
	v0.63c0,0.84,0.525,1.59,1.315,1.878c1.283,0.47,1.598,0.893,1.654,0.985c0.252,0.398,0.273,1.27,0.057,2.171
	c-0.013,0.05-0.023,0.101-0.031,0.152l-6.658,41.39c-0.196,1.207-0.655,2.149-1.246,2.835c-1.104,1.297-2.505,1.134-2.505,2.864
	v0.649C375.645,287.473,376.541,288.369,377.645,288.369z"/>
<path d="M504.5,269.113c-4.143,0-7.5,3.358-7.5,7.5v60.839c0,2.482-2.018,4.5-4.5,4.5H19.501c-2.481,0-4.5-2.018-4.5-4.5V174.548
	c0-2.481,2.019-4.5,4.5-4.5h218.997c4.142,0,7.5-3.358,7.5-7.5c0-4.142-3.358-7.5-7.5-7.5H19.501C8.749,155.047,0,163.795,0,174.548
	v162.904c0,10.754,8.749,19.501,19.501,19.501h472.998c10.753,0,19.501-8.748,19.501-19.501v-60.839
	C512,272.471,508.642,269.113,504.5,269.113z"/>
<g>
</g>
<g>
</g>
<g>
</g>
<g>
</g>
<g>
</g>
<g>
</g>
<g>
</g>
<g>
</g>
<g>
</g>
<g>
</g>
<g>
</g>
<g>
</g>
<g>
</g>
<g>
</g>
<g>
</g>
</svg>
