<?xml version="1.0" encoding="iso-8859-1"?>
<!-- Generator: Adobe Illustrator 19.0.0, SVG Export Plug-In . SVG Version: 6.00 Build 0)  -->
<svg version="1.1" id="Capa_1" xmlns="http://www.w3.org/2000/svg" xmlns:xlink="http://www.w3.org/1999/xlink" x="0px" y="0px"
	 viewBox="0 0 512 512" style="enable-background:new 0 0 512 512;" xml:space="preserve">
<path style="fill:#EAE8E8;" d="M504.499,314.422c0,6.628-5.372,12.001-12.001,12.001H19.502c-6.629,0-12.001-5.373-12.001-12.001
	V197.578c0-6.629,5.372-12.001,12.001-12.001h472.997c6.629,0,12.001,5.372,12.001,12.001V314.422z"/>
<path style="fill:#D3D1D1;" d="M34.772,314.422V197.578c0-6.629,5.372-12.001,12.001-12.001H19.502
	c-6.629,0-12.001,5.372-12.001,12.001v116.843c0,6.628,5.372,12.001,12.001,12.001h27.271
	C40.144,326.423,34.772,321.049,34.772,314.422z"/>
<path d="M194.438,297.394c0.365,0,11.869,0,11.509,0c1.798,0,3.002-1.844,2.301-3.48l-21.979-77.491
	c-0.306-1.076-1.287-1.818-2.405-1.818h-18.515c-1.117,0-2.099,0.741-2.404,1.815l-22.062,77.472
	c-0.212,0.744-0.067,1.545,0.393,2.169c0.46,0.623,1.183,0.998,1.957,1.015c1.833,0.041,4.575,0.089,7.228,0.089
	c1.881,0,3.48-0.023,4.753-0.07c1.109-0.041,2.06-0.809,2.332-1.886c1.397-5.529,4.686-18.37,4.725-18.517h24.684l5.067,18.851
	C192.318,296.635,193.307,297.394,194.438,297.394z M165.455,263.556l8.757-35.02l9.538,35.02H165.455z"/>
<path d="M451.472,225.363c1.381,0,2.5-1.119,2.5-2.5v-5.758c0-1.381-1.119-2.5-2.5-2.5H422.21c-1.375,0-2.491,1.109-2.5,2.483
	l-0.338,51.509c-0.004,0.666,0.258,1.307,0.727,1.778c0.47,0.473,1.107,0.738,1.773,0.738h29.6c1.381,0,2.5-1.119,2.5-2.5v-5.738
	c0-1.381-1.119-2.5-2.5-2.5h-19.799v-12.334h17.799c1.381,0,2.5-1.119,2.5-2.5v-5.757c0-1.381-1.119-2.5-2.5-2.5h-17.799v-11.92
	H451.472z"/>
<path d="M337.456,216.481c-0.285-1.104-1.28-1.876-2.421-1.876h-11.408c-0.791,0-1.536,0.375-2.008,1.011
	c-0.471,0.635-0.614,1.456-0.385,2.214l23.551,77.789c0.319,1.054,1.291,1.775,2.393,1.775h11.007c1.102,0,2.073-0.721,2.393-1.775
	l23.565-77.789c0.229-0.757,0.087-1.578-0.385-2.214s-1.216-1.011-2.008-1.011h-11.394c-1.146,0-2.145,0.779-2.425,1.891
	l-15.041,59.793L337.456,216.481z"/>
<path d="M263.263,214.605h-11.036c-1.345,0-2.449,1.064-2.499,2.408c-0.929,25.186-0.336,52.272-0.3,77.885
	c0.002,1.379,1.121,2.496,2.5,2.496h45.931c1.381,0,2.5-1.119,2.5-2.5v-8.938c0-1.381-1.119-2.5-2.5-2.5h-32.096v-66.352
	C265.763,215.724,264.644,214.605,263.263,214.605z"/>
<path d="M112.353,214.605h-11.792c-1.148,0-2.149,0.783-2.426,1.898l-15.033,60.568l-15.443-60.583
	c-0.282-1.107-1.279-1.883-2.423-1.883H54.203c-0.789,0-1.532,0.373-2.004,1.006c-0.472,0.633-0.617,1.451-0.392,2.208
	l23.172,77.789c0.316,1.059,1.29,1.786,2.396,1.786h11.413c1.102,0,2.073-0.722,2.393-1.775l23.564-77.789
	c0.229-0.757,0.087-1.578-0.385-2.214C113.889,214.98,113.145,214.605,112.353,214.605z"/>
<path d="M393.139,193.078h99.36c2.482,0,4.5,2.018,4.5,4.5v116.843c0,2.481-2.018,4.5-4.5,4.5H194.122
	c-4.142,0-7.501,3.358-7.501,7.501s3.358,7.501,7.501,7.501h298.377c10.754,0,19.502-8.749,19.502-19.502V197.578
	c0-10.754-8.748-19.502-19.502-19.502h-99.36c-4.142,0-7.501,3.358-7.501,7.501C385.638,189.72,388.996,193.078,393.139,193.078z"/>
<path d="M19.502,333.923h139.617c4.142,0,7.501-3.358,7.501-7.501s-3.358-7.501-7.501-7.501H19.502c-2.482,0-4.5-2.019-4.5-4.5
	V197.578c0-2.482,2.018-4.5,4.5-4.5h338.634c4.142,0,7.501-3.358,7.501-7.501c0-4.142-3.358-7.501-7.501-7.501H19.502
	C8.749,178.077,0,186.825,0,197.578v116.843C0,325.174,8.749,333.923,19.502,333.923z"/>
<g>
</g>
<g>
</g>
<g>
</g>
<g>
</g>
<g>
</g>
<g>
</g>
<g>
</g>
<g>
</g>
<g>
</g>
<g>
</g>
<g>
</g>
<g>
</g>
<g>
</g>
<g>
</g>
<g>
</g>
</svg>
