<?xml version="1.0" encoding="iso-8859-1"?>
<!-- Generator: Adobe Illustrator 19.0.0, SVG Export Plug-In . SVG Version: 6.00 Build 0)  -->
<svg version="1.1" id="Capa_1" xmlns="http://www.w3.org/2000/svg" xmlns:xlink="http://www.w3.org/1999/xlink" x="0px" y="0px"
	 viewBox="0 0 511.999 511.999" style="enable-background:new 0 0 511.999 511.999;" xml:space="preserve">
<path style="fill:#EAE8E8;" d="M504.499,477.472c0,14.927-12.101,27.027-27.027,27.027H34.528
	c-14.927,0-27.027-12.101-27.027-27.027V34.527c0-14.926,12.1-27.027,27.027-27.027h442.944c14.927,0,27.027,12.101,27.027,27.027
	V477.472z"/>
<path style="fill:#D3D1D1;" d="M27.033,477.472V34.527C27.033,19.601,39.133,7.5,54.06,7.5H34.528
	C19.601,7.5,7.501,19.601,7.501,34.527v442.945c0,14.927,12.101,27.027,27.027,27.027H54.06
	C39.133,504.5,27.033,492.399,27.033,477.472z"/>
<path style="fill:#EA473B;" d="M346.265,310.929c-13.482-6.764-22.015-12.895-27.669-19.877c-0.727-0.898-1.623-0.93-4.038-1.583
	l0.096-3.53c0.012-0.433-0.089-0.862-0.293-1.245c-2.081-3.899-3.481-8.138-4.281-12.959c-0.214-1.289-0.839-1.497-4.546-4.233
	c3.839-5.274,3.667-3.811,1.285-9.53c1.563-1.09,2.601-1.554,2.7-3.022c0.58-8.51,1.475-9.082-0.014-10.381
	c-0.629-0.549-1.491-0.746-2.298-0.529c-57.015,15.458-59.023,77.712,38.093,71.619c1.127-0.071,2.067-0.889,2.293-1.996
	C347.819,312.556,347.274,311.436,346.265,310.929z"/>
<path style="fill:#D82B27;" d="M306.9,258.168l-0.082-0.196c1.563-1.09,2.601-1.554,2.7-3.022c0.58-8.51,1.475-9.082-0.014-10.381
	c-0.629-0.549-1.491-0.746-2.298-0.529c-51.449,13.949-57.894,65.741,11.793,71.501C282.826,304.502,282.021,275.634,306.9,258.168z
	"/>
<path style="fill:#EA473B;" d="M352.449,157.519l-2.236-2.033c0.948-5.64,1.436-4.328-4.871-8.831
	c3.576-10.731,3.7-10.501,3.268-11.619c-8.438-21.798-25.579-36.868-52.404-46.07c-0.463-0.159-0.964-0.178-1.438-0.056l-7.144,1.85
	l-5.097-4.248c-0.499-1-0.825-1.792-2.036-2.084c-25.404-6.124-54.48-7.752-80.466-6.454c-3.103,0.156-3.167,4.781-0.044,4.991
	c33.378,2.248,60.045,9.286,77.118,20.354c1,0.649,1.628,0.389,6.155,0.025c2.581,6.459,2.529,6.67,3.143,7.253
	c2.768,2.639,5.143,5.47,7.056,8.415c0.43,0.661,0.481,0.561,7.651,5.49v7.636l-1.259,2.052c-0.289,0.47-0.414,1.023-0.355,1.571
	c0.316,2.981,0.28,6.073-0.109,9.19c-0.199,1.6,0.879,2.23,2.648,3.799c-2.894,5.776-2.715,4.165-1.582,8.658
	c-2.289,0-3.608-0.262-4.514,1.146c-0.936,1.452-0.261,2.197,2.257,7.741c-8.613-0.552-8.743-0.782-9.755,0.128
	c-12.267,11.03-34.603,18.11-36.077,19.271l-11.041,8.678c-4.078,0-2.343-0.463-8.113,2.416c-11.842-0.947-11.729-1.07-12.533-0.789
	c-26.704,9.319-55.812,21.271-63.204,45.289c-5.227,16.985,0.616,38.092,17.865,64.527c0.471,0.722,1.266,1.134,2.094,1.134
	c1.601,0,2.744-1.422,2.483-2.924c-0.686-18.024,14.054-28.844,30.305-36.661c0.843-0.405,1.389-1.248,1.415-2.182l0.1-3.536
	c13.634,0.621,7.45,1.393,20.927-3.41c0.428-0.153,0.806-0.419,1.094-0.77l3.185-3.887c4.702,1.043,5.247,1.354,6.247,1.017
	c0.943-0.318,1.632-0.454,2.189-1.288l1.99-2.985c3.762,1.259,4.109,1.516,5.109,1.183c32.309-10.698,60.65-21.049,80.278-39.431
	c1.058-0.991,0.791-1.871,0.619-5.526c11.364-12.983,11.286-12.453,11.068-13.968l-0.667-4.666l5.036-1.854
	c1.135-0.418,1.821-0.995,3.059-8.349c1.061-6.395,1.532-12.586,1.397-18.401C353.25,158.627,352.955,157.98,352.449,157.519z"/>
<path style="fill:#D82B27;" d="M199.981,82.966c33.378,2.248,60.045,9.286,77.118,20.354c0.462,0.3,1.007,0.437,1.56,0.395
	l4.595-0.369c2.581,6.459,2.529,6.67,3.143,7.253c2.768,2.639,5.143,5.47,7.056,8.415c0.43,0.661,0.481,0.561,7.651,5.49v7.636
	c-1.33,2.167-1.726,2.577-1.614,3.623c0.316,2.981,0.28,6.073-0.109,9.19c-0.199,1.6,0.879,2.23,2.648,3.799
	c-2.894,5.776-2.715,4.165-1.582,8.658c-2.289,0-3.608-0.262-4.514,1.146c-0.936,1.452-0.261,2.197,2.257,7.741
	c-8.613-0.552-8.743-0.782-9.755,0.128c-12.267,11.03-34.603,18.11-36.077,19.271l-11.041,8.678c-4.078,0-2.343-0.463-8.113,2.416
	c-11.842-0.947-11.729-1.07-12.533-0.789c-26.704,9.319-55.812,21.271-63.204,45.289c-5.227,16.985,0.616,38.092,17.865,64.527
	c0.449,0.688,1.21,1.134,2.131,1.134c-22.065-112.297,143.407-74.381,148.739-151.718c5.333-77.338-128.557-74.782-128.557-74.782
	C197.638,81.774,198.66,82.877,199.981,82.966z"/>
<path d="M154.467,391.461c11.182-16.084,2.821-42.198-23.381-42.198H97.601c-1.602,0-2.899,1.299-2.899,2.9v87.153
	c0,1.602,1.298,2.9,2.899,2.9h9.057c1.602,0,2.9-1.298,2.9-2.9v-36.378h17.003l18.148,37.638c0.482,1.003,1.498,1.641,2.611,1.641
	c11.618,0,12.354,0.41,13.451-1.396c0.526-0.866,0.562-1.944,0.094-2.843l-19.149-36.811
	C147.198,399.094,151.373,395.914,154.467,391.461z M141.435,385.34c-4.907,5.328-11.453,4.24-31.877,4.241V362.62h21.299
	c2.327,0,4.216,0.221,5.775,0.676C146.756,366.251,147.352,378.932,141.435,385.34z"/>
<path d="M234.787,370.691c-0.604-1.938-1.409-3.768-2.363-5.388c-2.418-4.186-5.19-7.655-10.769-11.473
	c-16.183-11.078-43.238-4.634-49.932,16.862c-2.188,7.043-2.398,42.383-0.001,50.084c6.712,21.66,33.772,27.953,49.93,16.87
	c10.616-7.261,13.725-15.296,14.417-25.417C236.417,407.126,237.225,378.538,234.787,370.691z M219.78,417.035
	c-4.572,11.232-17.311,13.139-24.781,9.108c-10.87-5.905-10.09-17.438-10.076-30.407c-0.015-14.106-0.586-24.603,10.063-30.394
	c7.379-3.982,20.186-2.245,24.806,9.131C222.346,380.681,222.277,410.979,219.78,417.035z"/>
<path d="M307.862,349.267h-9.541c-1.282,0-2.413,0.843-2.779,2.071l-20.015,67.17l-20.015-67.17
	c-0.366-1.229-1.496-2.071-2.779-2.071h-9.532c-0.93,0-1.804,0.446-2.349,1.2c-0.546,0.754-0.696,1.723-0.405,2.607l28.668,87.147
	c0.392,1.19,1.503,1.994,2.755,1.994h7.323c1.254,0,2.364-0.804,2.756-1.994l28.668-87.147c0.291-0.884,0.141-1.853-0.406-2.607
	C309.666,349.713,308.792,349.267,307.862,349.267z"/>
<path d="M325.276,349.267c-1.602,0-2.9,1.298-2.9,2.9v87.148c0,1.602,1.299,2.9,2.9,2.9h9.056c1.602,0,2.9-1.298,2.9-2.9v-87.148
	c0-1.602-1.299-2.9-2.9-2.9H325.276z"/>
<path d="M352.571,370.685c-2.328,7.488-2.332,42.614-0.007,50.083c2.206,7.203,7.037,12.703,13.13,16.879
	c16.003,10.954,43.146,4.943,49.941-16.868c2.323-7.482,2.313-42.612-0.002-50.091C406.508,341.503,361.763,340.771,352.571,370.685
	z M367.559,374.464c6.117-14.811,27.102-14.693,33.074,0.006c2.451,5.958,2.574,36.288-0.008,42.563
	c-5.907,14.529-26.874,14.947-33.063-0.005C365.198,411.273,364.951,380.825,367.559,374.464z"/>
<path d="M356.493,133.265c-9.271-24.981-28.438-42.046-58.596-52.172c-2.585-0.868-4.183-0.173-8.306,0.895l-0.657-0.547
	c-1.109-2.228-2.613-3.809-5.156-4.442c-19.562-4.867-42.722-7.439-66.974-7.439c-27.523,0-49.612,3.183-61.106,6.162
	c-3.705,0.96-6.093,4.558-5.539,8.346c0.554,3.788,3.859,6.55,7.696,6.41c5.776-0.212,11.482-0.32,16.958-0.32
	c56.372,0,84.782,11.08,98.689,20.374c1.332,0.89,2.905,1.328,4.51,1.257c2.439,6.108,4.069,4.169,8.99,11.987
	c0.544,0.864,1.258,1.607,2.1,2.186l4.003,2.752v1.168c-3.485,5.681-0.281,5.686-1.844,15.358c-0.279,1.721,0.054,3.458,0.897,4.929
	c-1.393,0.679-2.568,1.786-3.326,3.203c-0.904,1.689-1.753,2.558-1.998,4.661c-1.107,0.337-2.135,0.929-2.99,1.745
	c-7.149,6.808-18.841,12.23-34.196,18.276c-0.678,0.267-1.313,0.631-1.887,1.082l-9.21,7.238h-0.62c-1.162,0-2.309,0.27-3.348,0.789
	l-2.957,1.475l-9.922-0.793c-1.038-0.084-2.08,0.051-3.063,0.393c-28.835,10.034-60.311,23.052-68.818,50.7
	c-6.84,22.225,2.4,49.95,28.253,84.756c1.46,1.966,3.72,3.029,6.025,3.029c0.088,0,0.176-0.001,0.264-0.004
	c4.027-0.131,7.252-3.437,7.252-7.496c0-1.207-0.285-2.347-0.792-3.357c-7.534-18.541-0.646-30.356,24.421-42.029
	c1.705-0.793,3.016-2.18,3.73-3.85c3.193,0.145,4.328,0.344,6.163-0.385c12.788-5.091,12.065-3.725,14.87-7.145
	c1.072,0.238,2.736,0.731,4.935-0.009l2.67-0.898c1.118-0.376,2.125-1.008,2.944-1.837c1.161,0.175,2.354,0.078,3.48-0.294
	c6.443-2.13,13.254-4.382,20.191-6.852c-21.435,19.432-19.254,46.605,6.416,60.863c12.726,7.067,30.138,10.652,51.753,10.652
	c7.766,0,16.129-0.477,24.855-1.419c3.364-0.363,6.069-2.934,6.602-6.276c0.533-3.342-1.238-6.626-4.323-8.018
	c-32.864-14.82-33.052-22.005-36.989-24.624c-0.15-0.792-0.429-1.557-0.825-2.266c-4.57-8.153-2.807-12.209-5.37-15.566
	c0.766-1.804,0.804-3.861,0.06-5.72c0.591-1.013,0.943-2.164,1.01-3.365c0.728-13.143,3.285-15.951-0.833-19.811
	c-0.827-0.776-1.81-1.33-2.859-1.664c9.396-5.232,18.155-11.291,25.593-18.475c2.718-2.626,2.285-5.639,2.199-7.481
	c9.675-11.055,11.458-12.112,11.084-16.202c2.649-0.974,4.218-2.675,4.927-4.895c2.917-9.139,4.056-21.237,3.692-30.582
	c-0.077-1.985-0.938-3.858-2.395-5.208c0.767-4.555-0.755-6.593-4.025-8.929C356.624,138.104,357.621,136.305,356.493,133.265z
	 M279.598,96.616c-5.305-3.297-11.354-6.228-18.102-8.785c5.374,0.835,10.56,1.826,15.509,2.967c0.775,0.999,5.802,5.12,6.493,5.595
	C282.62,96.329,282.079,96.417,279.598,96.616z M328.737,309.041c-66.093-1.396-67.112-40.473-26.885-55.9
	c-1.899,2.114-2.473,5.18-1.342,7.895l0.39,0.935l-0.734,1.009c-2.426,3.333-1.708,7.999,1.608,10.449l1.731,1.278
	c0.88,4.414,2.24,8.443,4.118,12.201l-0.054,1.978c-0.095,3.463,2.195,6.54,5.539,7.444l0.996,0.27
	C317.857,300.972,322.565,305.005,328.737,309.041z M344.199,180.298l-2.463,0.906c-3.319,1.222-5.334,4.598-4.834,8.1l0.317,2.221
	c-10.6,12.112-11.023,11.48-10.769,16.827c-18.142,16.182-44.607,26.025-74.754,36.037c-1.588-0.531-6.799-2.987-10.73,2.912
	c-5.595-1.241-6.821-1.358-11.838,4.762c-2.896,1.042-5.547,2.033-8.024,3.001c-8.924-0.406-11.151-1.03-13.992,1.608
	c-1.474,1.369-2.336,3.272-2.393,5.283l-0.008,0.282c-9.419,4.66-24.619,13.636-29.882,29.215
	c-10.916-19.534-14.504-35.654-10.672-48.106c6.321-20.541,32.98-31.68,57.927-40.425l10.424,0.834
	c1.361,0.11,2.725-0.155,3.945-0.765l3.242-1.617h1.448c1.681,0,3.313-0.565,4.635-1.604l10.389-8.165
	c14.97-5.931,26.89-11.516,35.491-18.711c5.014,0.321,9.038,1.264,11.903-2.887c1.445-2.094,1.728-4.771,0.765-7.113
	c2.352-1.777,3.549-4.664,2.621-8.331c0.927-1.85,4.124-6.872-0.381-11.136c0.174-2.304,0.181-4.589,0.021-6.839
	c1.883-3.071,1.516-3.186,1.516-11.82c0-2.47-1.216-4.782-3.252-6.181l-6.035-4.149c-1.941-2.868-4.245-5.619-6.874-8.209
	c-2.164-5.416-2.468-6.955-4.77-8.537c1.575,0.124,2.033-0.109,8.026-1.661c23.391,8.299,38.568,21.429,46.285,40.051l-2.669,8.01
	c-1.936,5.81,3.181,8.778,4.57,9.77c-0.561,3.299,0.673,5.491,2.9,7.518C346.279,168.137,345.34,175.589,344.199,180.298z"/>
<path d="M477.471,0h-203.97c-4.143,0-7.5,3.358-7.5,7.5s3.357,7.5,7.5,7.5h203.97c10.768,0,19.526,8.76,19.526,19.526v194.509
	c0,4.142,3.357,7.5,7.5,7.5c4.142,0,7.5-3.358,7.5-7.5V34.527C511.999,15.489,496.509,0,477.471,0z"/>
<path d="M504.499,256.538c-4.143,0-7.5,3.358-7.5,7.5v213.434c0,10.767-8.76,19.526-19.526,19.526H34.528
	c-10.768,0-19.526-8.76-19.526-19.526V34.527c0-10.767,8.76-19.526,19.526-19.526h203.97c4.143,0,7.5-3.358,7.5-7.5
	s-3.357-7.5-7.5-7.5H34.528C15.49,0,0.001,15.489,0.001,34.527v442.945c0,19.038,15.489,34.527,34.527,34.527h442.943
	c19.038,0,34.527-15.489,34.527-34.527V264.038C511.999,259.896,508.641,256.538,504.499,256.538z"/>
<g>
</g>
<g>
</g>
<g>
</g>
<g>
</g>
<g>
</g>
<g>
</g>
<g>
</g>
<g>
</g>
<g>
</g>
<g>
</g>
<g>
</g>
<g>
</g>
<g>
</g>
<g>
</g>
<g>
</g>
</svg>
