<?xml version="1.0" encoding="iso-8859-1"?>
<!-- Generator: Adobe Illustrator 19.0.0, SVG Export Plug-In . SVG Version: 6.00 Build 0)  -->
<svg version="1.1" id="Capa_1" xmlns="http://www.w3.org/2000/svg" xmlns:xlink="http://www.w3.org/1999/xlink" x="0px" y="0px"
	 viewBox="0 0 511.999 511.999" style="enable-background:new 0 0 511.999 511.999;" xml:space="preserve">
<path style="fill:#EA473B;" d="M504.498,477.736c0,14.927-12.101,27.027-27.027,27.027H34.529
	c-14.927,0-27.027-12.101-27.027-27.027V34.79c0-14.926,12.101-27.026,27.027-27.026h442.943c14.927,0,27.027,12.1,27.027,27.026
	V477.736z"/>
<path style="fill:#D82B27;" d="M27.502,477.736V34.79c0-14.926,12.101-27.026,27.027-27.026H34.528
	c-14.927,0-27.027,12.1-27.027,27.026v442.946c0,14.927,12.101,27.027,27.027,27.027h20.001
	C39.603,504.763,27.502,492.662,27.502,477.736z"/>
<g>
	<path style="fill:#F4F4F4;" d="M368.202,273.714H335.85c-1.381,0-2.5,1.119-2.5,2.5v148.002c0,1.381,1.119,2.5,2.5,2.5h32.352
		c1.381,0,2.5-1.119,2.5-2.5V276.214C370.702,274.833,369.583,273.714,368.202,273.714z"/>
	<path style="fill:#F4F4F4;" d="M266.612,95.57h-32.52c-1.059,0-2.002,0.667-2.355,1.665
		c-56.024,158.051-53.257,148.711-52.148,150.28c1.069,1.511-4.036,1.058,80.046,1.058c1.381,0,2.5-1.119,2.5-2.5v-25.89
		c0-1.381-1.119-2.5-2.5-2.5h-27.859l18.575-56.126c30.231,91.335,28.027,87.016,30.609,87.016c41.285,0,39.125,0.401,40.156-1.058
		c0.469-0.663,0.586-1.513,0.315-2.278C265.529,87.526,269.222,95.57,266.612,95.57z"/>
	<path style="fill:#F4F4F4;" d="M261.19,273.714h-32.52c-1.059,0-2.002,0.667-2.355,1.664
		c-56.039,158.094-53.254,148.714-52.148,150.28c0.469,0.663,1.229,1.058,2.041,1.058h78.005c1.381,0,2.5-1.119,2.5-2.5v-25.889
		c0-1.381-1.119-2.5-2.5-2.5h-27.859l18.577-56.127c30.233,91.343,28.027,87.016,30.607,87.016c41.285,0,39.125,0.401,40.156-1.058
		c0.469-0.663,0.586-1.512,0.314-2.277C260.112,265.687,263.8,273.714,261.19,273.714z"/>
	<path style="fill:#F4F4F4;" d="M458.709,95.57h-32.352c-1.381,0-2.5,1.119-2.5,2.5v84.418
		c-54.259-92.471-50.388-86.918-52.433-86.918h-33.42c-1.381,0-2.5,1.119-2.5,2.5v148.002c0,1.381,1.119,2.5,2.5,2.5h32.352
		c1.381,0,2.5-1.119,2.5-2.5v-84.417c54.256,92.465,50.388,86.917,52.433,86.917h33.42c1.381,0,2.5-1.119,2.5-2.5V98.07
		C461.209,96.689,460.09,95.57,458.709,95.57z"/>
	<path style="fill:#F4F4F4;" d="M52.043,248.572h83.198c22.628,0,41.037-18.409,41.037-41.036c0-14.534-7.838-28.123-20.454-35.464
		c12.616-7.338,20.454-20.927,20.454-35.464c0-22.627-18.409-41.036-41.037-41.036L52.043,95.57c-1.379,0-2.5,1.12-2.5,2.5v148.002
		C49.542,247.453,50.662,248.572,52.043,248.572z M121.821,156.623h-14.839c-1.381,0-2.5,1.119-2.5,2.5v25.889
		c0,1.381,1.119,2.5,2.5,2.5h17.345c0.26,0.182,0.555,0.315,0.873,0.388c6.781,1.558,11.704,7.742,11.704,14.702
		c0,8.314-6.766,15.08-15.081,15.082c0,0,0.376-0.003-34.928-0.003V126.46h34.928c8.316,0,15.081,6.766,15.081,15.081
		C136.904,149.857,130.137,156.623,121.821,156.623z"/>
	<path style="fill:#F4F4F4;" d="M117.063,273.719c-70.207-0.005-65.74-0.318-66.787,0.726c-0.469,0.47-0.732,1.105-0.732,1.769
		v148.002c0,1.381,1.119,2.5,2.5,2.5h65.02c34.858,0,63.215-34.317,63.215-76.5C180.276,308.036,151.92,273.719,117.063,273.719z
		 M117.063,395.826H86.895v-91.223h30.168c15.448,0,28.016,20.461,28.016,45.611S132.511,395.826,117.063,395.826z"/>
</g>
<g>
	<path style="fill:#EAE8E8;" d="M353.352,424.216V276.214c0-1.381,1.119-2.5,2.5-2.5h-20.001c-1.381,0-2.5,1.119-2.5,2.5v148.002
		c0,1.381,1.119,2.5,2.5,2.5h20.001C354.471,426.716,353.352,425.597,353.352,424.216z"/>
	<path style="fill:#EAE8E8;" d="M199.276,245.236C255.167,87.559,251.486,95.57,254.093,95.57h-20.001
		c-1.059,0-2.002,0.667-2.355,1.665c-56.024,158.051-53.257,148.711-52.148,150.28c0.469,0.663,1.229,1.058,2.041,1.058h20.001
		C199.912,248.572,198.699,246.865,199.276,245.236z"/>
	<path style="fill:#EAE8E8;" d="M193.854,423.381c55.891-157.677,52.21-149.667,54.817-149.667H228.67
		c-1.059,0-2.002,0.667-2.355,1.664c-56.039,158.094-53.254,148.714-52.148,150.28c0.469,0.663,1.229,1.058,2.041,1.058h20.001
		C194.49,426.716,193.276,425.01,193.854,423.381z"/>
	<path style="fill:#EAE8E8;" d="M355.506,246.072V98.07c0-1.381,1.119-2.5,2.5-2.5h-20.001c-1.381,0-2.5,1.119-2.5,2.5v148.002
		c0,1.381,1.119,2.5,2.5,2.5h20.001C356.625,248.572,355.506,247.453,355.506,246.072z"/>
	<path style="fill:#EAE8E8;" d="M69.544,246.072c0-156.03-1.071-150.499,2.498-150.502c-21.556-0.001-20.765-0.269-21.766,0.732
		c-1.089,1.088-0.732-8.568-0.732,149.769c0,1.381,1.119,2.5,2.5,2.5h20.001C70.663,248.572,69.544,247.453,69.544,246.072z"/>
	<path style="fill:#EAE8E8;" d="M69.544,424.216c0-156.102-1.063-150.477,2.485-150.5c-21.533-0.002-20.751-0.271-21.753,0.729
		c-0.469,0.47-0.732,1.105-0.732,1.769v148.002c0,1.381,1.119,2.5,2.5,2.5h20.001C70.663,426.716,69.544,425.597,69.544,424.216z"/>
</g>
<path d="M166.545,430.781c1.405,1.99,3.689,3.172,6.125,3.172h84.043c4.142,0,7.5-3.358,7.5-7.5v-4.888l2.398,7.244
	c1.016,3.07,3.886,5.144,7.12,5.144h43.46c5.178,0,8.797-5.131,7.069-10.007l-54.235-153.001c-1.061-2.994-3.893-4.995-7.069-4.995
	h-36.053c-3.176,0-6.008,2.001-7.068,4.994l-33.126,93.452c7.557-51.542-25.897-98.209-69.326-98.439
	c-0.107-0.005-0.213-0.007-0.32-0.007h-67.52c-4.142,0-7.5,3.358-7.5,7.5c0,164.643-0.942,155.164,2.197,158.307
	c3.026,3.026-0.014,2.196,72.823,2.196c23.627,0,44.57-13.85,57.418-35.06l-8.881,25.052
	C164.786,426.243,165.139,428.791,166.545,430.781z M117.064,418.952H57.043V280.951h59.722c0.1,0.004,0.199,0.006,0.299,0.006
	c30.721,0,55.713,30.952,55.713,68.996C172.776,388,147.783,418.952,117.064,418.952z M232.204,280.951h25.454l48.919,138.001
	H279.15l-27.1-81.872c-2.266-6.842-11.982-6.829-14.241,0.001l-18.576,56.127c-1.602,4.845,2.009,9.857,7.12,9.857h22.858v15.888
	h-65.926L232.204,280.951z M253.125,388.064h-16.387l8.192-24.755L253.125,388.064z"/>
<path d="M380.359,188.994l37.032,63.11c1.346,2.295,3.808,3.705,6.468,3.705h37.352c4.143,0,7.5-3.358,7.5-7.5V95.307
	c0-4.142-3.357-7.5-7.5-7.5h-37.352c-4.142,0-7.5,3.358-7.5,7.5v59.315l-37.031-63.111c-1.347-2.294-3.808-3.704-6.469-3.704
	h-37.352c-4.143,0-7.5,3.358-7.5,7.5v145.761L275.45,92.803c-1.062-2.995-3.894-4.996-7.07-4.996h-36.053
	c-3.176,0-6.008,2.001-7.068,4.994l-41.566,117.257c0.844-14.75-5.109-28.652-15.378-38.249
	c9.722-9.086,15.464-21.926,15.464-35.464c0-26.765-21.773-48.538-48.538-48.538l-85.698,0c-4.142,0-7.5,3.358-7.5,7.5
	c0,164.647-0.941,155.166,2.197,158.306c3.065,3.066-1.651,2.197,91.002,2.197c16.223,0,30.602-8.007,39.42-20.269
	c-3.597,10.148-5.515,13.104-2.694,17.097c1.405,1.989,3.689,3.172,6.125,3.172h84.044c4.142,0,7.5-3.358,7.5-7.5v-4.885
	l2.396,7.242c1.017,3.07,3.887,5.143,7.12,5.143h43.461c2.522,0,5.006-1.267,6.442-3.684c1.307,2.203,3.701,3.684,6.448,3.684
	h37.352c4.142,0,7.5-3.358,7.5-7.5v-59.315H380.359z M135.241,240.809H57.043V102.807l78.198,0.001
	c18.492,0,33.537,15.044,33.537,33.537c0,11.874-6.408,22.978-16.726,28.981c-2.308,1.343-3.729,3.812-3.729,6.483
	c0,2.67,1.42,5.14,3.729,6.482c10.317,6.002,16.726,17.107,16.726,28.981C168.778,225.765,153.733,240.809,135.241,240.809z
	 M284.572,240.809l-27.1-81.873c-1.016-3.07-3.886-5.143-7.12-5.143c-3.233,0-6.104,2.073-7.12,5.144l-18.575,56.126
	c-0.756,2.287-0.369,4.796,1.041,6.748c1.41,1.952,3.672,3.108,6.079,3.108h22.858v15.888h-65.927l48.917-138.001h25.454
	l48.918,138.001h-27.425V240.809z M258.547,209.92H242.16l8.193-24.755L258.547,209.92z M370.892,154.154
	c-3.267,0.887-5.534,3.853-5.534,7.237v79.417h-22.351V102.807h25.557l48.828,83.213c3.836,6.541,13.969,3.845,13.969-3.796v-79.417
	h22.351v138.001h-25.557l-48.827-83.212C377.613,154.676,374.156,153.265,370.892,154.154z"/>
<path d="M121.821,163.861c12.452,0,22.582-10.131,22.582-22.582c0-12.451-10.13-22.58-22.58-22.58H86.894
	c-4.142,0-7.5,3.358-7.5,7.5v91.222c0,4.142,3.358,7.5,7.5,7.5c49.189,0,30.568,0.002,34.931,0.002
	c12.45-0.002,22.578-10.133,22.578-22.582c0-12.316-9.908-22.36-22.172-22.579c-0.135-0.008-0.27-0.011-0.406-0.011h-9.843v-15.889
	L121.821,163.861L121.821,163.861z M104.482,194.75h17.008c10.922,0.485,9.943,15.001,0.469,15.17
	c-0.045-0.001-0.091-0.001-0.136-0.001H94.394v-76.221l27.428-0.001c4.18,0,7.58,3.401,7.58,7.581c0,4.18-3.4,7.581-7.581,7.581
	h-17.339c-4.142,0-7.5,3.358-7.5,7.5v30.89C96.981,191.392,100.341,194.75,104.482,194.75z"/>
<path d="M117.063,296.84H86.894c-4.142,0-7.5,3.358-7.5,7.5v91.224c0,4.142,3.358,7.5,7.5,7.5h30.169
	c19.915,0,35.515-23.33,35.515-53.113C152.578,320.169,136.978,296.84,117.063,296.84z M117.063,388.064H94.394v-76.223h22.668
	c9.703,0,20.514,15.651,20.514,38.11S126.765,388.064,117.063,388.064z"/>
<path d="M477.471,0h-203.97c-4.143,0-7.5,3.358-7.5,7.5s3.357,7.5,7.5,7.5h203.97c10.768,0,19.526,8.76,19.526,19.526v442.945
	c0,10.767-8.76,19.526-19.526,19.526H34.528C23.761,496.999,15,488.24,15,477.472V34.527c0-10.767,8.761-19.526,19.527-19.526
	h203.971c4.142,0,7.5-3.358,7.5-7.5s-3.358-7.5-7.5-7.5H34.528C15.489,0,0.001,15.489,0.001,34.527v442.945
	c0,19.039,15.489,34.527,34.527,34.527h442.944c19.039,0,34.527-15.489,34.527-34.527V34.527C511.999,15.489,496.511,0,477.471,0z"
	/>
<path d="M370.702,333.597c4.143,0,7.5-3.358,7.5-7.5v-52.646c0-4.142-3.357-7.5-7.5-7.5H333.35c-4.142,0-7.5,3.358-7.5,7.5v153.002
	c0,4.142,3.358,7.5,7.5,7.5h37.352c4.143,0,7.5-3.358,7.5-7.5v-65.354c0-4.142-3.357-7.5-7.5-7.5c-4.142,0-7.5,3.358-7.5,7.5v57.853
	H340.85V280.951h22.351v45.146C363.201,330.239,366.561,333.597,370.702,333.597z"/>
<g>
</g>
<g>
</g>
<g>
</g>
<g>
</g>
<g>
</g>
<g>
</g>
<g>
</g>
<g>
</g>
<g>
</g>
<g>
</g>
<g>
</g>
<g>
</g>
<g>
</g>
<g>
</g>
<g>
</g>
</svg>
