<?xml version="1.0" encoding="iso-8859-1"?>
<!-- Generator: Adobe Illustrator 19.0.0, SVG Export Plug-In . SVG Version: 6.00 Build 0)  -->
<svg version="1.1" id="Capa_1" xmlns="http://www.w3.org/2000/svg" xmlns:xlink="http://www.w3.org/1999/xlink" x="0px" y="0px"
	 viewBox="0 0 512 512" style="enable-background:new 0 0 512 512;" xml:space="preserve">
<g>
	<path style="fill:#8DD83D;" d="M53.621,192.025c8.026,0.982,17.917,4.578,29.399,10.689c0.726,0.386,1.614,0.397,2.362-0.007
		c11.321-6.111,21.148-9.727,29.213-10.746c2.476-0.313,3.01-3.692,0.739-4.747c-19.453-9.033-41.784-9.625-62.47,0.066
		c-1.009,0.473-1.584,1.557-1.408,2.657C51.631,191.039,52.514,191.89,53.621,192.025z"/>
	<path style="fill:#8DD83D;" d="M136.418,306.219c-0.132-0.963-3.778-24.031-50.873-62.966c-0.913-0.754-2.229-0.766-3.153-0.027
		c-41.481,33.121-56.261,64.802-49.483,70.64c16.019,13.817,31.346,19.714,51.25,19.714c21.629,0,35.34-7.258,50.453-18.969
		c2.917-2.263,1.858-8.102,1.826-8.267L136.418,306.219z"/>
	<path style="fill:#8DD83D;" d="M136.824,202.306c-8.441-1.355-24.369,12.968-30.541,18.965c-0.923,0.897-1.014,2.349-0.211,3.354
		c30.357,37.957,38.036,59.632,39.133,71.13c0.102,1.07,0.878,1.956,1.925,2.198c1.057,0.244,2.138-0.22,2.695-1.128
		c7.304-11.91,11.165-25.693,11.165-39.859C160.99,225.709,139.609,202.752,136.824,202.306z"/>
	<path style="fill:#8DD83D;" d="M62.119,221.272c-17.688-17.186-26.524-19.042-29.501-19.042c-0.371,0-0.719,0.026-1.035,0.077
		c-0.516,0.083-0.993,0.325-1.364,0.693C5.515,227.484-0.184,266.236,18.58,296.827c0.461,0.752,1.274,1.193,2.13,1.193
		c1.29,0,2.367-0.981,2.489-2.263c1.096-11.499,8.775-33.172,39.129-71.131C63.132,223.62,63.042,222.169,62.119,221.272z"/>
</g>
<g>
	<path style="fill:#79C422;" d="M36.756,293.619c-4.078,7.513-5.012,11.869-5.039,12.009c-0.368,2.263-0.576,6.714,1.193,8.238
		c16.019,13.817,31.346,19.714,51.25,19.714c3.646,0,7.051-0.223,10.292-0.622C69.517,329.833,48.302,314.755,36.756,293.619z"/>
	<path style="fill:#79C422;" d="M27.413,256.923c0-18.838,6.807-36.079,18.081-49.425c-6.981-4.558-11.043-5.268-12.876-5.268
		c-0.371,0-0.719,0.026-1.035,0.077c-0.516,0.083-0.993,0.325-1.364,0.693C5.515,227.483-0.184,266.235,18.58,296.826
		c0.461,0.752,1.274,1.193,2.13,1.193c1.29,0,2.367-0.981,2.489-2.263c0.471-4.938,2.163-11.76,6.336-20.935
		C28.161,269.077,27.413,263.089,27.413,256.923z"/>
	<path style="fill:#79C422;" d="M60.984,193.52c9.663-6.579,20.912-10.989,33.049-12.577c-15.304-2.05-28.68,0.486-41.169,6.337
		c-1.009,0.473-1.584,1.557-1.408,2.657C51.873,192.56,53.867,191.58,60.984,193.52z"/>
</g>
<path d="M340.262,258.396c-1.71-1.526-3.634-2.746-5.48-4.06c15.111-9.519,11.494-29.661,1.737-37.468
	c-10.271-8.214-19.016-6.561-57.208-6.594c-1.699,0-3.065,1.377-3.065,3.062v36.659h-10.688c-0.982,0-1.906,0.472-2.481,1.269
	l-3.284,4.544c-0.673,0.932-0.768,2.163-0.245,3.186c0.524,1.024,1.577,1.668,2.727,1.668h14.029v40.057
	c0,1.69,1.37,3.06,3.06,3.061c33.475,0.029,38.254-0.011,44.205-0.898c14.511-2.157,23.587-11.524,24.277-25.056
	C348.26,269.797,345.709,263.261,340.262,258.396z M287.964,221.288c1.002-0.163,21.66-0.122,28.112,0.03
	c2.708,0.064,5.701,0.619,8.656,1.603c5.402,1.804,8.366,5.813,8.569,11.597c0.219,6.337-2.309,10.754-7.513,13.127
	c-6.462,2.947-8.322,2.346-37.825,2.33v-28.687H287.964z M314.419,292.91c-3.565,0.037-25.076,0.115-26.468-0.052v-32.23
	c26.616,0,47.366-2.885,48.32,14.588C336.955,287.708,327.183,292.79,314.419,292.91z"/>
<path d="M389.86,208.609c-29.554,3.934-43.024,32.228-37.299,60.768c4.623,23.056,22.761,37.651,45.838,36.333
	C459.794,302.229,452.499,200.163,389.86,208.609z M395.377,294.715c-13.146-0.225-22.428-6.346-28.375-18.714
	c-2.668-5.547-3.954-11.774-3.931-19.022c0.37-46.984,56.11-49.949,64.588-10.887C432.948,270.465,420.749,295.127,395.377,294.715z
	"/>
<path d="M479.09,254.85c31.471-42.702,30.627-40.487,29.458-42.804c-1.083-2.144-2.866-1.681-8.869-1.681
	c-2.132,0-0.396-1.562-27.55,35.281c-27.063-36.683-25.378-35.208-27.52-35.208c-6.027,0-7.796-0.455-8.874,1.681
	c-1.19,2.355-1.944,0.2,29.427,42.734c-34.869,47.507-33.703,44.847-32.533,47.16c0.522,1.029,1.578,1.678,2.732,1.678
	c6.308,0,7.45,0.344,8.622-1.244l28.144-38.167c30.527,41.366,28.451,39.342,30.581,39.342c6.027,0,7.797,0.456,8.878-1.678
	C512.765,299.615,513.783,302.101,479.09,254.85z"/>
<path d="M237.118,254.85c31.37-42.534,30.646-40.471,29.473-42.796c-1.084-2.144-2.863-1.682-8.868-1.682
	c-2.13,0-0.4-1.553-27.575,35.281c-27.037-36.702-25.361-35.234-27.502-35.234h-6.108c-2.502,0-3.954,2.857-2.464,4.877
	l29.147,39.552l-32.285,43.95c-0.683,0.93-0.785,2.165-0.264,3.195c0.521,1.029,1.578,1.679,2.732,1.679h6.171
	c0.973,0,1.887-0.462,2.464-1.245c9.329-12.655,18.668-25.32,28.128-38.144c30.556,41.409,28.482,39.39,30.612,39.39
	c0.095,0,6.213,0,6.183,0c2.671,0,4.035-3.175,2.267-5.119L237.118,254.85z"/>
<path d="M160.353,244.523c-4.132,0.29-7.246,3.874-6.956,8.005c0.121,1.727,0.177,3.138,0.177,4.437
	c0,8.341-1.446,16.421-4.253,24.003c-4.546-13.193-14.402-31.799-34.454-57.419c11.113-10.24,17.263-12.893,19.727-13.58
	c3.481,3.697,6.585,7.838,9.253,12.345c2.11,3.563,6.71,4.742,10.274,2.633c3.564-2.11,4.742-6.709,2.633-10.274
	c-3.837-6.48-8.436-12.355-13.671-17.46c-0.43-0.419-0.909-0.786-1.427-1.091c-1.638-0.966-4.091-1.717-7.6-1.312
	c0.53-2.721-0.472-5.62-2.81-7.402c-0.24-0.183-0.629-0.456-1.169-0.761c-10.623-6.479-25.418-13.877-45.834-13.877
	c-20.006,0-33.048,6.432-45.686,13.635c-1.183,0.575-1.965,1.135-2.426,1.517c-2.075,1.72-2.998,4.34-2.634,6.852
	c-2.901-0.139-5.908,0.395-8.005,2.44C9.291,213.01,0,234.789,0,256.966c0,19.044,6.543,37.698,18.425,52.526l5.852-4.689
	l0.073-0.043c-0.605,4.018-0.808,10.86,3.742,14.782c17.056,14.712,34.214,19.689,38.56,19.689c8.862,0,10.326-12.862,1.639-14.817
	c-10.276-2.312-19.597-7.162-29.224-15.226c-0.207-7.093,12.504-30.864,44.918-57.531c33.059,28.005,45.671,50.661,45.224,57.713
	c-11.036,8.439-19.571,12.819-29.247,15.041c-4.037,0.927-6.558,4.95-5.63,8.987c0.926,4.036,4.949,6.557,8.987,5.63
	c12.062-2.769,22.818-8.298,35.971-18.491c4.704-3.649,5.608-10.172,4.53-16.014c0.739,0.433-0.174-0.242,6.329,4.967
	c11.881-14.831,18.423-33.485,18.423-52.525c0-1.658-0.068-3.402-0.214-5.486C168.068,247.348,164.475,244.228,160.353,244.523z
	 M97.047,189.004c-4.039,1.571-8.304,3.524-12.787,5.854c-4.579-2.346-8.932-4.305-13.049-5.877
	C79.014,187.436,88.326,187.274,97.047,189.004z M19.252,280.97c-2.809-7.582-4.253-15.661-4.253-24.004
	c0-16.974,7.054-34.337,18.988-47.004c2.459,0.676,8.578,3.313,19.718,13.586C33.651,249.172,23.797,267.776,19.252,280.97z
	 M88.81,236.16c-2.723-2.225-6.624-2.26-9.386-0.085c-23.721,18.68-37.322,35.041-45.06,47.037
	c4.486-11.656,14.29-29.524,35.295-55.533c2.414-2.99,2.178-7.32-0.547-10.03c-8.344-8.295-15.787-14.334-22.287-18.114
	c9.626-1.55,25.353,5.881,33.887,10.508c2.235,1.211,4.943,1.213,7.189-0.023c16.978-9.344,26.672-10.74,30.939-10.74
	c1.346,0,2.299,0.132,2.93,0.265c-5.92,3.44-13.255,9.099-22.314,18.103c-2.726,2.71-2.962,7.041-0.547,10.031
	c21.845,27.049,31.575,45.291,35.809,56.899C127.181,272.723,113.53,256.366,88.81,236.16z"/>
<g>
</g>
<g>
</g>
<g>
</g>
<g>
</g>
<g>
</g>
<g>
</g>
<g>
</g>
<g>
</g>
<g>
</g>
<g>
</g>
<g>
</g>
<g>
</g>
<g>
</g>
<g>
</g>
<g>
</g>
</svg>
