<?xml version="1.0" encoding="iso-8859-1"?>
<!-- Generator: Adobe Illustrator 19.0.0, SVG Export Plug-In . SVG Version: 6.00 Build 0)  -->
<svg version="1.1" id="Capa_1" xmlns="http://www.w3.org/2000/svg" xmlns:xlink="http://www.w3.org/1999/xlink" x="0px" y="0px"
	 viewBox="0 0 512 512" style="enable-background:new 0 0 512 512;" xml:space="preserve">
<path style="fill:#989DA0;" d="M504.5,403.456c0,6.627-5.372,12.001-12.001,12.001H19.501c-6.627,0-12.001-5.373-12.001-12.001
	V108.544c0-6.628,5.373-12.001,12.001-12.001h472.998c6.628,0,12.001,5.372,12.001,12.001V403.456z"/>
<path style="fill:#818689;" d="M28.493,403.456V108.544c0-6.627,5.373-12.001,12.001-12.001H19.501
	c-6.627,0-12.001,5.373-12.001,12.001v294.913c0,6.628,5.373,12.001,12.001,12.001h20.992
	C33.866,415.457,28.493,410.085,28.493,403.456z"/>
<circle style="fill:#FFFFFF;" cx="255.995" cy="217.743" r="67.856"/>
<path style="fill:#EAE8E8;" d="M207.146,217.746c0-34.25,25.38-62.557,58.356-67.18c-41.069-5.759-77.357,26.1-77.357,67.18
	c0,41.028,36.236,72.945,77.357,67.18C232.525,280.304,207.146,251.996,207.146,217.746z"/>
<path d="M276.734,167.499c-34.704-14.72-73.879,9.786-75.501,47.61c-0.127,2.901,4.003,3.63,4.881,0.861
	c5.75-18.19,23.493-30.5,43.233-28.558c46.814,4.073,47.64,70.517,8.772,70.517c-12.753,0.001-24.029-8.314-26.978-20.542
	c-4.282-17.426,9.667-34.487,28.061-33.254c3.039,0.19,3.696-4.083,0.88-4.897c-27.233-10.17-53.944,15.376-46.173,42.296
	c10.201,37.353,59.379,39.578,83.359,13.206c14.236-15.554,17.523-37.808,10.198-56.111
	C301.643,183.93,289.522,172.885,276.734,167.499z"/>
<path d="M242.579,230.8c-1.722,4.215-0.498,9.105,2.731,12.001c1.928,1.802,4.605,2.835,7.347,2.836c0.55,0,1.1-0.044,1.624-0.126
	c5.514-0.825,10.075-6.09,8.968-12.641c-0.185-1.026-0.39-2.066-1.4-1.921c-1.311,0.196-0.452,1.38-1.371,3.781
	c-1.236,3.586-5.377,6.14-9.44,5.214c-3.914-0.713-6.908-4.685-6.537-8.674C244.607,230.132,243.011,229.741,242.579,230.8z"/>
<path d="M284.313,152.695c-47.23-20.573-99.49,14.773-99.589,64.754c-0.914,55.608,61.223,91.345,109.226,61.069
	C342.582,248.003,336.653,175.189,284.313,152.695z M292.1,271.974c-50.037,33.792-115.536-14.15-98.272-72.238
	c14.492-49.339,79.257-63.276,112.425-22.506c5.344,6.545,9.394,14.148,11.822,22.241C326.315,226.82,315.581,256.296,292.1,271.974
	z"/>
<path d="M264.039,246.363c-0.561,0.487-0.682,1.311-0.283,1.937c0.402,0.633,1.203,0.865,1.874,0.567
	c10.888-4.827,15.174-17.773,10.002-27.957c-8.541-17.156-34.403-14.089-38.422,4.977c-0.153,0.728,0.25,1.459,0.949,1.716
	c2.007,0.746,1.618-1.871,5.348-5.024c7.025-6.137,18.336-4.726,23.513,3.519c2.273,3.531,3.008,8.091,1.963,12.209
	C268.229,241.391,266.473,244.25,264.039,246.363z"/>
<path d="M330.523,313.028c-38.817,0.01-42.909-0.811-48.451,3.075c-6.126,3.904-5.152,12.093-5.152,19.573
	c0.023,12.644,0.32,20.1,19.528,20.1c19.921,0,30.44,1.414,34.845-6.344c2.158-4.022,1.731-6.167,1.731-33.903
	c0-0.663-0.264-1.299-0.732-1.768C331.829,313.297,331.195,313.028,330.523,313.028z M290.678,333.353
	c-0.075-5.449,0.701-5.985,2.627-8.251c0.393,0.08,0.801,0.068,1.195-0.045c1.91-0.546,1.957-0.419,24.661-0.416
	c0,20.463,1.932,19.467-13.018,19.467c-8.935-0.004-13.164,0.574-14.582-2.261c-0.93-1.988-0.904-4.214-0.879-6.407
	C290.699,334.109,290.69,334.126,290.678,333.353z"/>
<path d="M183.337,333.723c1.825-0.781,3.047-2.03,3.553-3.083c1.467-3.096,2.244-12.104-2.988-15.222
	c-5.027-3.014-8.944-2.428-45.933-2.383c-1.379,0.001-2.497,1.12-2.497,2.5c-0.003,16.32-0.005,27.209-0.001,37.724
	c0,1.38,1.119,2.499,2.5,2.499c41.771,0,43.413,0.657,47.784-2.309c2.264-1.539,3.297-4.55,3.504-6.982
	c0.269-3.214,0.301-6.58-1.283-9.438C186.937,335.192,185.071,334.255,183.337,333.723z M149.222,345.074
	c-0.006-1.497-0.002-1.975-0.004-6.067c23.595-0.001,24.965-0.469,25.801,1.403c0.679,1.821,0.227,3.429-0.446,4.006
	c-0.845,0.542-1.971,0.605-2.977,0.654C150.079,345.073,162.802,345.067,149.222,345.074z M149.22,329.409
	c0.002-1.716,0-2.665-0.001-5.659c23.021,0.006,24.1-0.525,24.757,1.391c0.499,1.644,0.106,3.066-0.439,3.641
	c-1.051,0.82-2.182,0.635-9.817,0.63C152.374,329.412,159.975,329.417,149.22,329.409z"/>
<path d="M207.708,313.027l-3.777-0.002c-1.654,0-3.307,0.001-4.961,0.004c-1.379,0.003-2.495,1.121-2.495,2.5v37.728
	c0,1.381,1.119,2.5,2.5,2.5h8.733c1.38,0,2.499-1.119,2.5-2.499c0.006-12.582,0.006-25.155,0-37.732
	C210.206,314.146,209.088,313.027,207.708,313.027z"/>
<path d="M123.859,313.025c-5.252,0.002-3.381,0.002-8.748,0c-1.384,0-2.5,1.12-2.501,2.499
	c-0.019,30.097,2.282,28.569-11.632,28.584c-16.812,0-13.897,2.228-13.929-28.585c-0.002-1.38-1.121-2.497-2.5-2.497
	c-0.003,0-8.653,0.002-8.689,0.002c-1.38,0-2.499,1.12-2.499,2.5c0,8.496,0.001,16.99,0.007,25.531
	c0.049,2.737,0.68,7.803,4.356,10.99c5.184,4.454,9.096,3.709,46.064,3.709c1.382,0,2.504-1.123,2.5-2.507
	c-0.033-12.547,0.123-25.219,0.071-37.735C126.355,314.141,125.24,313.025,123.859,313.025z"/>
<path d="M383.177,313.033c-13.04-0.011-26.08-0.007-39.115,0c-1.379,0.001-2.498,1.119-2.498,2.499
	c-0.006,12.573-0.006,25.151,0,37.726c0,1.38,1.119,2.499,2.5,2.499h8.73c1.38,0,2.498-1.117,2.5-2.496
	c0.006-3.915-0.003-7.105,0.003-10.982c6.053-0.003,7.113-0.001,26.494-0.005c1.38-0.001,2.498-1.119,2.499-2.499l-0.001-6.675
	c-0.001-1.38-1.12-2.499-2.5-2.499c-17.614-0.002-7.884,0.003-26.494-0.004c-0.004-2.055,0.001-4.05-0.004-5.929
	c8.831-0.006,17.599-0.004,27.887-0.003c1.379,0,2.498-1.119,2.5-2.498l-0.002-6.634
	C385.674,314.152,384.556,313.034,383.177,313.033z"/>
<path d="M436.137,313.034c-14.771-0.008-29.541-0.008-44.312,0c-1.38,0.001-2.498,1.119-2.498,2.499l-0.002,6.606
	c0,1.38,1.119,2.498,2.499,2.499l15.314,0.003v28.617c0,1.381,1.119,2.5,2.5,2.5h8.685c1.381,0,2.5-1.119,2.5-2.5v-28.617
	l15.312-0.003c1.38,0,2.498-1.118,2.5-2.497c0.003-2.205,0.003-4.409,0-6.611C438.634,314.151,437.516,313.035,436.137,313.034z"/>
<path d="M271.508,342.565c-0.103-4.202,1.578-13.542-10.683-13.542c-28.668-0.083-28.121,1.276-28.109-5.274
	c25.47,0.042,24.261-0.345,24.728,0.791c0.776,1.886,2.385,1.59,7.229,1.59c2.675,0,3.713,0.234,4.686-0.766
	c0.467-0.481,0.722-1.13,0.706-1.801c-0.06-2.517-0.432-5.675-2.843-7.81c-4.27-3.604-7.613-2.689-45.542-2.729
	c-1.373-0.001-2.496,1.107-2.504,2.487c-0.066,12.997-0.922,18.708,4.394,22.394c3.722,2.667,6.028,2.25,34.317,2.144
	c0.105,5.466,0.461,5.001-9.987,5.019c-16.241,0.028-15.974,0.382-16.391-0.949c-0.327-1.04-1.289-1.748-2.378-1.75
	c-2.828-0.003-1.463-0.003-7.871-0.003c-1.373,0-2.489,1.108-2.5,2.482c-0.016,2.309,0.094,4.956,1.613,7.117
	c2.327,3.385,6.828,3.781,8.674,3.794c32.956-0.004,25.967,0.053,32.69-0.129c3.634-0.418,6.395-1.79,8.055-4.02
	C271.801,348.977,271.521,345.725,271.508,342.565z"/>
<path d="M504.5,314.115c-4.142,0-7.5-3.358-7.5-7.5V108.544c0-2.481-2.018-4.5-4.5-4.5H273.501c-4.142,0-7.5-3.358-7.5-7.5
	s3.358-7.5,7.5-7.5h218.997c10.754,0,19.501,8.749,19.501,19.501v198.071C512,310.757,508.642,314.115,504.5,314.115z"/>
<path d="M492.499,422.958H19.501C8.749,422.958,0,414.21,0,403.456V108.544c0-10.753,8.749-19.501,19.501-19.501h218.997
	c4.143,0,7.5,3.358,7.5,7.5s-3.357,7.5-7.5,7.5H19.501c-2.48,0-4.5,2.019-4.5,4.5v294.913c0,2.482,2.02,4.5,4.5,4.5h472.998
	c2.482,0,4.5-2.018,4.5-4.5v-61.839c0-4.142,3.358-7.5,7.5-7.5s7.5,3.358,7.5,7.5v61.839
	C512,414.209,503.252,422.958,492.499,422.958z"/>
<g>
</g>
<g>
</g>
<g>
</g>
<g>
</g>
<g>
</g>
<g>
</g>
<g>
</g>
<g>
</g>
<g>
</g>
<g>
</g>
<g>
</g>
<g>
</g>
<g>
</g>
<g>
</g>
<g>
</g>
</svg>
