<?xml version="1.0" encoding="iso-8859-1"?>
<!-- Generator: Adobe Illustrator 19.0.0, SVG Export Plug-In . SVG Version: 6.00 Build 0)  -->
<svg version="1.1" id="Capa_1" xmlns="http://www.w3.org/2000/svg" xmlns:xlink="http://www.w3.org/1999/xlink" x="0px" y="0px"
	 viewBox="0 0 512 512" style="enable-background:new 0 0 512 512;" xml:space="preserve">
<path style="fill:#6EDCF9;" d="M504.5,337.452c0,6.628-5.371,12.001-12.001,12.001H19.501c-6.627,0-12.001-5.372-12.001-12.001
	V174.548c0-6.627,5.373-12.001,12.001-12.001h472.998c6.629,0,12.001,5.373,12.001,12.001V337.452z"/>
<path style="fill:#45C6E5;" d="M28.494,337.452V174.548c0-6.627,5.373-12.001,12.001-12.001H19.501
	c-6.627,0-12.001,5.373-12.001,12.001v162.905c0,6.628,5.373,12.001,12.001,12.001h20.993
	C33.867,349.453,28.494,344.081,28.494,337.452z"/>
<path d="M89.72,244.769c-0.092,0-0.182,0.012-0.27,0.037c-14.946,4.178-23.288,14.157-22.315,26.694
	c0.953,12.268,10.771,22.948,22.351,24.315c0.039,0.004,0.078,0.007,0.117,0.007h51.071c0.553,0,1-0.448,1-1
	c0-9.359,0.332-10.177-1-10.177H91.277l-0.061-0.016c-4.189-1.08-10.456-6.231-11.319-13.096
	c-0.535-4.256,0.973-10.511,11.202-16.133l0.113-0.062c52.672,0,50.462,0.429,50.462-1v-8.57
	C141.675,244.341,144.021,244.769,89.72,244.769z"/>
<path d="M149.154,244.769c-0.553,0-1,0.448-1,1c0,8.676-0.331,9.57,1,9.57h53.358c-11.982,11.982-12.353,11.813-11.94,12.814
	c0.409,0.991,0.837,0.617,14.147,0.617c0.264,0,0.518-0.104,0.705-0.29l12.665-12.556c0.477-0.473,0.295-0.462,0.295-10.155
	C218.384,244.336,222.327,244.769,149.154,244.769z"/>
<path d="M201.391,274.211c-0.188-0.188-0.441-0.293-0.707-0.293c-54.942,0-52.53-0.428-52.53,1v19.903c0,0.552,0.447,1,1,1h9.329
	c0.553,0,1-0.448,1-1v-11.177h34.953l22.241,22.242c0.191,0.191,0.447,0.293,0.707,0.293c0.55,0,1-0.444,1-1
	c0-14.175,0.186-13.792-0.293-14.271L201.391,274.211z"/>
<path d="M277.654,242.081l-25.895,24.527c-27.224-25.998-25.8-25.106-26.744-24.701c-0.971,0.414-0.607,0.867-0.607,13.31
	c0,0.265,0.105,0.52,0.293,0.707l17.493,17.493l-17.493,17.492c-0.188,0.188-0.293,0.442-0.293,0.707
	c0,13.837-0.371,14.197,0.605,14.617c0.366,0.158,0.79,0.084,1.082-0.192c0.486-0.46,53.245-50.179,53.245-50.848v-12.386
	C279.341,241.935,278.29,241.479,277.654,242.081z"/>
<path d="M403.319,245.386c-0.154-0.373-0.52-0.617-0.924-0.617c-122.711,0-116.458-0.477-116.458,1c0,8.676-0.331,9.57,1,9.57
	h26.623c0,42.224-0.387,40.482,1,40.482h10.124c0.553,0,1-0.448,1-1v-39.482c72.872,0,68.392,0.163,68.848-0.293
	C403.112,246.466,403.726,246.372,403.319,245.386z"/>
<path d="M386.326,285.254c-56.211,0-53.702-0.429-53.702,1c0,8.665-0.333,9.567,1,9.567h52.702c1.329,0,1-0.889,1-9.567
	C387.326,285.702,386.878,285.254,386.326,285.254z"/>
<path d="M333.623,264.477c-0.553,0-1,0.448-1,1c0,8.676-0.331,9.57,1,9.57c56.211,0,53.702,0.429,53.702-1v-8.57
	C387.326,264.048,389.836,264.477,333.623,264.477z"/>
<path d="M412.388,263.977l17.501-17.501c0.627-0.629,0.181-1.707-0.707-1.707c-15.92,0-15.332-0.173-15.798,0.293l-18.829,18.829
	c-0.188,0.188-0.293,0.442-0.293,0.707c0,32.375-0.378,31.224,1,31.224c11.078,0,11.7,0.333,11.7-1v-20.481l21.189,21.189
	c0.188,0.188,0.441,0.293,0.707,0.293c13.023,0,13.475,0.374,13.884-0.617C443.139,294.243,444.486,296.075,412.388,263.977z"/>
<path d="M233.647,240.213c0.191,0.191,0.447,0.293,0.707,0.293c0.553,0,1-0.449,1-1c0-17.016,0.383-17.162-0.617-17.575
	c-0.373-0.154-0.803-0.07-1.09,0.217c-8.37,8.37-9.326,8.739-8.325,9.739L233.647,240.213z"/>
<path d="M270.1,240.214l8.326-8.327c1-1,0.05-1.364-8.326-9.739c-0.624-0.627-1.707-0.185-1.707,0.707v16.652
	C268.393,240.398,269.473,240.841,270.1,240.214z"/>
<path d="M260.18,214.643c0.888,0,1.336-1.081,0.707-1.707c-8.371-8.368-8.741-9.326-9.741-8.325
	C238.98,216.774,237.699,214.643,260.18,214.643z"/>
<path d="M243.531,247.701c-0.888,0-1.336,1.081-0.707,1.707l8.327,8.324c0.195,0.195,0.451,0.293,0.707,0.293
	c0.256,0,0.512-0.098,0.707-0.293l8.325-8.324c0.287-0.286,0.373-0.716,0.217-1.09C260.693,247.318,260.552,247.701,243.531,247.701
	z"/>
<path d="M504.5,249.111c-4.142,0-7.5-3.357-7.5-7.5v-67.063c0-2.481-2.017-4.5-4.5-4.5H273.501c-4.143,0-7.5-3.358-7.5-7.5
	c0-4.143,3.357-7.5,7.5-7.5h218.997c10.753,0,19.501,8.748,19.501,19.501v67.063C512,245.753,508.642,249.111,504.5,249.111z"/>
<path d="M492.499,356.954H19.501C8.749,356.954,0,348.205,0,337.452V174.548c0-10.754,8.749-19.501,19.501-19.501h218.997
	c4.143,0,7.5,3.357,7.5,7.5c0,4.142-3.357,7.5-7.5,7.5H19.501c-2.48,0-4.5,2.019-4.5,4.5v162.905c0,2.481,2.02,4.5,4.5,4.5h472.998
	c2.483,0,4.5-2.019,4.5-4.5v-60.84c0-4.142,3.358-7.5,7.5-7.5c4.143,0,7.5,3.358,7.5,7.5v60.84
	C512,348.205,503.251,356.954,492.499,356.954z"/>
<g>
</g>
<g>
</g>
<g>
</g>
<g>
</g>
<g>
</g>
<g>
</g>
<g>
</g>
<g>
</g>
<g>
</g>
<g>
</g>
<g>
</g>
<g>
</g>
<g>
</g>
<g>
</g>
<g>
</g>
</svg>
