<?xml version="1.0" encoding="iso-8859-1"?>
<!-- Generator: Adobe Illustrator 19.0.0, SVG Export Plug-In . SVG Version: 6.00 Build 0)  -->
<svg version="1.1" id="Capa_1" xmlns="http://www.w3.org/2000/svg" xmlns:xlink="http://www.w3.org/1999/xlink" x="0px" y="0px"
	 viewBox="0 0 512 512" style="enable-background:new 0 0 512 512;" xml:space="preserve">
<path style="fill:#4A94CC;" d="M504.501,337.452c0,6.627-5.373,12.001-12.001,12.001H19.502c-6.627,0-12.001-5.373-12.001-12.001
	V174.548c0-6.628,5.373-12.001,12.001-12.001H492.5c6.627,0,12.001,5.372,12.001,12.001V337.452z"/>
<path style="fill:#2884BC;" d="M27.503,337.452V174.548c0-6.628,5.373-12.001,12.001-12.001H19.502
	c-6.627,0-12.001,5.372-12.001,12.001v162.905c0,6.627,5.373,12.001,12.001,12.001h20.001
	C32.876,349.453,27.503,344.08,27.503,337.452z"/>
<path d="M397.057,278.524c-14.525,0-12.454-2.02-12.454,11.421c0,1.381,1.119,2.5,2.5,2.5c3.513,0,24.556,0,28.072,0
	c1.381,0,2.5-1.119,2.5-2.5c0-0.536-19.69-59.079-19.86-59.587c-2.375-7.888-4.398-11.11-5.678-12.424
	c-0.467-0.482-1.109-0.754-1.781-0.756c-0.004,0-0.006,0-0.01,0c-0.668,0-1.309,0.268-1.779,0.743
	c-1.795,1.819-3.748,6.086-5.623,12.264c-28.68,84.476-27.312,79.054-26.242,80.544c0.967,1.351,1.12,1.044,13.095,1.044
	c2.469,0,0.945,2.493,20.097-53.927L397.057,278.524z"/>
<path d="M330.016,202.789h-52.165c-14.493,0-26.283,11.752-26.283,26.198v56.591c0,14.443,11.79,26.194,26.283,26.194h52.165
	c1.381,0,2.5-1.119,2.5-2.5v-65.394c0-1.381-1.119-2.5-2.5-2.5H292.78c-1.381,0-2.5,1.119-2.5,2.5v7.511c0,1.381,1.119,2.5,2.5,2.5
	h25.889v44.086h-39.527c-7.566,0-13.722-6.137-13.722-13.682v-54.019c0-7.545,6.154-13.684,13.722-13.684h50.876
	c1.381,0,2.5-1.119,2.5-2.5v-8.801C332.516,203.908,331.397,202.789,330.016,202.789z"/>
<path d="M330.016,222.083h-47.003c-6.664,0-12.087,5.405-12.087,12.05v46.301c0,6.643,5.422,12.049,12.087,12.049h27.648
	c1.381,0,2.5-1.119,2.5-2.5v-28.098c0-1.381-1.119-2.5-2.5-2.5h-17.882c-1.381,0-2.5,1.119-2.5,2.5v8.803c0,1.381,1.119,2.5,2.5,2.5
	h6.527v5.493h-9.845c-2.582,0-4.684-2.099-4.684-4.678v-33.441c0-2.579,2.102-4.677,4.684-4.677h40.553c1.381,0,2.5-1.119,2.5-2.5
	v-8.802C332.516,223.203,331.397,222.083,330.016,222.083z"/>
<path d="M240.986,202.789h-52.169c-14.491,0-26.281,11.752-26.281,26.198v55.985c0,14.443,11.79,26.194,26.281,26.194h52.169
	c1.381,0,2.5-1.119,2.5-2.5v-8.803c0-1.381-1.119-2.5-2.5-2.5h-50.876c-7.565,0-13.72-6.134-13.72-13.675v-53.414
	c0-7.545,6.154-13.684,13.72-13.684h50.876c1.381,0,2.5-1.119,2.5-2.5v-8.801C243.486,203.908,242.367,202.789,240.986,202.789z"/>
<path d="M240.986,222.083h-47.007c-6.664,0-12.087,5.405-12.087,12.05v17.257c0,1.381,1.119,2.5,2.5,2.5h44.982
	c1.381,0,2.5-1.119,2.5-2.5v-7.511c0-1.381-1.119-2.5-2.5-2.5h-33.632v-0.816c0-2.579,2.102-4.677,4.684-4.677h40.559
	c1.381,0,2.5-1.119,2.5-2.5v-8.802C243.486,223.203,242.367,222.083,240.986,222.083z"/>
<path d="M240.986,278.681h-40.559c-2.582,0-4.684-2.099-4.684-4.678v-0.815h33.631c1.381,0,2.5-1.119,2.5-2.5v-7.518
	c0-1.381-1.119-2.5-2.5-2.5h-44.982c-1.381,0-2.5,1.119-2.5,2.5v17.265c0,6.643,5.422,12.049,12.087,12.049h47.007
	c1.381,0,2.5-1.119,2.5-2.5v-8.802C243.486,279.8,242.367,278.681,240.986,278.681z"/>
<path d="M443.416,308.2l-29.781-90.436c-2.982-10.329-12.604-17.543-23.399-17.543c-10.794,0-20.413,7.214-23.378,17.491
	c-32.29,98.053-30.617,91.547-29.545,93.026c0.469,0.65,1.223,1.035,2.025,1.035c8.623,0,10.15,0.49,10.896-1.691l30.565-89.446
	c0.016-0.044,0.029-0.089,0.041-0.134c1.301-4.645,5.078-7.765,9.398-7.765c4.322,0,8.1,3.12,9.401,7.765
	c0.014,0.045,0.027,0.09,0.041,0.134l26.379,77.184l-38.949,0.007c-1.381,0-2.5,1.119-2.5,2.5l-0.002,8.946
	c0,1.382,1.122,2.501,2.5,2.501h54.032c0.008-0.001,0.014-0.001,0.022,0c1.381,0,2.5-1.119,2.5-2.5
	C443.658,308.889,443.57,308.525,443.416,308.2z"/>
<path d="M150.661,202.789h-47.007c-19.47,0-35.311,15.79-35.311,35.198c0,19.948,17.887,34.523,33.211,35.037l5.373,0.162h9.632
	c1.873,0,3.396,1.521,3.396,3.392c0,1.866-1.523,3.386-3.396,3.386H70.844c-1.381,0-2.5,1.119-2.5,2.5v7.517
	c0,1.381,1.119,2.5,2.5,2.5l46.931,0.001c0.029,0,0.061-0.001,0.09-0.002c8.942-0.323,15.944-7.593,15.944-16.55
	c0-9.124-7.447-16.547-16.601-16.547H97.477c-9.441-3.589-15.28-12.277-15.28-20.754c0-11.947,10.714-22.04,23.394-22.04h45.071
	c1.381,0,2.5-1.119,2.5-2.5v-8.801C153.161,203.908,152.042,202.789,150.661,202.789z"/>
<path d="M150.661,222.089l-46.884-0.004c-9.017,0.326-16.081,7.595-16.081,16.55c0,9.124,7.449,16.546,16.608,16.546h19.724
	c9.496,3.626,15.28,12.33,15.28,20.756c0,11.946-10.712,22.038-23.392,22.038H70.844c-1.381,0-2.5,1.119-2.5,2.5v8.803
	c0,1.381,1.119,2.5,2.5,2.5h47.007c19.47,0,35.311-15.791,35.311-35.199c0-17.834-14.515-33.22-33.043-35.027
	c-0.057-0.006-0.111-0.009-0.168-0.011l-5.426-0.162h-9.577c-1.875,0-3.398-1.518-3.398-3.385c0-1.87,1.523-3.392,3.398-3.392
	h45.714c1.381,0,2.5-1.119,2.5-2.5v-7.512C153.161,223.209,152.042,222.089,150.661,222.089z"/>
<path d="M504.5,249.111c-4.143,0-7.5-3.358-7.5-7.5v-67.063c0-2.481-2.019-4.5-4.5-4.5H273.501c-4.143,0-7.5-3.358-7.5-7.5
	c0-4.142,3.357-7.5,7.5-7.5h218.997c10.753,0,19.501,8.748,19.501,19.501v67.063C512,245.753,508.642,249.111,504.5,249.111z"/>
<path d="M492.499,356.954H19.501C8.749,356.954,0,348.205,0,337.452V174.548c0-10.754,8.749-19.501,19.501-19.501h218.997
	c4.143,0,7.5,3.358,7.5,7.5c0,4.142-3.357,7.5-7.5,7.5H19.501c-2.481,0-4.5,2.019-4.5,4.5v162.905c0,2.481,2.019,4.5,4.5,4.5
	h472.998c2.481,0,4.5-2.019,4.5-4.5v-60.84c0-4.142,3.357-7.5,7.5-7.5s7.5,3.358,7.5,7.5v60.84
	C512,348.205,503.251,356.954,492.499,356.954z"/>
<g>
</g>
<g>
</g>
<g>
</g>
<g>
</g>
<g>
</g>
<g>
</g>
<g>
</g>
<g>
</g>
<g>
</g>
<g>
</g>
<g>
</g>
<g>
</g>
<g>
</g>
<g>
</g>
<g>
</g>
</svg>
