<?xml version="1.0" encoding="iso-8859-1"?>
<!-- Generator: Adobe Illustrator 19.0.0, SVG Export Plug-In . SVG Version: 6.00 Build 0)  -->
<svg version="1.1" id="Capa_1" xmlns="http://www.w3.org/2000/svg" xmlns:xlink="http://www.w3.org/1999/xlink" x="0px" y="0px"
	 viewBox="0 0 512.002 512.002" style="enable-background:new 0 0 512.002 512.002;" xml:space="preserve">
<g>
	<path style="fill:#6EDCF9;" d="M448.666,238.282v-52.565c0-1.627-1.318-2.945-2.945-2.945h-32.498
		c-1.627,0-2.944,1.318-2.944,2.945v47.184C410.278,265.739,448.666,260.865,448.666,238.282z"/>
	<path style="fill:#6EDCF9;" d="M490.898,183.67h-18.491c-1.627,0-2.944,1.318-2.944,2.944v54.358
		c0,45.574-79.083,45.246-79.083,0.897v-56.151c0-1.627-1.317-2.945-2.944-2.945h-13.108c-9.762,0-19.643,5.823-19.643,16.951v69.05
		c0,15.744,10.877,25.915,27.71,25.915h96.844c14.5,0,25.024-9.769,25.024-23.228v-70.839
		C504.262,191.906,497.768,183.67,490.898,183.67z"/>
</g>
<g>
	<path style="fill:#45C6E5;" d="M430.253,232.901v-47.184c0-1.627,1.317-2.945,2.944-2.945h-19.975
		c-1.627,0-2.944,1.318-2.944,2.945v47.184c0,22.47,17.984,27.383,29.498,20.739C434.44,250.362,430.253,243.879,430.253,232.901z"
		/>
	<path style="fill:#45C6E5;" d="M374.659,268.772c0-84.331-0.89-80.793,2.66-86h-2.991c-9.762,0-19.643,5.823-19.643,16.951v69.05
		c0,15.744,10.877,25.915,27.71,25.915h19.975C385.536,294.688,374.659,284.516,374.659,268.772z"/>
	<path style="fill:#45C6E5;" d="M489.437,240.972v-54.358c0-1.417,1.002-2.6,2.336-2.879c-0.292-0.03-0.582-0.065-0.875-0.065
		h-18.491c-1.627,0-2.944,1.318-2.944,2.944v54.358c0,18.012-12.63,29.795-29.739,33.194
		C462.704,278.724,489.437,267.33,489.437,240.972z"/>
</g>
<g>
	<path style="fill:#EAE8E8;" d="M254.435,199.091c0,9.554-7.745,17.297-17.293,17.297c-9.554,0-17.296-7.743-17.296-17.297
		c0-9.552,7.742-17.294,17.296-17.294C246.69,181.796,254.435,189.539,254.435,199.091z"/>
	<path style="fill:#EAE8E8;" d="M315.081,199.091c0,9.554-7.744,17.297-17.293,17.297c-9.553,0-17.296-7.743-17.296-17.297
		c0-9.552,7.744-17.294,17.296-17.294C307.337,181.796,315.081,189.539,315.081,199.091z"/>
	<path style="fill:#EAE8E8;" d="M175.844,191.005c-0.904,0-1.693,0.614-1.915,1.49l-25.59,101.134l-23.076-88.968
		c-3.002-10.485-12.288-14.205-19.326-14.205c-7.037,0-16.326,3.732-19.353,14.3l-23.327,89.972
		C36.027,184.754,38.238,191.005,36.027,191.005H9.719c-1.317,0-2.254,1.261-1.9,2.512l33.995,120.444
		c6.149,19.421,34.688,19.125,40.388-0.481l0.457-1.575l23.281-83.018c25.275,90.135,23.354,83.312,23.74,84.594
		c5.819,20.031,34.921,19.485,40.429,0.35c36.308-128.663,34.504-120.882,33.625-122.041
		C202.918,190.704,204.252,191.005,175.844,191.005z"/>
	<path style="fill:#EAE8E8;" d="M249.54,233.907h-24.8c-1.092,0-1.977,0.885-1.977,1.975v90.457c0,1.092,0.884,1.977,1.977,1.977
		h24.8c1.092,0,1.976-0.885,1.976-1.977v-90.457C251.516,234.791,250.631,233.907,249.54,233.907z"/>
	<path style="fill:#EAE8E8;" d="M310.186,233.907h-24.801c-1.091,0-1.976,0.885-1.976,1.975v90.457c0,1.092,0.885,1.977,1.976,1.977
		h24.801c1.091,0,1.976-0.885,1.976-1.977v-90.457C312.162,234.791,311.278,233.907,310.186,233.907z"/>
</g>
<g>
	<path style="fill:#D3D1D1;" d="M243.843,183.144c-11.347-4.779-23.998,3.565-23.998,15.947c0,9.554,7.742,17.297,17.296,17.297
		c2.377,0,4.64-0.479,6.702-1.348C229.759,209.114,229.739,189.079,243.843,183.144z"/>
	<path style="fill:#D3D1D1;" d="M304.49,183.144c-11.354-4.777-23.999,3.565-23.999,15.947c0,12.339,12.607,20.742,23.999,15.949
		C290.406,209.112,290.385,189.079,304.49,183.144z"/>
	<path style="fill:#D3D1D1;" d="M55.22,313.96c-36.325-128.7-34.547-121.011-33.67-122.172c0.374-0.494,0.956-0.783,1.574-0.783
		c-14.512,0-14.193-0.261-14.98,0.783c-0.374,0.493-0.494,1.134-0.326,1.728L41.814,313.96
		c3.628,11.458,15.685,16.819,26.767,13.376C62.252,325.335,57.297,320.517,55.22,313.96z"/>
	<path style="fill:#D3D1D1;" d="M236.171,326.339v-90.457c0-1.091,0.884-1.975,1.976-1.975H224.74c-1.092,0-1.977,0.885-1.977,1.975
		v90.457c0,1.092,0.884,1.977,1.977,1.977h13.406C237.055,328.315,236.171,327.43,236.171,326.339z"/>
	<path style="fill:#D3D1D1;" d="M296.818,326.339v-90.457c0-1.091,0.885-1.975,1.976-1.975h-13.406
		c-1.091,0-1.976,0.885-1.976,1.975v90.457c0,1.092,0.885,1.977,1.976,1.977h13.406C297.702,328.315,296.818,327.43,296.818,326.339
		z"/>
	<path style="fill:#D3D1D1;" d="M86.584,204.756l-23.327,89.972c0,0,11.269,8.722,15.222-6.599c0.001-0.003,0.002-0.007,0.003-0.011
		l21.509-83.363c2.12-7.405,7.316-11.45,12.656-13.21C102.236,188.122,89.985,192.886,86.584,204.756z"/>
	<path style="fill:#D3D1D1;" d="M173.929,192.496l-25.59,101.134c0,0,10.855,10.017,14.307-3.615
		c0.001-0.005,0.002-0.01,0.004-0.014c26.483-104.607,24.401-98.995,26.601-98.995C175.371,191.005,174.432,190.509,173.929,192.496
		z"/>
	<path style="fill:#D3D1D1;" d="M142.817,312.583c0-0.001-23.532-83.699-23.532-83.697c-5.303-18.863-13.343,0-13.343,0
		c25.275,90.135,23.354,83.312,23.74,84.594c3.646,12.551,16.662,17.13,27.026,13.858
		C149.21,325.009,145.06,320.007,142.817,312.583z"/>
</g>
<path d="M403.035,232.901v-47.184c0-5.755,4.682-10.436,10.435-10.436h32.498c5.755,0,10.436,4.682,10.436,10.436v52.565
	C456.404,270.639,403.035,275.79,403.035,232.901z M429.853,248.871c5.228,0,11.57-3.391,11.57-10.588v-48.02h-23.407v42.638
	C418.017,247.313,426.294,248.87,429.853,248.871"/>
<path d="M237.343,222.003c-13.206,0-23.95-10.528-23.95-23.467c0-13.158,10.521-23.466,23.95-23.466
	c13.837,0,24.675,10.307,24.675,23.466C262.019,211.695,251.179,222.003,237.343,222.003z M237.343,190.052
	c-5.114,0-8.969,3.647-8.969,8.484c0,4.678,4.024,8.485,8.969,8.485C250.235,207.021,250.231,190.052,237.343,190.052z"/>
<path d="M298.385,222.003c-13.113,0-24.191-10.746-24.191-23.467c0-12.939,10.851-23.466,24.191-23.466
	c13.702,0,24.435,10.307,24.435,23.466C322.82,211.695,312.086,222.003,298.385,222.003z M298.385,190.052
	c-5.078,0-9.209,3.806-9.209,8.484c0,4.52,4.304,8.485,9.209,8.485C310.958,207.021,310.954,190.052,298.385,190.052z"/>
<path d="M309.72,335.851h-22.183c-5.756,0-10.437-4.682-10.437-10.436v-89.283c0-5.754,4.682-10.435,10.437-10.435h22.183
	c5.756,0,10.437,4.681,10.437,10.435v89.283C320.157,331.168,315.475,335.851,309.72,335.851z M292.081,320.869h13.095v-80.191
	h-13.095V320.869z"/>
<path d="M150.138,336.817c-7.567,0-21.258-2.889-27.932-22.243c-0.023-0.069-0.072-0.217-0.094-0.287
	c-1.745-5.736-10.055-36.148-16.068-58.241c-6.129,22.447-14.431,52.61-16.345,58.396c-9.678,30.652-46.89,29.344-56.228-0.103
	C29.89,303.176,7.239,221.337,0.381,196.522c-1.836-6.653,3.193-13.215,10.059-13.215h23.285c4.767,0,8.925,3.226,10.108,7.845
	l19.394,75.616c6.659-25.503,14.954-57.154,16.923-64.133c0.019-0.067,0.039-0.133,0.06-0.2
	c4.217-13.495,12.911-20.337,25.841-20.337c8.989,0,20.727,3.548,25.632,20.446c2.175,7.166,10.919,40.328,17.156,64.135
	l19.188-75.506c1.176-4.631,5.335-7.866,10.115-7.866h23.52c6.883,0,11.887,6.58,10.061,13.208
	c-6.867,24.851-29.544,106.767-33.08,117.79c-0.014,0.044-0.028,0.087-0.043,0.131C173.818,328.45,163.179,336.817,150.138,336.817z
	 M136.399,309.778c2.816,8.11,7.312,12.058,13.739,12.058c8.755,0,12.689-7.599,14.262-12.178
	c3.286-10.285,23.089-81.717,31.291-111.372h-14.013l-25.48,100.265c-0.842,3.313-3.82,5.637-7.239,5.646c-0.007,0-0.014,0-0.021,0
	c-3.41,0-6.39-2.304-7.249-5.605l-0.961-3.694c-5.14-19.74-17.871-68.574-23.421-88.142c-2.321-8.032-6.178-9.677-11.256-9.677
	c-5.209,0-8.955,1.631-11.511,9.728c-3.082,10.955-21.254,80.742-24.121,91.77c-1.943,7.472-12.595,7.423-14.506-0.023
	L30.199,198.287H16.413c13.684,49.486,28.652,103.149,31.331,111.5c2.432,7.666,7.524,12.05,13.978,12.05
	c7.712,0,11.391-4.849,13.744-12.066c2.747-8.245,21.069-75.806,23.357-84.246c1.992-7.354,12.471-7.34,14.46,0
	C115.729,234.559,133.716,300.913,136.399,309.778z"/>
<path d="M448.914,302.179h-66.271c-21.055,0-35.201-13.425-35.201-33.406v-69.05c0-15.875,13.98-24.441,27.134-24.441h13.108
	c5.754,0,10.435,4.682,10.435,10.436v56.151c0,34.402,64.102,34.773,64.102-0.897v-54.358c0-5.754,4.682-10.435,10.435-10.435
	h18.492c11.109,0,20.855,11.422,20.855,24.442v70.839c0,15.552-11.128,28.023-27.059,30.326c-4.093,0.596-7.893-2.247-8.485-6.342
	c-0.592-4.095,2.248-7.893,6.342-8.485c8.639-1.248,14.221-7.332,14.221-15.499v-70.839c0-5.178-3.889-9.461-5.874-9.461h-13.945
	v49.811c0,55.453-94.064,55.185-94.064,0.897v-51.606h-8.561c-4.204,0-12.153,1.977-12.153,9.46v69.05
	c0,11.538,7.559,18.425,20.22,18.425h66.271c4.138,0,7.491,3.354,7.491,7.491S453.052,302.179,448.914,302.179z"/>
<path d="M248.919,335.851h-22.184c-5.755,0-10.436-4.682-10.436-10.436v-89.283c0-5.754,4.682-10.435,10.436-10.435h22.184
	c5.755,0,10.436,4.681,10.436,10.435v23.326c0,4.137-3.353,7.491-7.491,7.491c-4.138,0-7.491-3.354-7.491-7.491v-18.779H231.28
	v80.191h13.095v-26.456c0-4.137,3.353-7.491,7.491-7.491c4.138,0,7.491,3.354,7.491,7.491v31.001
	C259.356,331.168,254.674,335.851,248.919,335.851z"/>
<g>
</g>
<g>
</g>
<g>
</g>
<g>
</g>
<g>
</g>
<g>
</g>
<g>
</g>
<g>
</g>
<g>
</g>
<g>
</g>
<g>
</g>
<g>
</g>
<g>
</g>
<g>
</g>
<g>
</g>
</svg>
