<?xml version="1.0" encoding="iso-8859-1"?>
<!-- Generator: Adobe Illustrator 19.0.0, SVG Export Plug-In . SVG Version: 6.00 Build 0)  -->
<svg version="1.1" id="Capa_1" xmlns="http://www.w3.org/2000/svg" xmlns:xlink="http://www.w3.org/1999/xlink" x="0px" y="0px"
	 viewBox="0 0 512 512" style="enable-background:new 0 0 512 512;" xml:space="preserve">
<g>
	<path style="fill:#EAE8E8;" d="M375.564,172.474c0,14.254-11.555,25.807-25.801,25.807c-14.256,0-25.807-11.553-25.807-25.807
		c0-14.251,11.55-25.804,25.807-25.804C364.008,146.67,375.564,158.223,375.564,172.474z"/>
	<path style="fill:#EAE8E8;" d="M466.048,172.474c0,14.254-11.555,25.807-25.801,25.807c-14.252,0-25.806-11.553-25.806-25.807
		c0-14.251,11.555-25.804,25.806-25.804C454.492,146.67,466.048,158.223,466.048,172.474z"/>
	<path style="fill:#EAE8E8;" d="M297.572,160.408h-39.266c-1.349,0-2.525,0.917-2.857,2.225l-38.18,150.889l-34.428-132.738
		c-4.481-15.644-18.332-21.194-28.834-21.194c-10.5,0-24.357,5.569-28.875,21.336L90.331,315.164L52.566,162.648
		c-0.326-1.314-1.506-2.238-2.861-2.238c-42.47,0-40.385-0.442-41.602,1.169c-0.557,0.736-0.737,1.69-0.486,2.578l50.72,179.701
		c4.133,13.051,15.91,21.484,30.002,21.484c10.98,0,25.494-5.816,30.259-22.203c0.973-3.35-2.502,9.008,35.415-126.212
		c37.711,134.48,34.844,124.301,35.421,126.213c8.725,30.035,52.338,28.909,60.319,0.522l50.655-179.505
		c0.249-0.888,0.07-1.842-0.487-2.578C299.365,160.84,298.495,160.408,297.572,160.408z"/>
	<path style="fill:#EAE8E8;" d="M368.261,224.417h-37.002c-1.628,0-2.947,1.319-2.947,2.946v134.962
		c0,1.628,1.319,2.947,2.947,2.947h37.002c1.628,0,2.947-1.319,2.947-2.947V227.364
		C371.208,225.737,369.889,224.417,368.261,224.417z"/>
	<path style="fill:#EAE8E8;" d="M458.745,224.417h-37.003c-1.628,0-2.947,1.319-2.947,2.946v134.962c0,1.628,1.32,2.947,2.947,2.947
		h37.002c1.627,0,2.946-1.319,2.946-2.947V227.364C461.691,225.737,460.372,224.417,458.745,224.417z"/>
</g>
<g>
	<path style="fill:#D3D1D1;" d="M359.762,148.681c-16.936-7.129-35.805,5.319-35.805,23.793c0,18.45,18.844,30.936,35.805,23.796
		C338.712,187.411,338.758,157.519,359.762,148.681z"/>
	<path style="fill:#D3D1D1;" d="M434.442,172.474c0-10.704,6.52-19.885,15.804-23.792c-16.937-7.129-35.806,5.318-35.806,23.792
		c0,14.254,11.555,25.807,25.806,25.807c3.545,0,6.924-0.717,10-2.011C440.962,192.361,434.442,183.18,434.442,172.474z"/>
	<path style="fill:#D3D1D1;" d="M78.339,343.857C24.144,151.849,26.792,163.314,28.104,161.577c0.557-0.737,1.426-1.169,2.349-1.169
		c-21.656,0-21.174-0.39-22.352,1.169c-0.557,0.736-0.737,1.69-0.486,2.578l50.72,179.701c4.133,13.051,15.91,21.484,30.002,21.484
		c3.127,0,6.542-0.474,9.936-1.527C88.829,360.827,81.437,353.639,78.339,343.857z"/>
	<path style="fill:#D3D1D1;" d="M348.314,362.326V227.364c0-1.627,1.319-2.946,2.947-2.946h-20.002
		c-1.628,0-2.947,1.319-2.947,2.946v134.962c0,1.628,1.319,2.947,2.947,2.947h20.002
		C349.634,365.274,348.314,363.954,348.314,362.326z"/>
	<path style="fill:#D3D1D1;" d="M438.798,362.326V227.364c0-1.627,1.32-2.946,2.947-2.946h-20.002c-1.628,0-2.947,1.319-2.947,2.946
		v134.962c0,1.628,1.32,2.947,2.947,2.947h20.002C440.118,365.274,438.798,363.954,438.798,362.326z"/>
	<path style="fill:#D3D1D1;" d="M154.007,159.59c-10.5,0-24.357,5.569-28.875,21.336L90.331,315.164c0,0,16.813,13.013,22.711-9.844
		c13.746-53.274,31.449-121.889,32.095-124.393c3.164-11.047,10.915-17.083,18.883-19.709
		C160.609,160.094,157.158,159.59,154.007,159.59z"/>
	<path style="fill:#D3D1D1;" d="M258.306,160.408c-1.349,0-2.525,0.917-2.857,2.225l-38.18,150.889c0,0,16.196,14.947,21.347-5.395
		c6.904-27.269,36.016-142.257,36.836-145.494c0.332-1.308,1.508-2.225,2.857-2.225L258.306,160.408L258.306,160.408z"/>
	<path style="fill:#D3D1D1;" d="M209.032,341.801l-35.108-124.867c-0.001-0.003-0.002-0.005-0.002-0.008
		c-7.914-28.144-19.908,0-19.908,0c37.711,134.48,34.844,124.301,35.421,126.213c5.447,18.747,24.892,25.554,40.321,20.675
		C218.46,360.308,212.337,352.751,209.032,341.801z"/>
</g>
<path d="M349.763,205.781c-18.366,0-33.308-14.942-33.308-33.308c0-18.364,14.942-33.305,33.308-33.305
	c18.362,0,33.302,14.94,33.302,33.305C383.065,190.839,368.126,205.781,349.763,205.781z M349.763,154.171
	c-10.094,0-18.306,8.21-18.306,18.303c0,10.094,8.212,18.306,18.306,18.306c10.09,0,18.3-8.212,18.3-18.306
	C368.063,162.381,359.854,154.171,349.763,154.171z"/>
<path d="M440.246,205.781c-18.365,0-33.307-14.942-33.307-33.308c0-18.364,14.942-33.305,33.307-33.305
	c18.363,0,33.302,14.94,33.302,33.305C473.549,190.839,458.609,205.781,440.246,205.781z M440.246,154.171
	c-10.093,0-18.305,8.21-18.305,18.303c0,10.094,8.212,18.306,18.305,18.306c10.091,0,18.3-8.212,18.3-18.306
	C458.547,162.381,450.337,154.171,440.246,154.171z"/>
<path d="M368.261,372.774h-37.002c-5.762,0-10.448-4.687-10.448-10.448V227.364c0-5.761,4.688-10.447,10.448-10.447h37.002
	c5.761,0,10.448,4.687,10.448,10.447v134.962C378.709,368.088,374.023,372.774,368.261,372.774z M335.813,357.773h27.894V231.918
	h-27.894V357.773z"/>
<g>
	<path style="fill:#231F20;" d="M482.224,364.814v-16.965h-6.336v-2.26h15.24v2.26h-6.364v16.965H482.224z"/>
	<path style="fill:#231F20;" d="M493.652,364.814v-19.225h3.822c4.731,14.148,5.021,14.984,5.467,16.451
		c0.472-1.495,0.687-2.088,5.644-16.451H512v19.225h-2.452v-16.102l-5.595,16.102h-2.299l-5.555-16.368v16.368H493.652z"/>
</g>
<path d="M458.745,372.774h-37.003c-5.762,0-10.448-4.687-10.448-10.448V227.364c0-5.761,4.688-10.447,10.448-10.447h37.003
	c5.761,0,10.447,4.687,10.447,10.447v45.405c0,4.143-3.358,7.501-7.501,7.501s-7.501-3.358-7.501-7.501v-40.85h-27.894v125.854
	h27.894v-50c0-4.143,3.358-7.501,7.501-7.501s7.501,3.358,7.501,7.501v54.553C469.192,368.088,464.506,372.774,458.745,372.774z"/>
<path d="M182.23,345.232l-0.382-1.263c-0.035-0.115-27.804-99.145-27.836-99.261c-30.043,107.137-27.219,97.105-28.212,100.524
	c-10.588,36.416-63.217,36.882-74.614,0.89c-0.024-0.075-0.046-0.151-0.068-0.227L0.397,166.194
	c-1.869-6.61,3.1-13.286,10.054-13.286h39.253c4.813,0,8.983,3.262,10.142,7.933l30.652,123.79
	c0.032-0.124,27.389-105.648,27.424-105.771c5.661-19.759,22.977-26.771,36.085-26.771c16.598,0,31.875,10.313,36.094,26.812
	l7.041,27.145c1.04,4.009-1.367,8.103-5.378,9.144c-4.008,1.041-8.103-1.366-9.144-5.378l-7.016-27.047
	c-4.326-14.917-18.746-15.674-21.599-15.674c-2.851,0-17.274,0.762-21.639,15.816L97.592,317.047
	c-0.858,3.309-3.844,5.618-7.26,5.619c-0.014,0-0.027,0-0.042,0c-3.433-0.019-6.415-2.366-7.24-5.698L46.141,167.909H16.469
	l49.052,173.787c7.016,21.813,39.451,21.438,45.874-0.653l0.683-2.35L146.791,214.9c2.039-7.27,12.404-7.279,14.445,0
	c37.69,134.405,34.833,124.261,35.38,126.071c6.506,22.394,39.187,22.375,45.94,0.582l49.002-173.644h-29.704L224.543,315.36
	c-0.84,3.32-3.823,5.651-7.25,5.661c-0.007,0-0.015,0-0.022,0c-3.416,0-6.403-2.309-7.261-5.618l-18.599-71.708
	c-1.04-4.009,1.367-8.103,5.378-9.144c4.01-1.038,8.104,1.367,9.144,5.378l11.248,43.368l30.998-122.506
	c1.178-4.645,5.343-7.886,10.129-7.886h39.266c6.909,0,11.929,6.621,10.057,13.278c-0.135,0.477-50.639,179.468-50.788,179.941
	v0.001C245.429,382.151,192.798,381.611,182.23,345.232z"/>
<g>
</g>
<g>
</g>
<g>
</g>
<g>
</g>
<g>
</g>
<g>
</g>
<g>
</g>
<g>
</g>
<g>
</g>
<g>
</g>
<g>
</g>
<g>
</g>
<g>
</g>
<g>
</g>
<g>
</g>
</svg>
