<?xml version="1.0" encoding="iso-8859-1"?>
<!-- Generator: Adobe Illustrator 19.0.0, SVG Export Plug-In . SVG Version: 6.00 Build 0)  -->
<svg version="1.1" id="Capa_1" xmlns="http://www.w3.org/2000/svg" xmlns:xlink="http://www.w3.org/1999/xlink" x="0px" y="0px"
	 viewBox="0 0 512 512" style="enable-background:new 0 0 512 512;" xml:space="preserve">
<path style="fill:#6EDCF9;" d="M504.5,337.452c0,6.628-5.372,12.001-12.001,12.001H19.501c-6.627,0-12.001-5.372-12.001-12.001
	V174.548c0-6.627,5.373-12.001,12.001-12.001h472.998c6.628,0,12.001,5.373,12.001,12.001V337.452z"/>
<path style="fill:#45C6E5;" d="M28.493,337.452V174.548c0-6.627,5.373-12.001,12.001-12.001H19.501
	c-6.627,0-12.001,5.373-12.001,12.001v162.905c0,6.628,5.373,12.001,12.001,12.001h20.992
	C33.866,349.453,28.493,344.081,28.493,337.452z"/>
<path d="M282.775,232.289v16.418c0,3.199,2.344,5.542,5.543,5.542h23.001c3.198,0,5.543-2.344,5.543-5.542v-16.418
	c0-3.2-2.344-5.542-5.543-5.542h-23.001C285.119,226.747,282.775,229.089,282.775,232.289z M288.754,231.53h22.124
	c0.999,0,1.194,0.197,1.194,1.195c0,17.746,0.451,16.743-1.194,16.743c-24.918,0-23.32,0.454-23.32-1.197
	C287.557,230.524,287.106,231.53,288.754,231.53z"/>
<path d="M282.775,263.38v16.42c0,3.199,2.344,5.543,5.543,5.543h23.001c3.198,0,5.543-2.344,5.543-5.543v-16.42
	c0-3.198-2.344-5.541-5.543-5.541h-23.001C285.119,257.839,282.775,260.182,282.775,263.38z M288.754,262.622
	c24.928,0,23.318-0.453,23.318,1.195c0,17.746,0.451,16.743-1.194,16.743c-24.934,0-23.32,0.452-23.32-1.197
	C287.557,261.618,287.106,262.622,288.754,262.622z"/>
<polygon points="74.698,226.747 74.698,247.077 54.368,226.747 49.584,226.747 49.584,254.25 54.368,254.25 54.368,233.324 
	75.295,254.25 79.481,254.25 79.481,226.747 "/>
<polygon points="126.12,226.747 126.12,247.077 105.789,226.747 101.007,226.747 101.007,254.25 105.789,254.25 105.789,233.324 
	126.717,254.25 130.902,254.25 130.902,226.747 "/>
<polygon points="232.551,226.747 232.551,247.077 212.219,226.747 207.437,226.747 207.437,254.25 212.219,254.25 212.219,233.324 
	233.148,254.25 237.333,254.25 237.333,226.747 "/>
<rect x="87.855" y="226.744" width="4.783" height="27.504"/>
<polygon points="149.437,231.53 149.437,254.25 154.819,254.25 154.819,231.53 167.375,231.53 167.375,226.747 136.882,226.747 
	136.882,231.53 "/>
<polygon points="172.757,226.747 172.757,254.25 199.664,254.25 199.664,249.468 178.138,249.468 178.138,242.293 194.881,242.293 
	194.881,237.508 178.138,237.508 178.138,231.53 199.664,231.53 199.664,226.747 "/>
<path d="M245.703,226.747v27.504h22.723c5.283,0,9.566-6.158,9.566-13.752c0-7.593-4.282-13.752-9.566-13.752L245.703,226.747
	L245.703,226.747z M250.488,231.53h16.34c3.523,0,6.38,4.018,6.38,8.97c0,4.95-2.857,8.97-6.38,8.97h-16.34V231.53z"/>
<path d="M360.506,227.247h-35.072c-0.829,0-1.5,0.671-1.5,1.5v54.596c0,0.829,0.671,1.5,1.5,1.5h35.072
	c26.282,0,41.355-10.497,41.355-28.799C401.86,238.012,386.4,227.247,360.506,227.247z M342.068,234.019h10.474
	c22.111,0,29.99,11.378,29.99,22.026c0,13.791-11.211,22.024-29.99,22.024h-10.474V234.019z"/>
<path d="M459.85,262.276c-6.784-8.268-25.612-12.317-30.606-14.775c-2.319-1.138-7.563-3.816-7.766-6.469
	c-0.206-2.304-0.186-3.821,4.221-5.702c7.969-3.369,19.213-0.78,26.399,0.703c4.377,0.903,3.616,0.11,3.645-5.996
	c0.006-1.584-1.441-1.477-4.301-2.041c-14.864-2.938-46.757-2.119-46.757,13.689c0,2.759,0.982,5.536,3.026,7.269
	c12.939,10.993,36.041,13.603,36.041,21.072c0,8.408-9.374,8.258-17.679,7.877c-6.527-0.288-11.321-1.237-19.594-3.255
	c-0.451-0.111-0.928-0.005-1.292,0.285c-0.363,0.29-0.571,0.732-0.564,1.197c0.011,0.651,0.025,1.26,0.039,1.888
	c0.079,3.436-0.266,5.023,1.374,5.232c15.26,1.948,44.331,5.073,53.483-7.111C463.84,270.371,461.194,263.941,459.85,262.276z"/>
<path d="M504.5,249.111c-4.142,0-7.5-3.358-7.5-7.5v-67.063c0-2.482-2.019-4.5-4.5-4.5H273.501c-4.142,0-7.5-3.358-7.5-7.5
	c0-4.142,3.358-7.5,7.5-7.5h218.997c10.753,0,19.501,8.748,19.501,19.501v67.063C512,245.753,508.642,249.111,504.5,249.111z"/>
<path d="M492.499,356.954H19.501C8.749,356.954,0,348.205,0,337.452V174.548c0-10.754,8.749-19.501,19.501-19.501h218.997
	c4.142,0,7.5,3.358,7.5,7.5c0,4.142-3.358,7.5-7.5,7.5H19.501c-2.481,0-4.5,2.018-4.5,4.5v162.904c0,2.481,2.019,4.5,4.5,4.5
	h472.998c2.481,0,4.5-2.019,4.5-4.5v-60.839c0-4.142,3.358-7.5,7.5-7.5s7.5,3.358,7.5,7.5v60.839
	C512,348.205,503.251,356.954,492.499,356.954z"/>
<g>
</g>
<g>
</g>
<g>
</g>
<g>
</g>
<g>
</g>
<g>
</g>
<g>
</g>
<g>
</g>
<g>
</g>
<g>
</g>
<g>
</g>
<g>
</g>
<g>
</g>
<g>
</g>
<g>
</g>
</svg>
