<?xml version="1.0" encoding="iso-8859-1"?>
<!-- Generator: Adobe Illustrator 19.0.0, SVG Export Plug-In . SVG Version: 6.00 Build 0)  -->
<svg version="1.1" id="Capa_1" xmlns="http://www.w3.org/2000/svg" xmlns:xlink="http://www.w3.org/1999/xlink" x="0px" y="0px"
	 viewBox="0 0 512 512" style="enable-background:new 0 0 512 512;" xml:space="preserve">
<path style="fill:#F2D422;" d="M504.5,337.452c0,6.628-5.372,12.001-12.001,12.001H19.501c-6.627,0-12.001-5.372-12.001-12.001
	V174.548c0-6.627,5.373-12.001,12.001-12.001h472.998c6.628,0,12.001,5.373,12.001,12.001V337.452z"/>
<path style="fill:#F4BD25;" d="M27.502,337.452V174.548c0-6.627,5.373-12.001,12.001-12.001H19.501
	c-6.627,0-12.001,5.373-12.001,12.001v162.905c0,6.628,5.373,12.001,12.001,12.001h20.001
	C32.875,349.453,27.502,344.081,27.502,337.452z"/>
<path d="M81.371,252.027l-5.201-0.007c-1.497-0.073-3.004,1.248-3.004,3v2.475c0,1.657,1.343,3,3,3
	c8.191,0,13.414,0.963,18.546-4.819c8.53-9.566,6.336-34.248-10.272-34.248c-0.013,0-23.362-0.009-23.378-0.009
	c-1.655,0-3,1.343-3,3v55.247c0,1.657,1.344,3,3,3h6.566c1.656,0,3-1.343,3-3v-49.763l10.735-0.019
	c4.617,0,5.587,6.022,5.587,11.075C86.95,247.993,84.915,252.027,81.371,252.027z"/>
<path d="M106.811,221.417c-1.657,0-3,1.343-3,3v55.247c0,1.657,1.343,3,3,3h6.569c1.656,0,3-1.343,3-3v-55.247c0-1.657-1.344-3-3-3
	H106.811z"/>
<path d="M151.201,282.665h6.561c1.656,0,3-1.343,3-3v-41.107c0-1.657-1.344-3-3-3h-16.409c-21.277,0-19.39,18.502-19.362,32.606
	c0,8.403,5.283,14.502,12.564,14.502h8.097c1.657,0,3-1.343,3-3v-2.458c0-1.657-1.343-3-3-3h-5.217
	c-0.866-0.016-2.893-0.053-2.897-5.317c0-27.363,0.644-24.867,13.665-24.863v35.638
	C148.201,281.322,149.544,282.665,151.201,282.665z"/>
<path d="M228.357,274.211h-12.638c-1.657,0-3,1.344-3,3v2.455c0,1.657,1.343,3,3,3h16.101c18.568,0,18.543-23.441,11.836-31.782
	c-7.927-9.743-21.051,0.802-21.051-12.804c0-7.245,3.504-8.174,6.557-8.174h12.1c1.656,0,3-1.343,3-3v-2.487c0-1.657-1.344-3-3-3
	h-13.536c-10.217,0-17.271,6.187-17.271,18.161c0,9.366,5.774,16.092,14.364,16.738l5.027,0.385c4.447,0.349,5.238,4.97,5.238,9.341
	C235.085,271.463,232.822,274.211,228.357,274.211z"/>
<path d="M306.174,281.787c0.563,0.563,1.326,0.879,2.121,0.879c6.944,0,7.563,0.258,8.7-0.879c1.215-1.216,0.879,1.532,0.867-43.23
	c0-1.656-1.344-2.999-3-2.999h-16.392c-21.227,0-19.374,18.379-19.374,32.609c0,8.266,5.402,14.498,12.565,14.498h8.098
	c1.657,0,3-1.343,3-3v-2.458c0-1.657-1.343-3-3-3c-9.015,0.001-8.104,1.619-8.104-15.14c0-17.366,3.765-15.043,13.651-15.04
	C305.293,282.706,304.957,280.569,306.174,281.787z"/>
<path d="M265.717,282.665h5.489c1.657,0,3-1.343,3-3v-2.458c0-1.657-1.343-3-3-3c-3.392,0.001-5.505,0.729-5.505-4.853v-25.34
	c2.099,0.006,3.986,0.003,8.305,0c1.656-0.001,2.997-1.344,2.997-3v-2.455c0-1.657-1.343-3-3-3h-8.302v-4.652c0-1.657-1.343-3-3-3
	h-6.555c-1.657,0-3,1.343-3,3v37.273C253.146,276.574,258.433,282.665,265.717,282.665z"/>
<path d="M333.999,227.906h-6.579c-1.657,0-3,1.343-3,3v37.273c0,8.258,5.41,14.486,12.586,14.486h5.49c1.657,0,3-1.343,3-3v-2.458
	c0-1.657-1.343-3-3-3c-6.762,0.003-5.509,2.377-5.509-30.193c2.179,0.006,4.227,0.003,8.29,0c1.656-0.002,2.997-1.345,2.997-3
	v-2.455c0-1.657-1.343-3-3-3h-8.274v-4.652C336.999,229.249,335.656,227.906,333.999,227.906z"/>
<path d="M352.593,279.665c0,1.657,1.343,3,3,3h6.569c1.656,0,3-1.343,3-3v-41.107c0-1.657-1.344-3-3-3h-6.569c-1.657,0-3,1.343-3,3
	V279.665z"/>
<path d="M355.594,232.325h6.569c1.656,0,3-1.343,3-3v-4.906c0-1.657-1.344-3-3-3h-6.569c-1.657,0-3,1.343-3,3v4.906
	C352.593,230.981,353.936,232.325,355.594,232.325z"/>
<path d="M444.382,282.665h6.556c1.656,0,3-1.343,3-3v-20.598c0-7.035,0-23.509-19.374-23.509h-16.397c-1.656,0-2.999,1.343-3,2.999
	c-0.011,44.636-0.359,42.001,0.868,43.23c0.563,0.563,1.325,0.879,2.122,0.879c0.021,0,6.586,0,6.586,0
	c1.756,0,3.183-1.517,2.98-3.35l-0.016-35.288c15.05-0.004,13.703-2.565,13.674,35.636
	C441.38,281.316,442.722,282.665,444.382,282.665z"/>
<path d="M410.41,259.129c0-7.053,0-23.57-20.23-23.57c-20.227,0-20.227,16.518-20.227,23.57c0,6.447,0,23.573,20.219,23.573
	C410.41,282.702,410.41,266.183,410.41,259.129z M382.55,259.129c0-13.534,2.866-15.104,7.628-15.104
	c2.917,0,4.08,0.753,4.825,1.482c1.925,1.895,2.815,6.223,2.804,13.625c0,13.171-2.624,15.104-7.629,15.104
	C385.251,274.236,382.55,272.392,382.55,259.129z"/>
<path d="M174.85,304.582c4.585,0,6.801,0.49,7.75-1.889c26.98-67.662,26.102-63.937,24.826-65.819
	c-1.123-1.658-2.35-1.317-8.214-1.317c-1.24,0-2.352,0.762-2.799,1.919l-9.913,25.649l-8.685-25.534
	c-0.414-1.216-1.557-2.034-2.841-2.034c-7.094,0-8.146-0.35-9.295,1.254c-1.237,1.731-1.581-0.753,13.822,44.428l-7.452,19.259
	C171.291,302.464,172.743,304.582,174.85,304.582z"/>
<path d="M492.499,155.046H273.501c-4.143,0-7.5,3.358-7.5,7.5c0,4.142,3.357,7.5,7.5,7.5h218.997c2.482,0,4.5,2.019,4.5,4.5v67.063
	c0,4.142,3.358,7.5,7.5,7.5c4.143,0,7.5-3.358,7.5-7.5v-67.063C512,163.795,503.251,155.046,492.499,155.046z"/>
<path d="M504.5,269.112c-4.142,0-7.5,3.358-7.5,7.5v60.839c0,2.481-2.018,4.5-4.5,4.5H19.501c-2.481,0-4.5-2.019-4.5-4.5V174.548
	c0-2.481,2.019-4.5,4.5-4.5h218.997c4.143,0,7.5-3.358,7.5-7.5c0-4.142-3.357-7.5-7.5-7.5H19.501C8.749,155.046,0,163.795,0,174.548
	v162.905c0,10.754,8.749,19.501,19.501,19.501h472.998c10.753,0,19.501-8.748,19.501-19.501v-60.839
	C512,272.47,508.642,269.112,504.5,269.112z"/>
<g>
</g>
<g>
</g>
<g>
</g>
<g>
</g>
<g>
</g>
<g>
</g>
<g>
</g>
<g>
</g>
<g>
</g>
<g>
</g>
<g>
</g>
<g>
</g>
<g>
</g>
<g>
</g>
<g>
</g>
</svg>
