<?xml version="1.0" encoding="iso-8859-1"?>
<!-- Generator: Adobe Illustrator 19.0.0, SVG Export Plug-In . SVG Version: 6.00 Build 0)  -->
<svg version="1.1" id="Capa_1" xmlns="http://www.w3.org/2000/svg" xmlns:xlink="http://www.w3.org/1999/xlink" x="0px" y="0px"
	 viewBox="0 0 512 512" style="enable-background:new 0 0 512 512;" xml:space="preserve">
<g>
	<g>
		<path d="M493.392,18.188C483.032,6.459,468.333,0,452,0H120C87.882,0,58.524,25.93,54.557,57.803L5.674,450.491
			c-2.018,16.208,2.576,31.593,12.935,43.321C28.968,505.541,43.667,512,60,512h332c32.118,0,61.476-25.93,65.443-57.803
			l48.883-392.688C508.344,45.301,503.75,29.916,493.392,18.188z M476.557,57.803l-48.883,392.688
			C425.547,467.571,409.211,482,392,482H60c-7.608,0-14.322-2.858-18.906-8.048c-4.583-5.189-6.59-12.205-5.65-19.755L84.326,61.509
			C86.453,44.429,102.789,30,120,30h332c7.608,0,14.322,2.858,18.906,8.048C475.489,43.237,477.496,50.253,476.557,57.803z"/>
	</g>
</g>
<g>
	<g>
		<path d="M420.155,266.59l-16.311-25.18l-127.911,82.855L286.299,241H122.236c6.677-25.85,30.195-45,58.102-45H232
			c37.495,0,68-30.505,68-68s-30.505-68-68-68h-38.342c-49.626,0-90,40.374-90,90h30c0-33.084,26.916-60,60-60H232
			c20.953,0,38,17.047,38,38s-17.047,38-38,38h-51.662c-49.626,0-90,40.374-90,90v15h161.994l-22.176,178.147l-0.115,0.923V452
			h23.033l6.852,0.853l11.167-89.707l29.366-19.022l74.2,107.403l24.682-17.053l-73.692-106.667L420.155,266.59z"/>
	</g>
</g>
<g>
</g>
<g>
</g>
<g>
</g>
<g>
</g>
<g>
</g>
<g>
</g>
<g>
</g>
<g>
</g>
<g>
</g>
<g>
</g>
<g>
</g>
<g>
</g>
<g>
</g>
<g>
</g>
<g>
</g>
</svg>
