<?xml version="1.0" encoding="iso-8859-1"?>
<!-- Generator: Adobe Illustrator 19.0.0, SVG Export Plug-In . SVG Version: 6.00 Build 0)  -->
<svg version="1.1" id="Capa_1" xmlns="http://www.w3.org/2000/svg" xmlns:xlink="http://www.w3.org/1999/xlink" x="0px" y="0px"
	 viewBox="0 0 512 512" style="enable-background:new 0 0 512 512;" xml:space="preserve">
<g>
	<g>
		<path d="M211.003,0v511.966h89.994V0H211.003z M270.999,481.968h-29.998V29.998h29.998V481.968z"/>
	</g>
</g>
<g>
	<g>
		<g>
			<path d="M502.951,384.518c-49.025-21.258-81.963-71.464-81.963-124.931L420.996,0h-90.002v289.585
				c0,49.721,15.84,96.893,45.807,136.414c28.988,38.229,70.156,66.747,115.924,80.299L511.982,512V388.435L502.951,384.518z
				 M481.985,470.701c-72.149-29.997-120.992-101.778-120.992-181.116V29.998h30.005l-0.007,229.589
				c0,32.458,9.542,64.073,27.595,91.427c16.054,24.326,37.837,43.801,63.399,56.78V470.701z"/>
			<polygon points="511.983,512 511.982,512 511.982,512 			"/>
		</g>
	</g>
</g>
<g>
	<g>
		<path d="M91.003,0l0.008,259.587c0,53.467-32.939,103.673-81.963,124.932l-9.031,3.917V512l19.257-5.703
			c45.768-13.552,86.937-42.069,115.924-80.299c29.967-39.521,45.807-86.692,45.807-136.414V0H91.003z M151.007,289.585
			c0,79.338-48.843,151.118-120.992,181.116v-62.907c25.561-12.979,47.345-32.453,63.399-56.779
			c18.053-27.354,27.595-58.97,27.595-91.428l-0.007-229.589h30.005V289.585z"/>
	</g>
</g>
<g>
</g>
<g>
</g>
<g>
</g>
<g>
</g>
<g>
</g>
<g>
</g>
<g>
</g>
<g>
</g>
<g>
</g>
<g>
</g>
<g>
</g>
<g>
</g>
<g>
</g>
<g>
</g>
<g>
</g>
</svg>
