<?xml version="1.0" encoding="iso-8859-1"?>
<!-- Generator: Adobe Illustrator 19.0.0, SVG Export Plug-In . SVG Version: 6.00 Build 0)  -->
<svg version="1.1" id="Capa_1" xmlns="http://www.w3.org/2000/svg" xmlns:xlink="http://www.w3.org/1999/xlink" x="0px" y="0px"
	 viewBox="0 0 512 512" style="enable-background:new 0 0 512 512;" xml:space="preserve">
<g>
	<g>
		<path d="M512,263.5c0-19.146-7.228-37.38-20.354-51.346l-12.685-13.49C480.98,190.478,482,182.061,482,173.5
			c0-57.897-47.103-105-105-105c-6.703,0-13.345,0.646-19.868,1.898C332.781,49.775,302.152,38.5,270,38.5
			c-40.188,0-78.005,17.73-103.755,48.643l-52.31,62.782l-41.94,13.877C28.933,178.052,0,218.117,0,263.5
			c0,23.069,7.342,44.962,21.233,63.313c13.428,17.739,32.512,30.993,53.737,37.319l36.331,10.827l38.23,47.791
			C175.32,455.002,213.762,473.5,255,473.5h60c23.764,0,46.853-6.2,67.267-17.957c8.077,1.953,16.37,2.957,24.733,2.957
			c57.897,0,105-47.103,105-105c0-17.228-4.241-34.056-12.171-49.063C507.788,292.243,512,278.106,512,263.5z M189.294,106.345
			C209.329,82.294,238.745,68.5,270,68.5c17.961,0,35.312,4.525,50.682,13.016l-152.835,50.57L189.294,106.345z M314.999,443.5H255
			c-32.072,0-61.974-14.392-82.041-39.488l-11.216-14.021l173.17,51.607C328.394,442.85,321.733,443.5,314.999,443.5z M407,428.5
			c-7.298,0-14.519-1.049-21.462-3.119l-301.999-90C52.016,325.986,30,296.427,30,263.5c0-32.419,20.664-61.039,51.419-71.216
			l272-90C361.007,99.773,368.94,98.5,377,98.5c41.355,0,75,33.645,75,75c0,9.927-1.91,19.573-5.676,28.669l-0.106,0.264
			c-13.603,34.695-6.915,73.757,17.469,101.958C475.496,318.008,482,335.449,482,353.5C482,394.855,448.355,428.5,407,428.5z
			 M480.134,276.348c-8.319-13.135-11.969-28.549-10.536-43.849l0.191,0.203C477.663,241.081,482,252.019,482,263.5
			C482,267.892,481.365,272.211,480.134,276.348z"/>
	</g>
</g>
<g>
	<g>
		<path d="M133.257,226.25c6.66-1.89,10.8-7.199,10.8-13.859c0-9.63-9-15.749-23.129-15.749H91.139v62.997h30.869
			c14.849,0,24.209-6.75,24.209-17.459C146.217,233.99,141.177,227.781,133.257,226.25z M107.069,208.881h12.959
			c4.68,0,7.649,2.34,7.649,6.39s-2.97,6.569-7.649,6.569h-12.959V208.881z M120.028,247.31h-12.959v-13.95h12.959
			c5.939,0,9.63,2.61,9.63,6.84C129.658,244.7,125.968,247.31,120.028,247.31z"/>
	</g>
</g>
<g>
	<g>
		<path d="M189.887,196.641h-16.47l-27.179,62.997h16.47l4.59-11.609h27.539l4.499,11.609h17.1L189.887,196.641z M171.978,235.88
			l9.18-23.31l8.999,23.31H171.978z"/>
	</g>
</g>
<g>
	<g>
		<polygon points="259.634,196.642 259.634,235.52 230.565,196.642 216.436,196.642 216.436,259.639 231.465,259.639 
			231.465,220.851 260.444,259.639 274.574,259.639 274.574,196.642 		"/>
	</g>
</g>
<g>
	<g>
		<path d="M306.662,196.642h-27.089v62.997h26.459c20.25,0,34.109-12.869,34.109-31.499
			C340.141,209.421,326.461,196.642,306.662,196.642z M307.023,246.86h-11.43v-37.439h10.709c10.17,0,17.55,7.649,17.55,18.809
			C323.852,239.3,316.832,246.86,307.023,246.86z"/>
	</g>
</g>
<g>
	<g>
		<path d="M378.293,196.642h-16.47l-27.179,62.997h16.47l4.59-11.609h27.539l4.499,11.609h17.1L378.293,196.642z M360.383,235.88
			l9.18-23.31l8.999,23.31H360.383z"/>
	</g>
</g>
<g>
	<g>
		<rect x="404.84" y="196.64" width="16.02" height="62.997"/>
	</g>
</g>
<g>
	<g>
		<polygon points="134.337,266.642 134.337,305.52 105.268,266.642 91.139,266.642 91.139,329.639 106.168,329.639 106.168,290.851 
			135.147,329.639 149.277,329.639 149.277,266.642 		"/>
	</g>
</g>
<g>
	<g>
		<path d="M192.926,266.642h-16.47l-27.179,62.997h16.47l4.59-11.609h27.539l4.499,11.609h17.1L192.926,266.642z M175.016,305.88
			l9.18-23.31l8.999,23.31H175.016z"/>
	</g>
</g>
<g>
	<g>
		<polygon points="271.222,266.551 254.123,304.08 237.023,266.551 219.474,266.551 219.474,329.639 233.784,329.639 
			233.784,288.69 248.903,323.339 259.342,323.339 274.461,288.69 274.552,329.639 288.681,329.639 288.681,266.551 		"/>
	</g>
</g>
<g>
	<g>
		<path d="M344.503,308.938c-4.412,4.501-10.531,7.381-15.84,7.381c-9.99,0-17.55-8.01-17.55-18.539c0-10.35,7.56-18.27,17.55-18.27
			c5.579,0,11.699,3.149,15.839,8.189l9.27-10.979c-6.3-6.479-16.02-10.619-25.379-10.619c-19.169,0-33.658,13.679-33.658,31.858
			c0,18.449,14.129,32.398,33.118,32.398c9.27,0,19.26-4.59,26.009-11.52L344.503,308.938z"/>
	</g>
</g>
<g>
	<g>
		<path d="M386.752,266.102c-19.439,0-34.019,13.589-34.019,31.948c0,18.449,14.579,32.309,34.019,32.309
			c19.529,0,34.108-13.949,34.108-32.309C420.861,279.78,406.282,266.102,386.752,266.102z M386.932,316.949
			c-9.63,0-17.819-8.189-17.819-18.81c0-10.619,8.1-18.629,17.819-18.629s17.459,8.01,17.459,18.629
			C404.391,308.76,396.652,316.949,386.932,316.949z"/>
	</g>
</g>
<g>
</g>
<g>
</g>
<g>
</g>
<g>
</g>
<g>
</g>
<g>
</g>
<g>
</g>
<g>
</g>
<g>
</g>
<g>
</g>
<g>
</g>
<g>
</g>
<g>
</g>
<g>
</g>
<g>
</g>
</svg>
