<?xml version="1.0" encoding="iso-8859-1"?>
<!-- Generator: Adobe Illustrator 19.0.0, SVG Export Plug-In . SVG Version: 6.00 Build 0)  -->
<svg version="1.1" id="Capa_1" xmlns="http://www.w3.org/2000/svg" xmlns:xlink="http://www.w3.org/1999/xlink" x="0px" y="0px"
	 viewBox="0 0 512 512" style="enable-background:new 0 0 512 512;" xml:space="preserve">
<g>
	<g>
		<path d="M437,0H75C33.6,0,0,33.6,0,75v362c0,41.4,33.6,75,75,75h362c41.4,0,75-33.6,75-75V75C512,33.6,478.4,0,437,0z M482,437
			c0,24.8-20.2,45-45,45H75c-24.8,0-45-20.2-45-45V75c0-24.8,20.2-45,45-45h362c24.8,0,45,20.2,45,45V437z"/>
	</g>
</g>
<g>
	<g>
		<path d="M180,136c0-24.8-20.2-45-45-45H60v150h75c24.8,0,45-20.2,45-45c0-11.5-4.3-22-11.5-30C175.6,158,180,147.5,180,136z
			 M135,181c8.3,0,15,6.7,15,15s-6.7,15-15,15H90v-90h45c8.3,0,15,6.7,15,15s-6.7,15-15,15h-15v30H135z"/>
	</g>
</g>
<g>
	<g>
		<path d="M269.8,91h-36.6l-50.6,150h137.8L269.8,91z M251.5,130.7l27.1,80.3h-54.2L251.5,130.7z"/>
	</g>
</g>
<g>
	<g>
		<polygon points="422,91 422,193.5 368.6,91 329.5,91 329.5,241 359.5,241 359.5,138.5 412.9,241 452,241 452,91 		"/>
	</g>
</g>
<g>
	<g>
		<path d="M269.8,271h-36.6l-50.6,150h137.8L269.8,271z M251.5,310.7l27.1,80.3h-54.2L251.5,310.7z"/>
	</g>
</g>
<g>
	<g>
		<rect x="329.5" y="271" width="30" height="150"/>
	</g>
</g>
<g>
	<g>
		<path d="M113,271H60v150h53c41.4,0,75-33.6,75-75C188,304.6,154.4,271,113,271z M113,391H90v-90h23c24.8,0,45,20.2,45,45
			S137.8,391,113,391z"/>
	</g>
</g>
<g>
</g>
<g>
</g>
<g>
</g>
<g>
</g>
<g>
</g>
<g>
</g>
<g>
</g>
<g>
</g>
<g>
</g>
<g>
</g>
<g>
</g>
<g>
</g>
<g>
</g>
<g>
</g>
<g>
</g>
</svg>
