<?xml version="1.0" encoding="iso-8859-1"?>
<!-- Generator: Adobe Illustrator 19.0.0, SVG Export Plug-In . SVG Version: 6.00 Build 0)  -->
<svg version="1.1" id="Capa_1" xmlns="http://www.w3.org/2000/svg" xmlns:xlink="http://www.w3.org/1999/xlink" x="0px" y="0px"
	 viewBox="0 0 512 512" style="enable-background:new 0 0 512 512;" xml:space="preserve">
<g>
	<g>
		<path d="M379.421,311c0,24.813-20.187,45-45,45h-60c-24.813,0-45-20.187-45-45V201c0-24.813,20.187-45,45-45
			c15.532,0,29.869,8.126,38.019,20.921l-41.659,41.652l63.641,63.64L493.58,123.046l-6.933-10.254
			C438.9,42.166,359.563,0,274.421,0c-68.381,0-132.668,26.629-181.02,74.98C45.049,123.333,18.421,187.62,18.421,256
			s26.629,132.667,74.98,181.02C141.752,485.371,206.039,512,274.421,512H489.22V296H379.421V311z M407.914,326h51.306v156H274.421
			c-124.617,0-226-101.383-226-226s101.383-226,226-226c71.052,0,137.527,33.266,180.2,89.579l-120.2,120.208l-21.213-21.211
			l34.851-34.845l-3.388-9.042C333.759,145.566,305.528,126,274.421,126c-41.355,0-75,33.645-75,75v110c0,41.355,33.645,75,75,75h60
			C370.64,386,400.944,360.191,407.914,326z"/>
	</g>
</g>
<g>
</g>
<g>
</g>
<g>
</g>
<g>
</g>
<g>
</g>
<g>
</g>
<g>
</g>
<g>
</g>
<g>
</g>
<g>
</g>
<g>
</g>
<g>
</g>
<g>
</g>
<g>
</g>
<g>
</g>
</svg>
