<?xml version="1.0" encoding="iso-8859-1"?>
<!-- Generator: Adobe Illustrator 19.0.0, SVG Export Plug-In . SVG Version: 6.00 Build 0)  -->
<svg version="1.1" id="Capa_1" xmlns="http://www.w3.org/2000/svg" xmlns:xlink="http://www.w3.org/1999/xlink" x="0px" y="0px"
	 viewBox="0 0 512 512" style="enable-background:new 0 0 512 512;" xml:space="preserve">
<g>
	<g>
		<path d="M47.319,255.37l-4.365,16.29c-4.287,1.89-8.74,3.06-11.98,3.06c-10.439,0-16.279-8.1-13.409-18.81
			c2.821-10.529,12.911-18.629,23.261-18.629c5.85,0,11.54,2.61,14.996,6.84l11.918-10.89c-4.936-5.76-13.872-9.359-23.231-9.359
			c-19.889,0-38.428,13.77-43.323,32.038c-4.919,18.359,5.856,32.219,25.025,32.219c8.82,0,20.356-3.42,28.384-8.189l6.583-24.569
			L47.319,255.37L47.319,255.37z"/>
	</g>
</g>
<g>
	<g>
		<path d="M119.534,224.412h-16.469l-44.059,62.997h16.47l7.7-11.609h27.539l1.388,11.609h17.1L119.534,224.412z M91.111,263.65
			l15.425-23.31l2.753,23.31H91.111z"/>
	</g>
</g>
<g>
	<g>
		<polygon points="203.707,224.321 176.551,261.85 169.508,224.321 151.959,224.321 135.055,287.409 149.364,287.409 
			160.336,246.46 166.171,281.109 176.611,281.109 201.014,246.46 190.133,287.409 204.262,287.409 221.166,224.321 		"/>
	</g>
</g>
<g>
	<g>
		<polygon points="281.777,237.01 285.152,224.412 235.834,224.412 218.954,287.409 269.262,287.409 272.638,274.809 
			238.35,274.809 241.75,262.12 271.808,262.12 275.184,249.52 245.126,249.52 248.478,237.01 		"/>
	</g>
</g>
<g>
	<g>
		<path d="M372.639,240.161c2.582-9.63-4.779-15.749-18.908-15.749h-29.789l-16.88,62.997h30.869
			c14.849,0,26.018-6.75,28.887-17.459c2.195-8.19-1.182-14.399-8.692-15.93C365.293,252.13,370.855,246.821,372.639,240.161z
			 M350.79,267.969c-1.206,4.5-5.596,7.11-11.535,7.11h-12.959l3.738-13.95h12.959C348.932,261.129,351.923,263.74,350.79,267.969z
			 M355.489,243.04c-1.085,4.05-4.73,6.569-9.41,6.569H333.12l3.472-12.959h12.959C354.231,236.651,356.574,238.991,355.489,243.04z
			"/>
	</g>
</g>
<g>
	<g>
		<path d="M419.316,223.872c-19.439,0-37.66,13.589-42.579,31.948c-4.943,18.449,5.922,32.309,25.361,32.309
			c19.529,0,37.846-13.949,42.766-32.309C449.759,237.55,438.845,223.872,419.316,223.872z M428.37,255.91
			c-2.846,10.62-12.779,18.81-22.499,18.81c-9.63,0-15.625-8.189-12.779-18.81c2.845-10.619,13.091-18.629,22.811-18.629
			C425.623,237.281,431.215,245.29,428.37,255.91z"/>
	</g>
</g>
<g>
	<g>
		<polygon points="495.98,224.412 473.776,251.86 465.922,224.412 449.902,224.412 461.661,267.519 456.332,287.409 
			472.261,287.409 477.71,267.07 512,224.412 		"/>
	</g>
</g>
<g>
</g>
<g>
</g>
<g>
</g>
<g>
</g>
<g>
</g>
<g>
</g>
<g>
</g>
<g>
</g>
<g>
</g>
<g>
</g>
<g>
</g>
<g>
</g>
<g>
</g>
<g>
</g>
<g>
</g>
</svg>
