<?xml version="1.0" encoding="iso-8859-1"?>
<!-- Generator: Adobe Illustrator 19.0.0, SVG Export Plug-In . SVG Version: 6.00 Build 0)  -->
<svg version="1.1" id="Capa_1" xmlns="http://www.w3.org/2000/svg" xmlns:xlink="http://www.w3.org/1999/xlink" x="0px" y="0px"
	 viewBox="0 0 512 512" style="enable-background:new 0 0 512 512;" xml:space="preserve">
<g>
	<g>
		<path d="M512,307.261V204.739l-48.553-14.114c-3.815-12.084-8.688-23.819-14.552-35.049l24.372-44.35l-72.494-72.493
			l-44.348,24.372c-11.229-5.865-22.965-10.737-35.05-14.553L307.261,0H204.739l-14.114,48.553
			c-12.084,3.815-23.82,8.688-35.05,14.553l-44.348-24.372l-72.494,72.493l24.372,44.35c-5.865,11.229-10.737,22.965-14.552,35.049
			L0,204.739V307.26l48.553,14.114c3.815,12.084,8.688,23.819,14.552,35.049l-24.372,44.35l72.494,72.493l44.348-24.372
			c11.229,5.865,22.965,10.737,35.05,14.553L204.739,512H307.26l14.114-48.553c12.084-3.815,23.82-8.688,35.05-14.553l44.348,24.372
			l72.494-72.493l-24.372-44.35c5.865-11.229,10.737-22.965,14.552-35.049L512,307.261z M439.12,297.205l-2.213,8.108
			c-4.164,15.259-10.264,29.948-18.131,43.662l-4.191,7.307l21.543,39.202l-40.644,40.644l-39.202-21.543l-7.306,4.19
			c-13.714,7.867-28.405,13.967-43.664,18.132l-8.108,2.213L284.74,482h-57.48l-12.465-42.88l-8.108-2.213
			c-15.259-4.165-29.949-10.265-43.664-18.132l-7.306-4.19l-39.202,21.543l-40.644-40.644l21.543-39.202l-4.191-7.307
			c-7.867-13.714-13.967-28.403-18.131-43.662l-2.213-8.108L30,284.739V227.26l42.88-12.466l2.213-8.108
			c4.164-15.259,10.264-29.948,18.131-43.662l4.191-7.307l-21.543-39.202l40.644-40.644l39.202,21.543l7.306-4.19
			c13.714-7.867,28.405-13.967,43.664-18.132l8.108-2.213L227.26,30h57.479l12.465,42.88l8.108,2.213
			c15.259,4.165,29.949,10.265,43.664,18.132l7.306,4.19l39.202-21.543l40.644,40.644l-21.543,39.202l4.191,7.307
			c7.867,13.714,13.967,28.403,18.131,43.662l2.213,8.108L482,227.261v57.479L439.12,297.205z"/>
	</g>
</g>
<g>
	<g>
		<path d="M256,104c-67.271,0-122,54.729-122,122v97.729h30v60h184v-60h30V226C378,158.729,323.271,104,256,104z M318,353.729H194
			v-30h124V353.729z M348,293.729h-77v-30h-30v30h-77V226c0-50.729,41.271-92,92-92s92,41.271,92,92V293.729z"/>
	</g>
</g>
<g>
	<g>
		<rect x="194" y="218.73" width="30" height="45"/>
	</g>
</g>
<g>
	<g>
		<rect x="288" y="218.73" width="30" height="45"/>
	</g>
</g>
<g>
</g>
<g>
</g>
<g>
</g>
<g>
</g>
<g>
</g>
<g>
</g>
<g>
</g>
<g>
</g>
<g>
</g>
<g>
</g>
<g>
</g>
<g>
</g>
<g>
</g>
<g>
</g>
<g>
</g>
</svg>
