<?xml version="1.0" encoding="iso-8859-1"?>
<!-- Generator: Adobe Illustrator 19.0.0, SVG Export Plug-In . SVG Version: 6.00 Build 0)  -->
<svg version="1.1" id="Capa_1" xmlns="http://www.w3.org/2000/svg" xmlns:xlink="http://www.w3.org/1999/xlink" x="0px" y="0px"
	 viewBox="0 0 512 512" style="enable-background:new 0 0 512 512;" xml:space="preserve">
<g>
	<g>
		<path d="M437,86h-40.666c-30.692,0-57.122,18.539-68.719,45H271V86H75c-41.355,0-75,33.645-75,75v130
			c0,16.871,5.603,32.456,15.041,45H0v90h115.666c24.508,0,46.305-11.818,60-30.052c13.695,18.234,35.492,30.052,60,30.052h40.668
			c24.508,0,46.305-11.818,60-30.052c13.695,18.234,35.492,30.052,60,30.052H512V161C512,119.645,478.355,86,437,86z M160.666,351
			c0,24.813-20.187,45-45,45H30v-30h100.667v-30H75c-24.813,0-45-20.187-45-45V161c0-24.813,20.187-45,45-45h85.666V351z
			 M321.334,191H241v175h30V221h50.334v130c0,24.813-20.187,45-45,45h-40.668c-24.813,0-45-20.187-45-45V116H241v45h80.334V191z
			 M482,396h-85.666c-24.813,0-45-20.187-45-45v-85c0-24.813,20.187-45,45-45h35.333v-75h-30v45h-50.333v-30
			c0-24.813,20.187-45,45-45H437c24.813,0,45,20.187,45,45V396z"/>
	</g>
</g>
<g>
	<g>
		<rect x="401.67" y="251" width="30" height="115"/>
	</g>
</g>
<g>
	<g>
		<rect x="80.33" y="146" width="30" height="160"/>
	</g>
</g>
<g>
</g>
<g>
</g>
<g>
</g>
<g>
</g>
<g>
</g>
<g>
</g>
<g>
</g>
<g>
</g>
<g>
</g>
<g>
</g>
<g>
</g>
<g>
</g>
<g>
</g>
<g>
</g>
<g>
</g>
</svg>
