<?xml version="1.0" encoding="iso-8859-1"?>
<!-- Generator: Adobe Illustrator 19.0.0, SVG Export Plug-In . SVG Version: 6.00 Build 0)  -->
<svg version="1.1" id="Capa_1" xmlns="http://www.w3.org/2000/svg" xmlns:xlink="http://www.w3.org/1999/xlink" x="0px" y="0px"
	 viewBox="0 0 512 512" style="enable-background:new 0 0 512 512;" xml:space="preserve">
<g>
	<g>
		<path d="M430.689,56.923C389.2,19.684,328.793,0,256,0S122.8,19.684,81.31,56.923C44.353,90.094,24,135.686,24,185.3
			c0,56.82,27.529,137.093,70.133,204.504c22.216,35.151,47.356,64.666,72.703,85.354C196.789,499.604,226.788,512,256,512
			c29.212,0,59.212-12.396,89.164-36.843c25.347-20.688,50.487-50.202,72.703-85.354C460.472,322.393,488,242.12,488,185.3
			C488,135.686,467.646,90.094,430.689,56.923z M392.508,373.776c-20.51,32.451-43.44,59.472-66.313,78.14
			C301.737,471.878,278.12,482,256,482s-45.737-10.122-70.195-30.084c-22.872-18.668-45.803-45.688-66.313-78.14
			C80.319,311.794,54,236.051,54,185.3C54,107.999,116.46,30,256,30s202,77.999,202,155.3
			C458,236.051,431.681,311.794,392.508,373.776z"/>
	</g>
</g>
<g>
	<g>
		<path d="M186.572,245.247L211,235.476v67.845h-30c-16.542,0-30-13.458-30-30v-105c0-16.543,13.458-30.001,30-30.001
			s30,13.458,30,30h30c0-33.084-26.916-60-60-60s-60,26.916-60,60v105c0,33.084,26.916,60,60,60h60V191.165l-65.57,26.228
			L186.572,245.247z"/>
	</g>
</g>
<g>
	<g>
		<polygon points="346,108.32 346,203.115 301,221.115 301,108.32 271,108.32 271,333.32 301,333.32 301,253.426 346,235.426 
			346,333.32 376,333.32 376,108.32 		"/>
	</g>
</g>
<g>
</g>
<g>
</g>
<g>
</g>
<g>
</g>
<g>
</g>
<g>
</g>
<g>
</g>
<g>
</g>
<g>
</g>
<g>
</g>
<g>
</g>
<g>
</g>
<g>
</g>
<g>
</g>
<g>
</g>
</svg>
