<?xml version="1.0" encoding="iso-8859-1"?>
<!-- Generator: Adobe Illustrator 19.0.0, SVG Export Plug-In . SVG Version: 6.00 Build 0)  -->
<svg version="1.1" id="Capa_1" xmlns="http://www.w3.org/2000/svg" xmlns:xlink="http://www.w3.org/1999/xlink" x="0px" y="0px"
	 viewBox="0 0 512 512" style="enable-background:new 0 0 512 512;" xml:space="preserve">
<g>
	<g>
		<rect x="482" y="206" width="30" height="100"/>
	</g>
</g>
<g>
	<g>
		<path d="M85.713,236v-30c-8.121,0-19.121,2.943-26.155,6.999L30,230.039V206H0v100h30v-24.039l29.558,17.04
			C66.593,303.057,77.593,306,85.713,306v-30c-2.854,0-8.7-1.564-11.172-2.989L45.034,256l29.508-17.011
			C77.013,237.564,82.86,236,85.713,236z"/>
	</g>
</g>
<g>
	<g>
		<path d="M134.508,206c-27.57,0-50,22.43-50,50s22.43,50,50,50s50-22.43,50-50S162.078,206,134.508,206z M134.508,276
			c-11.028,0-20-8.972-20-20s8.972-20,20-20s20,8.972,20,20S145.536,276,134.508,276z"/>
	</g>
</g>
<g>
	<g>
		<path d="M444.729,206L417.5,260.459L390.271,206H363v69.172L331.482,206h-27.299l-31.517,69.17V206h-30v44.141L214.011,206
			h-29.503v100h30v-44.14L243.163,306h48.424l7.746-17h37l7.746,17H393v-27.459L406.729,306h21.541L442,278.541V306h30V206H444.729z
			 M313.002,259l4.831-10.602L322.664,259H313.002z"/>
	</g>
</g>
<g>
</g>
<g>
</g>
<g>
</g>
<g>
</g>
<g>
</g>
<g>
</g>
<g>
</g>
<g>
</g>
<g>
</g>
<g>
</g>
<g>
</g>
<g>
</g>
<g>
</g>
<g>
</g>
<g>
</g>
</svg>
