<?xml version="1.0" encoding="iso-8859-1"?>
<!-- Generator: Adobe Illustrator 19.0.0, SVG Export Plug-In . SVG Version: 6.00 Build 0)  -->
<svg version="1.1" id="Capa_1" xmlns="http://www.w3.org/2000/svg" xmlns:xlink="http://www.w3.org/1999/xlink" x="0px" y="0px"
	 viewBox="0 0 511.999 511.999" style="enable-background:new 0 0 511.999 511.999;" xml:space="preserve">
<g>
	<g>
		<polygon points="428.347,211.749 421.756,209.991 398.773,296.184 398.773,300.256 421.673,300.256 428.268,302.015 
			451.252,215.822 451.252,211.749 		"/>
	</g>
</g>
<g>
	<g>
		<path d="M502.704,168.579c-8.461-11.011-21.802-17.584-35.688-17.584h-52.004c-11.869,0-22.89,4.675-31.061,12.468
			c-8.082-7.715-19.014-12.468-31.043-12.468h-52.004c-11.869,0-22.89,4.675-31.061,12.467
			c-8.082-7.715-19.014-12.467-31.043-12.467h-52.004c-20.358,0-38.239,13.738-43.483,33.408l-24.86,93.225
			c-4.563-2.8-9.657-4.817-15.097-5.844l17.117-64.191c6.393-23.977-7.913-48.685-31.893-55.079
			c-3.796-1.012-7.702-1.524-11.606-1.524c-20.35,0-38.225,13.74-43.47,33.414L1.5,304.411c-3.578,13.416-0.664,28,7.797,39.014
			c8.461,11.012,21.802,17.585,35.688,17.585h50.004c11.47,0,21.945-4.319,29.901-11.408c8.173,7.24,18.862,11.408,29.903,11.408
			h49.754c12.592,0,23.987-5.205,32.163-13.568c8.405,8.573,20.09,13.568,32.192,13.568h52.004c11.866,0,22.885-4.673,31.055-12.462
			c8.305,7.888,19.483,12.462,31.049,12.462h52.004c20.358,0,38.239-13.738,43.483-33.408l32.003-120.009
			C514.079,194.178,511.163,179.594,502.704,168.579z M94.987,331.009H44.983c-4.628,0-9.076-2.191-11.896-5.86
			c-2.82-3.671-3.792-8.533-2.6-13.005l32.004-120.01c1.748-6.561,7.704-11.142,14.48-11.142c1.298,0,2.604,0.172,3.878,0.512
			c7.993,2.132,12.762,10.368,10.631,18.359L64.507,301.006h30.479c7.63,0,13.933,5.729,14.868,13.108
			c-0.05,1.245-0.045,2.49,0.008,3.732C108.952,325.252,102.635,331.009,94.987,331.009z M238.798,211h-44.479v30.002h28.478
			c8.272,0,15.001,6.73,15.001,15.001c0,8.272-6.729,15.001-15.001,15.001h-44.479v30.002h26.228
			c8.272,0,15.001,6.729,15.001,15.001c0,8.272-6.73,15-15.001,15h-49.754c-4.628,0-9.076-2.191-11.896-5.86
			c-1.628-2.12-2.618-4.639-2.953-7.249c0.026-0.628,0.048-1.257,0.048-1.891c0-0.698-0.017-1.392-0.048-2.083
			c0.083-0.598,0.197-1.193,0.354-1.781l32.003-120.009c1.749-6.558,7.71-11.137,14.495-11.137h52.004
			c8.272,0,15.001,6.73,15.001,15.001C253.799,204.271,247.07,211,238.798,211z M352.906,210.998h-44.479V241h28.477
			c4.629,0,9.076,2.191,11.896,5.86c2.82,3.671,3.792,8.533,2.6,13.005L335.4,319.871c-1.75,6.558-7.71,11.138-14.496,11.138
			h-52.004c-4.628,0-9.076-2.191-11.896-5.86c-2.82-3.671-3.792-8.533-2.6-13.005l11.955-44.831c0.01-0.038,0.021-0.076,0.031-0.115
			l15.97-59.89c0.01-0.038,0.021-0.076,0.031-0.115l4.016-15.06c1.749-6.557,7.71-11.137,14.495-11.137h52.004
			c8.272,0,15.001,6.73,15.001,15.001C367.907,204.269,361.178,210.998,352.906,210.998z M481.511,199.862l-32.003,120.009
			c-1.749,6.557-7.71,11.137-14.495,11.137h-52.004c-4.628,0-9.076-2.191-11.896-5.86c-2.82-3.671-3.792-8.533-2.6-13.005
			l27.835-104.38c0.007-0.026,0.014-0.052,0.021-0.078l4.146-15.551c1.749-6.557,7.71-11.137,14.495-11.137h52.004
			c4.628,0,9.076,2.191,11.896,5.86C481.732,190.529,482.703,195.39,481.511,199.862z"/>
	</g>
</g>
<g>
</g>
<g>
</g>
<g>
</g>
<g>
</g>
<g>
</g>
<g>
</g>
<g>
</g>
<g>
</g>
<g>
</g>
<g>
</g>
<g>
</g>
<g>
</g>
<g>
</g>
<g>
</g>
<g>
</g>
</svg>
