<?xml version="1.0" encoding="iso-8859-1"?>
<!-- Generator: Adobe Illustrator 19.0.0, SVG Export Plug-In . SVG Version: 6.00 Build 0)  -->
<svg version="1.1" id="Capa_1" xmlns="http://www.w3.org/2000/svg" xmlns:xlink="http://www.w3.org/1999/xlink" x="0px" y="0px"
	 viewBox="0 0 512 512" style="enable-background:new 0 0 512 512;" xml:space="preserve">
<g>
	<g>
		<polygon points="0,198.75 0,313.75 30,313.75 30,228.75 55,228.75 55,313.75 85,313.75 85,198.75 		"/>
	</g>
</g>
<g>
	<g>
		<path d="M95,198.25v30h61.5v10H95v75h91.5v-115H95z M156.5,283.25H125v-15h31.5V283.25z"/>
	</g>
</g>
<g>
	<g>
		<polygon points="402,228.75 402,198.75 326.5,198.75 326.5,313.75 402,313.75 402,283.75 356.5,283.75 356.5,228.75 		"/>
	</g>
</g>
<g>
	<g>
		<path d="M412,198.75v115h100v-115H412z M482,283.75h-40v-55h40V283.75z"/>
	</g>
</g>
<g>
	<g>
		<polygon points="196.5,198.25 196.5,313.25 226.5,313.25 226.5,228.25 241.5,228.25 241.5,313.25 271.5,313.25 271.5,228.25 
			286.5,228.25 286.5,313.25 316.5,313.25 316.5,198.25 		"/>
	</g>
</g>
<g>
</g>
<g>
</g>
<g>
</g>
<g>
</g>
<g>
</g>
<g>
</g>
<g>
</g>
<g>
</g>
<g>
</g>
<g>
</g>
<g>
</g>
<g>
</g>
<g>
</g>
<g>
</g>
<g>
</g>
</svg>
