<?xml version="1.0" encoding="iso-8859-1"?>
<!-- Generator: Adobe Illustrator 19.0.0, SVG Export Plug-In . SVG Version: 6.00 Build 0)  -->
<svg version="1.1" id="Capa_1" xmlns="http://www.w3.org/2000/svg" xmlns:xlink="http://www.w3.org/1999/xlink" x="0px" y="0px"
	 viewBox="0 0 512 512" style="enable-background:new 0 0 512 512;" xml:space="preserve">
<g>
	<g>
		<path d="M203,151h-83v210h83c57.897,0,105-47.103,105-105C308,198.103,260.897,151,203,151z M203,331h-53V181h53
			c41.355,0,75,33.645,75,75C278,297.355,244.355,331,203,331z"/>
	</g>
</g>
<g>
	<g>
		<path d="M452,241h-67c-16.542,0-30-13.458-30-30s13.458-30,30-30h67c16.542,0,30,13.458,30,30h30c0-33.084-26.916-60-60-60h-67
			c-33.084,0-60,26.916-60,60s26.916,60,60,60h67c16.542,0,30,13.458,30,30s-13.458,30-30,30h-67c-16.542,0-30-13.458-30-30h-30
			c0,33.084,26.916,60,60,60h67c33.084,0,60-26.916,60-60S485.084,241,452,241z"/>
	</g>
</g>
<g>
	<g>
		<path d="M0,151v90h90v-90H0z M60,211H30v-30h30V211z"/>
	</g>
</g>
<g>
	<g>
		<path d="M0,271v90h90v-90H0z M60,331H30v-30h30V331z"/>
	</g>
</g>
<g>
</g>
<g>
</g>
<g>
</g>
<g>
</g>
<g>
</g>
<g>
</g>
<g>
</g>
<g>
</g>
<g>
</g>
<g>
</g>
<g>
</g>
<g>
</g>
<g>
</g>
<g>
</g>
<g>
</g>
</svg>
