<?xml version="1.0" encoding="iso-8859-1"?>
<!-- Generator: Adobe Illustrator 19.0.0, SVG Export Plug-In . SVG Version: 6.00 Build 0)  -->
<svg version="1.1" id="Capa_1" xmlns="http://www.w3.org/2000/svg" xmlns:xlink="http://www.w3.org/1999/xlink" x="0px" y="0px"
	 viewBox="0 0 512 512" style="enable-background:new 0 0 512 512;" xml:space="preserve">
<g>
	<g>
		<path d="M307,227.917v161.166h90V227.917H307z M367,359.083h-30V257.917h30V359.083z"/>
	</g>
</g>
<g>
	<g>
		<path d="M352,122.917c-24.813,0-45,20.187-45,45s20.187,45,45,45s45-20.187,45-45S376.813,122.917,352,122.917z M352,182.917
			c-8.271,0-15-6.729-15-15s6.729-15,15-15s15,6.729,15,15S360.271,182.917,352,182.917z"/>
	</g>
</g>
<g>
	<g>
		<path d="M422,227.917v161.166h90V227.917H422z M482,359.083h-30V257.917h30V359.083z"/>
	</g>
</g>
<g>
	<g>
		<path d="M467,122.917c-24.813,0-45,20.187-45,45s20.187,45,45,45s45-20.187,45-45S491.813,122.917,467,122.917z M467,182.917
			c-8.271,0-15-6.729-15-15s6.729-15,15-15s15,6.729,15,15S475.271,182.917,467,182.917z"/>
	</g>
</g>
<g>
	<g>
		<path d="M192,122.917v44.536l-11.469-21.046c-7.896-14.488-23.043-23.488-39.531-23.488c-16.488,0-31.635,9-39.531,23.488
			L90,167.454v-44.536H0v221.166c0,24.813,20.187,45,45,45c16.488,0,31.635-9,39.531-23.488L141,261.97l56.469,103.625
			c7.896,14.488,23.043,23.488,39.531,23.488c24.813,0,45-20.187,45-45V122.917H192z M252,344.083c0,8.271-6.729,15-15,15
			c-5.498,0-10.552-3.006-13.188-7.844L141,199.274L58.188,351.24c-2.636,4.838-7.69,7.844-13.188,7.844c-8.271,0-15-6.729-15-15
			V152.917h30v132.282l67.812-124.439c2.636-4.838,7.69-7.844,13.188-7.844s10.552,3.006,13.188,7.844L222,285.201V152.917h30
			V344.083z"/>
	</g>
</g>
<g>
</g>
<g>
</g>
<g>
</g>
<g>
</g>
<g>
</g>
<g>
</g>
<g>
</g>
<g>
</g>
<g>
</g>
<g>
</g>
<g>
</g>
<g>
</g>
<g>
</g>
<g>
</g>
<g>
</g>
</svg>
