<?xml version="1.0" encoding="iso-8859-1"?>
<!-- Generator: Adobe Illustrator 19.0.0, SVG Export Plug-In . SVG Version: 6.00 Build 0)  -->
<svg version="1.1" id="Capa_1" xmlns="http://www.w3.org/2000/svg" xmlns:xlink="http://www.w3.org/1999/xlink" x="0px" y="0px"
	 viewBox="0 0 512 512" style="enable-background:new 0 0 512 512;" xml:space="preserve">
<g>
	<g>
		<rect x="197" y="218.5" width="30" height="120"/>
	</g>
</g>
<g>
	<g>
		<rect x="247" y="218.5" width="30" height="120"/>
	</g>
</g>
<g>
	<g>
		<circle cx="212" cy="188.5" r="15"/>
	</g>
</g>
<g>
	<g>
		<circle cx="262" cy="188.5" r="15"/>
	</g>
</g>
<g>
	<g>
		<path d="M467,173.5H347c-24.813,0-45,20.187-45,45v75c0,24.813,20.187,45,45,45h120c24.813,0,45-20.187,45-45v-75
			C512,193.687,491.813,173.5,467,173.5z M392,203.5h30v40c0,8.271-6.729,15-15,15s-15-6.729-15-15V203.5z M482,293.5
			c0,8.271-6.729,15-15,15H347c-8.271,0-15-6.729-15-15v-75c0-8.271,6.729-15,15-15h15v40c0,24.813,20.187,45,45,45s45-20.187,45-45
			v-40h15c8.271,0,15,6.729,15,15V293.5z"/>
	</g>
</g>
<g>
	<g>
		<path d="M142,173.5v135.013L115.175,196.5c-3.243-13.542-15.24-23-29.175-23s-25.932,9.458-29.176,23L30,308.5v-135H0v135
			c0,16.542,13.458,30,30,30c13.935,0,25.932-9.458,29.176-23L86,203.487L112.825,315.5c3.243,13.542,15.24,23,29.175,23
			c16.542,0,30-13.458,30-30v-135H142z"/>
	</g>
</g>
<g>
</g>
<g>
</g>
<g>
</g>
<g>
</g>
<g>
</g>
<g>
</g>
<g>
</g>
<g>
</g>
<g>
</g>
<g>
</g>
<g>
</g>
<g>
</g>
<g>
</g>
<g>
</g>
<g>
</g>
</svg>
