<?xml version="1.0" encoding="iso-8859-1"?>
<!-- Generator: Adobe Illustrator 19.0.0, SVG Export Plug-In . SVG Version: 6.00 Build 0)  -->
<svg version="1.1" id="Capa_1" xmlns="http://www.w3.org/2000/svg" xmlns:xlink="http://www.w3.org/1999/xlink" x="0px" y="0px"
	 viewBox="0 0 512 512" style="enable-background:new 0 0 512 512;" xml:space="preserve">
<g>
	<g>
		<path d="M123.5,86h-95v155h30v-50h65c24.813,0,45-20.187,45-45v-15C168.5,106.187,148.313,86,123.5,86z M138.5,146
			c0,8.271-6.729,15-15,15h-65v-45h65c8.271,0,15,6.729,15,15V146z"/>
	</g>
</g>
<g>
	<g>
		<path d="M228.5,116h90V86h-90c-24.813,0-45,20.187-45,45v65c0,24.813,20.187,45,45,45h90v-30h-90c-8.271,0-15-6.729-15-15v-20h105
			v-30h-105v-15C213.5,122.729,220.229,116,228.5,116z"/>
	</g>
</g>
<g>
	<g>
		<path d="M437.25,148.5h-57.5c-8.96,0-16.25-7.29-16.25-16.25S370.79,116,379.75,116h58.75c8.271,0,15,6.729,15,15h30
			c0-24.813-20.187-45-45-45h-58.75c-25.502,0-46.25,20.748-46.25,46.25s20.748,46.25,46.25,46.25h57.5
			c8.96,0,16.25,7.29,16.25,16.25S446.21,211,437.25,211H378.5c-8.271,0-15-6.729-15-15h-30c0,24.813,20.187,45,45,45h58.75
			c25.502,0,46.25-20.748,46.25-46.25S462.752,148.5,437.25,148.5z"/>
	</g>
</g>
<g>
	<g>
		<path d="M307,271v30c8.271,0,15,6.729,15,15v110h30V316C352,291.187,331.813,271,307,271z"/>
	</g>
</g>
<g>
	<g>
		<path d="M512,317.25c0-25.502-20.748-46.25-46.25-46.25h-52.5c-25.502,0-46.25,20.748-46.25,46.25
			c0,12.038,4.626,23.013,12.19,31.25c-7.564,8.237-12.19,19.212-12.19,31.25c0,25.502,20.748,46.25,46.25,46.25h52.5
			c25.502,0,46.25-20.748,46.25-46.25c0-12.038-4.626-23.013-12.19-31.25C507.374,340.263,512,329.288,512,317.25z M465.75,396
			h-52.5c-8.96,0-16.25-7.29-16.25-16.25c0-8.96,7.29-16.25,16.25-16.25h52.5c8.96,0,16.25,7.29,16.25,16.25
			C482,388.71,474.71,396,465.75,396z M465.75,333.5h-52.5c-8.96,0-16.25-7.29-16.25-16.25c0-8.96,7.29-16.25,16.25-16.25h52.5
			c8.96,0,16.25,7.29,16.25,16.25C482,326.21,474.71,333.5,465.75,333.5z"/>
	</g>
</g>
<g>
	<g>
		<path d="M30,379.75c0-8.96,7.29-16.25,16.25-16.25h52.5c25.502,0,46.25-20.748,46.25-46.25S124.252,271,98.75,271H45
			c-24.813,0-45,20.187-45,45h30c0-8.271,6.729-15,15-15h53.75c8.96,0,16.25,7.29,16.25,16.25c0,8.96-7.29,16.25-16.25,16.25h-52.5
			C20.748,333.5,0,354.248,0,379.75V426h145v-30H30V379.75z"/>
	</g>
</g>
<g>
	<g>
		<path d="M250,271h-45c-24.813,0-45,20.187-45,45v65c0,24.813,20.187,45,45,45h45c24.813,0,45-20.187,45-45v-65
			C295,291.187,274.813,271,250,271z M265,381c0,8.271-6.729,15-15,15h-45c-8.271,0-15-6.729-15-15v-65c0-8.271,6.729-15,15-15h45
			c8.271,0,15,6.729,15,15V381z"/>
	</g>
</g>
<g>
</g>
<g>
</g>
<g>
</g>
<g>
</g>
<g>
</g>
<g>
</g>
<g>
</g>
<g>
</g>
<g>
</g>
<g>
</g>
<g>
</g>
<g>
</g>
<g>
</g>
<g>
</g>
<g>
</g>
</svg>
