<?xml version="1.0" encoding="iso-8859-1"?>
<!-- Generator: Adobe Illustrator 19.0.0, SVG Export Plug-In . SVG Version: 6.00 Build 0)  -->
<svg version="1.1" id="Capa_1" xmlns="http://www.w3.org/2000/svg" xmlns:xlink="http://www.w3.org/1999/xlink" x="0px" y="0px"
	 viewBox="0 0 512 512" style="enable-background:new 0 0 512 512;" xml:space="preserve">
<g>
	<g>
		<path d="M437.02,74.98C388.667,26.629,324.38,0,256,0S123.333,26.629,74.98,74.98C26.629,123.333,0,187.62,0,256
			s26.629,132.667,74.98,181.02C123.333,485.371,187.62,512,256,512s132.667-26.629,181.02-74.98
			C485.371,388.667,512,324.38,512,256S485.371,123.333,437.02,74.98z M256,482c-107.442,0-197.603-75.366-220.417-176.007
			c19.33-6.323,39.029-11.824,58.847-16.453C109.969,364.494,176.508,421,256,421s146.031-56.506,161.57-131.46
			c19.827,4.632,39.521,10.129,58.848,16.451C453.604,406.633,363.443,482,256,482z M121,256c0-74.439,60.561-135,135-135
			s135,60.561,135,135s-60.561,135-135,135S121,330.439,121,256z M420.955,259.534C420.98,258.358,421,257.182,421,256
			c0-90.981-74.019-165-165-165S91,165.019,91,256c0,1.176,0.02,2.348,0.045,3.519c-20.238,4.624-40.365,10.146-60.15,16.472
			C30.314,269.402,30,262.737,30,256C30,131.383,131.383,30,256,30s226,101.383,226,226c0,6.738-0.314,13.403-0.895,19.993
			C461.325,269.669,441.203,264.161,420.955,259.534z"/>
	</g>
</g>
<g>
	<g>
		<path d="M256,151c-57.897,0-105,47.103-105,105c0,57.897,47.103,105,105,105c57.897,0,105-47.103,105-105
			C361,198.103,313.897,151,256,151z M256,331c-36.22,0-66.522-25.808-73.491-60h31.071c6.192,17.459,22.865,30,42.42,30
			s36.228-12.541,42.42-30h31.071C322.522,305.192,292.22,331,256,331z M241,256c0-8.271,6.729-15,15-15s15,6.729,15,15
			s-6.729,15-15,15S241,264.271,241,256z M298.42,241c-6.192-17.459-22.865-30-42.42-30c-19.555,0-36.228,12.541-42.42,30h-31.071
			c6.969-34.192,37.271-60,73.491-60c36.22,0,66.522,25.808,73.491,60H298.42z"/>
	</g>
</g>
<g>
</g>
<g>
</g>
<g>
</g>
<g>
</g>
<g>
</g>
<g>
</g>
<g>
</g>
<g>
</g>
<g>
</g>
<g>
</g>
<g>
</g>
<g>
</g>
<g>
</g>
<g>
</g>
<g>
</g>
</svg>
