<?xml version="1.0" encoding="iso-8859-1"?>
<!-- Generator: Adobe Illustrator 19.0.0, SVG Export Plug-In . SVG Version: 6.00 Build 0)  -->
<svg version="1.1" id="Capa_1" xmlns="http://www.w3.org/2000/svg" xmlns:xlink="http://www.w3.org/1999/xlink" x="0px" y="0px"
	 viewBox="0 0 512 512" style="enable-background:new 0 0 512 512;" xml:space="preserve">
<g>
	<g>
		<path d="M296.749,0H93.256v29.999h181.994c49.624,0,89.997,40.373,89.997,89.997c0,38.831-24.732,73.154-61.544,85.411
			l-173.378,57.724c-49.087,16.343-82.067,62.106-82.067,113.874V512h29.999v-31.72c0-38.831,24.732-73.154,61.519-85.402
			l209.639-69.368c68.384-22.71,114.329-86.413,114.329-158.516C463.743,74.913,388.829,0,296.749,0z M339.974,297.035
			l-209.65,69.371c-20.621,6.866-38.384,18.937-52.068,34.451v-23.852c0-38.831,24.732-73.154,61.545-85.411l173.378-57.724
			c49.086-16.343,82.066-62.106,82.066-113.873c0-23.646-6.879-45.715-18.735-64.317c34.633,24.886,57.234,65.509,57.234,111.315
			C433.744,226.15,396.055,278.411,339.974,297.035z"/>
	</g>
</g>
<g>
	<g>
		<path d="M443.093,481.983c-29.774,0-53.998-24.223-53.998-53.998v-74.997h-15c-43.835,0-79.497,35.663-79.497,79.497
			s35.662,79.497,79.497,79.497h89.646v-29.999H443.093z M374.096,481.983c-27.293,0-49.498-22.205-49.498-49.498
			c0-22.067,14.515-40.809,34.499-47.175v42.675c0,20.543,7.413,39.387,19.704,53.998H374.096z"/>
	</g>
</g>
<g>
</g>
<g>
</g>
<g>
</g>
<g>
</g>
<g>
</g>
<g>
</g>
<g>
</g>
<g>
</g>
<g>
</g>
<g>
</g>
<g>
</g>
<g>
</g>
<g>
</g>
<g>
</g>
<g>
</g>
</svg>
