<?xml version="1.0" encoding="iso-8859-1"?>
<!-- Generator: Adobe Illustrator 19.0.0, SVG Export Plug-In . SVG Version: 6.00 Build 0)  -->
<svg version="1.1" id="Capa_1" xmlns="http://www.w3.org/2000/svg" xmlns:xlink="http://www.w3.org/1999/xlink" x="0px" y="0px"
	 viewBox="0 0 512 512" style="enable-background:new 0 0 512 512;" xml:space="preserve">
<g>
	<g>
		<path d="M323.834,180.667H188.166c-8.271,0-15-6.761-15-15.07c0-8.271,6.729-15,15.004-15l286.33-0.074V0H188.166
			C96.817,0,22.5,74.318,22.5,165.667s74.317,165.667,165.682,165.667l135.652-0.14c8.271,0,15,6.729,15,15s-6.729,15-15,15H37.5
			V512h286.334c91.349,0,165.666-74.318,165.666-165.667S415.183,180.667,323.834,180.667z M67.5,391.192h256.334v0.001
			c24.813,0,45-20.187,45-45s-20.187-45-45.016-45l-135.652,0.14c-74.807,0-135.666-60.86-135.666-135.667S113.359,30,188.166,30
			H444.5v30.197l-256.334,0.066c-58.081,0-105.333,47.252-105.333,105.333c0,58.12,47.252,105.403,105.333,105.403h135.668
			c41.539,0,75.333,33.794,75.333,75.334c0,41.539-33.794,75.333-75.333,75.333H67.5V391.192z M323.834,482H67.5v-30.333h256.334
			c58.081,0,105.333-47.252,105.333-105.333c0-58.082-47.252-105.334-105.333-105.334H188.166
			c-41.539,0-75.333-33.826-75.333-75.403c0-41.539,33.794-75.333,75.337-75.333l256.33-0.066v30.333l-256.334,0.066
			c-24.813,0-45,20.187-45,45c0,24.852,20.187,45.07,45,45.07h135.668c74.807,0,135.666,60.86,135.666,135.667
			C459.5,421.14,398.641,482,323.834,482z"/>
	</g>
</g>
<g>
</g>
<g>
</g>
<g>
</g>
<g>
</g>
<g>
</g>
<g>
</g>
<g>
</g>
<g>
</g>
<g>
</g>
<g>
</g>
<g>
</g>
<g>
</g>
<g>
</g>
<g>
</g>
<g>
</g>
</svg>
