<?xml version="1.0" encoding="iso-8859-1"?>
<!-- Generator: Adobe Illustrator 19.0.0, SVG Export Plug-In . SVG Version: 6.00 Build 0)  -->
<svg version="1.1" id="Capa_1" xmlns="http://www.w3.org/2000/svg" xmlns:xlink="http://www.w3.org/1999/xlink" x="0px" y="0px"
	 viewBox="0 0 512 512" style="enable-background:new 0 0 512 512;" xml:space="preserve">
<g>
	<g>
		<path d="M0,79.854v259.205h512V79.854H0z M271,109.854h84.854l-18.699,57.549H271V109.854z M30,109.854h84.854l-18.699,57.549H30
			V109.854z M50.129,309.058H30v-97.216l41.839,30.397L50.129,309.058z M107.192,309.058l28.308-20.567l28.309,20.567H107.192z
			 M135.5,251.409l-45.941,33.379l17.548-54.008l-45.941-33.378h56.786l17.548-54.008l17.548,54.008h56.786l-45.941,33.378
			l17.548,54.008L135.5,251.409z M241,309.059h-20.129l-21.71-66.82L241,211.842V309.059z M241,167.402h-66.156l-18.699-57.549H241
			V167.402z M291.129,309.058H271v-97.216l41.839,30.397L291.129,309.058z M348.192,309.059l28.309-20.567l28.308,20.567H348.192z
			 M376.5,251.409l-45.941,33.379l17.548-54.008l-45.941-33.378h56.786l17.548-54.008l17.548,54.008h56.786l-45.941,33.378
			l17.548,54.008L376.5,251.409z M482,309.059h-20.129l-21.71-66.819L482,211.842V309.059z M482,167.402h-66.156l-18.699-57.549H482
			V167.402z"/>
	</g>
</g>
<g>
	<g>
		<polygon points="0,369.058 0,382.018 18.81,382.018 18.81,432.146 34.829,432.146 34.829,382.018 53.818,382.018 53.818,369.058 
					"/>
	</g>
</g>
<g>
	<g>
		<path d="M125.559,369.059H109.09v-0.001l-27.18,62.999h16.47l4.59-11.609h27.539l4.5,11.609h17.099L125.559,369.059z
			 M107.65,408.297l9.18-23.309l9,23.309H107.65z"/>
	</g>
</g>
<g>
	<g>
		<polygon points="239.948,369.058 222.849,406.587 205.75,369.058 188.2,369.058 188.2,432.146 202.51,432.146 202.51,391.198 
			217.63,425.847 228.069,425.847 243.188,391.198 243.278,432.146 257.408,432.146 257.408,369.058 		"/>
	</g>
</g>
<g>
	<g>
		<rect x="301.5" y="369.06" width="16.02" height="62.998"/>
	</g>
</g>
<g>
	<g>
		<polygon points="400.691,369.058 385.841,396.508 370.632,369.058 354.613,369.058 377.922,412.167 377.922,432.057 
			393.851,432.057 393.851,411.717 416.71,369.058 		"/>
	</g>
</g>
<g>
	<g>
		<path d="M485.451,369.058h-16.47v0l-27.179,62.998h16.47l4.59-11.609h27.539l4.499,11.609H512L485.451,369.058z M467.542,408.297
			l9.18-23.309l8.999,23.309H467.542z"/>
	</g>
</g>
<g>
</g>
<g>
</g>
<g>
</g>
<g>
</g>
<g>
</g>
<g>
</g>
<g>
</g>
<g>
</g>
<g>
</g>
<g>
</g>
<g>
</g>
<g>
</g>
<g>
</g>
<g>
</g>
<g>
</g>
</svg>
