<?xml version="1.0" encoding="iso-8859-1"?>
<!-- Generator: Adobe Illustrator 19.0.0, SVG Export Plug-In . SVG Version: 6.00 Build 0)  -->
<svg version="1.1" id="Capa_1" xmlns="http://www.w3.org/2000/svg" xmlns:xlink="http://www.w3.org/1999/xlink" x="0px" y="0px"
	 viewBox="0 0 512 512" style="enable-background:new 0 0 512 512;" xml:space="preserve">
<g>
	<g>
		<polygon points="334.107,0.006 324.18,90 271,90 271,0 241,0 241,90 187.819,90 177.893,0.006 148.073,3.295 160.946,120 
			351.053,120 363.926,3.295 		"/>
	</g>
</g>
<g>
	<g>
		<polygon points="334.328,271.644 347.745,150 164.255,150 197.563,452 314.436,452 326.056,346.645 296.238,343.355 287.563,422 
			224.436,422 210.98,299.999 271,299.999 271,269.999 207.671,269.999 197.745,180 314.255,180 304.51,268.354 		"/>
	</g>
</g>
<g>
	<g>
		<rect x="196" y="482" width="120" height="30"/>
	</g>
</g>
<g>
	<g>
		<polygon points="76.547,351.13 149.676,291.464 134.073,150 12.958,150 35.635,287.449 65.235,282.566 48.314,180 107.199,180 
			118.067,278.534 44.119,338.87 62.783,452 118.871,452 118.871,422 88.239,422 		"/>
	</g>
</g>
<g>
	<g>
		<polygon points="476.364,287.449 499.042,150 377.927,150 362.325,291.464 435.453,351.13 423.76,422 393.129,422 393.129,452 
			449.218,452 467.881,338.87 393.932,278.534 404.801,180 463.686,180 446.764,282.566 		"/>
	</g>
</g>
<g>
</g>
<g>
</g>
<g>
</g>
<g>
</g>
<g>
</g>
<g>
</g>
<g>
</g>
<g>
</g>
<g>
</g>
<g>
</g>
<g>
</g>
<g>
</g>
<g>
</g>
<g>
</g>
<g>
</g>
</svg>
