<?xml version="1.0" encoding="iso-8859-1"?>
<!-- Generator: Adobe Illustrator 19.0.0, SVG Export Plug-In . SVG Version: 6.00 Build 0)  -->
<svg version="1.1" id="Capa_1" xmlns="http://www.w3.org/2000/svg" xmlns:xlink="http://www.w3.org/1999/xlink" x="0px" y="0px"
	 viewBox="0 0 512 512" style="enable-background:new 0 0 512 512;" xml:space="preserve">
<g>
	<g>
		<path d="M437.02,74.98C388.667,26.629,324.38,0,256,0S123.333,26.629,74.98,74.98C26.629,123.333,0,187.62,0,256
			s26.629,132.667,74.98,181.02C123.333,485.371,187.62,512,256,512s132.667-26.629,181.02-74.98
			C485.371,388.667,512,324.38,512,256S485.371,123.333,437.02,74.98z M256,30c49.189,0,94.751,15.806,131.894,42.593
			c-46.245,5.02-91.135,19.016-131.894,41.252c-40.759-22.236-85.649-36.232-131.894-41.252C161.249,45.806,206.811,30,256,30z
			 M291.795,173.962c55.821,45.641,94.173,107.353,110.637,175.811c-34.594-54.624-81.844-110.399-136.325-160.099l-10.109-9.222
			l-10.109,9.222c-54.479,49.698-101.728,105.471-136.322,160.095c16.465-68.456,54.818-130.167,110.639-175.807l14.488-11.846
			l-14.714-11.562c-19.174-15.065-38.542-28.787-57.693-40.92c30.185,7.278,59.255,18.827,86.207,34.4l7.505,4.336l7.505-4.336
			c26.954-15.574,56.025-27.123,86.212-34.401c-19.149,12.132-38.517,25.855-57.693,40.921l-14.715,11.562L291.795,173.962z
			 M72.578,387.874C45.8,350.735,30,305.18,30,256c0-58.664,22.473-112.174,59.255-152.388
			c31.121,14.384,64.457,34.658,97.688,59.43C122.259,221.82,81.891,301.506,72.578,387.874z M256,482
			c-58.666,0-112.177-22.474-152.391-59.258c30.298-65.667,85-138.021,152.39-201.532
			c67.391,63.512,122.094,135.866,152.392,201.532C368.177,459.526,314.666,482,256,482z M325.061,163.043
			c33.236-24.776,66.568-45.049,97.683-59.43C459.527,143.826,482,197.336,482,256c0,49.18-15.8,94.735-42.578,131.874
			C430.109,301.506,389.744,221.82,325.061,163.043z"/>
	</g>
</g>
<g>
</g>
<g>
</g>
<g>
</g>
<g>
</g>
<g>
</g>
<g>
</g>
<g>
</g>
<g>
</g>
<g>
</g>
<g>
</g>
<g>
</g>
<g>
</g>
<g>
</g>
<g>
</g>
<g>
</g>
</svg>
