<?xml version="1.0" encoding="iso-8859-1"?>
<!-- Generator: Adobe Illustrator 19.0.0, SVG Export Plug-In . SVG Version: 6.00 Build 0)  -->
<svg version="1.1" id="Capa_1" xmlns="http://www.w3.org/2000/svg" xmlns:xlink="http://www.w3.org/1999/xlink" x="0px" y="0px"
	 viewBox="0 0 512 512" style="enable-background:new 0 0 512 512;" xml:space="preserve">
<g>
	<g>
		<path d="M0,0v512h512V0H0z M482,482H30V30h452V482z"/>
	</g>
</g>
<g>
	<g>
		<path d="M362,60v30.228h-91V60h-30v100.361c0,9.555-8.447,20.346-17.724,22.64L90,215.954v-85.592H60V422h30v-30
			c0-24.816,20.187-45.006,45-45.006l46,0.001V422h30v-75.004l30,0.001V452h30V346.997L362,347v105h30V60H362z M362,317l-227-0.005
			c-16.871,0-32.456,5.603-45,15.042v-85.179l140.478-34.734C253.2,206.505,271,183.769,271,160.361v-40.133h91V317z"/>
	</g>
</g>
<g>
	<g>
		<rect x="422" y="60" width="30" height="392"/>
	</g>
</g>
<g>
</g>
<g>
</g>
<g>
</g>
<g>
</g>
<g>
</g>
<g>
</g>
<g>
</g>
<g>
</g>
<g>
</g>
<g>
</g>
<g>
</g>
<g>
</g>
<g>
</g>
<g>
</g>
<g>
</g>
</svg>
