<?xml version="1.0" encoding="iso-8859-1"?>
<!-- Generator: Adobe Illustrator 19.0.0, SVG Export Plug-In . SVG Version: 6.00 Build 0)  -->
<svg version="1.1" id="Layer_1" xmlns="http://www.w3.org/2000/svg" xmlns:xlink="http://www.w3.org/1999/xlink" x="0px" y="0px"
	 viewBox="0 0 511.997 511.997" style="enable-background:new 0 0 511.997 511.997;" xml:space="preserve">
<path style="fill:#BE876B;" d="M488.052,504.018c-4.086,0-8.172-1.56-11.29-4.676c-16.159-16.158-19.44-48.864-23.98-94.131
	c-5.599-55.818-13.135-130.913-49.071-195.962c-12.108,3.55-25.857,0.47-35.515-9.19l-56.254-56.254
	c-6.69-6.689-10.455-15.556-10.605-24.969c-0.058-3.632,0.422-7.174,1.404-10.54C237.932,72.531,163.112,65.036,107.49,59.463
	c-45.554-4.564-78.467-7.862-94.831-24.226c-6.236-6.235-6.236-16.344,0-22.578c6.235-6.236,16.344-6.236,22.578,0
	c8.306,8.306,42.433,11.725,75.436,15.032C173.38,33.974,259.26,42.58,333.337,89.291c4.106,2.589,6.811,6.906,7.351,11.73
	c0.539,4.825-1.145,9.632-4.577,13.065l-2.033,2.033c-0.691,0.692-0.825,1.583-0.815,2.208c0.01,0.623,0.186,1.828,1.256,2.899
	l56.254,56.254c1.478,1.478,3.865,1.685,5.108,0.442l2.037-2.036c3.433-3.432,8.235-5.117,13.063-4.577
	c4.823,0.539,9.139,3.242,11.73,7.347c46.892,74.32,55.533,160.467,61.843,223.368c3.286,32.761,6.685,66.637,14.787,74.739
	c6.236,6.235,6.236,16.344,0,22.578C496.224,502.46,492.138,504.018,488.052,504.018z"/>
<polygon style="fill:#AA6455;" points="63.862,407.937 103.776,407.937 159.655,352.058 119.741,352.058 "/>
<polygon style="fill:#874641;" points="103.776,447.851 159.655,391.971 159.655,352.058 103.776,407.937 "/>
<path d="M504.986,471.119c-0.841-0.842-3.832-5.045-6.971-23.796c-2.229-13.316-3.901-29.979-5.518-46.096
	c-6.388-63.691-15.138-150.92-63.035-226.832c-3.907-6.192-10.32-10.208-17.595-11.021c-6.675-0.746-13.235,1.3-18.271,5.638
	l-19.804-19.804l78.922-78.922l-5.273,15.817c-1.394,4.182,0.866,8.703,5.049,10.097c0.837,0.279,1.688,0.412,2.526,0.412
	c3.343,0,6.457-2.115,7.572-5.46l15.965-47.896c0.011-0.032,0.017-0.065,0.027-0.097c0.025-0.077,0.051-0.153,0.073-0.231
	c0.027-0.094,0.047-0.19,0.071-0.284c0.023-0.092,0.047-0.184,0.066-0.275c0.012-0.058,0.025-0.115,0.036-0.173
	c0.02-0.104,0.032-0.21,0.048-0.315c0.015-0.103,0.031-0.206,0.042-0.308c0.004-0.042,0.01-0.085,0.013-0.127
	c0.01-0.11,0.013-0.221,0.019-0.33c0.005-0.11,0.012-0.22,0.013-0.329c0-0.036,0-0.073,0-0.109c-0.001-0.11-0.007-0.22-0.013-0.329
	c-0.005-0.111-0.009-0.221-0.019-0.33c-0.004-0.042-0.009-0.085-0.013-0.127c-0.011-0.103-0.027-0.206-0.042-0.308
	c-0.015-0.105-0.028-0.211-0.048-0.315c-0.011-0.058-0.024-0.115-0.036-0.173c-0.02-0.092-0.043-0.184-0.066-0.275
	c-0.023-0.095-0.044-0.191-0.071-0.284c-0.022-0.078-0.048-0.154-0.073-0.231c-0.01-0.032-0.016-0.065-0.027-0.097
	c-0.018-0.053-0.042-0.103-0.061-0.155c-0.028-0.078-0.053-0.157-0.083-0.234c-0.034-0.087-0.073-0.173-0.11-0.259
	c-0.038-0.088-0.079-0.174-0.119-0.259c-0.029-0.061-0.056-0.123-0.087-0.184c-0.043-0.084-0.089-0.166-0.135-0.247
	c-0.051-0.092-0.103-0.183-0.158-0.271c-0.033-0.055-0.066-0.111-0.101-0.165c-0.046-0.072-0.095-0.143-0.144-0.214
	c-0.062-0.091-0.125-0.18-0.191-0.267c-0.044-0.059-0.09-0.118-0.136-0.176s-0.094-0.115-0.142-0.172
	c-0.069-0.082-0.138-0.163-0.209-0.241c-0.062-0.068-0.126-0.135-0.191-0.201c-0.024-0.025-0.044-0.051-0.068-0.076
	c-0.024-0.024-0.051-0.044-0.075-0.068c-0.067-0.065-0.134-0.13-0.203-0.193c-0.078-0.071-0.158-0.139-0.238-0.207
	c-0.057-0.048-0.114-0.095-0.171-0.141c-0.059-0.047-0.119-0.093-0.18-0.138c-0.087-0.065-0.176-0.127-0.265-0.189
	c-0.071-0.049-0.141-0.097-0.213-0.143c-0.055-0.035-0.111-0.068-0.167-0.102c-0.089-0.054-0.179-0.106-0.27-0.157
	c-0.082-0.046-0.164-0.091-0.246-0.134c-0.061-0.031-0.123-0.058-0.185-0.087c-0.087-0.042-0.174-0.082-0.263-0.121
	c-0.085-0.037-0.169-0.075-0.254-0.108c-0.077-0.03-0.156-0.055-0.234-0.083c-0.053-0.019-0.104-0.043-0.158-0.062
	c-0.033-0.011-0.067-0.017-0.101-0.028c-0.075-0.024-0.15-0.049-0.226-0.071c-0.094-0.027-0.189-0.047-0.283-0.071
	c-0.093-0.023-0.186-0.047-0.279-0.067c-0.057-0.012-0.113-0.025-0.17-0.036c-0.104-0.02-0.21-0.032-0.314-0.048
	c-0.104-0.015-0.209-0.032-0.312-0.043c-0.041-0.004-0.082-0.009-0.123-0.013c-0.111-0.01-0.221-0.014-0.332-0.019
	c-0.111-0.005-0.221-0.012-0.33-0.013c-0.035,0-0.07,0-0.105,0c-0.111,0.001-0.223,0.007-0.334,0.013
	c-0.11,0.005-0.221,0.009-0.329,0.019c-0.041,0.004-0.082,0.009-0.123,0.013c-0.105,0.011-0.21,0.028-0.314,0.043
	c-0.105,0.015-0.21,0.028-0.313,0.048c-0.057,0.011-0.113,0.024-0.17,0.035c-0.094,0.02-0.188,0.044-0.281,0.067
	c-0.094,0.023-0.189,0.044-0.282,0.07c-0.076,0.022-0.151,0.047-0.226,0.071c-0.034,0.011-0.067,0.017-0.101,0.028l-47.896,15.965
	c-4.182,1.394-6.443,5.915-5.049,10.097c1.115,3.346,4.23,5.46,7.572,5.46c0.836,0,1.688-0.133,2.526-0.412l15.817-5.273
	l-78.922,78.922l-19.516-19.517c4.338-5.035,6.38-11.596,5.634-18.27c-0.814-7.275-4.833-13.688-11.026-17.595
	c-75.668-47.714-162.63-56.427-226.134-62.79c-16.231-1.626-33.015-3.308-46.445-5.571c-18.937-3.189-23.261-6.289-24.135-7.163
	c-4.518-4.518-10.532-7.01-16.929-7.01S11.537,2.493,7.015,7.016C2.492,11.539,0,17.553,0,23.949S2.492,36.36,7.015,40.884
	c7.697,7.697,18.164,12.764,31.187,16.409l202.465,202.465l-84.318,84.318h-36.608c-0.03,0-0.059,0.004-0.089,0.004
	c-0.232,0.003-0.465,0.012-0.696,0.035c-0.129,0.013-0.254,0.036-0.381,0.055c-0.131,0.019-0.261,0.034-0.391,0.06
	c-0.142,0.028-0.278,0.067-0.417,0.102c-0.114,0.029-0.228,0.054-0.34,0.088c-0.136,0.041-0.266,0.092-0.399,0.14
	c-0.113,0.041-0.228,0.078-0.338,0.124c-0.124,0.051-0.242,0.112-0.363,0.169c-0.116,0.055-0.231,0.106-0.345,0.167
	c-0.117,0.063-0.229,0.134-0.342,0.203c-0.11,0.066-0.221,0.128-0.327,0.199c-0.128,0.086-0.247,0.18-0.37,0.272
	c-0.086,0.065-0.174,0.124-0.257,0.193c-0.206,0.169-0.403,0.346-0.591,0.534l-55.871,55.871c-0.188,0.188-0.365,0.384-0.534,0.59
	c-0.072,0.087-0.134,0.179-0.201,0.267c-0.09,0.119-0.182,0.235-0.264,0.36c-0.074,0.111-0.138,0.225-0.206,0.337
	c-0.066,0.11-0.135,0.217-0.196,0.331c-0.063,0.118-0.116,0.238-0.173,0.358c-0.055,0.116-0.113,0.229-0.162,0.348
	c-0.049,0.118-0.088,0.237-0.131,0.357c-0.045,0.126-0.094,0.25-0.133,0.379c-0.037,0.122-0.064,0.244-0.095,0.367
	c-0.033,0.13-0.069,0.257-0.095,0.39c-0.029,0.144-0.046,0.289-0.067,0.434c-0.016,0.113-0.038,0.224-0.049,0.337
	c-0.052,0.525-0.052,1.053,0,1.578c0.011,0.114,0.033,0.225,0.049,0.337c0.021,0.145,0.038,0.29,0.067,0.434
	c0.026,0.133,0.063,0.26,0.095,0.39c0.031,0.123,0.058,0.245,0.095,0.367c0.039,0.129,0.088,0.253,0.133,0.379
	c0.043,0.12,0.082,0.239,0.131,0.357c0.049,0.119,0.107,0.233,0.162,0.348c0.057,0.12,0.11,0.241,0.173,0.358
	c0.061,0.114,0.13,0.222,0.196,0.331c0.068,0.113,0.132,0.228,0.206,0.337c0.083,0.124,0.175,0.24,0.264,0.36
	c0.067,0.089,0.129,0.181,0.201,0.267c0.334,0.408,0.708,0.782,1.117,1.117c0.084,0.069,0.172,0.128,0.257,0.193
	c0.123,0.092,0.242,0.187,0.37,0.272c0.108,0.072,0.22,0.134,0.329,0.2c0.113,0.068,0.224,0.139,0.34,0.201
	c0.115,0.061,0.233,0.114,0.35,0.169c0.119,0.056,0.235,0.115,0.357,0.166c0.114,0.047,0.231,0.086,0.347,0.127
	c0.13,0.047,0.257,0.097,0.39,0.137c0.117,0.035,0.235,0.061,0.353,0.091c0.134,0.034,0.266,0.072,0.403,0.099
	c0.139,0.028,0.278,0.044,0.418,0.064c0.118,0.017,0.233,0.04,0.353,0.051c0.261,0.026,0.525,0.04,0.787,0.04h31.931v31.928
	c0,0.264,0.014,0.528,0.04,0.791c0.011,0.114,0.033,0.225,0.049,0.337c0.021,0.145,0.038,0.29,0.066,0.434
	c0.026,0.133,0.063,0.26,0.095,0.39c0.031,0.123,0.058,0.245,0.095,0.367c0.039,0.129,0.088,0.253,0.133,0.379
	c0.043,0.12,0.082,0.239,0.131,0.357c0.049,0.119,0.107,0.232,0.162,0.348c0.057,0.12,0.11,0.241,0.173,0.358
	c0.061,0.114,0.13,0.221,0.196,0.331c0.068,0.113,0.132,0.228,0.205,0.337c0.083,0.124,0.175,0.24,0.264,0.36
	c0.067,0.089,0.129,0.181,0.201,0.267c0.334,0.408,0.708,0.782,1.117,1.117c0.084,0.069,0.172,0.128,0.257,0.193
	c0.123,0.092,0.242,0.187,0.37,0.272c0.108,0.072,0.22,0.134,0.329,0.2c0.113,0.068,0.224,0.139,0.34,0.201
	c0.115,0.061,0.233,0.114,0.35,0.169c0.119,0.056,0.235,0.115,0.357,0.166c0.115,0.047,0.231,0.086,0.347,0.127
	c0.13,0.047,0.257,0.097,0.39,0.137c0.117,0.035,0.235,0.061,0.353,0.091c0.134,0.034,0.266,0.072,0.403,0.099
	c0.139,0.028,0.278,0.044,0.418,0.064c0.118,0.017,0.233,0.04,0.353,0.051c0.261,0.026,0.525,0.04,0.787,0.04
	c0.262,0,0.526-0.014,0.787-0.04c0.12-0.012,0.235-0.034,0.353-0.051c0.14-0.02,0.279-0.036,0.418-0.064
	c0.137-0.027,0.269-0.065,0.403-0.099c0.118-0.03,0.236-0.056,0.353-0.091c0.133-0.04,0.26-0.09,0.39-0.137
	c0.116-0.042,0.232-0.08,0.347-0.127c0.122-0.051,0.238-0.11,0.357-0.166c0.118-0.055,0.235-0.108,0.35-0.169
	c0.117-0.063,0.228-0.133,0.34-0.201c0.11-0.066,0.222-0.128,0.329-0.2c0.128-0.086,0.247-0.18,0.37-0.272
	c0.086-0.065,0.174-0.124,0.257-0.193c0.206-0.169,0.403-0.346,0.591-0.534l55.871-55.871c0.188-0.188,0.365-0.384,0.534-0.59
	c0.072-0.087,0.133-0.179,0.201-0.267c0.09-0.119,0.182-0.236,0.264-0.36c0.074-0.111,0.138-0.225,0.206-0.337
	c0.066-0.11,0.135-0.218,0.196-0.331c0.063-0.118,0.117-0.239,0.174-0.36c0.055-0.116,0.112-0.229,0.161-0.346
	c0.049-0.119,0.089-0.24,0.132-0.36c0.045-0.126,0.093-0.249,0.132-0.377c0.037-0.122,0.064-0.244,0.095-0.367
	c0.033-0.13,0.069-0.257,0.095-0.39c0.029-0.144,0.046-0.289,0.066-0.434c0.016-0.113,0.038-0.224,0.049-0.337
	c0.026-0.263,0.04-0.527,0.04-0.791v-36.605l84.318-84.318l202.892,202.892c3.612,12.988,8.634,23.411,16.272,31.048
	c4.523,4.523,10.537,7.015,16.933,7.015c6.396,0,12.41-2.492,16.933-7.014c4.523-4.523,7.015-10.537,7.015-16.934
	C512,481.657,509.509,475.643,504.986,471.119z M111.758,411.244l29.593-29.593c3.118-3.117,3.118-8.171,0-11.29
	c-3.117-3.117-8.171-3.117-11.289,0l-29.592,29.593H83.133l39.914-39.914h28.625v28.624l-39.914,39.914V411.244z M15.965,23.949
	c0-2.132,0.83-4.137,2.339-5.645c1.507-1.508,3.511-2.338,5.644-2.338s4.137,0.83,5.645,2.339
	c9.625,9.625,36.75,12.968,80.284,17.331c61.917,6.204,146.716,14.7,219.202,60.408c2.065,1.302,3.405,3.441,3.676,5.865
	c0.271,2.426-0.563,4.807-2.288,6.533l-2.033,2.033c-2.082,2.082-3.202,4.918-3.152,7.978c0.049,3.161,1.326,6.151,3.594,8.419
	l22.339,22.339l-11.29,11.29l-22.339-22.339c-5.216-5.215-8.151-12.122-8.268-19.451c-0.045-2.803,0.32-5.554,1.086-8.176
	c1.047-3.587-0.535-7.42-3.806-9.225C240.36,64.755,164.031,57.107,108.286,51.522c-43.908-4.399-75.632-7.579-89.981-21.928
	C16.797,28.086,15.965,26.082,15.965,23.949z M66.346,62.859c12.119,1.719,25.599,3.07,40.361,4.549
	c52.89,5.3,124.798,12.506,187.017,45.101c-0.279,2.126-0.402,4.282-0.368,6.453c0.184,11.497,4.78,22.325,12.943,30.486
	l22.339,22.339l-76.681,76.681L66.346,62.859z M263.245,259.757l76.681-76.681l22.627,22.627
	c9.831,9.832,23.529,14.378,36.956,12.577c32.765,62.465,40.006,134.642,45.332,187.728c1.46,14.559,2.796,27.86,4.485,39.83
	L263.245,259.757z M493.697,493.698c-1.508,1.508-3.512,2.338-5.645,2.338c-2.132,0-4.136-0.83-5.645-2.338
	c-14.145-14.145-17.307-45.662-21.682-89.283c-5.611-55.934-13.295-132.538-50.026-199.026c-1.433-2.593-4.139-4.123-6.987-4.123
	c-0.745,0-1.502,0.105-2.246,0.323c-9.753,2.86-20.34,0.112-27.625-7.173l-22.627-22.627l11.29-11.29l22.628,22.628
	c4.643,4.641,11.998,4.839,16.396,0.441l2.036-2.036c1.726-1.725,4.107-2.56,6.532-2.289c2.425,0.27,4.562,1.61,5.864,3.674
	c45.889,72.73,54.421,157.794,60.652,219.91c4.336,43.223,7.649,70.147,17.085,79.584c1.508,1.508,2.338,3.512,2.338,5.644
	C496.035,490.185,495.204,492.19,493.697,493.698z"/>
<g>
</g>
<g>
</g>
<g>
</g>
<g>
</g>
<g>
</g>
<g>
</g>
<g>
</g>
<g>
</g>
<g>
</g>
<g>
</g>
<g>
</g>
<g>
</g>
<g>
</g>
<g>
</g>
<g>
</g>
</svg>
