<?xml version="1.0" encoding="iso-8859-1"?>
<!-- Generator: Adobe Illustrator 19.0.0, SVG Export Plug-In . SVG Version: 6.00 Build 0)  -->
<svg version="1.1" id="Layer_1" xmlns="http://www.w3.org/2000/svg" xmlns:xlink="http://www.w3.org/1999/xlink" x="0px" y="0px"
	 viewBox="0 0 512 512" style="enable-background:new 0 0 512 512;" xml:space="preserve">
<circle style="fill:#515262;" cx="256" cy="256" r="248"/>
<path style="fill:#5B5D6E;" d="M328,136V88c0-17.6-14.4-32-32-32h-80c-17.6,0-32,14.4-32,32v96H88c-17.6,0-32,14.4-32,32v80
	c0,17.6,14.4,32,32,32h96v96c0,17.6,14.4,32,32,32h80c17.6,0,32-14.4,32-32v-96h96c17.6,0,32-14.4,32-32v-40v-32v-8
	c0-17.6-14.4-32-32-32h-96v-16V136z"/>
<g>
	<circle style="fill:#E4EAF6;" cx="256" cy="256" r="56"/>
	<polygon style="fill:#E4EAF6;" points="152,296 88,256 152,216 	"/>
	<polygon style="fill:#E4EAF6;" points="360,296 424,256 360,216 	"/>
	<polygon style="fill:#E4EAF6;" points="296,360 256,424 216,360 	"/>
	<polygon style="fill:#E4EAF6;" points="296,152 256,88 216,152 	"/>
</g>
<path d="M437.02,74.98C388.668,26.629,324.38,0,256,0S123.332,26.629,74.98,74.98C26.628,123.333,0,187.62,0,256
	s26.628,132.667,74.98,181.02C123.332,485.371,187.62,512,256,512s132.668-26.629,181.02-74.98C485.372,388.667,512,324.38,512,256
	S485.372,123.333,437.02,74.98z M256,496C123.664,496,16,388.336,16,256S123.664,16,256,16s240,107.664,240,240S388.336,496,256,496
	z M320,256c0,35.29-28.71,64-64,64s-64-28.71-64-64s28.71-64,64-64c11.25,0,22.317,2.962,32.006,8.567
	c3.824,2.212,5.131,7.105,2.919,10.93c-2.212,3.825-7.107,5.131-10.931,2.919C272.738,210.219,264.44,208,256,208
	c-26.467,0-48,21.533-48,48s21.533,48,48,48s48-21.533,48-48c0-8.44-2.219-16.737-6.417-23.994
	c-2.212-3.824-0.905-8.718,2.919-10.931c3.823-2.213,8.718-0.906,10.931,2.919C317.038,233.683,320,244.751,320,256z M464,216v8
	c0,4.418-3.582,8-8,8s-8-3.582-8-8v-8c0-13.233-10.766-24-24-24h-96c-4.418,0-8-3.582-8-8v-16c0-4.418,3.582-8,8-8s8,3.582,8,8v8h88
	C446.056,176,464,193.944,464,216z M464,255.999V296c0,22.056-17.944,40-40,40h-88v88c0,22.056-17.944,40-40,40h-80
	c-22.056,0-40-17.944-40-40v-88H88c-22.056,0-40-17.944-40-40v-80c0-22.056,17.944-40,40-40h88V88c0-22.056,17.944-40,40-40h80
	c22.056,0,40,17.944,40,40v48c0,4.419-3.582,8-8,8s-8-3.581-8-8V88c0-13.233-10.766-24-24-24h-80c-13.234,0-24,10.767-24,24v96
	c0,4.418-3.581,8-8,8H88c-13.234,0-24,10.767-24,24v80c0,13.233,10.766,24,24,24h96c4.419,0,8,3.582,8,8v96
	c0,13.233,10.766,24,24,24h80c13.234,0,24-10.767,24-24v-96c0-4.418,3.582-8,8-8h96c13.234,0,24-10.767,24-24v-40.001
	c0-4.418,3.582-8,8-8S464,251.581,464,255.999z M147.76,209.216l-64,40C81.421,250.678,80,253.242,80,256s1.421,5.322,3.76,6.784
	l64,40c1.295,0.809,2.766,1.216,4.241,1.216c1.333,0,2.669-0.333,3.877-1.003c2.544-1.41,4.122-4.089,4.122-6.997v-80
	c0-2.908-1.578-5.587-4.122-6.997C153.334,207.593,150.226,207.675,147.76,209.216z M144,281.566L103.094,256L144,230.434V281.566z
	 M360,304c1.474,0,2.946-0.407,4.241-1.216l64-40c2.339-1.462,3.76-4.026,3.76-6.784s-1.421-5.322-3.76-6.784l-64-40
	c-2.466-1.541-5.574-1.623-8.118-0.213s-4.122,4.089-4.122,6.997v80c0,2.908,1.578,5.587,4.122,6.997
	C357.33,303.667,358.666,304,360,304z M368,230.434L408.906,256L368,281.566V230.434z M296,352h-80
	c-2.908,0-5.587,1.578-6.997,4.122c-1.41,2.543-1.328,5.652,0.213,8.118l40,64c1.462,2.339,4.026,3.76,6.784,3.76
	s5.322-1.421,6.784-3.76l40-64c1.541-2.466,1.622-5.575,0.213-8.118C301.587,353.578,298.908,352,296,352z M256,408.905L230.434,368
	h51.132L256,408.905z M216,160h80c2.908,0,5.587-1.578,6.997-4.122c1.41-2.543,1.328-5.652-0.213-8.118l-40-64
	C261.322,81.421,258.758,80,256,80s-5.322,1.421-6.784,3.76l-40,64c-1.541,2.466-1.622,5.575-0.213,8.118
	C210.413,158.422,213.092,160,216,160z M256,103.095L281.566,144h-51.132L256,103.095z"/>
<g>
</g>
<g>
</g>
<g>
</g>
<g>
</g>
<g>
</g>
<g>
</g>
<g>
</g>
<g>
</g>
<g>
</g>
<g>
</g>
<g>
</g>
<g>
</g>
<g>
</g>
<g>
</g>
<g>
</g>
</svg>
