<?xml version="1.0" encoding="iso-8859-1"?>
<!-- Generator: Adobe Illustrator 19.0.0, SVG Export Plug-In . SVG Version: 6.00 Build 0)  -->
<svg version="1.1" id="Layer_1" xmlns="http://www.w3.org/2000/svg" xmlns:xlink="http://www.w3.org/1999/xlink" x="0px" y="0px"
	 viewBox="0 0 512 512" style="enable-background:new 0 0 512 512;" xml:space="preserve">
<path style="fill:#C7CFE2;" d="M471.838,264c0,13.2-10.8,24-24,24H64.16c-13.2,0-24-10.8-24-24V32c0-13.2,10.8-24,24-24h383.679
	c13.2,0,24,10.8,24,24v232H471.838z"/>
<rect x="72.159" y="40" style="fill:#464655;" width="368" height="216"/>
<rect x="208.159" y="288" style="fill:#AEB5CA;" width="96" height="48"/>
<path style="fill:#707487;" d="M336.16,488c0,8.8-7.2,16-16,16h-224c-8.8,0-16-7.2-16-16V384c0-8.8,7.2-16,16-16h224
	c8.8,0,16,7.2,16,16V488z"/>
<path style="fill:#5B5D6E;" d="M457.16,472c0,17.6-14.4,32-32,32h-17c-17.6,0-32-14.4-32-32v-72c0-17.6,14.4-32,32-32h17
	c17.6,0,32,14.4,32,32V472z"/>
<path d="M447.838,0H64.16c-17.645,0-32,14.356-32,32v232c0,17.645,14.355,32,32,32h136v32h-24c-4.418,0-8,3.582-8,8s3.582,8,8,8h160
	c4.419,0,8-3.582,8-8s-3.581-8-8-8h-24v-32H447.84c17.645,0,32-14.355,32-32V32C479.838,14.356,465.483,0,447.838,0z M296.16,328
	h-80v-32h80V328z M463.838,264c0,8.822-7.178,16-16,16H64.16c-8.822,0-16-7.178-16-16V32c0-8.822,7.178-16,16-16h383.679
	c8.822,0,16,7.178,16,16v232H463.838z M440.16,32h-368c-4.419,0-8,3.582-8,8v216c0,4.418,3.581,8,8,8h368c4.419,0,8-3.582,8-8V40
	C448.16,35.582,444.578,32,440.16,32z M432.16,248h-352V48h352V248z M320.16,360h-224c-13.233,0-24,10.767-24,24v104
	c0,13.233,10.767,24,24,24h224c13.233,0,24-10.767,24-24V384C344.16,370.767,333.393,360,320.16,360z M328.16,488
	c0,4.411-3.589,8-8,8h-224c-4.411,0-8-3.589-8-8V384c0-4.411,3.589-8,8-8h224c4.411,0,8,3.589,8,8V488z M144.16,448
	c0,4.418-3.581,8-8,8h-24c-4.419,0-8-3.582-8-8s3.581-8,8-8h24C140.578,440,144.16,443.582,144.16,448z M312.16,424v24
	c0,4.418-3.581,8-8,8h-24c-4.418,0-8-3.582-8-8s3.582-8,8-8h16v-16c0-4.418,3.582-8,8-8S312.16,419.582,312.16,424z M240.16,472
	c0,4.418-3.581,8-8,8h-48c-4.418,0-8-3.582-8-8s3.582-8,8-8h48C236.578,464,240.16,467.582,240.16,472z M106.499,405.649
	c-1.49-1.48-2.34-3.55-2.34-5.649c0-2.11,0.85-4.17,2.34-5.66c1.49-1.49,3.55-2.34,5.66-2.34c2.1,0,4.17,0.85,5.66,2.34
	s2.34,3.55,2.34,5.66c0,2.109-0.85,4.17-2.34,5.649c-1.49,1.5-3.55,2.351-5.66,2.351S107.99,407.149,106.499,405.649z
	 M106.499,429.649c-1.49-1.48-2.34-3.54-2.34-5.649c0-2.11,0.85-4.17,2.34-5.66c1.49-1.49,3.55-2.34,5.66-2.34s4.17,0.85,5.66,2.34
	s2.34,3.56,2.34,5.66s-0.85,4.17-2.34,5.649c-1.49,1.5-3.55,2.351-5.66,2.351S107.99,431.149,106.499,429.649z M117.819,466.34
	c1.49,1.49,2.34,3.55,2.34,5.66c0,2.109-0.85,4.17-2.34,5.66c-1.49,1.489-3.56,2.34-5.66,2.34c-2.11,0-4.17-0.851-5.66-2.34
	c-1.49-1.49-2.34-3.561-2.34-5.66c0-2.101,0.85-4.17,2.34-5.66c1.49-1.49,3.55-2.34,5.66-2.34
	C114.27,464,116.33,464.85,117.819,466.34z M141.819,466.34c1.49,1.49,2.34,3.55,2.34,5.66c0,2.1-0.85,4.17-2.34,5.66
	c-1.49,1.489-3.55,2.34-5.66,2.34s-4.17-0.851-5.66-2.34c-1.49-1.49-2.34-3.551-2.34-5.66c0-2.11,0.85-4.17,2.34-5.66
	c1.49-1.49,3.55-2.34,5.66-2.34C138.27,464,140.33,464.85,141.819,466.34z M165.819,466.34c1.49,1.49,2.34,3.56,2.34,5.66
	s-0.85,4.16-2.34,5.66c-1.49,1.489-3.55,2.34-5.66,2.34c-2.1,0-4.17-0.851-5.66-2.34c-1.49-1.49-2.34-3.551-2.34-5.66
	c0-2.11,0.85-4.17,2.34-5.66c1.49-1.49,3.55-2.34,5.66-2.34C162.27,464,164.33,464.85,165.819,466.34z M165.819,442.34
	c1.49,1.49,2.34,3.56,2.34,5.66s-0.85,4.17-2.34,5.66c-1.49,1.489-3.56,2.34-5.66,2.34s-4.17-0.851-5.66-2.34
	c-1.49-1.49-2.34-3.561-2.34-5.66c0-2.101,0.85-4.17,2.34-5.66c1.49-1.49,3.55-2.34,5.66-2.34
	C162.27,440,164.33,440.85,165.819,442.34z M178.499,453.66c-1.49-1.49-2.34-3.551-2.34-5.66c0-2.11,0.85-4.17,2.34-5.66
	c1.49-1.49,3.55-2.34,5.66-2.34s4.17,0.85,5.66,2.34s2.34,3.55,2.34,5.66c0,2.109-0.85,4.17-2.34,5.66
	c-1.49,1.489-3.55,2.34-5.66,2.34S179.99,455.149,178.499,453.66z M178.499,429.649c-1.49-1.48-2.34-3.55-2.34-5.649
	c0-2.101,0.85-4.17,2.34-5.66c1.49-1.49,3.55-2.34,5.66-2.34c2.1,0,4.17,0.85,5.66,2.34s2.34,3.56,2.34,5.66s-0.85,4.17-2.34,5.649
	c-1.49,1.5-3.55,2.351-5.66,2.351S179.99,431.149,178.499,429.649z M165.819,418.34c1.49,1.49,2.34,3.55,2.34,5.66
	c0,2.109-0.85,4.17-2.34,5.649c-1.49,1.5-3.55,2.351-5.66,2.351s-4.17-0.851-5.66-2.351c-1.49-1.48-2.34-3.55-2.34-5.649
	c0-2.101,0.85-4.17,2.34-5.66c1.49-1.49,3.55-2.34,5.66-2.34C162.27,416,164.33,416.85,165.819,418.34z M165.819,394.34
	c1.49,1.49,2.34,3.55,2.34,5.66c0,2.1-0.85,4.17-2.34,5.649c-1.49,1.5-3.55,2.351-5.66,2.351s-4.17-0.851-5.66-2.351
	c-1.49-1.48-2.34-3.55-2.34-5.649c0-2.11,0.85-4.17,2.34-5.66c1.49-1.49,3.55-2.34,5.66-2.34
	C162.27,392,164.33,392.85,165.819,394.34z M141.819,394.34c1.49,1.49,2.34,3.55,2.34,5.66c0,2.1-0.85,4.17-2.34,5.649
	c-1.49,1.5-3.55,2.351-5.66,2.351s-4.17-0.851-5.66-2.351c-1.49-1.48-2.34-3.55-2.34-5.649c0-2.11,0.85-4.17,2.34-5.66
	c1.49-1.49,3.56-2.34,5.66-2.34C138.259,392,140.33,392.85,141.819,394.34z M178.499,405.649c-1.49-1.48-2.34-3.55-2.34-5.649
	c0-2.11,0.85-4.17,2.34-5.66c1.49-1.49,3.55-2.34,5.66-2.34c2.1,0,4.17,0.85,5.66,2.34s2.34,3.55,2.34,5.66
	c0,2.1-0.85,4.17-2.34,5.649c-1.49,1.5-3.55,2.351-5.66,2.351S179.99,407.149,178.499,405.649z M202.499,453.66
	c-1.49-1.49-2.34-3.561-2.34-5.66c0-2.101,0.85-4.17,2.34-5.66c1.49-1.49,3.55-2.34,5.66-2.34s4.17,0.85,5.66,2.34
	s2.34,3.56,2.34,5.66s-0.85,4.17-2.34,5.66c-1.49,1.489-3.56,2.34-5.66,2.34C206.06,456,203.99,455.149,202.499,453.66z
	 M202.499,429.649c-1.49-1.48-2.34-3.55-2.34-5.649c0-2.101,0.85-4.17,2.34-5.66c1.49-1.49,3.56-2.34,5.66-2.34s4.17,0.85,5.66,2.34
	s2.34,3.56,2.34,5.66s-0.85,4.17-2.34,5.649c-1.49,1.5-3.55,2.351-5.66,2.351S203.99,431.149,202.499,429.649z M202.499,405.649
	c-1.49-1.48-2.34-3.54-2.34-5.649c0-2.11,0.85-4.17,2.34-5.66c1.49-1.49,3.56-2.34,5.66-2.34c2.11,0,4.17,0.85,5.66,2.34
	s2.34,3.55,2.34,5.66c0,2.1-0.85,4.17-2.34,5.649c-1.49,1.5-3.55,2.351-5.66,2.351S203.99,407.149,202.499,405.649z M237.819,442.34
	c1.49,1.49,2.34,3.56,2.34,5.66s-0.85,4.17-2.34,5.66c-1.49,1.489-3.56,2.34-5.66,2.34s-4.17-0.851-5.66-2.34
	c-1.49-1.49-2.34-3.561-2.34-5.66c0-2.101,0.85-4.17,2.34-5.66c1.49-1.49,3.55-2.34,5.66-2.34
	C234.27,440,236.33,440.85,237.819,442.34z M237.819,418.34c1.49,1.49,2.34,3.56,2.34,5.66s-0.85,4.17-2.34,5.649
	c-1.49,1.5-3.55,2.351-5.66,2.351s-4.17-0.851-5.66-2.351c-1.49-1.48-2.34-3.54-2.34-5.649c0-2.11,0.85-4.17,2.34-5.66
	c1.49-1.49,3.56-2.34,5.66-2.34C234.259,416,236.33,416.85,237.819,418.34z M237.819,394.34c1.49,1.49,2.34,3.55,2.34,5.66
	c0,2.1-0.85,4.17-2.34,5.649c-1.49,1.5-3.55,2.351-5.66,2.351s-4.17-0.851-5.66-2.351c-1.49-1.48-2.34-3.54-2.34-5.649
	c0-2.11,0.85-4.17,2.34-5.66c1.49-1.49,3.56-2.34,5.66-2.34C234.259,392,236.33,392.85,237.819,394.34z M261.819,442.34
	c1.49,1.49,2.34,3.56,2.34,5.66s-0.85,4.17-2.34,5.66c-1.49,1.489-3.55,2.34-5.66,2.34c-2.11,0-4.17-0.851-5.66-2.34
	c-1.49-1.49-2.34-3.551-2.34-5.66c0-2.11,0.85-4.17,2.34-5.66c1.49-1.49,3.55-2.34,5.66-2.34
	C258.27,440,260.33,440.85,261.819,442.34z M261.819,466.34c1.49,1.49,2.34,3.55,2.34,5.66c0,2.1-0.85,4.17-2.34,5.66
	c-1.49,1.489-3.55,2.34-5.66,2.34c-2.1,0-4.17-0.851-5.66-2.34c-1.49-1.49-2.34-3.551-2.34-5.66c0-2.11,0.85-4.17,2.34-5.66
	c1.49-1.49,3.56-2.34,5.66-2.34C258.27,464,260.33,464.85,261.819,466.34z M285.819,466.34c1.49,1.49,2.34,3.56,2.34,5.66
	s-0.85,4.16-2.34,5.66c-1.49,1.489-3.55,2.34-5.66,2.34c-2.1,0-4.17-0.851-5.66-2.34c-1.49-1.49-2.34-3.551-2.34-5.66
	c0-2.11,0.85-4.17,2.34-5.66s3.55-2.34,5.66-2.34C282.27,464,284.33,464.85,285.819,466.34z M309.819,466.34
	c1.49,1.49,2.34,3.56,2.34,5.66s-0.85,4.16-2.34,5.66c-1.49,1.489-3.56,2.34-5.66,2.34s-4.17-0.851-5.66-2.34
	c-1.49-1.49-2.34-3.561-2.34-5.66c0-2.101,0.85-4.17,2.34-5.66s3.55-2.34,5.66-2.34C306.27,464,308.33,464.85,309.819,466.34z
	 M261.819,418.34c1.49,1.49,2.34,3.56,2.34,5.66s-0.85,4.17-2.34,5.649c-1.49,1.5-3.55,2.351-5.66,2.351
	c-2.11,0-4.17-0.851-5.66-2.351c-1.49-1.48-2.34-3.54-2.34-5.649c0-2.11,0.85-4.17,2.34-5.66c1.49-1.49,3.56-2.34,5.66-2.34
	C258.27,416,260.33,416.85,261.819,418.34z M274.499,429.649c-1.49-1.48-2.34-3.54-2.34-5.649c0-2.11,0.85-4.17,2.34-5.66
	s3.55-2.34,5.66-2.34c2.11,0,4.17,0.85,5.66,2.34s2.34,3.56,2.34,5.66s-0.85,4.17-2.34,5.649c-1.49,1.5-3.55,2.351-5.66,2.351
	S275.99,431.149,274.499,429.649z M261.819,394.34c1.49,1.49,2.34,3.55,2.34,5.66c0,2.1-0.85,4.17-2.34,5.649
	c-1.49,1.5-3.55,2.351-5.66,2.351c-2.1,0-4.17-0.851-5.66-2.351c-1.49-1.48-2.34-3.54-2.34-5.649c0-2.11,0.85-4.17,2.34-5.66
	c1.49-1.49,3.56-2.34,5.66-2.34C258.27,392,260.33,392.85,261.819,394.34z M274.499,405.649c-1.49-1.48-2.34-3.55-2.34-5.649
	c0-2.11,0.85-4.17,2.34-5.66s3.56-2.34,5.66-2.34s4.17,0.85,5.66,2.34s2.34,3.55,2.34,5.66c0,2.1-0.85,4.17-2.34,5.649
	c-1.49,1.5-3.55,2.351-5.66,2.351S275.99,407.149,274.499,405.649z M309.819,394.34c1.49,1.49,2.34,3.55,2.34,5.66
	c0,2.109-0.85,4.17-2.34,5.649c-1.49,1.5-3.55,2.351-5.66,2.351c-2.11,0-4.17-0.851-5.66-2.351c-1.49-1.48-2.34-3.55-2.34-5.649
	c0-2.11,0.85-4.17,2.34-5.66s3.55-2.34,5.66-2.34C306.259,392,308.33,392.85,309.819,394.34z M141.819,418.34
	c1.49,1.49,2.34,3.56,2.34,5.66s-0.85,4.17-2.34,5.649c-1.49,1.5-3.55,2.351-5.66,2.351s-4.17-0.851-5.66-2.351
	c-1.49-1.48-2.34-3.54-2.34-5.649c0-2.11,0.85-4.17,2.34-5.66c1.49-1.49,3.55-2.34,5.66-2.34
	C138.27,416,140.33,416.85,141.819,418.34z M425.16,360h-17c-22.056,0-40,17.944-40,40v72c0,22.056,17.944,40,40,40h17
	c22.056,0,40-17.944,40-40v-72C465.16,377.944,447.216,360,425.16,360z M449.16,472c0,13.233-10.766,24-24,24h-17
	c-13.234,0-24-10.767-24-24v-72c0-13.233,10.766-24,24-24h17c13.234,0,24,10.767,24,24V472z M424.16,392v16c0,4.418-3.581,8-8,8
	c-4.418,0-8-3.582-8-8v-16c0-4.418,3.582-8,8-8S424.16,387.582,424.16,392z"/>
<g>
</g>
<g>
</g>
<g>
</g>
<g>
</g>
<g>
</g>
<g>
</g>
<g>
</g>
<g>
</g>
<g>
</g>
<g>
</g>
<g>
</g>
<g>
</g>
<g>
</g>
<g>
</g>
<g>
</g>
</svg>
