<?xml version="1.0" encoding="iso-8859-1"?>
<!-- Generator: Adobe Illustrator 19.0.0, SVG Export Plug-In . SVG Version: 6.00 Build 0)  -->
<svg version="1.1" id="Layer_1" xmlns="http://www.w3.org/2000/svg" xmlns:xlink="http://www.w3.org/1999/xlink" x="0px" y="0px"
	 viewBox="0 0 512 512" style="enable-background:new 0 0 512 512;" xml:space="preserve">
<polygon style="fill:#00D2FF;" points="360,167.998 360,167.998 356.268,167.998 255.999,471.999 504,167.998 "/>
<polygon style="fill:#59E2FF;" points="360,167.998 504,167.998 400,39.998 398.486,39.998 "/>
<polygon style="fill:#28AFF0;" points="112,39.998 7.999,167.998 154.666,167.998 "/>
<g>
	<polygon style="fill:#18BDF6;" points="154.666,167.999 154.666,167.998 7.999,167.998 255.999,471.999 	"/>
	<polygon style="fill:#18BDF6;" points="398.486,39.998 255.999,39.998 360,167.998 	"/>
	<polygon style="fill:#18BDF6;" points="154.666,167.998 255.999,39.998 112,39.998 	"/>
</g>
<polygon style="fill:#00D2FF;" points="356.268,167.998 360,167.998 255.999,39.998 255.999,39.998 154.666,167.998 "/>
<polygon style="fill:#28AFF0;" points="154.666,167.998 154.666,167.999 255.999,471.999 360,167.998 "/>
<path d="M510.175,173.092c0.234-0.283,0.439-0.583,0.629-0.89c0.037-0.06,0.072-0.12,0.107-0.18c0.164-0.282,0.313-0.569,0.44-0.866
	c0.008-0.018,0.017-0.035,0.025-0.054c0.131-0.311,0.237-0.631,0.327-0.955c0.022-0.077,0.039-0.155,0.058-0.233
	c0.066-0.27,0.119-0.542,0.158-0.818c0.009-0.063,0.021-0.125,0.029-0.189c0.037-0.326,0.053-0.653,0.05-0.983
	c0-0.074-0.006-0.146-0.009-0.22c-0.01-0.279-0.035-0.558-0.074-0.836c-0.01-0.068-0.017-0.135-0.028-0.202
	c-0.056-0.335-0.133-0.667-0.232-0.996c-0.012-0.041-0.029-0.081-0.042-0.123c-0.094-0.293-0.207-0.581-0.337-0.865
	c-0.017-0.038-0.027-0.078-0.045-0.116c-0.013-0.027-0.03-0.05-0.043-0.076c-0.151-0.309-0.318-0.613-0.513-0.906
	c-0.019-0.029-0.041-0.054-0.06-0.082c-0.127-0.187-0.258-0.372-0.403-0.55l-104-127.999c-1.52-1.871-3.802-2.957-6.212-2.957
	h-1.553c-0.023,0-0.046,0-0.069,0H256.057c-0.001,0-0.002,0-0.003,0H112c-0.015,0-0.029,0.002-0.044,0.002
	c-0.269,0.002-0.539,0.016-0.81,0.045c-0.016,0.002-0.033,0.002-0.049,0.003c-0.287,0.033-0.574,0.081-0.861,0.146
	c-0.051,0.012-0.1,0.03-0.151,0.042c-0.206,0.051-0.411,0.103-0.616,0.171c-0.016,0.005-0.03,0.013-0.046,0.018
	c-0.101,0.034-0.197,0.077-0.297,0.116c-0.169,0.065-0.339,0.13-0.501,0.206c-0.089,0.041-0.174,0.089-0.261,0.134
	c-0.169,0.086-0.336,0.174-0.497,0.271c-0.079,0.048-0.155,0.1-0.233,0.15c-0.162,0.106-0.321,0.215-0.474,0.331
	c-0.074,0.056-0.145,0.114-0.217,0.173c-0.149,0.122-0.293,0.248-0.433,0.38c-0.068,0.064-0.135,0.129-0.201,0.195
	c-0.137,0.139-0.267,0.284-0.393,0.432c-0.041,0.048-0.087,0.09-0.126,0.139l-104,128.001c-0.145,0.178-0.275,0.363-0.402,0.55
	c-0.019,0.028-0.041,0.054-0.06,0.082c-0.194,0.293-0.361,0.597-0.512,0.907c-0.013,0.026-0.03,0.049-0.043,0.076
	c-0.018,0.038-0.028,0.078-0.045,0.116c-0.129,0.283-0.243,0.571-0.337,0.864c-0.013,0.042-0.03,0.082-0.043,0.124
	c-0.1,0.328-0.176,0.66-0.232,0.996c-0.011,0.067-0.018,0.135-0.028,0.202c-0.039,0.278-0.064,0.556-0.074,0.836
	c-0.003,0.074-0.008,0.147-0.009,0.22c-0.003,0.328,0.013,0.656,0.05,0.983c0.007,0.063,0.02,0.126,0.028,0.189
	c0.038,0.275,0.091,0.547,0.157,0.818c0.019,0.078,0.037,0.156,0.058,0.233c0.09,0.324,0.196,0.643,0.327,0.955
	c0.008,0.018,0.017,0.036,0.025,0.054c0.127,0.296,0.276,0.584,0.44,0.865c0.035,0.061,0.071,0.121,0.108,0.181
	c0.19,0.307,0.395,0.606,0.629,0.889l247.974,303.967c0.038,0.047,0.083,0.088,0.122,0.134c0.127,0.149,0.258,0.294,0.396,0.433
	c0.03,0.03,0.056,0.065,0.086,0.094c0.031,0.031,0.067,0.057,0.1,0.087c0.004,0.004,0.008,0.007,0.012,0.011
	c0.141,0.133,0.286,0.26,0.437,0.383c0.07,0.057,0.14,0.114,0.212,0.169c0.066,0.05,0.129,0.103,0.196,0.151
	c0.008,0.006,0.017,0.011,0.026,0.017c0.083,0.059,0.172,0.11,0.257,0.166c0.075,0.049,0.149,0.1,0.226,0.146
	c0.142,0.086,0.29,0.163,0.438,0.24c0.058,0.03,0.114,0.063,0.172,0.092c0.049,0.024,0.098,0.049,0.147,0.072
	c0.165,0.077,0.338,0.143,0.511,0.209c0.096,0.037,0.19,0.079,0.287,0.112c0.015,0.005,0.029,0.012,0.044,0.017
	c0.013,0.004,0.027,0.005,0.04,0.01c0.076,0.025,0.154,0.04,0.231,0.063c0.27,0.08,0.544,0.145,0.823,0.196
	c0.06,0.011,0.12,0.033,0.18,0.043c0.053,0.008,0.107,0.007,0.16,0.015c0.332,0.046,0.667,0.075,1.007,0.079
	c0.03,0,0.059,0.007,0.089,0.007h0.001H256c0.03,0,0.059-0.007,0.089-0.007c0.339-0.004,0.674-0.033,1.007-0.079
	c0.053-0.007,0.107-0.006,0.16-0.015c0.06-0.01,0.12-0.032,0.18-0.043c0.279-0.051,0.553-0.116,0.823-0.196
	c0.076-0.023,0.154-0.038,0.23-0.063c0.013-0.004,0.027-0.005,0.041-0.01c0.015-0.005,0.029-0.012,0.044-0.017
	c0.097-0.033,0.191-0.075,0.287-0.112c0.173-0.066,0.345-0.132,0.511-0.209c0.05-0.023,0.099-0.048,0.148-0.073
	c0.058-0.028,0.113-0.061,0.17-0.09c0.149-0.077,0.297-0.155,0.44-0.241c0.077-0.046,0.151-0.097,0.226-0.146
	c0.087-0.056,0.177-0.109,0.261-0.169c0.007-0.005,0.014-0.009,0.021-0.013c0.068-0.048,0.131-0.102,0.198-0.152
	c0.072-0.055,0.142-0.112,0.212-0.169c0.151-0.123,0.297-0.25,0.437-0.383c0.006-0.005,0.012-0.01,0.018-0.016
	c0.03-0.029,0.064-0.053,0.093-0.082c0.03-0.03,0.057-0.065,0.087-0.095c0.138-0.14,0.269-0.284,0.396-0.433
	c0.039-0.046,0.083-0.087,0.122-0.134L510.175,173.092z M109.017,56.362l34.544,103.633H24.816L109.017,56.362z M367.992,141.416
	c0.769,0.231,1.545,0.341,2.308,0.341c3.441,0,6.621-2.236,7.662-5.701L402.21,55.41l84.973,104.583H363.81L272.817,48.002h114.905
	l-25.09,83.445C361.358,135.68,363.758,140.144,367.992,141.416z M123.105,48.002h116.349l-81.875,103.422L123.105,48.002z
	 M256.08,52.791l87.102,107.203H190.964c-4.421,0-8.004,3.584-8.004,8.004c0,4.421,3.583,8.004,8.004,8.004h155.264l-90.228,270.685
	l-92.371-277.114L256.08,52.791z M277.403,433.099l85.699-257.097H487.14L277.403,433.099z M148.897,176.002l85.699,257.097
	L24.859,176.002H148.897z"/>
<g>
</g>
<g>
</g>
<g>
</g>
<g>
</g>
<g>
</g>
<g>
</g>
<g>
</g>
<g>
</g>
<g>
</g>
<g>
</g>
<g>
</g>
<g>
</g>
<g>
</g>
<g>
</g>
<g>
</g>
</svg>
