<?xml version="1.0" encoding="iso-8859-1"?>
<!-- Generator: Adobe Illustrator 19.0.0, SVG Export Plug-In . SVG Version: 6.00 Build 0)  -->
<svg version="1.1" id="Layer_1" xmlns="http://www.w3.org/2000/svg" xmlns:xlink="http://www.w3.org/1999/xlink" x="0px" y="0px"
	 viewBox="0 0 512 512" style="enable-background:new 0 0 512 512;" xml:space="preserve">
<path style="fill:#E4EAF6;" d="M363.312,492.686C357.089,498.909,344.797,504,335.997,504H120c-8.8,0-16-7.2-16-16V24
	c0-8.8,7.2-16,16-16h272c8.8,0,16,7.2,16,16v407.999c0,8.8-5.091,21.091-11.314,27.313L363.312,492.686z"/>
<rect x="136.001" y="64" style="fill:#707487;" width="240.002" height="192.002"/>
<rect x="157.002" y="85.001" style="fill:#BEDCAF;" width="197.002" height="150.001"/>
<path style="fill:#464655;" d="M216,320h-16v-16c0-4.4-3.6-8-8-8h-16c-4.4,0-8,3.6-8,8v16h-16c-4.4,0-8,3.6-8,8v16c0,4.4,3.6,8,8,8
	h16v16c0,4.4,3.6,8,8,8h16c4.4,0,8-3.6,8-8v-16h16c4.4,0,8-3.6,8-8v-16C224,323.599,220.4,320,216,320z"/>
<g>
	<circle style="fill:#FF6464;" cx="320.003" cy="360.004" r="17"/>
	<circle style="fill:#FF6464;" cx="360.004" cy="320.003" r="17"/>
</g>
<path d="M392,0H120c-13.233,0-24,10.766-24,24v464c0,13.234,10.767,24,24,24h215.998c11.011,0,25.185-5.871,32.97-13.657
	l33.374-33.373c7.786-7.785,13.657-21.959,13.657-32.97V24C416,10.766,405.233,0,392,0z M400,431.999
	c0,6.64-4.275,16.962-8.97,21.656l-33.374,33.374c-4.695,4.695-15.017,8.97-21.657,8.97H120c-4.411,0-8-3.589-8-8V24
	c0-4.411,3.589-8,8-8h272c4.411,0,8,3.589,8,8V431.999z M376,56.001H136c-4.418,0-8,3.582-8,8v192c0,4.418,3.582,8,8,8h240
	c4.418,0,8-3.582,8-8v-192C384,59.582,380.418,56.001,376,56.001z M368,247.999H144V72h224v176H368z M208,360h8
	c8.822,0,15.999-7.178,15.999-16v-16c0-8.823-7.177-16-15.999-16h-8v-8c0-8.823-7.178-16-16-16h-16c-8.822,0-15.999,7.177-15.999,16
	v8h-8c-8.822,0-16,7.177-16,16v16c0,8.822,7.178,16,16,16h8v8c0,8.823,7.177,16,15.999,16h16c8.822,0,16-7.177,16-16V360z
	 M200,343.999c-4.418,0-8,3.582-8,8v16h-15.999v-16c0-4.418-3.581-8-8-8h-16v-16h16c4.419,0,8-3.582,8-8l-0.001-16h16v16
	c0,4.418,3.582,8,8,8h15.999l0.001,16H200z M384,320c0,13.233-10.766,24-24,24C346.766,344,336,333.234,336,320
	c0-13.234,10.766-24,23.999-24c4.418,0,8,3.582,8,8c0,4.418-3.582,8-8,8c-4.411,0-7.999,3.589-7.999,8c0,4.411,3.588,8,7.999,8
	c4.411,0,8-3.589,8-8c0-4.418,3.582-8,8-8C380.418,312,384,315.581,384,320z M344,360c0,13.234-10.766,24-24,24
	c-13.233,0-24-10.766-24-24c0-13.233,10.766-24,24-24c4.418,0,8,3.582,8,8c0,4.418-3.582,8-8,8c-4.411,0-8,3.589-8,8
	c0,4.411,3.588,8,8,8c4.411,0,8-3.589,8-8c0-4.418,3.581-8,8-8C340.418,351.999,344,355.581,344,360z M246.656,411.562
	c2.451,3.677,1.458,8.643-2.219,11.094l-23.999,16c-1.364,0.909-2.905,1.345-4.43,1.345c-2.585,0-5.122-1.251-6.663-3.564
	c-2.451-3.676-1.458-8.643,2.219-11.094l23.999-16C239.238,406.892,244.205,407.886,246.656,411.562z M302.656,411.562
	c2.451,3.676,1.458,8.643-2.219,11.094l-24,16c-1.364,0.909-2.905,1.345-4.43,1.345c-2.585,0-5.122-1.251-6.664-3.564
	c-2.451-3.676-1.457-8.643,2.219-11.094l24-16C295.239,406.892,300.206,407.886,302.656,411.562z"/>
<g>
</g>
<g>
</g>
<g>
</g>
<g>
</g>
<g>
</g>
<g>
</g>
<g>
</g>
<g>
</g>
<g>
</g>
<g>
</g>
<g>
</g>
<g>
</g>
<g>
</g>
<g>
</g>
<g>
</g>
</svg>
