<?xml version="1.0" encoding="iso-8859-1"?>
<!-- Generator: Adobe Illustrator 19.0.0, SVG Export Plug-In . SVG Version: 6.00 Build 0)  -->
<svg version="1.1" id="Layer_1" xmlns="http://www.w3.org/2000/svg" xmlns:xlink="http://www.w3.org/1999/xlink" x="0px" y="0px"
	 viewBox="0 0 512 512" style="enable-background:new 0 0 512 512;" xml:space="preserve">
<path style="fill:#FF6464;" d="M368.001,488c0,8.8-7.2,16-16,16h-192c-8.8,0-16-7.2-16-16V24c0-8.8,7.2-16,16-16h192
	c8.8,0,16,7.2,16,16V488z"/>
<rect x="199.999" y="55.999" style="fill:#BEDCAF;" width="111.999" height="151.999"/>
<circle style="fill:#FFDC50;" cx="315.997" cy="363.996" r="19"/>
<path d="M352.001,0H160c-13.233,0-24,10.766-24,24v464c0,13.234,10.767,24,24,24h192c13.233,0,24-10.766,24-24V24
	C376.001,10.766,365.234,0,352.001,0z M352.001,496H160c-4.411,0-8-3.589-8-8v-8h160c4.418,0,8-3.582,8-8c0-4.419-3.582-8-8-8H152
	V264h160c4.418,0,8-3.582,8-8c0-4.418-3.582-8-8-8H152V24c0-4.411,3.589-8,8-8h192c4.411,0,8,3.589,8,8v224.001h-16
	c-4.419,0-8,3.582-8,8c0,4.418,3.581,8,8,8h16v200h-16c-4.419,0-8,3.581-8,8c0,4.418,3.581,8,8,8h16v8
	C360.001,492.412,356.412,496,352.001,496z M320.001,55.999c0-4.418-3.582-8-8-8H200.001c-4.419,0-8,3.582-8,8V208
	c0,4.418,3.581,8,8,8h112.001c4.418,0,8-3.582,8-8V55.999z M304.002,200H208V64h96.001V200z M344.001,364c0,15.439-12.561,28-28,28
	c-15.44,0-28.001-12.561-28.001-28s12.561-28,28.001-28c4.418,0,8,3.582,8,8c0,4.418-3.582,8-8,8c-6.617,0-12.001,5.383-12.001,12
	c0,6.617,5.383,12,12.001,12c6.617,0,12-5.383,12-12c0-4.418,3.581-8,8-8C340.419,356.001,344.001,359.582,344.001,364z
	 M192.001,364c0,6.617-5.383,12-12,12c-6.617,0-12-5.383-12-12c0-6.617,5.383-12,12-12C186.618,352.001,192.001,357.384,192.001,364
	z M240.001,364c0,6.617-5.383,12-12,12s-12-5.383-12-12c0-6.617,5.383-12,12-12S240.001,357.384,240.001,364z M216,388
	c0,6.617-5.383,12-12,12c-6.617,0-12-5.383-12-12s5.383-12,12-12C210.617,376,216,381.384,216,388z M216,340.001
	c0,6.617-5.383,12-12,12c-6.617,0-12-5.383-12-12s5.383-12,12-12C210.617,328.001,216,333.384,216,340.001z M272.001,296
	c0,4.418-3.582,8-8,8h-16c-4.419,0-8-3.582-8-8c0-4.418,3.581-8,8-8h16C268.419,288,272.001,291.582,272.001,296z M192.001,296
	c0-4.418,3.581-8,8-8h16.001c4.418,0,8,3.582,8,8c0,4.418-3.582,8-8,8h-16.001C195.582,304,192.001,300.418,192.001,296z
	 M288.001,296c0-4.418,3.582-8,8-8h16.001c4.418,0,8,3.582,8,8c0,4.418-3.582,8-8,8h-16.001
	C291.583,304,288.001,300.418,288.001,296z"/>
<g>
</g>
<g>
</g>
<g>
</g>
<g>
</g>
<g>
</g>
<g>
</g>
<g>
</g>
<g>
</g>
<g>
</g>
<g>
</g>
<g>
</g>
<g>
</g>
<g>
</g>
<g>
</g>
<g>
</g>
</svg>
