<?xml version="1.0" encoding="iso-8859-1"?>
<!-- Generator: Adobe Illustrator 19.0.0, SVG Export Plug-In . SVG Version: 6.00 Build 0)  -->
<svg version="1.1" id="Layer_1" xmlns="http://www.w3.org/2000/svg" xmlns:xlink="http://www.w3.org/1999/xlink" x="0px" y="0px"
	 viewBox="0 0 512 512" style="enable-background:new 0 0 512 512;" xml:space="preserve">
<rect x="127.7" y="360.066" style="fill:#AEB5CA;" width="144.15" height="23.968"/>
<path style="fill:#C7CFE2;" d="M391.925,342.281c0,9.781-8.003,17.784-17.784,17.784H25.789c-9.781,0-17.784-8.003-17.784-17.784
	V145.704c0-9.781,8.003-17.784,17.784-17.784h348.351c9.781,0,17.784,8.003,17.784,17.784L391.925,342.281L391.925,342.281z"/>
<rect x="31.699" y="151.936" style="fill:#464655;" width="336.211" height="184.115"/>
<path style="fill:#E4EAF6;" d="M487.795,127.92h-47.65c-8.947,0-16.2,7.254-16.2,16.2v223.76c0,8.947,7.254,16.2,16.2,16.2h47.65
	c8.948,0,16.2-7.254,16.2-16.2V144.12C503.995,135.173,496.741,127.92,487.795,127.92z"/>
<circle style="fill:#D2FA50;" cx="464.291" cy="175.951" r="16.01"/>
<path d="M374.141,119.915H25.789C11.568,119.915,0,131.484,0,145.704v196.577c0,14.22,11.568,25.789,25.789,25.789h93.902v8.005
	h-15.948c-4.421,0-8.005,3.583-8.005,8.005c0,4.421,3.584,8.005,8.005,8.005h192.12c4.421,0,8.005-3.584,8.005-8.005
	c0-4.422-3.584-8.005-8.005-8.005h-16.01v-8.005h94.286c14.22,0,25.789-11.568,25.789-25.789V145.704
	C399.93,131.484,388.361,119.915,374.141,119.915z M263.844,376.075H135.701v-8.005h128.143L263.844,376.075L263.844,376.075z
	 M383.92,342.281c0,5.392-4.387,9.779-9.779,9.779H25.789c-5.392,0-9.779-4.387-9.779-9.779V145.704
	c0-5.392,4.387-9.779,9.779-9.779h348.351c5.392,0,9.779,4.387,9.779,9.779L383.92,342.281L383.92,342.281z M367.91,143.93H31.699
	c-4.421,0-8.005,3.583-8.005,8.005V336.05c0,4.421,3.584,8.005,8.005,8.005H367.91c4.421,0,8.005-3.584,8.005-8.005V151.935
	C375.915,147.514,372.33,143.93,367.91,143.93z M359.905,328.045H39.704V159.94h320.201V328.045z M487.795,119.915h-47.65
	c-13.347,0-24.205,10.859-24.205,24.205v223.76c0,13.346,10.859,24.205,24.205,24.205h47.65c13.346,0,24.205-10.859,24.205-24.205
	V144.12C512,130.773,501.141,119.915,487.795,119.915z M495.99,367.88c0,4.519-3.676,8.195-8.195,8.195h-47.65
	c-4.519,0-8.195-3.676-8.195-8.195V144.12c0-4.519,3.676-8.195,8.195-8.195h47.65c4.519,0,8.195,3.676,8.195,8.195V367.88z
	 M487.985,175.95c0,13.242-10.773,24.015-24.015,24.015s-24.015-10.773-24.015-24.015s10.773-24.015,24.015-24.015
	c4.421,0,8.005,3.583,8.005,8.005c0,4.421-3.584,8.005-8.005,8.005c-4.414,0-8.005,3.591-8.005,8.005
	c0,4.414,3.591,8.005,8.005,8.005c4.414,0,8.005-3.591,8.005-8.005c0-4.422,3.584-8.005,8.005-8.005
	C484.401,167.945,487.985,171.529,487.985,175.95z M471.975,223.98v128.08c0,4.421-3.584,8.005-8.005,8.005
	c-4.421,0-8.005-3.584-8.005-8.005V223.98c0-4.422,3.584-8.005,8.005-8.005C468.391,215.975,471.975,219.559,471.975,223.98z"/>
<g>
</g>
<g>
</g>
<g>
</g>
<g>
</g>
<g>
</g>
<g>
</g>
<g>
</g>
<g>
</g>
<g>
</g>
<g>
</g>
<g>
</g>
<g>
</g>
<g>
</g>
<g>
</g>
<g>
</g>
</svg>
