<?xml version="1.0" encoding="iso-8859-1"?>
<!-- Generator: Adobe Illustrator 19.0.0, SVG Export Plug-In . SVG Version: 6.00 Build 0)  -->
<svg version="1.1" id="Layer_1" xmlns="http://www.w3.org/2000/svg" xmlns:xlink="http://www.w3.org/1999/xlink" x="0px" y="0px"
	 viewBox="0 0 512 512" style="enable-background:new 0 0 512 512;" xml:space="preserve">
<path style="fill:#5B5D6E;" d="M472.083,192.131c0,13.173-10.778,23.951-23.951,23.951H56.934
	c-13.173,0-20.543-10.225-16.377-22.721l24.77-74.311c4.165-12.497,18.351-22.721,31.524-22.721h351.28
	c13.173,0,23.951,10.778,23.951,23.951L472.083,192.131L472.083,192.131z"/>
<g>
	<path style="fill:#464655;" d="M50.094,160.197H35.977c-7.904,0-15.302-7.485-11.975-16.965l6.433-17.304
		c2.499-7.499,11.011-13.633,18.915-13.633h17.564L50.094,160.197z"/>
	<path style="fill:#464655;" d="M496.026,160.197h-23.943v-39.918h23.944c4.413,0,7.991,3.578,7.991,7.991v23.937
		C504.018,156.619,500.44,160.197,496.026,160.197z"/>
</g>
<path style="fill:#515262;" d="M202.635,216.082l-65.53,177.131c-4.576,12.353-19.097,22.46-32.27,22.46H24.999
	c-13.173,0-20.208-10.107-15.632-22.46L73.899,217.08L202.635,216.082z"/>
<path style="fill:#FF6464;" d="M296.443,96.327v23.951c0,13.228-10.724,23.952-23.952,23.952h-95.803
	c-13.228,0-23.952-10.723-23.952-23.952V96.327H296.443z"/>
<path d="M496.027,112.295h-16.971c-3.554-13.758-16.071-23.951-30.924-23.951H96.852c-12.017,0-24.301,6.444-32.192,15.967H49.349
	c-11.234,0-22.816,8.312-26.441,18.949l-6.391,17.19c-0.017,0.046-0.034,0.092-0.05,0.139c-2.294,6.54-1.419,13.382,2.401,18.771
	c3.916,5.524,10.311,8.821,17.108,8.821h4.559l-7.552,22.656c-2.807,8.421-1.792,16.891,2.783,23.24
	c4.576,6.348,12.291,9.99,21.167,9.99h5.903L1.88,390.44c-3.102,8.373-2.338,16.828,2.095,23.195
	c4.432,6.368,12.095,10.021,21.024,10.021h79.836c16.545,0,34.009-12.154,39.758-27.673l31.112-84.098h96.723
	c16.546,0,34.009-12.154,39.724-27.585l23.096-60.235h112.885c17.609,0,31.935-14.326,31.935-31.935V168.18h15.96
	c8.808,0,15.974-7.166,15.974-15.974V128.27C512,119.46,504.835,112.295,496.027,112.295z M160.72,104.311h127.739v15.967
	c0,8.805-7.163,15.967-15.968,15.967h-95.803c-8.805,0-15.968-7.163-15.968-15.967L160.72,104.311L160.72,104.311z M35.976,152.213
	c-1.58,0-3.181-0.819-4.081-2.088c-0.824-1.163-0.949-2.535-0.381-4.193l6.403-17.222c0.032-0.085,0.062-0.171,0.091-0.256
	c1.401-4.201,6.913-8.174,11.342-8.174h7.152l-10.645,31.935h-9.881V152.213z M129.618,390.44
	c-3.404,9.189-14.984,17.25-24.783,17.25H24.998c-3.682,0-6.494-1.128-7.919-3.174c-1.425-2.048-1.505-5.076-0.217-8.555
	l1.553-4.237h86.42c4.409,0,7.984-3.575,7.984-7.984c0-4.41-3.575-7.984-7.984-7.984h-80.57l55.576-151.689h111.327L129.618,390.44z
	 M297.209,278.67c-3.403,9.188-14.984,17.249-24.782,17.249h-90.816l26.582-71.853h8.881c1.746,15.888,9.787,46.98,45.55,55.66
	c0.633,0.154,1.266,0.228,1.89,0.228c3.599,0,6.866-2.451,7.752-6.103c1.04-4.285-1.591-8.601-5.875-9.642
	c-24.958-6.058-31.54-27.642-33.24-40.144h84.995L297.209,278.67z M448.131,208.098H56.933c-3.735,0-6.652-1.193-8.213-3.359
	c-1.561-2.166-1.77-5.311-0.589-8.855l1.251-3.753h358.832c4.409,0,7.984-3.575,7.984-7.984c0-4.41-3.575-7.984-7.984-7.984H54.704
	l18.197-54.59c3.066-9.196,14.258-17.263,23.951-17.263h47.902v15.967c0,17.609,14.326,31.935,31.936,31.935h95.803
	c17.609,0,31.936-14.326,31.936-31.935v-15.967h143.705c8.804,0,15.967,7.163,15.967,15.967v39.918v15.967h-24.2
	c-4.41,0-7.984,3.574-7.984,7.984c0,4.409,3.574,7.984,7.984,7.984h24.2C464.099,200.935,456.936,208.098,448.131,208.098z
	 M496.027,152.213h-15.96v-23.949l15.967,0.005l0.004,23.943C496.037,152.212,496.034,152.213,496.027,152.213z"/>
<g>
</g>
<g>
</g>
<g>
</g>
<g>
</g>
<g>
</g>
<g>
</g>
<g>
</g>
<g>
</g>
<g>
</g>
<g>
</g>
<g>
</g>
<g>
</g>
<g>
</g>
<g>
</g>
<g>
</g>
</svg>
