<?xml version="1.0" encoding="iso-8859-1"?>
<!-- Generator: Adobe Illustrator 19.0.0, SVG Export Plug-In . SVG Version: 6.00 Build 0)  -->
<svg version="1.1" id="Layer_1" xmlns="http://www.w3.org/2000/svg" xmlns:xlink="http://www.w3.org/1999/xlink" x="0px" y="0px"
	 viewBox="0 0 512 512" style="enable-background:new 0 0 512 512;" xml:space="preserve">
<path style="fill:#464655;" d="M464,488c0,8.8-7.2,16-16,16H64c-8.8,0-16-7.2-16-16v-16c0-8.8,7.2-16,16-16h384c8.8,0,16,7.2,16,16
	V488z"/>
<rect x="160" y="424" style="fill:#515262;" width="192" height="31"/>
<rect x="192" y="392" style="fill:#FF6464;" width="128" height="31"/>
<g>
	<rect x="224" y="360" style="fill:#515262;" width="64" height="31"/>
	<circle style="fill:#515262;" cx="256" cy="72" r="64"/>
</g>
<rect x="240" y="134" style="fill:#464655;" width="32" height="226"/>
<path d="M448,448h-88v-24c0-4.418-3.582-8-8-8h-24v-24c0-4.418-3.582-8-8-8h-24v-24c0-4.418-3.582-8-8-8h-8V139.872
	c27.934-9.907,48-36.584,48-67.872c0-39.701-32.299-72-72-72s-72,32.299-72,72c0,31.288,20.066,57.964,48,67.872V352h-8
	c-4.419,0-8,3.582-8,8v24h-24c-4.419,0-8,3.582-8,8v24h-24c-4.419,0-8,3.582-8,8v24H64c-13.234,0-24,10.766-24,24v16
	c0,13.234,10.766,24,24,24h384c13.234,0,24-10.766,24-24v-16C472,458.766,461.234,448,448,448z M200,72c0-30.878,25.122-56,56-56
	s56,25.122,56,56s-25.122,56-56,56S200,102.878,200,72z M248,143.545c2.628,0.292,5.295,0.455,8,0.455c2.705,0,5.372-0.163,8-0.455
	V352h-16V143.545z M232,368h48v16h-48V368z M200,400h112v16H200V400z M168,432h176v16H168V432z M456,488c0,4.411-3.589,8-8,8H64
	c-4.411,0-8-3.589-8-8v-16c0-4.411,3.589-8,8-8h384c4.411,0,8,3.589,8,8V488z M256,48c-4.419,0-8-3.582-8-8s3.581-8,8-8
	c22.056,0,40,17.944,40,40c0,4.418-3.582,8-8,8s-8-3.582-8-8C280,58.766,269.234,48,256,48z"/>
<g>
</g>
<g>
</g>
<g>
</g>
<g>
</g>
<g>
</g>
<g>
</g>
<g>
</g>
<g>
</g>
<g>
</g>
<g>
</g>
<g>
</g>
<g>
</g>
<g>
</g>
<g>
</g>
<g>
</g>
</svg>
