<?xml version="1.0" encoding="iso-8859-1"?>
<!-- Generator: Adobe Illustrator 19.0.0, SVG Export Plug-In . SVG Version: 6.00 Build 0)  -->
<svg version="1.1" id="Layer_1" xmlns="http://www.w3.org/2000/svg" xmlns:xlink="http://www.w3.org/1999/xlink" x="0px" y="0px"
	 viewBox="0 0 512 512" style="enable-background:new 0 0 512 512;" xml:space="preserve">
<path style="fill:#FF6464;" d="M174.88,279.329V143.992h-38.303h-105.6v136.009c0,123.513,100.693,222.972,230.999,222.972V358.981
	C213.556,358.981,174.88,323.483,174.88,279.329z"/>
<g>
	<path style="fill:#D7DEED;" d="M174.88,143.992V39.998h0.063C174.943,22.326,160.617,8,142.945,8v0.003H79.734
		c-34.426,0-48.756,14.33-48.756,32.007v103.983h105.599H174.88z"/>
	<path style="fill:#D7DEED;" d="M431.228,8.003h-63.211V8c-17.672,0-31.998,14.326-31.998,31.998h0.063v103.995h109.09h34.813
		V40.011C479.984,22.333,465.654,8.003,431.228,8.003z"/>
</g>
<path style="fill:#28AFF0;" d="M336.082,143.992v135.337c0,44.154-35.938,80.06-80.096,80.028V503.99
	c123.513-0.001,223.998-100.475,223.998-223.989V143.992h-34.813H336.082z"/>
<path d="M488.011,143.992c0-0.179-0.015-0.355-0.027-0.532V40.01c0-9.386-4.093-40.007-56.756-40.007h-63.153
	c-0.02,0-0.038-0.003-0.058-0.003c-22.055,0-39.998,17.943-39.998,39.998c0,0.324,0.025,0.643,0.063,0.957v238.374
	c0,20.203-8.601,39.619-23.596,53.268c-15.188,13.824-34.864,20.371-55.407,18.438c-36.486-3.436-65.068-35.962-65.068-74.05
	V144.301c0.004-0.103,0.016-0.205,0.016-0.309c0-0.104-0.012-0.206-0.016-0.309V40.307c0.004-0.103,0.016-0.205,0.016-0.309
	C184.028,17.943,166.085,0,144.03,0c-0.02,0-0.038,0.003-0.058,0.003H63.996c-22.06,0-40.007,17.947-40.007,40.007v235.227
	c0,61.306,23.12,119.609,65.101,164.168c42.341,44.943,99.121,70.686,159.884,72.49c2.37,0.07,4.73,0.105,7.09,0.105
	c60.607-0.001,117.696-23.137,161.426-65.589c22.055-21.409,39.395-46.496,51.54-74.563c12.579-29.07,18.957-59.973,18.957-91.847
	V144.524C487.996,144.347,488.011,144.172,488.011,143.992z M406.343,434.932c-40.719,39.528-93.865,61.071-150.296,61.069
	c-2.193,0-4.398-0.033-6.601-0.098C133.95,492.475,39.987,393.485,39.987,275.237V151.992h88.042c4.418,0,8-3.581,8-8
	c0-4.418-3.582-8-8-8H39.987V40.01c0-13.238,10.77-24.008,24.008-24.008h80.034c0.013,0,0.026-0.002,0.038-0.002
	c13.146,0.021,23.844,10.666,23.955,23.792c-0.002,0.069-0.01,0.136-0.01,0.206v95.995h-7.986c-4.419,0-8,3.582-8,8
	c0,4.419,3.581,8,8,8h7.986v124.993c0,22.242,8.018,43.698,22.575,60.416c14.801,16.997,35.042,27.497,56.992,29.563
	c2.883,0.272,5.748,0.406,8.597,0.406c21.935-0.001,42.654-7.989,59.081-22.941c18.319-16.674,28.825-40.403,28.825-65.1V151.992
	h87.933c4.418,0,8-3.581,8-8c0-4.418-3.582-8-8-8h-87.933V39.998c0-0.277-0.014-0.551-0.042-0.82
	c0.435-12.841,10.999-23.157,23.94-23.178c0.013,0,0.026,0.002,0.039,0.002h63.211c25.902,0,40.757,8.751,40.757,24.008v95.983
	h-7.975c-4.419,0-8,3.582-8,8c0,4.419,3.581,8,8,8h7.975v128.009C471.985,338.817,448.673,393.839,406.343,434.932z"/>
<g>
</g>
<g>
</g>
<g>
</g>
<g>
</g>
<g>
</g>
<g>
</g>
<g>
</g>
<g>
</g>
<g>
</g>
<g>
</g>
<g>
</g>
<g>
</g>
<g>
</g>
<g>
</g>
<g>
</g>
</svg>
