<?xml version="1.0" encoding="iso-8859-1"?>
<!-- Generator: Adobe Illustrator 19.0.0, SVG Export Plug-In . SVG Version: 6.00 Build 0)  -->
<svg version="1.1" id="Layer_1" xmlns="http://www.w3.org/2000/svg" xmlns:xlink="http://www.w3.org/1999/xlink" x="0px" y="0px"
	 viewBox="0 0 512 512" style="enable-background:new 0 0 512 512;" xml:space="preserve">
<path style="fill:#5B5D6E;" d="M408,352c0,83.947-68.053,152-152,152l0,0l0,0c-83.947,0-152-68.053-152-152V128.035
	C104,61.742,157.742,8,224.035,8h63.93C354.258,8,408,61.742,408,128.035V352z"/>
<path style="fill:#464655;" d="M136,111.306v79.77c0,57.692,37.261,106.286,87.999,120.925L289,311.707
	c50.228-14.985,87-63.319,87-120.631v-79.77V77.857V46.449C354.077,22.804,322.752,8,287.965,8h-63.93
	C189.248,8,157.923,22.804,136,46.449v31.408V111.306z"/>
<path style="fill:#FF6464;" d="M288,10v334c0,17.673-14.327,32-32,32l0,0c-17.673,0-32-14.327-32-32V10"/>
<path d="M287.965,0h-63.93C153.436,0,96,57.437,96,128.035V352c0,88.224,71.776,160,160,160s160-71.776,160-160V128.035
	C416,57.437,358.564,0,287.965,0z M232,16h48v328c0,13.234-10.766,24-24,24c-13.234,0-24-10.766-24-24V16z M400,352
	c0,79.402-64.598,144-144,144s-144-64.598-144-144V128.035c0-21.065,5.848-40.789,16-57.64V88c0,4.419,3.581,8,8,8s8-3.581,8-8
	V49.723c18.596-19.001,43.878-31.43,72-33.432v284.652c-42.873-16.395-72-57.992-72-104.629V120c0-4.419-3.581-8-8-8s-8,3.581-8,8
	v76.314c0,55.343,35.89,104.484,88,121.609V344c0,22.056,17.944,40,40,40s40-17.944,40-40v-26.067
	c24.288-8.007,46.05-23.446,61.688-43.868C374.901,251.584,384,224.698,384,196.314V120c0-4.419-3.582-8-8-8s-8,3.581-8,8v76.314
	c0,46.516-29.164,88.237-72,104.638V16.291c28.122,2.003,53.404,14.431,72,33.432V88c0,4.419,3.582,8,8,8s8-3.581,8-8V70.395
	c10.152,16.851,16,36.575,16,57.64V352z M240,184c0-8.822,7.178-16,16-16c8.822,0,16,7.178,16,16s-7.178,16-16,16
	S240,192.822,240,184z M240,232c0-8.822,7.178-16,16-16c8.822,0,16,7.178,16,16s-7.178,16-16,16S240,240.822,240,232z M256,144
	c8.822,0,16-7.178,16-16V88c0-8.822-7.178-16-16-16s-16,7.178-16,16v40C240,136.822,247.178,144,256,144z M256,88v40l-0.01-39.999
	C255.99,88.001,255.993,88,256,88z"/>
<g>
</g>
<g>
</g>
<g>
</g>
<g>
</g>
<g>
</g>
<g>
</g>
<g>
</g>
<g>
</g>
<g>
</g>
<g>
</g>
<g>
</g>
<g>
</g>
<g>
</g>
<g>
</g>
<g>
</g>
</svg>
