<?xml version="1.0" encoding="iso-8859-1"?>
<!-- Generator: Adobe Illustrator 19.0.0, SVG Export Plug-In . SVG Version: 6.00 Build 0)  -->
<svg version="1.1" id="Layer_1" xmlns="http://www.w3.org/2000/svg" xmlns:xlink="http://www.w3.org/1999/xlink" x="0px" y="0px"
	 viewBox="0 0 512 512" style="enable-background:new 0 0 512 512;" xml:space="preserve">
<g>
	<path style="fill:#E4EAF6;" d="M32,247V32C32,18.8,42.8,8,56,8h400c13.2,0,24,10.8,24,24v215H32z"/>
	<path style="fill:#E4EAF6;" d="M480,480c0,13.2-10.8,24-24,24H56c-13.2,0-24-10.8-24-24V288c0-13.2,10.8-24,24-24h400
		c13.2,0,24,10.8,24,24V480z"/>
</g>
<g>
	<rect x="144" y="304" style="fill:#464655;" width="224" height="160"/>
	<rect x="144" y="40" style="fill:#464655;" width="224" height="160"/>
</g>
<path style="fill:#C7CFE2;" d="M464,232c8.837,0,16,7.163,16,16s-7.163,16-16,16H48c-8.837,0-16-7.163-16-16s7.163-16,16-16H464z"/>
<path d="M488,32c0-17.645-14.355-32-32-32H56C38.355,0,24,14.356,24,32v215c0,0.113,0.012,0.223,0.017,0.335
	C24.011,247.556,24,247.777,24,248c0,7.331,3.307,13.9,8.504,18.306C27.23,272.013,24,279.635,24,288v192c0,17.645,14.355,32,32,32
	h400c17.645,0,32-14.355,32-32V288c0-8.365-3.23-15.987-8.504-21.694C484.693,261.9,488,255.331,488,248
	c0-0.223-0.011-0.444-0.017-0.665c0.005-0.112,0.017-0.222,0.017-0.335V32z M112,256v-16h280v16H112z M56,256h-8
	c-4.411,0-8-3.589-8-8s3.589-8,8-8h48v16H56z M408,240h56c4.411,0,8,3.589,8,8s-3.589,8-8,8h-8h-48V240z M56,16h400
	c8.822,0,16,7.178,16,16v193.376c-2.504-0.888-5.195-1.376-8-1.376H48c-2.804,0-5.496,0.488-8,1.376V32C40,23.178,47.178,16,56,16z
	 M472,480c0,8.823-7.178,16-16,16H56c-8.822,0-16-7.177-16-16V288c0-8.822,7.178-16,16-16h400c8.822,0,16,7.178,16,16V480z M368,296
	H144c-4.419,0-8,3.582-8,8v160c0,4.418,3.581,8,8,8h224c4.418,0,8-3.582,8-8V304C376,299.582,372.418,296,368,296z M360,456H152V312
	h208V456z M144,208h224c4.418,0,8-3.582,8-8V40c0-4.418-3.582-8-8-8H144c-4.419,0-8,3.582-8,8v160C136,204.418,139.581,208,144,208z
	 M152,48h208v144H152V48z M128,376c0,4.418-3.581,8-8,8H96v24c0,4.418-3.581,8-8,8s-8-3.582-8-8v-24H56c-4.418,0-8-3.582-8-8
	s3.582-8,8-8h24v-24c0-4.418,3.581-8,8-8s8,3.582,8,8v24h24C124.419,368,128,371.582,128,376z M394.34,133.66
	c-1.49-1.49-2.34-3.55-2.34-5.66s0.85-4.17,2.34-5.66c1.49-1.49,3.55-2.34,5.66-2.34c2.11,0,4.17,0.85,5.66,2.34S408,125.9,408,128
	s-0.85,4.17-2.34,5.66S402.11,136,400,136C397.89,136,395.83,135.15,394.34,133.66z M106.34,133.66c-1.49-1.49-2.34-3.55-2.34-5.66
	s0.85-4.17,2.34-5.66c1.49-1.49,3.56-2.34,5.66-2.34s4.17,0.85,5.66,2.34c1.49,1.49,2.34,3.56,2.34,5.66s-0.85,4.17-2.34,5.66
	S114.1,136,112,136S107.83,135.15,106.34,133.66z M82.34,133.66C80.85,132.17,80,130.1,80,128c0-2.11,0.85-4.17,2.34-5.66
	c1.49-1.49,3.55-2.34,5.66-2.34c2.1,0,4.17,0.85,5.66,2.34c1.49,1.49,2.34,3.55,2.34,5.66s-0.85,4.17-2.34,5.66
	C92.17,135.15,90.11,136,88,136S83.83,135.15,82.34,133.66z M58.34,133.66C56.85,132.17,56,130.11,56,128s0.85-4.17,2.34-5.66
	c1.49-1.49,3.55-2.34,5.66-2.34s4.17,0.85,5.66,2.34c1.49,1.49,2.34,3.55,2.34,5.66s-0.85,4.17-2.34,5.66
	C68.17,135.15,66.11,136,64,136S59.83,135.15,58.34,133.66z M58.34,109.66C56.85,108.17,56,106.11,56,104s0.85-4.17,2.34-5.66
	C59.83,96.85,61.89,96,64,96s4.17,0.85,5.66,2.34C71.15,99.83,72,101.89,72,104s-0.85,4.17-2.34,5.66C68.17,111.15,66.11,112,64,112
	S59.83,111.15,58.34,109.66z M82.34,109.66C80.85,108.17,80,106.1,80,104c0-2.11,0.85-4.17,2.34-5.66C83.83,96.85,85.89,96,88,96
	c2.1,0,4.17,0.85,5.66,2.34C95.15,99.83,96,101.89,96,104s-0.85,4.17-2.34,5.66C92.17,111.15,90.11,112,88,112
	S83.83,111.15,82.34,109.66z M106.34,109.66c-1.49-1.49-2.34-3.55-2.34-5.66s0.85-4.17,2.34-5.66C107.83,96.85,109.9,96,112,96
	c2.11,0,4.17,0.85,5.66,2.34c1.49,1.49,2.34,3.56,2.34,5.66c0,2.1-0.85,4.17-2.34,5.66c-1.49,1.49-3.56,2.34-5.66,2.34
	S107.83,111.15,106.34,109.66z M394.34,109.66c-1.49-1.49-2.34-3.55-2.34-5.66s0.85-4.17,2.34-5.66c1.49-1.49,3.55-2.34,5.66-2.34
	c2.11,0,4.17,0.85,5.66,2.34S408,101.89,408,104c0,2.1-0.85,4.17-2.34,5.66c-1.49,1.49-3.55,2.34-5.66,2.34
	C397.89,112,395.83,111.15,394.34,109.66z M418.34,109.66c-1.49-1.49-2.34-3.561-2.34-5.66c0-2.1,0.85-4.17,2.34-5.66
	c1.49-1.49,3.55-2.34,5.66-2.34c2.11,0,4.17,0.85,5.66,2.34S432,101.89,432,104c0,2.1-0.85,4.17-2.34,5.66
	c-1.49,1.49-3.56,2.34-5.66,2.34C421.89,112,419.83,111.15,418.34,109.66z M442.34,109.66c-1.49-1.49-2.34-3.55-2.34-5.66
	s0.85-4.17,2.34-5.66c1.49-1.49,3.55-2.34,5.66-2.34c2.11,0,4.17,0.85,5.66,2.34S456,101.89,456,104s-0.85,4.17-2.34,5.66
	c-1.49,1.49-3.55,2.34-5.66,2.34C445.89,112,443.83,111.15,442.34,109.66z M418.34,133.66c-1.49-1.49-2.34-3.561-2.34-5.66
	c0-2.1,0.85-4.17,2.34-5.66c1.49-1.49,3.55-2.34,5.66-2.34c2.11,0,4.17,0.85,5.66,2.34S432,125.9,432,128
	c0,2.11-0.85,4.17-2.34,5.66S426.11,136,424,136C421.89,136,419.83,135.15,418.34,133.66z M442.34,133.66
	c-1.49-1.49-2.34-3.55-2.34-5.66s0.85-4.17,2.34-5.66c1.49-1.49,3.55-2.34,5.66-2.34c2.11,0,4.17,0.85,5.66,2.34S456,125.89,456,128
	s-0.85,4.17-2.34,5.66S450.11,136,448,136C445.89,136,443.83,135.15,442.34,133.66z M436,408c0,6.617-5.383,12-12,12
	s-12-5.383-12-12s5.383-12,12-12S436,401.383,436,408z M436,352c0,6.617-5.383,12-12,12s-12-5.383-12-12s5.383-12,12-12
	S436,345.383,436,352z M464,380c0,6.617-5.383,12-12,12s-12-5.383-12-12s5.383-12,12-12S464,373.383,464,380z M408,380
	c0,6.617-5.383,12-12,12s-12-5.383-12-12s5.383-12,12-12S408,373.383,408,380z"/>
<g>
</g>
<g>
</g>
<g>
</g>
<g>
</g>
<g>
</g>
<g>
</g>
<g>
</g>
<g>
</g>
<g>
</g>
<g>
</g>
<g>
</g>
<g>
</g>
<g>
</g>
<g>
</g>
<g>
</g>
</svg>
