<?xml version="1.0" encoding="iso-8859-1"?>
<!-- Generator: Adobe Illustrator 19.0.0, SVG Export Plug-In . SVG Version: 6.00 Build 0)  -->
<svg version="1.1" id="Layer_1" xmlns="http://www.w3.org/2000/svg" xmlns:xlink="http://www.w3.org/1999/xlink" x="0px" y="0px"
	 viewBox="0 0 511.999 511.999" style="enable-background:new 0 0 511.999 511.999;" xml:space="preserve">
<path style="fill:#E4EAF6;" d="M503.997,332.046c0,17.599-14.4,31.999-31.999,31.999H40.003c-17.599,0-31.999-14.4-31.999-31.999
	V179.954c0-17.599,14.4-31.999,31.999-31.999h431.993c17.599,0,31.999,14.4,31.999,31.999v152.092H503.997z"/>
<polyline style="fill:#515262;" points="95.826,332.046 471.996,332.046 471.996,179.954 447.973,179.954 415.96,179.954 
	40.003,179.954 40.003,332.046 63.813,332.046 "/>
<path style="fill:#E4EAF6;" d="M143.871,244.05h-24.024v-24.09c0-4.406-3.572-7.978-7.978-7.978h-7.887
	c-4.406,0-7.978,3.572-7.978,7.978v24.09H71.791c-4.406,0-7.978,3.572-7.978,7.978v7.997c0,4.406,3.572,7.978,7.978,7.978h24.211
	v24.066c0,4.406,3.572,7.978,7.978,7.978h7.887c4.406,0,7.978-3.573,7.978-7.978v-24.066h24.024c4.406,0,7.978-3.573,7.978-7.978
	v-7.997C151.849,247.622,148.277,244.05,143.871,244.05z"/>
<g>
	<circle style="fill:#FF6464;" cx="375.937" cy="284.049" r="16"/>
	<circle style="fill:#FF6464;" cx="432.001" cy="284.049" r="16"/>
	<circle style="fill:#FF6464;" cx="375.947" cy="227.995" r="16"/>
	<circle style="fill:#FF6464;" cx="432.001" cy="227.995" r="16"/>
</g>
<path style="fill:#E4EAF6;" d="M336.002,304.044c0,2.201-1.801,4.002-4.002,4.002H179.999c-2.201,0-4.002-1.801-4.002-4.002v-39.996
	c0-2.201,1.801-4.002,4.002-4.002h152.002c2.201,0,4.002,1.801,4.002,4.002V304.044z"/>
<path style="fill:#707487;" d="M336.002,179.954v44.091c0,2.201-1.801,4.002-4.002,4.002H319.92h-32.013H179.999
	c-2.201,0-4.002-1.801-4.002-4.002v-44.091H336.002z"/>
<path d="M471.996,139.951H40.003C17.945,139.951,0,157.896,0,179.954v152.091c0,22.058,17.945,40.003,40.003,40.003h431.993
	c22.057,0,40.003-17.945,40.003-40.003V179.954C512,157.896,494.054,139.951,471.996,139.951z M495.993,332.045
	c0,13.233-10.765,23.996-23.996,23.996H40.003c-13.232,0.001-23.996-10.763-23.996-23.996V179.954
	c0-13.233,10.764-23.996,23.996-23.996h431.993c13.232,0,23.996,10.764,23.996,23.996v152.091H495.993z M71.816,332.045
	c0,4.42-3.584,8.003-8.003,8.003h-23.81c-4.42,0-8.003-3.583-8.003-8.003V179.954c0-4.42,3.583-8.003,8.003-8.003h375.956
	c4.42,0,8.003,3.583,8.003,8.003s-3.584,8.003-8.003,8.003h-71.954v36.087c0,6.62-5.385,12.005-12.005,12.005h-12.081
	c-4.42,0-8.003-3.582-8.003-8.003c0-4.42,3.583-8.003,8.003-8.003h8.079v-32.085H184.001v32.085h103.905
	c4.42,0,8.003,3.583,8.003,8.003c0,4.421-3.583,8.003-8.003,8.003H179.999c-6.62,0-12.005-5.385-12.005-12.005v-36.087H48.006
	v136.084h15.807C68.234,324.041,71.816,327.625,71.816,332.045z M480,179.954v152.091c0,4.42-3.582,8.003-8.003,8.003H95.826
	c-4.42,0-8.003-3.583-8.003-8.003c0-4.42,3.584-8.003,8.003-8.003h368.167V187.958h-16.021c-4.42,0-8.003-3.584-8.003-8.003
	s3.583-8.003,8.003-8.003h24.024C476.417,171.951,480,175.534,480,179.954z M103.98,308.053h7.887
	c8.813,0,15.982-7.17,15.982-15.982v-16.063h16.022c8.813,0,15.982-7.17,15.982-15.982v-7.998c0-8.813-7.17-15.982-15.982-15.982
	h-16.022v-16.088c0-8.813-7.169-15.982-15.982-15.982h-7.887c-8.813,0-15.982,7.169-15.982,15.982v16.088H71.791
	c-8.813,0-15.982,7.169-15.982,15.982v7.998c0,8.813,7.17,15.982,15.982,15.982h16.208v16.063
	C87.999,300.884,95.168,308.053,103.98,308.053z M71.816,260.027l-0.025-7.972h24.211c4.421,0,8.003-3.583,8.003-8.003
	l-0.025-24.066l7.862-0.025v24.091c0,4.42,3.583,8.003,8.003,8.003h24l0.025,7.947h-24.025c-4.42,0-8.003,3.583-8.003,8.003
	l0.025,24.041l-7.862,0.025v-24.066c0-4.42-3.582-8.003-8.003-8.003L71.816,260.027z M192.867,284.046
	c0-4.42,3.583-8.003,8.003-8.003H240c4.421,0,8.003,3.584,8.003,8.003c0,4.42-3.582,8.003-8.003,8.003h-39.13
	C196.449,292.049,192.867,288.467,192.867,284.046z M263.996,284.046c0-4.42,3.583-8.003,8.003-8.003h39.917
	c4.42,0,8.003,3.584,8.003,8.003c0,4.42-3.583,8.003-8.003,8.003H272C267.579,292.049,263.996,288.467,263.996,284.046z
	 M375.936,260.043c-13.236,0-24.003,10.768-24.003,24.003s10.768,24.003,24.003,24.003s24.003-10.768,24.003-24.003
	C399.939,270.811,389.172,260.043,375.936,260.043z M375.936,292.042c-4.409,0-7.996-3.587-7.996-7.996
	c0-4.41,3.588-7.996,7.996-7.996s7.996,3.587,7.996,7.996C383.932,288.456,380.345,292.042,375.936,292.042z M431.998,260.043
	c-13.236,0-24.003,10.768-24.003,24.003s10.767,24.003,24.003,24.003c13.236,0,24.003-10.768,24.003-24.003
	C456.001,270.811,445.233,260.043,431.998,260.043z M431.998,292.042c-4.409,0-7.996-3.587-7.996-7.996
	c0-4.41,3.587-7.996,7.996-7.996c4.409,0,7.996,3.587,7.996,7.996C439.994,288.456,436.406,292.042,431.998,292.042z
	 M375.95,203.991c-13.236,0-24.003,10.769-24.003,24.003c0,13.236,10.768,24.003,24.003,24.003s24.003-10.767,24.003-24.003
	C399.953,214.76,389.185,203.991,375.95,203.991z M375.95,235.992c-4.409,0-7.996-3.587-7.996-7.996s3.587-7.996,7.996-7.996
	s7.996,3.587,7.996,7.996S380.359,235.992,375.95,235.992z M431.998,203.991c-13.236,0-24.003,10.769-24.003,24.003
	c0,13.236,10.767,24.003,24.003,24.003c13.236,0,24.003-10.767,24.003-24.003C456.001,214.76,445.233,203.991,431.998,203.991z
	 M431.998,235.992c-4.409,0-7.996-3.587-7.996-7.996s3.587-7.996,7.996-7.996c4.409,0,7.996,3.587,7.996,7.996
	S436.406,235.992,431.998,235.992z M332.001,252.043H179.999c-6.62,0-12.005,5.385-12.005,12.005v39.996
	c0,6.62,5.385,12.005,12.005,12.005h152.002c6.62,0,12.005-5.385,12.005-12.005v-39.996
	C344.006,257.428,338.62,252.043,332.001,252.043z M327.999,300.042H184.001V268.05h143.998V300.042z"/>
<g>
</g>
<g>
</g>
<g>
</g>
<g>
</g>
<g>
</g>
<g>
</g>
<g>
</g>
<g>
</g>
<g>
</g>
<g>
</g>
<g>
</g>
<g>
</g>
<g>
</g>
<g>
</g>
<g>
</g>
</svg>
