<?xml version="1.0" encoding="iso-8859-1"?>
<!-- Generator: Adobe Illustrator 19.0.0, SVG Export Plug-In . SVG Version: 6.00 Build 0)  -->
<svg version="1.1" id="Layer_1" xmlns="http://www.w3.org/2000/svg" xmlns:xlink="http://www.w3.org/1999/xlink" x="0px" y="0px"
	 viewBox="0 0 512 512" style="enable-background:new 0 0 512 512;" xml:space="preserve">
<g>
	<path style="fill:#E4EAF6;" d="M470.92,299.679h17.052c8.843,0,16.012-7.169,16.012-16.012v-80.195
		c0-8.843-7.169-16.012-16.012-16.012H460.9L470.92,299.679z"/>
	<path style="fill:#E4EAF6;" d="M38.074,299.679H24.028c-8.843,0-16.012-7.169-16.012-16.012v-80.195
		c0-8.843,7.169-16.012,16.012-16.012H51.1L38.074,299.679z"/>
</g>
<path style="fill:#464655;" d="M476.538,348.042c-8.374-57.98-16.757-117.978-25.146-179.656
	c-1.865-13.631-14.171-26.358-27.37-27.899c-111.993-12.629-225.053-12.629-337.045,0c-13.2,1.543-25.507,14.267-27.37,27.899
	c-8.389,61.677-16.772,121.676-25.146,179.656c-1.859,12.793,7.375,24.87,20.549,26.721c17.412,2.342,34.857,4.369,52.323,6.096
	c4.217,0.417,8.457-0.341,12.315-2.095c30.629-13.93,80.069-22.976,135.852-22.976s105.225,9.046,135.852,22.976
	c3.858,1.754,8.097,2.512,12.315,2.095c17.466-1.727,34.91-3.754,52.323-6.096C469.162,372.911,478.397,360.836,476.538,348.042z"/>
<path style="fill:#5B5D6E;" d="M375.734,160.009c5.349,0.438,10.693,0.904,16.03,1.4c8.524,0.792,43.837,104.362,54.414,160.246
	c1.322,6.982,2.197,19.355-8.078,25.582c-15.474,9.377-35.324,9.954-35.368,9.511c-36.116-15.905-89.602-25.005-147.234-25.005
	s-111.118,9.1-147.234,25.005c-0.452,0.036-19.622-0.077-34.66-9.354c-10.482-6.467-9.135-18.541-7.853-25.42
	c10.4-55.832,44.942-159.771,53.481-160.564c45.251-4.2,90.962-6.324,136.266-6.324c12.666,0,25.364,0.166,38.074,0.497
	l31.061,1.136c6.347,0.299,12.694,0.638,19.038,1.019L375.734,160.009z"/>
<path d="M316.626,156.341c0.208-4.423,3.952-7.831,8.384-7.63c6.368,0.3,12.809,0.645,19.14,1.024
	c4.42,0.266,7.786,4.063,7.522,8.482c-0.255,4.255-3.786,7.536-7.995,7.536c-0.161,0-0.324-0.005-0.487-0.015
	c-6.263-0.377-12.634-0.717-18.935-1.014C319.835,164.517,316.418,160.763,316.626,156.341z M454.055,320.164
	c2.932,15.491-1.258,27.54-11.799,33.927c-9.001,5.455-18.967,8.115-25.742,9.386c-4.861,0.913-8.816,1.369-11.837,1.369
	c-2.456,0-4.295-0.302-5.503-0.906c-0.015-0.007-0.029-0.015-0.044-0.022c-35.102-15.357-87.417-24.161-143.631-24.161
	c-56.414,0-108.901,8.866-144.002,24.325c-0.824,0.363-1.703,0.584-2.6,0.655c-0.201,0.016-21.975,0.288-39.499-10.524
	c-10.597-6.537-14.474-17.878-11.526-33.709c4.883-26.213,15.501-65.292,27.713-101.985c5.728-17.215,11.187-31.979,15.785-42.699
	c7.122-16.604,11.123-21.836,17.122-22.393c45.458-4.219,91.553-6.358,137.007-6.358c12.676,0,25.556,0.168,38.283,0.5
	c4.426,0.115,7.919,3.796,7.804,8.222c-0.115,4.426-3.808,7.921-8.222,7.804c-12.589-0.328-25.328-0.494-37.866-0.494
	c-44.131,0-88.88,2.039-133.04,6.062c-9.3,13.486-38.886,100.907-48.826,154.278c-1.704,9.148-0.454,14.271,4.182,17.13
	c10.886,6.716,24.541,7.908,28.881,8.119c37.03-15.877,91.114-24.964,148.804-24.964c57.85,0,112.072,9.136,149.111,25.095
	c4.093-0.169,18.244-1.718,29.336-8.44c4.535-2.748,6.001-8.547,4.357-17.236c-4.506-23.805-14.417-59.93-25.867-94.278
	c-11.995-35.985-20.42-54.559-23.901-59.706c-4.484-0.409-8.998-0.799-13.454-1.163c-4.413-0.361-7.697-4.23-7.336-8.642
	c0.362-4.412,4.238-7.699,8.642-7.336c5.341,0.437,10.764,0.911,16.118,1.408c5.97,0.554,9.992,5.76,17.214,22.285
	c4.684,10.715,10.241,25.439,16.07,42.579C438.283,255.023,449.113,294.058,454.055,320.164z M410.707,355.939
	c-0.201-1.987-1.049-3.552-2.154-4.702C409.751,352.502,410.526,354.147,410.707,355.939z M512,203.472v80.195
	c0,13.25-10.779,24.028-24.028,24.028h-9.12c1.891,13.284,3.764,26.362,5.618,39.195c1.194,8.22-0.934,16.461-5.992,23.207
	c-5.188,6.92-12.779,11.396-21.374,12.605c-17.324,2.331-35.021,4.393-52.651,6.135c-5.545,0.549-11.225-0.412-16.422-2.775
	c-30.642-13.936-80.188-22.256-132.534-22.256s-101.892,8.32-132.534,22.256c-4.246,1.932-8.814,2.926-13.369,2.926
	c-1.019,0-2.038-0.05-3.052-0.15c-17.629-1.742-35.328-3.804-52.603-6.128c-8.642-1.215-16.232-5.691-21.42-12.61
	c-5.059-6.745-7.187-14.987-5.993-23.208c1.854-12.832,3.727-25.911,5.618-39.195h-8.117C10.779,307.694,0,296.916,0,283.667
	v-80.195c0-13.249,10.779-24.028,24.028-24.028H50.01c0.551-4.035,1.102-8.08,1.654-12.139c2.356-17.241,17.779-32.84,34.381-34.781
	c112.452-12.681,226.454-12.68,338.874-0.004c16.632,1.942,32.057,17.542,34.414,34.779c0.552,4.06,1.104,8.108,1.655,12.145h26.984
	C501.221,179.444,512,190.223,512,203.472z M34.42,291.663c4.392-31.039,8.868-63.186,13.395-96.188H24.028
	c-4.41,0-7.997,3.587-7.997,7.997v80.195c0,4.41,3.587,7.997,7.997,7.997H34.42z M468.605,349.195c0-0.003,0-0.004-0.001-0.007
	c-8.086-55.979-16.549-116.446-25.156-179.722c-1.38-10.089-10.892-19.913-20.357-21.018c-55.591-6.269-111.59-9.404-167.585-9.404
	c-56.008,0-112.012,3.135-167.632,9.407c-9.433,1.102-18.947,10.926-20.327,21.02c-8.605,63.267-17.069,123.734-25.154,179.717
	c-0.578,3.976,0.471,7.984,2.953,11.292c2.611,3.483,6.44,5.736,10.779,6.346c17.042,2.291,34.552,4.331,51.996,6.057
	c2.738,0.273,5.577-0.218,8.207-1.415c33.11-15.058,83.836-23.694,139.172-23.694s106.061,8.637,139.171,23.694
	c2.63,1.196,5.467,1.688,8.208,1.415c17.443-1.724,34.952-3.764,52.043-6.063c4.292-0.604,8.121-2.859,10.733-6.34
	C468.133,357.171,469.182,353.163,468.605,349.195z M495.969,203.472c0-4.41-3.587-7.997-7.997-7.997h-24.789
	c4.527,33.002,9.003,65.15,13.394,96.188h11.394c4.41,0,7.997-3.588,7.997-7.997L495.969,203.472L495.969,203.472z M231.452,291.663
	c-4.428,0-8.016,3.589-8.016,8.016c0,4.427,3.588,8.016,8.016,8.016h48.094c4.427,0,8.016-3.589,8.016-8.016
	c0-4.427-3.589-8.016-8.016-8.016H231.452z M183.358,299.679c0,8.839,7.192,16.031,16.031,16.031
	c8.839,0,16.031-7.192,16.031-16.031c0-8.839-7.192-16.031-16.031-16.031C190.55,283.648,183.358,290.84,183.358,299.679z"/>
<g>
</g>
<g>
</g>
<g>
</g>
<g>
</g>
<g>
</g>
<g>
</g>
<g>
</g>
<g>
</g>
<g>
</g>
<g>
</g>
<g>
</g>
<g>
</g>
<g>
</g>
<g>
</g>
<g>
</g>
</svg>
