<?xml version="1.0" encoding="iso-8859-1"?>
<!-- Generator: Adobe Illustrator 19.0.0, SVG Export Plug-In . SVG Version: 6.00 Build 0)  -->
<svg version="1.1" id="Layer_1" xmlns="http://www.w3.org/2000/svg" xmlns:xlink="http://www.w3.org/1999/xlink" x="0px" y="0px"
	 viewBox="0 0 512 512" style="enable-background:new 0 0 512 512;" xml:space="preserve">
<path style="fill:#FFD782;" d="M256,256L431.362,80.637C386.483,35.758,324.483,8,256,8C119.034,8,8,119.034,8,256
	s111.034,248,248,248c68.483,0,130.483-27.758,175.362-72.636L256,256z"/>
<path style="fill:#FFC36E;" d="M59.637,256c0-128.248,97.349-233.753,222.182-246.666C273.331,8.455,264.719,8,256,8
	C119.034,8,8,119.034,8,256s111.034,248,248,248c8.72,0,17.332-0.455,25.819-1.333C156.985,489.753,59.637,384.248,59.637,256z"/>
<circle style="fill:#5B5D6E;" cx="267.986" cy="107.976" r="20.001"/>
<g>
	<circle style="fill:#FFC36E;" cx="343.99" cy="255.985" r="18.001"/>
	<circle style="fill:#FFC36E;" cx="415.994" cy="255.985" r="18.001"/>
	<circle style="fill:#FFC36E;" cx="487.999" cy="255.985" r="18.001"/>
</g>
<path d="M267.314,256L437.02,86.294c1.501-1.5,2.343-3.535,2.343-5.657c0-2.122-0.843-4.157-2.343-5.657
	C388.668,26.629,324.38,0,256,0S123.332,26.629,74.98,74.98S0,187.62,0,256s26.629,132.668,74.98,181.02S187.62,512,256,512
	s132.668-26.629,181.019-74.98c3.125-3.124,3.125-8.189,0-11.315L267.314,256z M256,495.999
	C123.664,495.999,16.001,388.336,16.001,256S123.664,16.001,256,16.001c61.434,0,119.34,22.923,163.956,64.728L250.343,250.343
	c-3.124,3.124-3.124,8.19,0,11.315l169.613,169.614C375.34,473.076,317.434,495.999,256,495.999z M239.999,108
	C239.999,92.56,252.56,80,268,80c4.418,0,8,3.581,8,8c0,4.418-3.582,8-8,8c-6.616,0-12,5.383-12,12s5.383,11.999,12,11.999
	c6.616,0,12-5.382,12-11.999c0-4.418,3.581-8,8-8c4.418,0,8,3.582,8,8c0,15.439-12.561,28-28.001,28
	C252.56,136.001,239.999,123.44,239.999,108z M336,256c0,4.411,3.588,7.999,7.999,7.999s7.999-3.588,7.999-7.999
	c0-4.418,3.582-8,8-8c4.418,0,8,3.582,8,8c0,13.234-10.767,24-24,24c-13.234,0-24-10.767-24-24c0-13.234,10.767-24,24-24
	c4.418,0,8,3.582,8,8c0,4.419-3.582,8-8,8C339.589,248.001,336,251.589,336,256z M440,256c0,13.234-10.767,24-24,24
	s-24-10.767-24-24c0-13.234,10.767-24,24-24c4.418,0,8,3.582,8,8c0,4.419-3.582,8-8,8c-4.411,0-7.999,3.588-7.999,7.999
	s3.588,7.999,7.999,7.999s7.999-3.588,7.999-7.999c0-4.418,3.582-8,8-8C436.419,248,440,251.581,440,256z M512,256
	c0,13.234-10.767,24-24,24c-13.234,0-24-10.767-24-24c0-13.234,10.767-24,24-24c4.418,0,8,3.582,8,8c0,4.419-3.582,8-8,8
	c-4.411,0-7.999,3.588-7.999,7.999s3.588,7.999,7.999,7.999c4.411,0,7.999-3.588,7.999-7.999c0-4.418,3.582-8,8-8
	C508.418,248,512,251.581,512,256z"/>
<g>
</g>
<g>
</g>
<g>
</g>
<g>
</g>
<g>
</g>
<g>
</g>
<g>
</g>
<g>
</g>
<g>
</g>
<g>
</g>
<g>
</g>
<g>
</g>
<g>
</g>
<g>
</g>
<g>
</g>
</svg>
