<?xml version="1.0" encoding="iso-8859-1"?>
<!-- Generator: Adobe Illustrator 19.0.0, SVG Export Plug-In . SVG Version: 6.00 Build 0)  -->
<svg version="1.1" id="Layer_1" xmlns="http://www.w3.org/2000/svg" xmlns:xlink="http://www.w3.org/1999/xlink" x="0px" y="0px"
	 viewBox="0 0 512 512" style="enable-background:new 0 0 512 512;" xml:space="preserve">
<path style="fill:#515262;" d="M256,504L256,504c-26.51,0-48-21.49-48-48V192.011C208,178.75,218.75,168,232.011,168h47.979
	c13.26,0,24.01,10.75,24.01,24.011V456C304,482.51,282.51,504,256,504z"/>
<path style="fill:#464655;" d="M265,448h-57v8c0,26.51,21.49,48,48,48l0,0c26.51,0,48-21.49,48-48v-8h-8H265z"/>
<circle style="fill:#00D2FF;" cx="256" cy="72" r="64"/>
<rect x="232" y="133" style="fill:#464655;" width="48" height="34"/>
<circle style="fill:#FF6464;" cx="256" cy="312" r="17"/>
<path d="M288,161.015v-24.543c23.684-11.803,40-36.262,40-64.472c0-39.701-32.299-72-72-72s-72,32.299-72,72
	c0,28.21,16.316,52.669,40,64.472v24.543c-13.787,3.565-24,16.11-24,30.996V456c0,30.878,25.122,56,56,56s56-25.122,56-56V192.011
	C312,177.125,301.787,164.581,288,161.015z M200,72c0-30.878,25.122-56,56-56s56,25.122,56,56s-25.122,56-56,56S200,102.878,200,72z
	 M256,144c5.5,0,10.85-0.641,16-1.814V160h-32v-17.814C245.15,143.359,250.5,144,256,144z M256,496c-22.056,0-40-17.944-40-40h49
	c4.418,0,8-3.582,8-8s-3.582-8-8-8h-49V192.011c0-8.828,7.183-16.011,16.011-16.011h47.979c8.828,0,16.011,7.182,16.011,16.011V440
	c-4.418,0-8,3.582-8,8s3.582,8,8,8C296,478.056,278.056,496,256,496z M280,312c0,13.234-10.766,24-24,24c-13.234,0-24-10.766-24-24
	s10.766-24,24-24c4.418,0,8,3.582,8,8s-3.582,8-8,8c-4.411,0-8,3.589-8,8s3.589,8,8,8c4.411,0,8-3.589,8-8c0-4.418,3.582-8,8-8
	S280,307.582,280,312z M288,240c0,4.418-3.582,8-8,8h-16v16c0,4.418-3.582,8-8,8c-4.419,0-8-3.582-8-8v-16h-16c-4.419,0-8-3.582-8-8
	s3.581-8,8-8h16v-16c0-4.418,3.581-8,8-8c4.418,0,8,3.582,8,8v16h16C284.418,232,288,235.582,288,240z M256,48c-4.419,0-8-3.582-8-8
	s3.581-8,8-8c22.056,0,40,17.944,40,40c0,4.418-3.582,8-8,8s-8-3.582-8-8C280,58.766,269.234,48,256,48z"/>
<g>
</g>
<g>
</g>
<g>
</g>
<g>
</g>
<g>
</g>
<g>
</g>
<g>
</g>
<g>
</g>
<g>
</g>
<g>
</g>
<g>
</g>
<g>
</g>
<g>
</g>
<g>
</g>
<g>
</g>
</svg>
