<?xml version="1.0" encoding="iso-8859-1"?>
<!-- Generator: Adobe Illustrator 19.0.0, SVG Export Plug-In . SVG Version: 6.00 Build 0)  -->
<svg version="1.1" id="Layer_1" xmlns="http://www.w3.org/2000/svg" xmlns:xlink="http://www.w3.org/1999/xlink" x="0px" y="0px"
	 viewBox="0 0 512 512" style="enable-background:new 0 0 512 512;" xml:space="preserve">
<path style="fill:#515262;" d="M256,132c136.967,0,248,73.425,248,164c0,64-45.54,84-76.447,84c-6.765,0-13.419-0.408-19.52-2.288
	C389.5,372,353.5,340,256,340s-133.5,32-152.033,37.712c-6.101,1.88-12.755,2.288-19.52,2.288C53.54,380,8,360,8,296
	C8,205.425,119.033,132,256,132z"/>
<circle style="fill:#FFCD46;" cx="332" cy="296" r="20"/>
<circle style="fill:#FF6464;" cx="388" cy="272" r="20"/>
<circle style="fill:#82B9FF;" cx="444" cy="248" r="20"/>
<circle style="fill:#FFCD46;" cx="120" cy="252" r="56"/>
<path style="fill:#464655;" d="M178.007,141c8.185,36.072,40.444,63,78.993,63c0,0,64.825,3.974,79-63.032"/>
<path d="M332,268c-15.44,0-28,12.56-28,28s12.56,28,28,28s28-12.56,28-28S347.44,268,332,268z M332,308c-6.617,0-12-5.383-12-12
	s5.383-12,12-12s12,5.383,12,12S338.617,308,332,308z M304,236c0-8.822,7.178-16,16-16s16,7.178,16,16s-7.178,16-16,16
	S304,244.822,304,236z M344,220c0-8.822,7.178-16,16-16s16,7.178,16,16s-7.178,16-16,16S344,228.822,344,220z M384,204
	c0-8.822,7.178-16,16-16s16,7.178,16,16s-7.178,16-16,16S384,212.822,384,204z M388,244c-15.44,0-28,12.56-28,28s12.56,28,28,28
	s28-12.56,28-28S403.44,244,388,244z M388,284c-6.617,0-12-5.383-12-12s5.383-12,12-12s12,5.383,12,12S394.617,284,388,284z
	 M444,220c-15.44,0-28,12.561-28,28s12.56,28,28,28s28-12.56,28-28S459.44,220,444,220z M444,260c-6.617,0-12-5.383-12-12
	s5.383-12,12-12s12,5.383,12,12S450.617,260,444,260z M435.775,173.361C387.64,141.53,323.795,124,256,124
	s-131.64,17.53-179.775,49.361C27.07,205.867,0,249.421,0,296c0,38.835,16.011,60.637,29.443,72.088
	C44.286,380.742,64.335,388,84.447,388c6.193,0,14.276-0.3,21.876-2.643c4.65-1.434,9.708-4.013,16.111-7.279
	C144.491,366.829,181.407,348,256,348s111.509,18.829,133.565,30.078c6.403,3.266,11.461,5.846,16.112,7.279
	c7.6,2.342,15.683,2.643,21.876,2.643c20.112,0,40.161-7.258,55.003-19.912C495.989,356.637,512,334.835,512,296
	C512,249.421,484.93,205.867,435.775,173.361z M427.553,372c-5.386,0-11.637-0.229-17.164-1.933
	c-3.327-1.026-7.841-3.328-13.555-6.242C375.028,352.703,334.438,332,256,332s-119.028,20.703-140.835,31.825
	c-5.714,2.914-10.228,5.216-13.554,6.242C96.084,371.771,89.832,372,84.447,372C59.024,372,16,355.993,16,296
	c0-66.849,65.031-124.005,156.127-146.163c5.245,16.545,15.351,31.41,28.961,42.411C216.845,204.985,236.702,212,257,212
	c4.418,0,8-3.582,8-8s-3.582-8-8-8c-31.81,0-59.265-20.049-69.162-49.581C209.455,142.25,232.329,140,256,140
	c24.353,0,47.866,2.377,70.031,6.781c-6.647,19.271-21.234,35.142-40.194,43.304c-4.059,1.747-5.932,6.453-4.185,10.511
	c1.303,3.027,4.253,4.839,7.352,4.839c1.055,0,2.128-0.21,3.159-0.654c23.661-10.186,41.744-30.224,49.567-54.485
	C431.851,172.776,496,229.606,496,296C496,355.993,452.976,372,427.553,372z M237.657,278.343c3.125,3.124,3.125,8.19,0,11.314
	l-24,24c-1.562,1.562-3.61,2.343-5.657,2.343s-4.095-0.781-5.657-2.343c-3.125-3.124-3.125-8.19,0-11.314l24-24
	C229.467,275.219,234.533,275.219,237.657,278.343z M293.657,278.343c3.124,3.124,3.124,8.19,0,11.314l-24,24
	c-1.562,1.562-3.61,2.343-5.657,2.343s-4.095-0.781-5.657-2.343c-3.125-3.124-3.125-8.19,0-11.314l24-24
	C285.467,275.219,290.533,275.219,293.657,278.343z M120,188c-35.29,0-64,28.71-64,64s28.71,64,64,64s64-28.71,64-64
	S155.29,188,120,188z M128,299.321V284c0-4.418-3.581-8-8-8s-8,3.582-8,8v15.321C91.933,295.938,76.062,280.067,72.679,260H88
	c4.419,0,8-3.582,8-8s-3.581-8-8-8H72.679c3.382-20.067,19.253-35.938,39.321-39.321V220c0,4.418,3.581,8,8,8s8-3.582,8-8v-15.321
	c20.067,3.383,35.938,19.253,39.321,39.321H152c-4.419,0-8,3.582-8,8s3.581,8,8,8h15.321
	C163.938,280.067,148.067,295.938,128,299.321z M125.66,246.34c1.48,1.49,2.34,3.55,2.34,5.66c0,2.1-0.86,4.17-2.34,5.66
	c-1.49,1.49-3.56,2.34-5.66,2.34c-2.11,0-4.17-0.85-5.66-2.34c-1.49-1.49-2.34-3.561-2.34-5.66c0-2.11,0.85-4.17,2.34-5.66
	S117.89,244,120,244C122.1,244,124.17,244.85,125.66,246.34z"/>
<g>
</g>
<g>
</g>
<g>
</g>
<g>
</g>
<g>
</g>
<g>
</g>
<g>
</g>
<g>
</g>
<g>
</g>
<g>
</g>
<g>
</g>
<g>
</g>
<g>
</g>
<g>
</g>
<g>
</g>
</svg>
