<?xml version="1.0" encoding="iso-8859-1"?>
<!-- Generator: Adobe Illustrator 19.0.0, SVG Export Plug-In . SVG Version: 6.00 Build 0)  -->
<svg version="1.1" id="Layer_1" xmlns="http://www.w3.org/2000/svg" xmlns:xlink="http://www.w3.org/1999/xlink" x="0px" y="0px"
	 viewBox="0 0 512.001 512.001" style="enable-background:new 0 0 512.001 512.001;" xml:space="preserve">
<path style="fill:#5B5D6E;" d="M475.317,476.69c-6.226,6.22-18.519,11.308-27.318,11.308H64.001c-8.8,0-21.091-5.091-27.313-11.314
	l-17.373-17.373c-6.222-6.222-11.313-18.512-11.313-27.312V40.002c0-8.8,7.2-16,16-16h463.996c8.8,0,16,7.2,16,16v392.035
	c0,8.8-5.093,21.089-11.319,27.308L475.317,476.69z"/>
<path style="fill:#464655;" d="M352.004,116.846c57.386,16.598,95.995,47.623,95.995,83.155C447.999,253.02,362.039,296,256,296
	S64.001,253.019,64.001,200.001c0-53.019,85.961-95.999,191.999-95.999c22.442,0,43.984,1.926,64.003,5.463L352.004,116.846z"/>
<path style="fill:#FF6464;" d="M375.999,200.001c0,8.8-7.2,15.999-16,15.999H152.001c-8.8,0-16-7.2-16-15.999l0,0
	c0-8.8,7.2-16,16-16h207.998C368.799,184.001,375.999,191.201,375.999,200.001L375.999,200.001z"/>
<path style="fill:#464655;" d="M64.001,487.999V359.988c0-17.667,14.322-31.989,31.989-31.989h320.018
	c17.667,0,31.989,14.322,31.989,31.989v128.01H64.001V487.999z"/>
<rect x="192.002" y="391.996" style="fill:#5B5D6E;" width="127.995" height="32"/>
<path style="fill:#D7DEED;" d="M136.001,391.999c-8.8,0-15.999,7.2-15.999,15.999c0,8.8,7.2,16,15.999,16H192v-32H136.001z"/>
<path style="fill:#82B9FF;" d="M375.999,391.999H320v32h55.999c8.8,0,16-7.2,16-16C391.999,399.199,384.799,391.999,375.999,391.999
	z"/>
<path style="fill:#464655;" d="M64.001,24.002v31.984c0,8.845,7.171,16.016,16.016,16.016h351.965
	c8.845,0,16.016-7.171,16.016-16.016V24.002H64.001z"/>
<path d="M487.999,16H24.002C10.767,16,0,26.767,0,40.002v391.997c0,11.01,5.872,25.185,13.658,32.972l17.373,17.373
	c7.786,7.786,21.961,13.658,32.972,13.658h383.996c11.01,0,25.186-5.868,32.975-13.65l17.361-17.346
	c7.791-7.783,13.667-21.957,13.667-32.97V40.002C512,26.767,501.233,16,487.999,16z M72.003,32.005h15.995v15.997
	c0,4.419,3.582,8.002,8.002,8.002c4.419,0,8.002-3.583,8.002-8.002V32.005h15.995v15.997c0,4.419,3.583,8.002,8.002,8.002
	c4.42,0,8.002-3.583,8.002-8.002V32.005h15.995v15.997c0,4.419,3.583,8.002,8.002,8.002c4.42,0,8.002-3.583,8.002-8.002V32.005
	h15.995v15.997c0,4.419,3.583,8.002,8.002,8.002c4.42,0,8.002-3.583,8.002-8.002V32.005h15.995v15.997
	c0,4.419,3.583,8.002,8.002,8.002c4.42,0,8.002-3.583,8.002-8.002V32.005h15.995v15.997c0,4.419,3.582,8.002,8.002,8.002
	c4.419,0,8.002-3.583,8.002-8.002V32.005h15.995v15.997c0,4.419,3.583,8.002,8.002,8.002s8.002-3.583,8.002-8.002V32.005h15.995
	v15.997c0,4.419,3.583,8.002,8.002,8.002S328,52.421,328,48.002V32.005h15.995v15.997c0,4.419,3.583,8.002,8.002,8.002
	c4.42,0,8.002-3.583,8.002-8.002V32.005h15.995v15.997c0,4.419,3.583,8.002,8.002,8.002S392,52.421,392,48.002V32.005h15.995v15.997
	c0,4.419,3.583,8.002,8.002,8.002c4.42,0,8.002-3.583,8.002-8.002V32.005h15.995v23.981c0,4.418-3.595,8.014-8.013,8.014H80.018
	c-4.419,0-8.014-3.595-8.014-8.014V32.005z M439.996,479.996H72.003V359.989c0-13.227,10.761-23.986,23.986-23.986h320.019
	c13.227,0,23.986,10.76,23.986,23.986L439.996,479.996L439.996,479.996z M495.996,432.036c0,6.638-4.276,16.956-8.973,21.647
	l-17.362,17.346c-3.039,3.036-8.432,5.89-13.661,7.531V359.989c0-22.051-17.94-39.991-39.991-39.991H95.991
	C73.94,319.998,56,337.938,56,359.989v118.57c-5.226-1.642-10.616-4.496-13.653-7.532l-17.372-17.373
	c-4.696-4.695-8.971-15.017-8.971-21.656V40.002c0-4.41,3.588-7.998,7.998-7.998H56v23.981c0,13.244,10.774,24.018,24.018,24.018
	h351.965c13.244,0,24.017-10.774,24.017-24.018v-23.98h31.998c4.41,0,7.998,3.588,7.998,7.998v392.034H495.996z M456,200.001
	c0,28.832-21.543,55.481-60.658,75.039c-37.353,18.677-86.839,28.963-139.342,28.963c-52.503,0-101.989-10.286-139.343-28.963
	c-39.116-19.558-60.658-46.207-60.658-75.039c0-28.832,21.543-55.481,60.658-75.039C154.011,106.285,203.497,95.999,256,95.999
	c22.423,0,44.425,1.88,65.396,5.586c4.352,0.769,7.256,4.921,6.487,9.272c-0.769,4.352-4.924,7.253-9.272,6.488
	c-20.053-3.545-41.118-5.341-62.61-5.341c-50.066,0-97.01,9.686-132.185,27.273c-33.411,16.706-51.812,38.271-51.812,60.724
	s18.401,44.019,51.812,60.724c35.174,17.587,82.118,27.272,132.185,27.272s97.01-9.686,132.185-27.272
	c33.411-16.706,51.811-38.271,51.811-60.724c0-30.454-34.569-59.372-90.215-75.468c-4.246-1.228-6.692-5.666-5.463-9.911
	c1.228-4.245,5.666-6.691,9.911-5.463c29.738,8.602,54.799,21.072,72.47,36.063C445.867,161.483,456,180.425,456,200.001z
	 M127.999,200.001c0,13.235,10.768,24.002,24.002,24.002h207.998c13.235,0,24.001-10.768,24.001-24.002
	c0-13.235-10.767-24.002-24.001-24.002H152.001C138.766,175.998,127.999,186.766,127.999,200.001z M367.996,200.001
	c0,4.41-3.587,7.998-7.997,7.998H152.001c-4.41,0-7.998-3.588-7.998-7.998c0-4.41,3.588-7.998,7.998-7.998h207.998
	C364.409,192.003,367.996,195.591,367.996,200.001z M375.998,383.997H136.001c-13.235,0-24.002,10.767-24.002,24.002
	c0,13.235,10.767,24.002,24.002,24.002h239.998c13.235,0,24.002-10.767,24.002-24.002S389.234,383.997,375.998,383.997z
	 M311.997,400.001v15.995H200.003v-15.995H311.997z M128.004,407.999c0-4.41,3.588-7.998,7.998-7.998h47.997v15.995h-47.997
	C131.591,415.996,128.004,412.408,128.004,407.999z M375.998,415.996h-47.997v-15.995h47.997c4.41,0,7.998,3.588,7.998,7.998
	S380.409,415.996,375.998,415.996z M215.998,359.999c0-4.419,3.583-8.002,8.002-8.002H288c4.419,0,8.002,3.583,8.002,8.002
	s-3.583,8.002-8.002,8.002H224C219.58,368.001,215.998,364.419,215.998,359.999z"/>
<g>
</g>
<g>
</g>
<g>
</g>
<g>
</g>
<g>
</g>
<g>
</g>
<g>
</g>
<g>
</g>
<g>
</g>
<g>
</g>
<g>
</g>
<g>
</g>
<g>
</g>
<g>
</g>
<g>
</g>
</svg>
