<?xml version="1.0" encoding="iso-8859-1"?>
<!-- Generator: Adobe Illustrator 19.0.0, SVG Export Plug-In . SVG Version: 6.00 Build 0)  -->
<svg version="1.1" id="Layer_1" xmlns="http://www.w3.org/2000/svg" xmlns:xlink="http://www.w3.org/1999/xlink" x="0px" y="0px"
	 viewBox="0 0 512 512" style="enable-background:new 0 0 512 512;" xml:space="preserve">
<circle style="fill:#AEB5CA;" cx="256" cy="256" r="224"/>
<path style="fill:#D7DEED;" d="M401.742,131.001C430.577,164.59,448,208.26,448,256c0,106.039-85.961,192-192,192S64,362.039,64,256
	S149.961,64,256,64c47.74,0,91.41,17.424,124.999,46.258"/>
<path d="M224,256c0,4.419-3.581,8-8,8H97c-4.419,0-8-3.581-8-8c0-4.418,3.581-8,8-8h119C220.419,248,224,251.582,224,256z M288,256
	c0,4.419,3.582,8,8,8h120c4.418,0,8-3.581,8-8c0-4.418-3.582-8-8-8H296C291.582,248,288,251.582,288,256z M512,256
	c0,4.419-3.582,8-8,8h-16.151c-1.985,58.969-25.873,114.121-67.8,156.049S322.97,485.864,264,487.849V504c0,4.418-3.582,8-8,8
	c-4.419,0-8-3.582-8-8v-16.151c-58.969-1.985-114.121-25.873-156.049-67.8S26.136,322.969,24.151,264H8c-4.418,0-8-3.581-8-8
	c0-4.418,3.582-8,8-8h16.151c1.985-58.969,25.873-114.121,67.8-156.049s97.08-65.814,156.049-67.8V8c0-4.418,3.581-8,8-8
	c4.418,0,8,3.582,8,8v16.151c58.969,1.985,114.121,25.873,156.049,67.8s65.815,97.079,67.8,156.049H504
	C508.418,248,512,251.582,512,256z M264,40.164v16.005c44.911,1.798,88.037,18.684,122.21,48.02
	c3.353,2.878,3.737,7.928,0.859,11.281s-7.929,3.737-11.281,0.859C342.49,87.743,299.948,72,256,72C154.542,72,72,154.542,72,256
	s82.542,184,184,184s184-82.542,184-184c0-43.948-15.743-86.49-44.328-119.788c-2.878-3.352-2.494-8.403,0.859-11.281
	c3.354-2.878,8.404-2.493,11.281,0.859c29.336,34.172,46.222,77.299,48.02,122.209h16.005
	C467.709,135.247,376.753,44.291,264,40.164z M40.164,248h16.01C60.285,144.071,144.07,60.285,248,56.174v-16.01
	C135.247,44.291,44.291,135.247,40.164,248z M248,471.836v-16.01C144.07,451.716,60.285,367.93,56.174,264h-16.01
	C44.291,376.753,135.247,467.709,248,471.836z M471.836,264h-16.01C451.716,367.93,367.93,451.716,264,455.826v16.01
	C376.753,467.709,467.709,376.753,471.836,264z M256,288c-4.419,0-8,3.582-8,8v119c0,4.418,3.581,8,8,8c4.418,0,8-3.582,8-8V296
	C264,291.582,260.418,288,256,288z M256,88c-4.419,0-8,3.582-8,8v120c0,4.419,3.581,8,8,8c4.418,0,8-3.581,8-8V96
	C264,91.582,260.418,88,256,88z"/>
<g>
</g>
<g>
</g>
<g>
</g>
<g>
</g>
<g>
</g>
<g>
</g>
<g>
</g>
<g>
</g>
<g>
</g>
<g>
</g>
<g>
</g>
<g>
</g>
<g>
</g>
<g>
</g>
<g>
</g>
</svg>
