<?xml version="1.0" encoding="iso-8859-1"?>
<!-- Generator: Adobe Illustrator 19.0.0, SVG Export Plug-In . SVG Version: 6.00 Build 0)  -->
<svg version="1.1" id="Layer_1" xmlns="http://www.w3.org/2000/svg" xmlns:xlink="http://www.w3.org/1999/xlink" x="0px" y="0px"
	 viewBox="0 0 512 512" style="enable-background:new 0 0 512 512;" xml:space="preserve">
<path style="fill:#E4EAF6;" d="M101.216,137.938H65.068c-14.216,0-27.193,11.358-37.068,30.061h50.214
	C78.214,167.999,96.599,159.031,101.216,137.938z"/>
<path style="fill:#515262;" d="M485.068,166.061h-50.214c0,0-18.385-8.968-23.003-30.062H100.148
	c-4.618,21.093-23.003,30.062-23.003,30.062H26.932C15.323,188.048,8,220.189,8,255.999s7.323,67.951,18.932,89.938h50.214
	c0,0,18.385,8.968,23.003,30.062h311.704c4.618-21.093,23.003-30.062,23.003-30.062h50.214C496.677,323.951,504,291.81,504,255.999
	S496.677,188.048,485.068,166.061z"/>
<g>
	<path style="fill:#E4EAF6;" d="M433.786,167.999H484c-9.875-18.704-22.852-30.061-37.068-30.061h-36.148
		C415.401,159.031,433.786,167.999,433.786,167.999z"/>
	<path style="fill:#E4EAF6;" d="M78.214,344H28c9.875,18.704,22.852,30.061,37.068,30.061h36.148
		C96.599,352.968,78.214,344,78.214,344z"/>
	<path style="fill:#E4EAF6;" d="M410.784,374.061h36.148c14.216,0,27.193-11.358,37.068-30.061h-50.214
		C433.786,344,415.401,352.968,410.784,374.061z"/>
</g>
<rect x="128" y="176" style="fill:#464655;" width="256" height="160"/>
<path d="M494.847,167.763c-11.966-25.642-28.603-39.764-46.847-39.764H64c-18.244,0-34.881,14.122-46.848,39.764
	C6.091,191.465,0,222.802,0,255.999s6.091,64.534,17.152,88.236C29.119,369.877,45.756,384,64,384h39.963
	c0.009,0,0.018,0.001,0.027,0.001c0.005,0,0.011-0.001,0.016-0.001h303.988c0.005,0,0.011,0.001,0.016,0.001
	c0.009,0,0.018-0.001,0.027-0.001H448c18.244,0,34.881-14.122,46.847-39.764C505.908,320.534,512,289.197,512,255.999
	S505.908,191.465,494.847,167.763z M471.99,159.999h-38.903c-3.071-1.881-10.181-7.004-14.369-16H448
	C456.218,143.999,464.582,149.682,471.99,159.999z M64,143.999h29.282c-4.196,9.014-11.323,14.138-14.364,16H40.01
	C47.418,149.682,55.782,143.999,64,143.999z M40.01,352h38.903c3.07,1.881,10.181,7.004,14.369,16H64
	C55.782,368,47.418,362.317,40.01,352z M448,368h-29.282c4.196-9.014,11.323-14.138,14.364-16h38.908
	C464.582,362.317,456.218,368,448,368z M481.002,336H431c-1.214,0-2.412,0.276-3.504,0.808c-0.864,0.421-19.433,9.705-25.867,31.192
	H110.371c-6.434-21.487-25.003-30.771-25.867-31.192C83.412,336.276,82.214,336,81,336H30.998C21.327,314.537,16,286.223,16,255.999
	s5.327-58.538,14.998-80H81c1.214,0,2.412-0.276,3.504-0.808c0.864-0.421,19.433-9.705,25.867-31.192h291.258
	c6.434,21.487,25.003,30.771,25.867,31.192c1.092,0.532,2.29,0.808,3.504,0.808h50.002c9.672,21.462,14.998,49.777,14.998,80
	S490.673,314.537,481.002,336z M384,167.999H128c-4.419,0-8,3.582-8,8v160c0,4.418,3.581,8,8,8h256c4.418,0,8-3.582,8-8v-160
	C392,171.581,388.418,167.999,384,167.999z M376,328H136V184h240V328z M64,231.999c0,4.418-3.582,8-8,8H40c-4.418,0-8-3.582-8-8
	s3.582-8,8-8h16C60.418,223.999,64,227.581,64,231.999z M112,231.999c0,4.418-3.581,8-8,8H88c-4.419,0-8-3.582-8-8s3.581-8,8-8h16
	C108.419,223.999,112,227.581,112,231.999z M80,247.999v16c0,4.418-3.581,8-8,8s-8-3.582-8-8v-16c0-4.418,3.581-8,8-8
	S80,243.581,80,247.999z M64,215.999v-16c0-4.418,3.581-8,8-8s8,3.582,8,8v16c0,4.418-3.581,8-8,8S64,220.417,64,215.999z M456,260
	c0,6.617-5.383,12-12,12s-12-5.383-12-12s5.383-12,12-12S456,253.383,456,260z M456,203.999c0,6.617-5.383,12-12,12s-12-5.383-12-12
	s5.383-12,12-12S456,197.383,456,203.999z M484,231.999c0,6.617-5.383,12-12,12s-12-5.383-12-12s5.383-12,12-12
	S484,225.383,484,231.999z M428,231.999c0,6.617-5.383,12-12,12s-12-5.383-12-12s5.383-12,12-12S428,225.383,428,231.999z"/>
<g>
</g>
<g>
</g>
<g>
</g>
<g>
</g>
<g>
</g>
<g>
</g>
<g>
</g>
<g>
</g>
<g>
</g>
<g>
</g>
<g>
</g>
<g>
</g>
<g>
</g>
<g>
</g>
<g>
</g>
</svg>
