<?xml version="1.0" encoding="iso-8859-1"?>
<!-- Generator: Adobe Illustrator 19.0.0, SVG Export Plug-In . SVG Version: 6.00 Build 0)  -->
<svg version="1.1" id="Layer_1" xmlns="http://www.w3.org/2000/svg" xmlns:xlink="http://www.w3.org/1999/xlink" x="0px" y="0px"
	 viewBox="0 0 512.001 512.001" style="enable-background:new 0 0 512.001 512.001;" xml:space="preserve">
<g>
	<path style="fill:#C7CFE2;" d="M136.058,448.004H15.996c-4.4,0-8-3.6-8-8V71.997c0-4.4,3.6-8,8-8h120.062L136.058,448.004z"/>
	<path style="fill:#C7CFE2;" d="M375.941,63.997h120.062c4.4,0,8,3.6,8,8v368.005c0,4.4-3.6,8-8,8H375.941V63.997z"/>
</g>
<polygon style="fill:#AEB5CA;" points="376.001,63.997 376.001,159.999 376.001,352.002 376.001,448.004 135.998,448.004 
	135.998,352.002 135.998,159.999 135.998,63.997 "/>
<path style="fill:#D7DEED;" d="M352.026,138.165c34.162,27.873,55.976,70.307,55.976,117.835
	c0,83.949-68.054,152.003-152.003,152.003S103.996,339.95,103.996,256.001s68.054-152.003,152.003-152.003
	c26.043,0,50.557,6.55,71.984,18.092"/>
<circle style="fill:#00DCC8;" cx="71.995" cy="384.003" r="31.984"/>
<circle style="fill:#82B9FF;" cx="440.005" cy="384.003" r="31.984"/>
<path d="M496.004,56.001H375.941c-4.416,0-7.996,3.579-7.996,7.996c0,0.065,0.008,0.128,0.01,0.193H144.045
	c0.001-0.065,0.01-0.128,0.01-0.193c0-4.416-3.579-7.996-7.996-7.996H15.996C7.175,56.001,0,63.178,0,71.997v368.006
	C0,448.824,7.175,456,15.996,456h120.062c4.417,0,7.996-3.58,7.996-7.996h223.892c0,4.416,3.58,7.996,7.996,7.996h120.062
	c8.821,0,15.996-7.175,15.996-15.996V71.997C512,63.178,504.825,56.001,496.004,56.001z M256,400.007
	c-79.405,0-144.007-64.6-144.007-144.007c0-79.405,64.6-144.007,144.007-144.007c23.801,0,47.381,5.925,68.192,17.136
	c3.886,2.095,8.737,0.641,10.832-3.247c2.095-3.888,0.641-8.738-3.247-10.832C308.642,102.588,282.44,96.002,256,96.002
	c-43.572,0-83.123,17.514-112.006,45.864V80.183h224.012v61.569c-3.475-3.402-7.113-6.672-10.925-9.782
	c-3.421-2.792-8.458-2.281-11.251,1.14c-2.792,3.421-2.281,8.459,1.14,11.251c33.705,27.5,53.035,68.191,53.035,111.639
	C400.007,335.406,335.405,400.007,256,400.007z M15.992,440.004l0.004-368.01h112.006v88.005c0,0.034,0.005,0.067,0.005,0.101
	c-20.088,26.742-32.005,59.956-32.005,95.901s11.917,69.158,32.005,95.901c0,0.034-0.005,0.067-0.005,0.101v88.005L15.992,440.004z
	 M143.994,432.012v-61.876c28.883,28.349,68.435,45.864,112.006,45.864s83.123-17.514,112.005-45.864v61.876H143.994z
	 M496.004,440.008H383.997v-88.005c0-0.034-0.005-0.067-0.005-0.101c20.088-26.742,32.005-59.956,32.005-95.901
	c0-35.127-11.381-68.623-32-96.037V71.994l112.01,0.004L496.004,440.008z M440.003,344.006c3.385,0,6.752,0.425,10.005,1.264
	c4.276,1.102,6.85,5.462,5.747,9.739c-1.102,4.276-5.46,6.85-9.739,5.746c-1.95-0.503-3.973-0.758-6.013-0.758
	c-13.237,0-24.004,10.768-24.004,24.004c0,13.237,10.768,24.004,24.004,24.004c13.237,0,24.004-10.768,24.004-24.004
	c0-2.04-0.255-4.064-0.758-6.014c-1.102-4.276,1.471-8.637,5.748-9.739c4.277-1.102,8.637,1.471,9.739,5.748
	c0.839,3.253,1.263,6.62,1.263,10.006c0,22.054-17.942,39.996-39.996,39.996s-39.996-17.942-39.996-39.996
	C400.007,361.949,417.949,344.006,440.003,344.006z M111.993,384.002c0,22.054-17.942,39.996-39.996,39.996S32,406.056,32,384.002
	s17.942-39.996,39.996-39.996c3.385,0,6.752,0.425,10.005,1.264c4.276,1.102,6.849,5.462,5.746,9.739
	c-1.102,4.276-5.46,6.85-9.739,5.746c-1.95-0.503-3.973-0.758-6.013-0.758c-13.237,0-24.004,10.768-24.004,24.004
	c0,13.237,10.768,24.004,24.004,24.004S96,397.239,96,384.002c0-2.04-0.255-4.064-0.758-6.014c-1.102-4.276,1.471-8.637,5.747-9.739
	c4.278-1.102,8.637,1.471,9.739,5.748C111.569,377.25,111.993,380.617,111.993,384.002z M40.097,312.074
	c0-8.821,7.176-15.996,15.996-15.996s15.996,7.176,15.996,15.996c0,8.821-7.175,15.996-15.996,15.996S40.097,320.895,40.097,312.074
	z"/>
<g>
</g>
<g>
</g>
<g>
</g>
<g>
</g>
<g>
</g>
<g>
</g>
<g>
</g>
<g>
</g>
<g>
</g>
<g>
</g>
<g>
</g>
<g>
</g>
<g>
</g>
<g>
</g>
<g>
</g>
</svg>
