<?xml version="1.0" encoding="iso-8859-1"?>
<!-- Generator: Adobe Illustrator 19.0.0, SVG Export Plug-In . SVG Version: 6.00 Build 0)  -->
<svg version="1.1" id="Layer_1" xmlns="http://www.w3.org/2000/svg" xmlns:xlink="http://www.w3.org/1999/xlink" x="0px" y="0px"
	 viewBox="0 0 512.001 512.001" style="enable-background:new 0 0 512.001 512.001;" xml:space="preserve">
<path style="fill:#464655;" d="M463.354,436.114c25.671-39.059,40.651-85.771,40.651-136.003
	c0-136.969-111.035-248.005-248.005-248.005S7.996,163.143,7.996,300.112c0,50.232,14.98,96.943,40.651,136.003L463.354,436.114
	L463.354,436.114z"/>
<path style="fill:#FF6464;" d="M256.001,94.434c-113.879,0-206.527,92.647-206.527,206.527c0,40.398,11.707,79.563,33.855,113.262
	l2.335,3.553h340.672l2.335-3.553c22.148-33.699,33.854-72.866,33.854-113.262C462.526,187.081,369.879,94.434,256.001,94.434z"/>
<path style="fill:#707487;" d="M412.893,401.383c19.424-29.553,30.758-64.898,30.758-102.905c0-103.637-84.014-187.65-187.65-187.65
	S68.349,194.841,68.349,298.478c0,38.007,11.335,73.351,30.758,102.905L412.893,401.383L412.893,401.383z"/>
<path style="fill:#FF6464;" d="M343.819,443.901c0,8.795-7.196,15.992-15.992,15.992H183.903c-8.795,0-15.992-7.196-15.992-15.992
	v-31.983c0-8.795,7.196-15.992,15.992-15.992h143.924c8.795,0,15.992,7.196,15.992,15.992V443.901z"/>
<path d="M224.325,295.622l-121.811-50.221c-4.083-1.683-6.028-6.357-4.345-10.44c1.683-4.083,6.356-6.028,10.44-4.345
	l121.856,50.239c5.846-7.733,15.115-12.741,25.535-12.741c4.416,0,7.996,3.579,7.996,7.996c0,4.416-3.58,7.996-7.996,7.996
	c-6.116,0-11.436,3.451-14.13,8.505c-0.1,0.477-0.239,0.951-0.432,1.417c-0.199,0.482-0.451,0.921-0.727,1.34
	c-0.466,1.499-0.718,3.091-0.718,4.741c0,8.825,7.18,16.005,16.005,16.005c8.824,0,16.005-7.179,16.005-16.005
	c0-4.416,3.58-7.996,7.996-7.996s7.996,3.58,7.996,7.996c0,17.643-14.353,31.996-31.996,31.996
	c-17.643,0-31.996-14.353-31.996-31.996C224.004,298.588,224.118,297.09,224.325,295.622z M437.019,119.093
	c-48.352-48.352-112.639-74.981-181.019-74.981s-132.667,26.629-181.02,74.981C26.629,167.445,0,231.732,0,300.112
	c0,50.074,14.511,98.62,41.964,140.393c1.536,2.337,4.087,3.605,6.689,3.605c1.507,0,3.03-0.426,4.384-1.314
	c3.69-2.426,4.716-7.383,2.291-11.073c-6.829-10.391-12.794-21.233-17.888-32.426l22.057-9.137c4.08-1.69,6.018-6.368,4.328-10.448
	c-1.69-4.08-6.369-6.016-10.448-4.327l-22.072,9.143c-9.163-24.348-14.308-50.113-15.177-76.421h23.867
	c4.416,0,7.996-3.58,7.996-7.996s-3.58-7.996-7.996-7.996H16.139c0.883-26.805,6.18-52.508,15.19-76.412l22.049,9.133
	c1,0.415,2.037,0.611,3.057,0.611c3.137,0,6.115-1.859,7.39-4.937c1.69-4.08-0.248-8.757-4.328-10.448l-22.04-9.129
	c10.897-23.918,25.617-45.739,43.361-64.696l16.789,16.789c1.561,1.561,3.607,2.342,5.654,2.342s4.093-0.781,5.654-2.342
	c3.123-3.122,3.123-8.185,0-11.307l-16.789-16.789c18.957-17.745,40.778-32.463,64.696-43.361l9.129,22.04
	c1.275,3.079,4.253,4.937,7.39,4.937c1.019,0,2.057-0.196,3.057-0.611c4.08-1.69,6.018-6.368,4.328-10.448l-9.133-22.049
	c23.902-9.01,49.607-14.307,76.412-15.19v23.857c0,4.416,3.579,7.996,7.996,7.996c4.416,0,7.996-3.58,7.996-7.996V60.25
	c26.805,0.883,52.508,6.18,76.411,15.19l-9.133,22.049c-1.69,4.08,0.247,8.757,4.327,10.448c1,0.415,2.037,0.611,3.057,0.611
	c3.137,0,6.115-1.859,7.39-4.937l9.129-22.04c23.918,10.897,45.739,25.617,64.696,43.36l-16.789,16.789
	c-3.123,3.122-3.123,8.185,0,11.307c1.561,1.561,3.607,2.342,5.654,2.342c2.046,0,4.093-0.781,5.654-2.342l16.789-16.789
	c17.745,18.957,32.463,40.778,43.361,64.696l-22.04,9.129c-4.08,1.69-6.018,6.368-4.328,10.448c1.275,3.079,4.253,4.937,7.39,4.937
	c1.019,0,2.057-0.196,3.057-0.611l22.049-9.133c9.009,23.902,14.307,49.606,15.19,76.411h-23.856c-4.417,0-7.996,3.58-7.996,7.996
	c0,4.416,3.579,7.996,7.996,7.996h23.866c-0.868,26.308-6.014,52.073-15.176,76.421l-22.073-9.143
	c-4.079-1.687-8.756,0.247-10.448,4.327c-1.69,4.08,0.247,8.757,4.328,10.448l22.057,9.137
	c-5.093,11.194-11.058,22.035-17.888,32.426c-2.426,3.69-1.399,8.647,2.291,11.073c3.689,2.424,8.647,1.399,11.073-2.291
	c27.454-41.772,41.964-90.32,41.964-140.393C512,231.732,485.371,167.445,437.019,119.093z M351.815,411.918v31.983
	c0,13.226-10.761,23.987-23.987,23.987H183.903c-13.226,0-23.987-10.761-23.987-23.987v-31.983
	c0-13.226,10.761-23.987,23.987-23.987h143.924C341.054,387.931,351.815,398.692,351.815,411.918z M335.824,411.918
	c0-4.409-3.587-7.996-7.996-7.996H183.903c-4.409,0-7.996,3.587-7.996,7.996v31.983c0,4.409,3.587,7.996,7.996,7.996h143.924
	c4.409,0,7.996-3.587,7.996-7.996V411.918z M263.861,419.914H247.87c-4.417,0-7.996,3.58-7.996,7.996
	c0,4.417,3.579,7.996,7.996,7.996h15.992c4.416,0,7.996-3.579,7.996-7.996C271.857,423.494,268.277,419.914,263.861,419.914z
	 M223.882,419.914h-15.992c-4.417,0-7.996,3.58-7.996,7.996c0,4.417,3.579,7.996,7.996,7.996h15.992
	c4.417,0,7.996-3.579,7.996-7.996C231.878,423.494,228.299,419.914,223.882,419.914z M303.84,419.914h-15.992
	c-4.416,0-7.996,3.58-7.996,7.996c0,4.417,3.58,7.996,7.996,7.996h15.992c4.416,0,7.996-3.579,7.996-7.996
	C311.836,423.494,308.256,419.914,303.84,419.914z"/>
<g>
</g>
<g>
</g>
<g>
</g>
<g>
</g>
<g>
</g>
<g>
</g>
<g>
</g>
<g>
</g>
<g>
</g>
<g>
</g>
<g>
</g>
<g>
</g>
<g>
</g>
<g>
</g>
<g>
</g>
</svg>
