<?xml version="1.0" encoding="iso-8859-1"?>
<!-- Generator: Adobe Illustrator 19.0.0, SVG Export Plug-In . SVG Version: 6.00 Build 0)  -->
<svg version="1.1" id="Layer_1" xmlns="http://www.w3.org/2000/svg" xmlns:xlink="http://www.w3.org/1999/xlink" x="0px" y="0px"
	 viewBox="0 0 512 512" style="enable-background:new 0 0 512 512;" xml:space="preserve">
<path style="fill:#5B5D6E;" d="M256,8C119.033,8,8,119.033,8,256s111.033,248,248,248s248-111.033,248-248S392.967,8,256,8z
	 M320,453.952V448c0-8.8-7.2-16-16-16h-96c-8.8,0-16,7.2-16,16v5.952C128.607,433.47,78.53,383.393,58.048,320H64
	c8.8,0,16-7.2,16-16v-96c0-8.8-7.2-16-16-16h-5.952C85.044,108.443,163.457,48,256,48s170.956,60.443,197.952,144H448
	c-8.8,0-16,7.2-16,16v96c0,8.8,7.2,16,16,16h5.952C433.47,383.393,383.393,433.47,320,453.952z"/>
<path style="fill:#E4EAF6;" d="M433,200h-99.023c-17.427-24.223-45.858-40-77.977-40s-60.55,15.777-77.977,40H80v112h88.048
	C185.695,312,200,326.299,200,343.946c0,42.422,0,88.054,0,88.054h112c0,0,0-45.632,0-88.054C312,326.299,326.306,312,343.952,312
	H432L433,200z"/>
<circle style="fill:#C7CFE2;" cx="256" cy="256" r="64"/>
<path d="M328,256c0-39.701-32.299-72-72-72s-72,32.299-72,72s32.299,72,72,72S328,295.701,328,256z M256,312
	c-30.878,0-56-25.122-56-56s25.122-56,56-56s56,25.122,56,56S286.878,312,256,312z M453.952,312H448c-4.411,0-8-3.589-8-8v-96
	c0-4.411,3.589-8,8-8h5.952c2.559,0,4.963-1.224,6.468-3.292c1.505-2.068,1.931-4.732,1.145-7.167
	c-13.932-43.12-40.644-80.226-77.251-107.306C346.963,54.604,302.593,40,256,40s-90.963,14.604-128.314,42.234
	c-36.606,27.08-63.319,64.186-77.25,107.306c-0.786,2.435-0.361,5.099,1.145,7.167c1.505,2.069,3.91,3.292,6.468,3.292H64
	c4.411,0,8,3.589,8,8v96c0,4.411-3.589,8-8,8h-5.952c-2.559,0-4.963,1.224-6.468,3.293c-1.505,2.068-1.931,4.732-1.145,7.167
	c21.27,65.833,73.271,117.835,139.105,139.105c0.805,0.26,1.634,0.387,2.459,0.387c1.671,0,3.323-0.524,4.708-1.532
	c2.069-1.505,3.292-3.91,3.292-6.468V448c0-4.411,3.589-8,8-8h96c4.411,0,8,3.589,8,8v5.952c0,2.559,1.224,4.963,3.293,6.468
	c2.068,1.505,4.731,1.931,7.167,1.144c65.833-21.27,117.835-73.271,139.104-139.104c0.787-2.435,0.361-5.099-1.144-7.167
	C458.915,313.224,456.51,312,453.952,312z M69.146,184.555C98.616,107.236,172.428,56,256,56s157.384,51.236,186.854,128.555
	c-4.996,1.096-9.4,3.766-12.701,7.445h-92.179c-19.651-25.123-49.986-40-81.974-40s-62.323,14.877-81.974,40H81.847
	C78.545,188.321,74.142,185.651,69.146,184.555z M184.557,442.848c-52.982-20.271-95.134-62.422-115.404-115.404
	c4.993-1.097,9.395-3.766,12.694-7.443h86.202c13.207,0,23.952,10.742,23.952,23.946v86.207
	C188.323,433.453,185.653,437.854,184.557,442.848z M208.001,424v-80.054c0-22.026-17.922-39.946-39.952-39.946H88v-96h90.023
	c2.574,0,4.991-1.238,6.494-3.328C201.037,181.709,227.759,168,256,168s54.963,13.709,71.483,36.672
	c1.503,2.089,3.92,3.328,6.494,3.328H424v96h-80.048C321.923,304,304,321.919,304,343.946V424l0,0H208.001z M327.443,442.848
	c-1.097-4.993-3.766-9.394-7.443-12.694v-86.208C320,330.742,330.745,320,343.952,320h86.201c3.3,3.677,7.701,6.347,12.695,7.443
	C422.577,380.425,380.425,422.577,327.443,442.848z M437.019,74.98C388.667,26.628,324.38,0,256,0S123.332,26.628,74.98,74.98
	S0,187.62,0,256s26.628,132.667,74.98,181.019S187.62,512,256,512s132.667-26.629,181.019-74.981S512,324.38,512,256
	S485.371,123.332,437.019,74.98z M256,496C123.664,496,16,388.336,16,256S123.664,16,256,16s240,107.664,240,240
	S388.336,496,256,496z M128,256c0,4.418-3.581,8-8,8h-16c-4.419,0-8-3.582-8-8c0-4.419,3.581-8,8-8h16
	C124.419,248,128,251.581,128,256z M176,256c0,4.418-3.581,8-8,8h-16c-4.419,0-8-3.582-8-8c0-4.419,3.581-8,8-8h16
	C172.419,248,176,251.581,176,256z M144,272v16c0,4.418-3.581,8-8,8s-8-3.582-8-8v-16c0-4.418,3.581-8,8-8S144,267.582,144,272z
	 M128,240v-16c0-4.419,3.581-8,8-8s8,3.581,8,8v16c0,4.419-3.581,8-8,8S128,244.419,128,240z M364,284c0-6.617,5.383-12,12-12
	s12,5.383,12,12s-5.383,12-12,12S364,290.617,364,284z M364,228c0-6.617,5.383-12,12-12s12,5.383,12,12s-5.383,12-12,12
	S364,234.617,364,228z M392,256c0-6.617,5.383-12,12-12s12,5.383,12,12s-5.383,12-12,12S392,262.617,392,256z M336,256
	c0-6.617,5.383-12,12-12s12,5.383,12,12s-5.383,12-12,12S336,262.617,336,256z M248,352c0,4.418-3.581,8-8,8h-16
	c-4.419,0-8-3.582-8-8s3.581-8,8-8h16C244.419,344,248,347.582,248,352z M296,352c0,4.418-3.582,8-8,8h-16c-4.418,0-8-3.582-8-8
	s3.582-8,8-8h16C292.418,344,296,347.582,296,352z M296,256c0,4.418-3.582,8-8,8s-8-3.582-8-8c0-13.234-10.766-24-24-24
	c-4.419,0-8-3.581-8-8s3.581-8,8-8C278.056,216,296,233.944,296,256z"/>
<g>
</g>
<g>
</g>
<g>
</g>
<g>
</g>
<g>
</g>
<g>
</g>
<g>
</g>
<g>
</g>
<g>
</g>
<g>
</g>
<g>
</g>
<g>
</g>
<g>
</g>
<g>
</g>
<g>
</g>
</svg>
