<?xml version="1.0" encoding="iso-8859-1"?>
<!-- Generator: Adobe Illustrator 19.0.0, SVG Export Plug-In . SVG Version: 6.00 Build 0)  -->
<svg version="1.1" id="Layer_1" xmlns="http://www.w3.org/2000/svg" xmlns:xlink="http://www.w3.org/1999/xlink" x="0px" y="0px"
	 viewBox="0 0 512 512" style="enable-background:new 0 0 512 512;" xml:space="preserve">
<path style="fill:#AE5760;" d="M41,400h23.01c8.831,0,15.99-7.159,15.99-15.99V376h400.003C493.256,376,504,365.256,504,352.003
	V159.997C504,146.744,493.256,136,480.003,136H40"/>
<circle style="fill:#AEB5CA;" cx="240" cy="256" r="56"/>
<g>
	<path style="fill:#EBD2AF;" d="M120,264c0,4.4-3.6,8-8,8H88c-4.4,0-8-3.6-8-8v-16c0-4.4,3.6-8,8-8h24c4.4,0,8,3.6,8,8V264z"/>
	<path style="fill:#EBD2AF;" d="M120,208c0,4.4-3.6,8-8,8H88c-4.4,0-8-3.6-8-8v-16c0-4.4,3.6-8,8-8h24c4.4,0,8,3.6,8,8V208z"/>
	<path style="fill:#EBD2AF;" d="M120,320c0,4.4-3.6,8-8,8H88c-4.4,0-8-3.6-8-8v-16c0-4.4,3.6-8,8-8h24c4.4,0,8,3.6,8,8V320z"/>
</g>
<path d="M480.003,128H48c0-22.056-17.944-40-40-40c-4.418,0-8,3.581-8,8s3.582,8,8,8c13.234,0,24,10.766,24,24v288
	c0,4.418,3.582,8,8,8s8-3.582,8-8v-8h16.01C77.238,408,88,397.238,88,384.01V384h392.003C497.646,384,512,369.646,512,352.003
	V159.997C512,142.354,497.646,128,480.003,128z M496,352.003c0,8.821-7.176,15.997-15.997,15.997H80c-4.419,0-8,3.582-8,8v8.01
	c0,4.406-3.584,7.99-7.99,7.99H48V144h432.003c8.821,0,15.997,7.176,15.997,15.997V352.003z M240,192
	c-22.921,0-43.057,12.12-54.363,30.28c-0.784,0.849-1.379,1.856-1.737,2.954c-5.03,9.136-7.9,19.621-7.9,30.766
	c0,11.406,3.013,22.115,8.264,31.399c0.187,0.398,0.407,0.778,0.656,1.14C196.078,307.353,216.585,320,240,320
	c35.29,0,64-28.71,64-64c0-11.406-3.013-22.115-8.264-31.399c-0.187-0.398-0.407-0.778-0.656-1.14
	C283.922,204.646,263.414,192,240,192z M192,256c0-4.4,0.607-8.658,1.721-12.709c5.356,4.686,11.494,8.502,15.031,10.544
	c3.463,2,9.648,5.303,16.229,7.595c-2.625,2.065-5.997,4.395-10.229,6.838c-8.449,4.878-14.816,7.039-18.36,7.752
	C193.58,269.922,192,263.144,192,256z M288,256c0,4.109-0.521,8.099-1.497,11.908c-5.408-4.777-11.668-8.672-15.255-10.743
	c-3.307-1.909-9.094-5.013-15.339-7.284c2.486-1.889,5.573-3.974,9.339-6.149c8.447-4.876,14.816-7.038,18.36-7.752
	C286.42,242.078,288,248.856,288,256z M273.959,222.11c-6.76,2.295-13.162,5.717-16.71,7.766
	c-3.418,1.973-9.264,5.604-14.486,10.074C242.312,236.702,242,232.729,242,228c0-9.763,1.314-16.361,2.469-19.785
	C255.939,209.28,266.254,214.389,273.959,222.11z M227.634,209.623C226.238,216.632,226,223.899,226,228
	c0,3.885,0.214,10.613,1.424,17.27c-3.027-1.232-6.603-2.942-10.673-5.291c-8.302-4.793-13.33-9.159-15.769-11.883
	C207.379,219.175,216.747,212.529,227.634,209.623z M206.042,289.891c6.759-2.295,13.161-5.718,16.709-7.766
	c3.418-1.973,9.264-5.604,14.486-10.075c0.451,3.248,0.762,7.222,0.762,11.95c0,9.763-1.314,16.361-2.469,19.785
	C224.061,302.72,213.747,297.611,206.042,289.891z M252.366,302.377C253.762,295.368,254,288.101,254,284
	c0-4.096-0.238-11.352-1.629-18.353c3.069,1.237,6.717,2.972,10.878,5.375c8.764,5.06,13.892,9.652,16.163,12.33
	C273.009,292.55,263.477,299.411,252.366,302.377z M472,200v112c0,17.645-14.355,32-32,32H240c-48.523,0-88-39.477-88-88
	s39.477-88,88-88h168c4.418,0,8,3.581,8,8s-3.582,8-8,8H240c-39.701,0-72,32.299-72,72s32.299,72,72,72h200c8.822,0,16-7.178,16-16
	V200c0-8.822-7.178-16-16-16c-4.418,0-8-3.581-8-8s3.582-8,8-8C457.645,168,472,182.355,472,200z M112,232H88
	c-8.822,0-16,7.178-16,16v16c0,8.822,7.178,16,16,16h24c8.822,0,16-7.178,16-16v-16C128,239.178,120.822,232,112,232z M112,264H88
	v-16h24V264z M112,176H88c-8.822,0-16,7.178-16,16v16c0,8.822,7.178,16,16,16h24c8.822,0,16-7.178,16-16v-16
	C128,183.178,120.822,176,112,176z M112,208H88v-16h24V208z M112,288H88c-8.822,0-16,7.178-16,16v16c0,8.822,7.178,16,16,16h24
	c8.822,0,16-7.178,16-16v-16C128,295.178,120.822,288,112,288z M112,320H88v-16h24V320z M440,208c0,4.419-3.582,8-8,8h-24
	c-4.418,0-8-3.581-8-8s3.582-8,8-8h24C436.418,200,440,203.581,440,208z M440,304c0,4.418-3.582,8-8,8h-24c-4.418,0-8-3.582-8-8
	s3.582-8,8-8h24C436.418,296,440,299.582,440,304z M440,232c0,4.419-3.582,8-8,8h-24c-4.418,0-8-3.581-8-8s3.582-8,8-8h24
	C436.418,224,440,227.581,440,232z M440,256c0,4.418-3.582,8-8,8h-24c-4.418,0-8-3.582-8-8c0-4.419,3.582-8,8-8h24
	C436.418,248,440,251.581,440,256z M440,280c0,4.418-3.582,8-8,8h-24c-4.418,0-8-3.582-8-8s3.582-8,8-8h24
	C436.418,272,440,275.582,440,280z"/>
<g>
</g>
<g>
</g>
<g>
</g>
<g>
</g>
<g>
</g>
<g>
</g>
<g>
</g>
<g>
</g>
<g>
</g>
<g>
</g>
<g>
</g>
<g>
</g>
<g>
</g>
<g>
</g>
<g>
</g>
</svg>
