<?xml version="1.0" encoding="iso-8859-1"?>
<!-- Generator: Adobe Illustrator 19.0.0, SVG Export Plug-In . SVG Version: 6.00 Build 0)  -->
<svg version="1.1" id="Layer_1" xmlns="http://www.w3.org/2000/svg" xmlns:xlink="http://www.w3.org/1999/xlink" x="0px" y="0px"
	 viewBox="0 0 512 512" style="enable-background:new 0 0 512 512;" xml:space="preserve">
<path style="fill:#E4EAF6;" d="M340,472c0,17.6-14.4,32-32,32H204c-17.6,0-32-14.4-32-32V40c0-17.6,14.4-32,32-32h104
	c17.6,0,32,14.4,32,32V472z"/>
<path style="fill:#464655;" d="M292,72h-24V48c0-4.4-3.6-8-8-8h-8c-4.4,0-8,3.6-8,8v24h-24c-4.4,0-8,3.6-8,8v8c0,4.4,3.6,8,8,8h24
	v24c0,4.4,3.6,8,8,8h8c4.4,0,8-3.6,8-8V96h24c4.4,0,8-3.6,8-8v-8C300,75.6,296.4,72,292,72z"/>
<circle style="fill:#FFFFFF;" cx="256" cy="188" r="28"/>
<circle style="fill:#82B9FF;" cx="256" cy="348" r="22"/>
<circle style="fill:#FF6464;" cx="256" cy="412" r="22"/>
<path d="M308,0H204c-22.056,0-40,17.944-40,40v432c0,22.056,17.944,40,40,40h104c22.056,0,40-17.944,40-40V40
	C348,17.944,330.056,0,308,0z M332,472c0,13.234-10.766,24-24,24H204c-13.234,0-24-10.766-24-24V40c0-13.234,10.766-24,24-24h104
	c13.234,0,24,10.766,24,24V472z M292,64h-16V48c0-8.822-7.178-16-16-16h-8c-8.822,0-16,7.178-16,16v16h-16c-8.822,0-16,7.177-16,16
	v8c0,8.823,7.178,16,16,16h16v16c0,8.822,7.178,16,16,16h8c8.822,0,16-7.178,16-16v-16h16c8.822,0,16-7.177,16-16v-8
	C308,71.177,300.822,64,292,64z M292,88h-24c-4.418,0-8,3.582-8,8v24h-8V96c0-4.418-3.581-8-8-8h-24v-8h24c4.419,0,8-3.582,8-8V48h8
	v24c0,4.418,3.582,8,8,8h24V88z M291.171,180.292c0.55,2.517,0.829,5.111,0.829,7.708c0,19.851-16.149,36-36,36s-36-16.149-36-36
	s16.149-36,36-36c2.596,0,5.189,0.279,7.707,0.829c4.317,0.943,7.052,5.206,6.109,9.523c-0.942,4.316-5.204,7.051-9.522,6.109
	c-1.399-0.306-2.844-0.46-4.294-0.46c-11.028,0-20,8.972-20,20s8.972,20,20,20c11.028,0,20-8.972,20-20
	c0-1.451-0.155-2.895-0.46-4.293c-0.943-4.316,1.792-8.58,6.108-9.523C285.966,173.244,290.228,175.976,291.171,180.292z M284,348
	c0,15.439-12.56,28-28,28s-28-12.561-28-28s12.561-28,28-28c4.418,0,8,3.582,8,8s-3.582,8-8,8c-6.617,0-12,5.383-12,12
	s5.383,12,12,12s12-5.383,12-12c0-4.418,3.582-8,8-8S284,343.582,284,348z M284,412c0,15.44-12.56,28-28,28s-28-12.56-28-28
	c0-15.439,12.561-28,28-28c4.418,0,8,3.582,8,8s-3.582,8-8,8c-6.617,0-12,5.383-12,12s5.383,12,12,12s12-5.383,12-12
	c0-4.418,3.582-8,8-8S284,407.582,284,412z"/>
<g>
</g>
<g>
</g>
<g>
</g>
<g>
</g>
<g>
</g>
<g>
</g>
<g>
</g>
<g>
</g>
<g>
</g>
<g>
</g>
<g>
</g>
<g>
</g>
<g>
</g>
<g>
</g>
<g>
</g>
</svg>
