<?xml version="1.0" encoding="iso-8859-1"?>
<!-- Generator: Adobe Illustrator 19.0.0, SVG Export Plug-In . SVG Version: 6.00 Build 0)  -->
<svg version="1.1" id="Layer_1" xmlns="http://www.w3.org/2000/svg" xmlns:xlink="http://www.w3.org/1999/xlink" x="0px" y="0px"
	 viewBox="0 0 512 512" style="enable-background:new 0 0 512 512;" xml:space="preserve">
<path style="fill:#5B5D6E;" d="M504,448c0,4.4-3.6,8-8,8H16c-4.4,0-8-3.6-8-8V64c0-4.4,3.6-8,8-8h480c4.4,0,8,3.6,8,8V448z"/>
<path d="M496,48H16C7.178,48,0,55.178,0,64v384c0,8.822,7.178,16,16,16h480c8.822,0,16-7.178,16-16V64C512,55.178,504.822,48,496,48
	z M16,64h232v384H16V64z M496,448H264V64h232V448z M301.657,426.343c3.124,3.124,3.124,8.189,0,11.313
	c-1.562,1.563-3.61,2.344-5.657,2.344s-4.095-0.781-5.657-2.343l-16-16c-3.125-3.124-3.125-8.189,0-11.313
	c3.124-3.124,8.189-3.124,11.313,0L301.657,426.343z M274.343,381.657c-3.125-3.124-3.125-8.189,0-11.313
	c3.124-3.124,8.189-3.124,11.313,0l56,56c3.124,3.124,3.124,8.189,0,11.313C340.095,439.219,338.047,440,336,440
	s-4.095-0.781-5.657-2.343L274.343,381.657z M274.343,341.657c-3.125-3.124-3.125-8.189,0-11.313c3.124-3.124,8.189-3.124,11.313,0
	l96,96c3.124,3.124,3.124,8.189,0,11.313C380.095,439.219,378.047,440,376,440s-4.095-0.781-5.657-2.343L274.343,341.657z
	 M274.343,301.657c-3.125-3.124-3.125-8.189,0-11.313c3.124-3.124,8.189-3.124,11.313,0l136,136c3.124,3.124,3.124,8.189,0,11.313
	C420.095,439.219,418.047,440,416,440s-4.095-0.781-5.657-2.343L274.343,301.657z M274.343,261.657
	c-3.125-3.124-3.125-8.189,0-11.313c3.124-3.124,8.189-3.124,11.313,0l176,176c3.124,3.124,3.124,8.189,0,11.313
	C460.095,439.219,458.047,440,456,440s-4.095-0.781-5.657-2.343L274.343,261.657z M274.343,221.657
	c-3.125-3.124-3.125-8.189,0-11.313c3.124-3.124,8.189-3.124,11.313,0l200,200c3.124,3.124,3.124,8.189,0,11.313
	C484.095,423.219,482.047,424,480,424s-4.095-0.781-5.657-2.343L274.343,221.657z M274.343,181.657
	c-3.125-3.124-3.125-8.189,0-11.313c3.124-3.124,8.189-3.124,11.313,0l200,200c3.124,3.124,3.124,8.189,0,11.313
	C484.095,383.219,482.047,384,480,384s-4.095-0.781-5.657-2.343L274.343,181.657z M274.343,141.657
	c-3.125-3.124-3.125-8.189,0-11.313c3.124-3.124,8.189-3.124,11.313,0l200,200c3.124,3.124,3.124,8.189,0,11.313
	C484.095,343.219,482.047,344,480,344s-4.095-0.781-5.657-2.343L274.343,141.657z M274.343,101.657
	c-3.125-3.124-3.125-8.189,0-11.313c3.124-3.124,8.189-3.124,11.313,0l200,200c3.124,3.124,3.124,8.189,0,11.313
	C484.095,303.219,482.047,304,480,304s-4.095-0.781-5.657-2.343L274.343,101.657z M298.343,85.657
	c-3.125-3.124-3.125-8.189,0-11.313c3.124-3.124,8.189-3.124,11.313,0l176,176c3.124,3.124,3.124,8.189,0,11.313
	C484.095,263.219,482.047,264,480,264s-4.095-0.781-5.657-2.343L298.343,85.657z M338.343,85.657c-3.125-3.124-3.125-8.189,0-11.313
	c3.124-3.124,8.189-3.124,11.313,0l136,136c3.124,3.124,3.124,8.189,0,11.313C484.095,223.219,482.047,224,480,224
	s-4.095-0.781-5.657-2.343L338.343,85.657z M378.343,85.657c-3.125-3.124-3.125-8.189,0-11.313c3.124-3.124,8.189-3.124,11.313,0
	l96,96c3.124,3.124,3.124,8.189,0,11.313C484.095,183.219,482.047,184,480,184s-4.095-0.781-5.657-2.343L378.343,85.657z
	 M418.343,85.657c-3.125-3.124-3.125-8.189,0-11.313c3.124-3.124,8.189-3.124,11.313,0l56,56c3.124,3.124,3.124,8.189,0,11.313
	C484.095,143.219,482.047,144,480,144s-4.095-0.781-5.657-2.343L418.343,85.657z M458.343,85.657c-3.125-3.124-3.125-8.189,0-11.313
	c3.124-3.124,8.189-3.124,11.313,0l16,16c3.124,3.124,3.124,8.189,0,11.313C484.095,103.219,482.047,104,480,104
	s-4.095-0.781-5.657-2.343L458.343,85.657z M45.66,418.34C47.15,419.83,48,421.9,48,424s-0.85,4.16-2.34,5.66
	C44.17,431.15,42.1,432,40,432c-2.11,0-4.17-0.85-5.66-2.34S32,426.1,32,424c0-2.11,0.85-4.17,2.34-5.66S37.89,416,40,416
	C42.1,416,44.17,416.85,45.66,418.34z M88,424c0,4.418-3.581,8-8,8H64c-4.418,0-8-3.582-8-8s3.582-8,8-8h16
	C84.419,416,88,419.582,88,424z"/>
<g>
</g>
<g>
</g>
<g>
</g>
<g>
</g>
<g>
</g>
<g>
</g>
<g>
</g>
<g>
</g>
<g>
</g>
<g>
</g>
<g>
</g>
<g>
</g>
<g>
</g>
<g>
</g>
<g>
</g>
</svg>
