<?xml version="1.0" encoding="iso-8859-1"?>
<!-- Generator: Adobe Illustrator 19.0.0, SVG Export Plug-In . SVG Version: 6.00 Build 0)  -->
<svg version="1.1" id="Layer_1" xmlns="http://www.w3.org/2000/svg" xmlns:xlink="http://www.w3.org/1999/xlink" x="0px" y="0px"
	 viewBox="0 0 512 512" style="enable-background:new 0 0 512 512;" xml:space="preserve">
<path style="fill:#464655;" d="M504.001,415.066c0,4.376-3.595,8.216-7.989,8.527c-159.791,11.2-320.233,11.2-480.023,0
	c-4.395-0.311-7.99-4.153-7.99-8.527c0-116.71,0-201.421,0-318.131c0-4.374,3.595-8.215,7.989-8.527
	c159.791-11.201,320.233-11.201,480.023,0c4.394,0.31,7.989,4.152,7.989,8.527C504.001,213.645,504.001,298.356,504.001,415.066z"/>
<polygon style="fill:#5B5D6E;" points="200.003,430.992 255.501,375.494 310.998,430.992 499.978,420.992 502.989,383.994 
	374.995,256 502.989,128.005 502.977,91.007 310.998,81.008 255.501,136.505 200.003,81.008 11,91.007 8.012,128.005 136.006,256 
	8.012,383.994 11,423.992 "/>
<circle style="fill:#00DC82;" cx="255.999" cy="255.999" r="55.997"/>
<path d="M496.572,80.428c-159.632-11.189-321.511-11.188-481.149,0C6.774,81.043,0,88.293,0,96.935v318.131
	c0,8.645,6.776,15.895,15.429,16.506c79.815,5.595,160.192,8.392,240.57,8.392s160.759-2.797,240.576-8.393
	c8.649-0.611,15.424-7.862,15.424-16.506V96.935C512,88.288,505.224,81.038,496.572,80.428z M496.001,184.003H471.99
	c-4.418,0-8,3.581-8,8s3.582,8,8,8h24.011v15.999h-56.009c-4.418,0-8,3.581-8,8s3.582,8,8,8h56.009V248h-80.008
	c-4.418,0-8,3.581-8,8c0,4.418,3.582,8,8,8h80.008v15.999h-56.009c-4.418,0-8,3.582-8,8c0,4.418,3.582,8,8,8h56.009v15.999H471.99
	c-4.418,0-8,3.582-8,8c0,4.418,3.582,8,8,8h24.011v37.696L386.308,256l109.693-109.693V184.003z M256.001,88.035
	c12.151,0,24.304,0.072,36.455,0.201l-36.956,36.955l-36.945-36.945C231.035,88.111,243.518,88.035,256.001,88.035z M15.999,327.996
	H40.01c4.418,0,8-3.582,8-8c0-4.418-3.582-8-8-8H15.999v-15.999h56.009c4.418,0,8-3.582,8-8c0-4.418-3.582-8-8-8H15.999v-15.999
	h80.008c4.418,0,8-3.582,8-8c0-4.419-3.582-8-8-8H15.999v-15.999h56.009c4.418,0,8-3.581,8-8s-3.582-8-8-8H15.999v-15.999H40.01
	c4.418,0,8-3.581,8-8s-3.582-8-8-8H15.999v-36.696L124.692,256L15.999,364.694V327.996z M218.555,423.753l36.945-36.945
	l36.956,36.955C267.825,424.024,243.186,424.02,218.555,423.753z M495.453,415.612c-59.985,4.205-120.291,6.819-180.673,7.849
	l-53.623-53.623c-3.124-3.124-8.189-3.124-11.312,0l-53.608,53.608c-60.052-1.041-120.027-3.652-179.684-7.834
	c-0.229-0.016-0.547-0.387-0.553-0.547v-27.747l125.663-125.662c3.124-3.124,3.124-8.189,0-11.312L15.999,124.681V96.936
	c0.007-0.16,0.327-0.532,0.549-0.547c59.667-4.182,119.635-6.794,179.688-7.834l53.608,53.608c1.562,1.562,3.609,2.343,5.657,2.343
	c2.047,0,4.095-0.781,5.657-2.343L314.78,88.54c60.382,1.03,120.694,3.645,180.67,7.849c0.224,0.016,0.546,0.392,0.551,0.547v26.746
	L369.338,250.344c-3.125,3.124-3.125,8.189,0,11.312l126.662,126.662v26.747C495.997,415.226,495.68,415.596,495.453,415.612z
	 M256,192.003c-35.287,0-63.997,28.709-63.997,63.997s28.709,63.997,63.997,63.997s63.997-28.709,63.997-63.997
	S291.288,192.003,256,192.003z M256,303.998c-26.466,0-47.998-21.532-47.998-47.998s21.532-47.998,47.998-47.998
	s47.998,21.532,47.998,47.998S282.466,303.998,256,303.998z M287.999,256c0,4.418-3.581,8-8,8h-47.998c-4.418,0-8-3.582-8-8
	c0-4.419,3.582-8,8-8h47.998C284.417,248,287.999,251.582,287.999,256z"/>
<g>
</g>
<g>
</g>
<g>
</g>
<g>
</g>
<g>
</g>
<g>
</g>
<g>
</g>
<g>
</g>
<g>
</g>
<g>
</g>
<g>
</g>
<g>
</g>
<g>
</g>
<g>
</g>
<g>
</g>
</svg>
